<svg width="428" height="264" viewBox="0 0 428 264" fill="none" xmlns="http://www.w3.org/2000/svg">
<rect width="136.65" height="34.595" transform="matrix(0.866025 0.5 0 1 60.541 129.826)" fill="#262626" stroke="white" stroke-opacity="0.4" stroke-width="0.864874"/>
<rect width="234.381" height="34.595" transform="matrix(0.866025 -0.5 0 1 178.885 198.151)" fill="black" stroke="white" stroke-opacity="0.4" stroke-width="0.864874"/>
<path d="M121.017 199.203L0.865234 268.572" stroke="url(#paint0_linear_1002_446)" stroke-width="1.72975" stroke-linecap="round"/>
<path d="M426.82 12.2026L338.17 63.3846" stroke="url(#paint1_linear_1002_446)" stroke-width="1.72975" stroke-linecap="round"/>
<g filter="url(#filter0_ddi_1002_446)">
<rect width="234.343" height="138.066" transform="matrix(0.866025 -0.5 0.866025 0.5 59.6777 129.374)" fill="black" fill-opacity="0.01" shape-rendering="crispEdges"/>
<rect x="0.749003" width="233.478" height="137.201" transform="matrix(0.866025 -0.5 0.866025 0.5 59.7781 129.749)" stroke="url(#paint2_radial_1002_446)" style="mix-blend-mode:plus-lighter" stroke-width="0.864874" shape-rendering="crispEdges"/>
<path d="M87.0626 133.199L82.2367 127.366L82.9311 126.965L87.757 132.798L87.0626 133.199ZM133.704 123.168C133.259 123.425 132.822 123.557 132.394 123.564C131.965 123.57 131.537 123.45 131.109 123.203L126.7 120.657L127.429 120.236L131.838 122.782C132.052 122.905 132.261 122.969 132.463 122.972C132.66 122.972 132.86 122.914 133.062 122.797L134.295 122.085L134.937 122.456L133.704 123.168ZM126.899 122.526L126.257 122.155L130.337 119.8L130.979 120.171L126.899 122.526ZM135.836 121.937L135.168 119.597L131.323 119.231L132.173 118.74L135.116 119.045L134.56 117.362L135.428 116.86L136.088 119.085L140.107 119.471L139.256 119.962L136.123 119.627L136.704 121.436L135.836 121.937ZM142.791 114.274L142.114 113.883L145.933 111.678L146.61 112.069L142.791 114.274ZM144.587 115.311L143.91 114.92L147.729 112.715L148.406 113.106L144.587 115.311ZM187.195 92.4049C186.738 92.6689 186.22 92.7908 185.642 92.7708C185.057 92.7474 184.493 92.5787 183.949 92.2646L180.989 90.5558L181.718 90.1348L184.478 91.7284C184.924 91.9857 185.332 92.131 185.702 92.1644C186.073 92.1911 186.423 92.1093 186.753 91.9189C187.111 91.7117 187.279 91.4812 187.256 91.2273C187.227 90.97 187.007 90.7228 186.596 90.4856L183.854 88.9021L184.583 88.4811L189.183 91.1371L188.489 91.538L187.351 90.8815L187.525 90.8514C187.809 91.1221 187.924 91.3927 187.872 91.6633C187.814 91.9305 187.589 92.1778 187.195 92.4049ZM193.033 88.914C192.588 89.1713 192.151 89.3033 191.723 89.3099C191.294 89.3166 190.866 89.1963 190.438 88.9491L186.029 86.4034L186.758 85.9825L191.167 88.5282C191.381 88.6518 191.59 88.7153 191.792 88.7186C191.989 88.7186 192.189 88.6601 192.391 88.5432L193.624 87.8316L194.266 88.2024L193.033 88.914ZM186.228 88.2726L185.586 87.9018L189.666 85.5465L190.308 85.9173L186.228 88.2726ZM197.483 86.4655C197.049 86.7161 196.574 86.8764 196.059 86.9466C195.55 87.0134 195.029 86.9933 194.497 86.8864C193.964 86.7728 193.455 86.5757 192.969 86.2951C192.483 86.0145 192.145 85.7222 191.954 85.4181C191.768 85.1108 191.731 84.8118 191.841 84.5211C191.951 84.2238 192.217 83.9532 192.639 83.7093C193.039 83.4788 193.487 83.3301 193.985 83.2633C194.477 83.1931 194.989 83.2115 195.521 83.3184C196.053 83.4253 196.577 83.6274 197.092 83.9248L197.309 84.0501L193.959 85.9844C194.479 86.2517 194.98 86.3903 195.46 86.4003C195.946 86.407 196.389 86.2951 196.788 86.0646C197.089 85.8909 197.266 85.7088 197.318 85.5184C197.37 85.3212 197.318 85.1342 197.162 84.9571L198.003 84.5412C198.293 84.8485 198.4 85.1776 198.325 85.5284C198.249 85.8725 197.969 86.1849 197.483 86.4655ZM193.316 85.6136L195.868 84.1403C195.388 83.9031 194.931 83.7895 194.497 83.7995C194.063 83.8095 193.675 83.9131 193.334 84.1102C192.981 84.314 192.798 84.5462 192.787 84.8068C192.775 85.0607 192.952 85.3296 193.316 85.6136ZM200.109 84.8288L199.441 82.4885L195.596 82.1227L196.446 81.6316L199.389 81.9373L198.833 80.2535L199.701 79.7523L200.361 81.9774L204.38 82.3632L203.529 82.8543L200.396 82.5186L200.977 84.3276L200.109 84.8288ZM207.293 80.8017C206.87 81.0455 206.402 81.2026 205.887 81.2727C205.377 81.3395 204.857 81.3195 204.324 81.2126C203.786 81.1023 203.274 80.9069 202.788 80.6263C202.296 80.3423 201.958 80.0466 201.772 79.7393C201.587 79.4319 201.552 79.1312 201.668 78.8372C201.79 78.5399 202.062 78.2693 202.484 78.0254C202.907 77.7815 203.372 77.6262 203.882 77.5594C204.397 77.4892 204.92 77.5076 205.453 77.6145C205.985 77.7214 206.497 77.9168 206.989 78.2008C207.475 78.4814 207.814 78.7771 208.004 79.0878C208.19 79.3952 208.221 79.6975 208.1 79.9948C207.984 80.2888 207.715 80.5578 207.293 80.8017ZM206.598 80.4008C207.021 80.1569 207.197 79.8813 207.128 79.5739C207.058 79.2599 206.757 78.9492 206.225 78.6418C205.693 78.3344 205.157 78.1624 204.619 78.1256C204.081 78.0822 203.601 78.1824 203.179 78.4263C202.756 78.6702 202.58 78.9492 202.649 79.2632C202.718 79.5706 203.019 79.8779 203.552 80.1853C204.084 80.4926 204.619 80.668 205.157 80.7115C205.696 80.7482 206.176 80.6446 206.598 80.4008ZM211.594 78.1978L210.536 77.5864L211.612 76.965L212.671 77.5764L211.594 78.1978ZM217.302 75.0226C216.874 75.2698 216.403 75.4285 215.888 75.4986C215.373 75.5688 214.849 75.5504 214.317 75.4435C213.778 75.3333 213.266 75.1378 212.78 74.8572C212.294 74.5766 211.959 74.2826 211.773 73.9752C211.588 73.6679 211.556 73.3655 211.678 73.0682C211.794 72.7675 212.066 72.4935 212.494 72.2463C212.835 72.0492 213.203 71.9106 213.596 71.8304C213.984 71.7469 214.383 71.7235 214.794 71.7602C215.205 71.797 215.613 71.8955 216.018 72.0559L215.306 72.527C214.93 72.39 214.557 72.3349 214.186 72.3616C213.816 72.3816 213.483 72.4768 213.188 72.6472C212.766 72.8911 212.586 73.1717 212.65 73.4891C212.714 73.7998 213.012 74.1088 213.544 74.4162C214.076 74.7236 214.615 74.8973 215.158 74.9374C215.702 74.9708 216.186 74.8655 216.608 74.6217C216.903 74.4513 217.071 74.2542 217.111 74.0303C217.158 73.8032 217.042 73.5693 216.764 73.3288L217.58 72.9178C217.858 73.1517 218.034 73.3939 218.11 73.6445C218.179 73.8917 218.147 74.1339 218.014 74.3711C217.881 74.6083 217.644 74.8255 217.302 75.0226ZM221.396 72.5389L216.796 69.883L217.403 69.5322L218.636 70.1636L218.549 70.1937C218.213 69.9331 218.048 69.6942 218.054 69.477C218.066 69.2565 218.234 69.0528 218.558 68.8657L219.504 68.3194L220.163 68.7003L219.226 69.2415C219 69.3718 218.856 69.5088 218.792 69.6524C218.728 69.7894 218.743 69.9314 218.835 70.0784C218.922 70.2221 219.093 70.3674 219.347 70.5144L222.125 72.118L221.396 72.5389ZM220.198 73.2305L219.556 72.8597L222.941 70.9053L223.583 71.2761L220.198 73.2305ZM216.24 70.9453L215.598 70.5745L217.195 69.6524L217.837 70.0233L216.24 70.9453ZM227.147 69.3387C226.713 69.5892 226.239 69.7496 225.724 69.8198C225.214 69.8866 224.694 69.8665 224.161 69.7596C223.629 69.646 223.12 69.4489 222.634 69.1683C222.148 68.8877 221.809 68.5953 221.618 68.2913C221.433 67.984 221.395 67.685 221.505 67.3943C221.615 67.097 221.881 66.8264 222.304 66.5825C222.703 66.352 223.152 66.2033 223.649 66.1365C224.141 66.0663 224.653 66.0847 225.186 66.1916C225.718 66.2985 226.242 66.5006 226.757 66.798L226.974 66.9233L223.623 68.8576C224.144 69.1249 224.645 69.2635 225.125 69.2735C225.611 69.2802 226.054 69.1683 226.453 68.9378C226.754 68.7641 226.93 68.582 226.982 68.3916C227.034 68.1944 226.982 68.0074 226.826 67.8303L227.668 67.4144C227.957 67.7217 228.064 68.0508 227.989 68.4016C227.914 68.7457 227.633 69.0581 227.147 69.3387ZM222.981 68.4868L225.533 67.0135C225.052 66.7763 224.595 66.6627 224.161 66.6727C223.727 66.6827 223.34 66.7863 222.998 66.9834C222.645 67.1872 222.463 67.4194 222.451 67.68C222.44 67.9339 222.616 68.2028 222.981 68.4868ZM231.406 66.8801C231.116 67.0471 230.804 67.1674 230.468 67.2409C230.133 67.3144 229.806 67.3361 229.487 67.3061C229.163 67.2727 228.877 67.1841 228.628 67.0405C228.235 66.8133 228.046 66.5711 228.064 66.3138C228.081 66.0499 228.292 65.7442 228.697 65.3968L229.93 64.3244C229.537 64.0972 229.155 63.9803 228.784 63.9736C228.42 63.9635 228.073 64.0537 227.743 64.2442C227.424 64.4279 227.248 64.6133 227.213 64.8004C227.173 64.9842 227.251 65.1729 227.448 65.3667L226.614 65.7776C226.267 65.477 226.122 65.1562 226.18 64.8155C226.238 64.468 226.528 64.144 227.048 63.8433C227.604 63.5226 228.203 63.3705 228.845 63.3873C229.482 63.4006 230.092 63.576 230.676 63.9134L232.586 65.0159C232.69 65.076 232.786 65.1044 232.872 65.1011C232.959 65.0978 233.049 65.0694 233.142 65.0159L233.437 64.8455L234.079 65.2164C234.05 65.2398 233.998 65.2732 233.923 65.3166C233.853 65.3634 233.784 65.4068 233.714 65.4469C233.518 65.5605 233.318 65.639 233.115 65.6824C232.919 65.7225 232.716 65.7225 232.508 65.6824C232.294 65.639 232.071 65.5538 231.84 65.4268L231.978 65.3467C232.135 65.4836 232.216 65.644 232.221 65.8277C232.227 66.0048 232.161 66.1869 232.022 66.374C231.877 66.5577 231.672 66.7264 231.406 66.8801ZM230.833 66.4692C231.145 66.2888 231.353 66.1084 231.458 65.928C231.556 65.7442 231.562 65.5672 231.475 65.3968C231.382 65.223 231.209 65.0627 230.954 64.9157L230.555 64.6852L229.427 65.6574C229.172 65.8712 229.045 66.0482 229.045 66.1886C229.039 66.3255 229.131 66.4491 229.322 66.5594C229.537 66.683 229.777 66.7381 230.043 66.7248C230.309 66.7047 230.572 66.6195 230.833 66.4692ZM237.53 63.2238C237.085 63.4811 236.648 63.6131 236.219 63.6197C235.791 63.6264 235.363 63.5061 234.935 63.2589L230.525 60.7132L231.255 60.2922L235.664 62.838C235.878 62.9616 236.086 63.0251 236.289 63.0284C236.486 63.0284 236.685 62.9699 236.888 62.853L238.12 62.1414L238.763 62.5122L237.53 63.2238ZM230.725 62.5824L230.083 62.2116L234.162 59.8563L234.805 60.2271L230.725 62.5824ZM241.979 60.7753C241.545 61.0258 241.071 61.1862 240.556 61.2564C240.047 61.3232 239.526 61.3031 238.994 61.1962C238.461 61.0826 237.952 60.8855 237.466 60.6049C236.98 60.3243 236.641 60.0319 236.45 59.7279C236.265 59.4206 236.228 59.1216 236.338 58.8309C236.448 58.5336 236.714 58.263 237.136 58.0191C237.535 57.7886 237.984 57.6399 238.481 57.5731C238.973 57.5029 239.485 57.5213 240.018 57.6282C240.55 57.7351 241.074 57.9372 241.589 58.2346L241.806 58.3599L238.455 60.2942C238.976 60.5615 239.477 60.7001 239.957 60.7101C240.443 60.7168 240.886 60.6049 241.285 60.3744C241.586 60.2007 241.762 60.0186 241.814 59.8282C241.867 59.631 241.814 59.444 241.658 59.2669L242.5 58.851C242.79 59.1583 242.897 59.4874 242.821 59.8382C242.746 60.1823 242.465 60.4947 241.979 60.7753ZM237.813 59.9234L240.365 58.4501C239.885 58.2129 239.428 58.0993 238.994 58.1093C238.56 58.1193 238.172 58.2229 237.83 58.42C237.478 58.6238 237.295 58.856 237.284 59.1166C237.272 59.3705 237.449 59.6394 237.813 59.9234ZM244.918 58.9581L238.756 55.4001L240.631 54.3177C241.059 54.0705 241.507 53.8984 241.976 53.8016C242.445 53.7047 242.908 53.688 243.365 53.7514C243.816 53.8116 244.239 53.9552 244.632 54.1824C245.026 54.4096 245.277 54.6551 245.387 54.9191C245.491 55.1797 245.46 55.4452 245.292 55.7159C245.124 55.9865 244.826 56.2454 244.398 56.4926L243.269 57.1441L245.665 58.5272L244.918 58.9581ZM242.54 56.7231L243.582 56.1218C244.068 55.8411 244.328 55.5772 244.363 55.33C244.392 55.0794 244.221 54.8472 243.851 54.6334C243.475 54.4163 243.073 54.3177 242.644 54.3378C242.216 54.3578 241.759 54.5081 241.273 54.7888L240.231 55.3901L242.54 56.7231ZM251.182 55.4622C250.893 55.6293 250.58 55.7496 250.244 55.823C249.909 55.8965 249.582 55.9183 249.264 55.8882C248.94 55.8548 248.653 55.7663 248.404 55.6226C248.011 55.3954 247.823 55.1532 247.84 54.896C247.858 54.632 248.069 54.3263 248.474 53.9789L249.706 52.9065C249.313 52.6793 248.931 52.5624 248.561 52.5557C248.196 52.5457 247.849 52.6359 247.519 52.8263C247.201 53.0101 247.024 53.1955 246.99 53.3826C246.949 53.5663 247.027 53.7551 247.224 53.9488L246.391 54.3598C246.043 54.0591 245.899 53.7384 245.957 53.3976C246.015 53.0501 246.304 52.7261 246.825 52.4254C247.38 52.1047 247.979 51.9527 248.621 51.9694C249.258 51.9827 249.868 52.1581 250.453 52.4956L252.362 53.598C252.466 53.6582 252.562 53.6866 252.649 53.6832C252.736 53.6799 252.825 53.6515 252.918 53.598L253.213 53.4277L253.855 53.7985C253.826 53.8219 253.774 53.8553 253.699 53.8987C253.63 53.9455 253.56 53.9889 253.491 54.029C253.294 54.1426 253.094 54.2211 252.892 54.2645C252.695 54.3046 252.493 54.3046 252.284 54.2645C252.07 54.2211 251.847 54.1359 251.616 54.009L251.755 53.9288C251.911 54.0658 251.992 54.2261 251.998 54.4099C252.004 54.5869 251.937 54.769 251.798 54.9561C251.653 55.1398 251.448 55.3086 251.182 55.4622ZM250.609 55.0513C250.921 54.8709 251.13 54.6905 251.234 54.5101C251.332 54.3263 251.338 54.1493 251.251 53.9789C251.159 53.8052 250.985 53.6448 250.731 53.4978L250.331 53.2673L249.203 54.2395C248.948 54.4533 248.821 54.6304 248.821 54.7707C248.815 54.9077 248.908 55.0313 249.099 55.1415C249.313 55.2651 249.553 55.3203 249.819 55.3069C250.085 55.2868 250.349 55.2017 250.609 55.0513ZM256.525 53.7604L255.883 53.3895L256.412 53.0838C256.574 52.9903 256.667 52.9068 256.69 52.8333C256.725 52.7598 256.708 52.6796 256.638 52.5927L256.369 52.247L256.117 52.3923L249.894 50.7737L250.692 50.3126L255.926 51.7208L253.401 48.7491L254.199 48.2881L257.515 52.3572C257.677 52.551 257.729 52.7314 257.671 52.8984C257.613 53.0655 257.431 53.2375 257.124 53.4146L256.525 53.7604ZM259.317 50.6453L254.716 47.9893L255.385 47.6035L256.435 48.1798L256.331 48.2199C256.042 47.9927 255.882 47.7739 255.853 47.5634C255.825 47.3462 255.943 47.1608 256.209 47.0071C256.481 46.8501 256.788 46.7866 257.129 46.8167C257.477 46.8434 257.859 46.957 258.275 47.1575L258.188 47.2076C257.882 46.9704 257.714 46.7399 257.685 46.516C257.662 46.2888 257.789 46.0951 258.067 45.9347C258.437 45.7209 258.834 45.6391 259.256 45.6892C259.678 45.7393 260.185 45.9347 260.775 46.2755L263.83 48.0395L263.101 48.4604L260.15 46.7566C259.739 46.5194 259.409 46.3791 259.16 46.3356C258.906 46.2888 258.686 46.3189 258.501 46.4258C258.379 46.496 258.313 46.5812 258.301 46.6814C258.284 46.7783 258.33 46.8919 258.44 47.0222C258.556 47.1491 258.744 47.2878 259.004 47.4381L261.938 49.1319L261.209 49.5529L258.258 47.849C257.864 47.6218 257.537 47.4832 257.277 47.4331C257.022 47.3796 256.8 47.408 256.609 47.5183C256.487 47.5884 256.421 47.6736 256.409 47.7739C256.392 47.8707 256.438 47.9843 256.548 48.1146C256.664 48.2416 256.852 48.3802 257.112 48.5306L260.046 50.2244L259.317 50.6453ZM266.7 46.5029C266.266 46.7535 265.791 46.9139 265.276 46.984C264.767 47.0508 264.246 47.0308 263.714 46.9239C263.182 46.8103 262.672 46.6132 262.186 46.3326C261.7 46.0519 261.362 45.7596 261.171 45.4556C260.986 45.1482 260.948 44.8492 261.058 44.5586C261.168 44.2612 261.434 43.9906 261.857 43.7467C262.256 43.5162 262.704 43.3676 263.202 43.3007C263.694 43.2306 264.206 43.249 264.738 43.3559C265.271 43.4628 265.794 43.6649 266.309 43.9622L266.526 44.0875L263.176 46.0219C263.697 46.2891 264.197 46.4278 264.677 46.4378C265.164 46.4445 265.606 46.3326 266.005 46.102C266.306 45.9283 266.483 45.7462 266.535 45.5558C266.587 45.3587 266.535 45.1716 266.379 44.9946L267.221 44.5786C267.51 44.886 267.617 45.215 267.542 45.5658C267.467 45.9099 267.186 46.2223 266.7 46.5029ZM262.534 45.651L265.085 44.1777C264.605 43.9405 264.148 43.8269 263.714 43.837C263.28 43.847 262.892 43.9505 262.551 44.1476C262.198 44.3514 262.016 44.5836 262.004 44.8442C261.992 45.0981 262.169 45.3671 262.534 45.651ZM269.587 44.7159L264.987 42.0599L265.655 41.674L266.853 42.3355L266.688 42.3405C266.474 42.1501 266.355 41.9613 266.332 41.7743C266.309 41.5805 266.361 41.3967 266.488 41.223C266.615 41.0493 266.798 40.8939 267.035 40.757C267.388 40.5532 267.758 40.4296 268.146 40.3861C268.539 40.3394 268.93 40.3577 269.318 40.4413C269.7 40.5214 270.053 40.6551 270.377 40.8422L273.336 42.551L272.607 42.972L269.856 41.3834C269.428 41.1362 269.02 40.9975 268.632 40.9674C268.239 40.934 267.868 41.0176 267.521 41.218C267.284 41.355 267.122 41.5087 267.035 41.679C266.942 41.8461 266.937 42.0198 267.018 42.2002C267.099 42.3739 267.281 42.5427 267.564 42.7064L270.316 44.2949L269.587 44.7159ZM277.083 40.3881C276.637 40.6453 276.2 40.7773 275.772 40.784C275.344 40.7907 274.916 40.6704 274.487 40.4232L270.078 37.8775L270.807 37.4565L275.217 40.0022C275.431 40.1258 275.639 40.1893 275.842 40.1927C276.038 40.1927 276.238 40.1342 276.44 40.0173L277.673 39.3057L278.315 39.6765L277.083 40.3881ZM270.278 39.7467L269.635 39.3758L273.715 37.0205L274.357 37.3914L270.278 39.7467ZM282.582 38.3154C281.581 38.1985 280.667 38.0181 279.84 37.7742C279.006 37.527 278.274 37.2213 277.644 36.8571C276.359 36.1154 275.517 35.165 275.118 34.0057L275.769 33.6299C276.284 34.7758 277.16 35.7062 278.399 36.4211C279.018 36.7786 279.732 37.0843 280.543 37.3382C281.347 37.5888 282.244 37.7892 283.233 37.9395L282.582 38.3154ZM288.238 35.1001C287.781 35.364 287.28 35.4927 286.737 35.486C286.198 35.476 285.709 35.344 285.27 35.0901L284.549 34.6742C284.3 34.5305 284.055 34.4286 283.811 34.3685C283.563 34.305 283.325 34.2849 283.1 34.3083C282.874 34.3317 282.666 34.3985 282.475 34.5088L281.754 34.0928C281.945 33.9826 282.061 33.8623 282.102 33.732C282.142 33.6017 282.11 33.4664 282.006 33.3261C281.896 33.1825 281.717 33.0388 281.468 32.8952L280.748 32.4792C280.308 32.2253 280.079 31.943 280.062 31.6323C280.05 31.3183 280.273 31.0293 280.73 30.7654L281.208 30.4897L281.885 30.8806C281.41 31.1345 281.138 31.3517 281.069 31.5321C280.999 31.7125 281.118 31.8912 281.425 32.0683L282.223 32.5293C282.657 32.7799 282.9 33.0305 282.952 33.281C282.998 33.5282 282.92 33.7471 282.718 33.9375L282.726 33.9425C283.056 33.8189 283.438 33.7755 283.872 33.8122C284.312 33.8456 284.749 33.9876 285.183 34.2382L285.981 34.6992C286.282 34.8729 286.589 34.9398 286.901 34.8997C287.214 34.8596 287.593 34.7042 288.039 34.4336L288.716 34.8245L288.238 35.1001ZM153.022 130.015L151.963 129.403L153.039 128.782L154.098 129.393L153.022 130.015ZM149.671 128.08L148.612 127.469L149.689 126.848L150.748 127.459L149.671 128.08ZM194.007 107.916L193.06 106.898L192.592 107.169L191.533 106.558L192.574 105.956L193.512 106.497L194.441 107.665L194.007 107.916ZM173.554 136.16L172.495 135.549L173.572 134.928L174.631 135.539L173.554 136.16ZM170.204 134.226L169.145 133.615L170.221 132.993L171.28 133.605L170.204 134.226ZM194.087 142.306L193.028 141.694L194.104 141.073L195.163 141.684L194.087 142.306ZM190.736 140.371L189.677 139.76L190.754 139.139L191.813 139.75L190.736 140.371ZM235.072 120.207L234.126 119.189L233.657 119.46L232.598 118.849L233.639 118.247L234.577 118.789L235.506 119.956L235.072 120.207ZM224.508 142.742L223.449 142.131L224.525 141.51L225.584 142.121L224.508 142.742ZM221.157 140.808L220.098 140.197L221.174 139.575L222.233 140.187L221.157 140.808ZM181.357 186.808L180.88 187.083L180.203 186.693C180.677 186.432 180.946 186.213 181.01 186.036C181.079 185.856 180.964 185.679 180.663 185.505L179.864 185.044C179.43 184.793 179.181 184.543 179.118 184.292C179.06 184.038 179.138 183.816 179.352 183.626L179.343 183.621C179.014 183.738 178.635 183.783 178.206 183.756C177.772 183.726 177.338 183.586 176.904 183.335L176.106 182.874C175.799 182.697 175.49 182.628 175.177 182.669C174.871 182.705 174.494 182.862 174.049 183.14L173.372 182.749L173.849 182.473C174.312 182.206 174.813 182.077 175.351 182.087C175.889 182.097 176.378 182.229 176.818 182.483L177.538 182.899C177.787 183.043 178.036 183.146 178.285 183.21C178.528 183.27 178.762 183.288 178.988 183.265C179.213 183.242 179.422 183.175 179.613 183.064L180.333 183.48C180.142 183.591 180.026 183.711 179.986 183.841C179.945 183.971 179.98 184.108 180.09 184.252C180.194 184.392 180.371 184.534 180.619 184.678L181.34 185.094C181.78 185.348 182.008 185.63 182.026 185.941C182.043 186.252 181.82 186.541 181.357 186.808ZM186.926 183.542L186.275 183.918C186.015 183.347 185.668 182.829 185.234 182.365C184.794 181.897 184.264 181.485 183.645 181.127C182.407 180.412 180.795 179.906 178.811 179.609L179.462 179.233C181.47 179.463 183.116 179.949 184.4 180.691C185.031 181.055 185.561 181.478 185.989 181.959C186.411 182.437 186.724 182.965 186.926 183.542ZM187.305 178.353L186.246 177.741L187.322 177.12L188.381 177.731L187.305 178.353ZM192.087 181.024L191.141 180.006L190.672 180.277L189.614 179.666L190.655 179.064L191.593 179.606L192.521 180.773L192.087 181.024Z" fill="white"/>
<path d="M92.0067 130.344L87.1808 124.511L87.8751 124.11L92.7011 129.943L92.0067 130.344ZM100.697 124.224L99.968 123.803L101.504 122.916L96.7998 120.2L95.2635 121.087L94.5344 120.666L98.3535 118.461L99.0826 118.882L97.5463 119.769L102.251 122.486L103.787 121.599L104.516 122.019L100.697 124.224ZM105.676 121.35L101.076 118.694L101.744 118.308L102.942 118.97L102.777 118.975C102.563 118.784 102.444 118.595 102.421 118.408C102.398 118.215 102.45 118.031 102.577 117.857C102.704 117.683 102.887 117.528 103.124 117.391C103.477 117.187 103.847 117.064 104.235 117.02C104.629 116.973 105.019 116.992 105.407 117.075C105.789 117.155 106.142 117.289 106.466 117.476L109.426 119.185L108.696 119.606L105.945 118.017C105.517 117.77 105.109 117.632 104.721 117.601C104.328 117.568 103.957 117.652 103.61 117.852C103.373 117.989 103.211 118.143 103.124 118.313C103.031 118.48 103.026 118.654 103.107 118.834C103.188 119.008 103.37 119.177 103.653 119.34L106.405 120.929L105.676 121.35ZM113.172 117.022C112.726 117.279 112.289 117.411 111.861 117.418C111.433 117.425 111.005 117.304 110.577 117.057L106.167 114.511L106.896 114.091L111.306 116.636C111.52 116.76 111.728 116.823 111.931 116.827C112.127 116.827 112.327 116.768 112.53 116.651L113.762 115.94L114.404 116.311L113.172 117.022ZM106.367 116.381L105.725 116.01L109.804 113.655L110.446 114.025L106.367 116.381ZM117.621 114.574C117.187 114.824 116.713 114.984 116.198 115.055C115.688 115.121 115.168 115.101 114.635 114.995C114.103 114.881 113.594 114.684 113.108 114.403C112.622 114.123 112.283 113.83 112.092 113.526C111.907 113.219 111.869 112.92 111.979 112.629C112.089 112.332 112.355 112.061 112.778 111.817C113.177 111.587 113.626 111.438 114.123 111.371C114.615 111.301 115.127 111.32 115.66 111.426C116.192 111.533 116.716 111.736 117.231 112.033L117.448 112.158L114.097 114.092C114.618 114.36 115.118 114.498 115.599 114.508C116.085 114.515 116.527 114.403 116.927 114.173C117.228 113.999 117.404 113.817 117.456 113.626C117.508 113.429 117.456 113.242 117.3 113.065L118.142 112.649C118.431 112.957 118.538 113.286 118.463 113.636C118.388 113.981 118.107 114.293 117.621 114.574ZM113.455 113.722L116.007 112.248C115.526 112.011 115.069 111.898 114.635 111.908C114.201 111.918 113.814 112.021 113.472 112.218C113.119 112.422 112.937 112.654 112.925 112.915C112.914 113.169 113.09 113.438 113.455 113.722ZM123.763 112.531C123.433 112.721 123.08 112.862 122.704 112.952C122.328 113.042 121.949 113.08 121.567 113.067C121.185 113.054 120.829 112.989 120.499 112.872L121.211 112.401C121.495 112.484 121.784 112.511 122.079 112.481C122.386 112.451 122.716 112.334 123.069 112.13C123.485 111.889 123.72 111.657 123.772 111.433C123.83 111.206 123.691 110.996 123.355 110.802L122.609 110.371C122.742 110.575 122.759 110.789 122.661 111.013C122.562 111.236 122.363 111.435 122.062 111.609C121.674 111.833 121.231 111.978 120.734 112.045C120.242 112.108 119.741 112.093 119.232 112C118.729 111.903 118.26 111.729 117.826 111.479C117.386 111.225 117.085 110.954 116.923 110.667C116.756 110.376 116.724 110.09 116.828 109.81C116.938 109.526 117.184 109.274 117.566 109.053C117.89 108.866 118.254 108.742 118.659 108.682C119.07 108.619 119.455 108.63 119.814 108.717L119.085 108.296L119.779 107.896L124.067 110.371C124.426 110.578 124.651 110.802 124.744 111.043C124.842 111.286 124.808 111.534 124.64 111.784C124.478 112.038 124.185 112.287 123.763 112.531ZM121.402 111.188C121.796 110.961 121.975 110.7 121.94 110.406C121.9 110.109 121.645 109.821 121.176 109.544C120.864 109.357 120.54 109.23 120.204 109.163C119.869 109.09 119.539 109.076 119.215 109.123C118.891 109.163 118.596 109.26 118.329 109.414C117.924 109.648 117.748 109.91 117.8 110.201C117.852 110.485 118.115 110.764 118.59 111.038C119.064 111.312 119.553 111.464 120.057 111.494C120.56 111.517 121.009 111.415 121.402 111.188ZM126.702 109.21L122.102 106.554L122.709 106.204L123.942 106.835L123.855 106.865C123.52 106.605 123.355 106.366 123.36 106.149C123.372 105.928 123.54 105.724 123.864 105.537L124.81 104.991L125.47 105.372L124.532 105.913C124.306 106.043 124.162 106.18 124.098 106.324C124.035 106.461 124.049 106.603 124.142 106.75C124.228 106.894 124.399 107.039 124.654 107.186L127.431 108.789L126.702 109.21ZM125.504 109.902L124.862 109.531L128.247 107.577L128.889 107.948L125.504 109.902ZM121.546 107.617L120.904 107.246L122.501 106.324L123.143 106.695L121.546 107.617ZM131.768 106.406C131.478 106.573 131.166 106.693 130.83 106.767C130.495 106.84 130.168 106.862 129.849 106.832C129.525 106.799 129.239 106.71 128.99 106.566C128.597 106.339 128.409 106.097 128.426 105.84C128.443 105.576 128.655 105.27 129.06 104.923L130.292 103.85C129.899 103.623 129.517 103.506 129.146 103.5C128.782 103.489 128.435 103.58 128.105 103.77C127.787 103.954 127.61 104.139 127.575 104.326C127.535 104.51 127.613 104.699 127.81 104.893L126.976 105.304C126.629 105.003 126.485 104.682 126.542 104.341C126.6 103.994 126.89 103.67 127.41 103.369C127.966 103.049 128.565 102.896 129.207 102.913C129.844 102.927 130.454 103.102 131.039 103.439L132.948 104.542C133.052 104.602 133.148 104.63 133.235 104.627C133.321 104.624 133.411 104.595 133.504 104.542L133.799 104.371L134.441 104.742C134.412 104.766 134.36 104.799 134.285 104.843C134.215 104.889 134.146 104.933 134.077 104.973C133.88 105.086 133.68 105.165 133.478 105.208C133.281 105.248 133.078 105.248 132.87 105.208C132.656 105.165 132.433 105.08 132.202 104.953L132.341 104.873C132.497 105.01 132.578 105.17 132.584 105.354C132.589 105.531 132.523 105.713 132.384 105.9C132.239 106.084 132.034 106.252 131.768 106.406ZM131.195 105.995C131.507 105.815 131.716 105.634 131.82 105.454C131.918 105.27 131.924 105.093 131.837 104.923C131.745 104.749 131.571 104.589 131.316 104.442L130.917 104.211L129.789 105.183C129.534 105.397 129.407 105.574 129.407 105.715C129.401 105.851 129.494 105.975 129.685 106.085C129.899 106.209 130.139 106.264 130.405 106.251C130.671 106.231 130.934 106.145 131.195 105.995ZM137.892 102.75C137.447 103.007 137.01 103.139 136.582 103.146C136.153 103.152 135.725 103.032 135.297 102.785L130.888 100.239L131.617 99.8182L136.026 102.364C136.24 102.488 136.448 102.551 136.651 102.554C136.848 102.554 137.047 102.496 137.25 102.379L138.482 101.667L139.125 102.038L137.892 102.75ZM131.087 102.108L130.445 101.738L134.524 99.3822L135.167 99.753L131.087 102.108ZM142.342 100.301C141.908 100.552 141.433 100.712 140.918 100.782C140.409 100.849 139.888 100.829 139.356 100.722C138.823 100.609 138.314 100.411 137.828 100.131C137.342 99.8502 137.003 99.5579 136.813 99.2539C136.627 98.9465 136.59 98.6475 136.7 98.3569C136.81 98.0595 137.076 97.7889 137.498 97.545C137.898 97.3145 138.346 97.1658 138.844 97.099C139.335 97.0289 139.848 97.0472 140.38 97.1542C140.912 97.2611 141.436 97.4632 141.951 97.7605L142.168 97.8858L138.818 99.8201C139.338 100.087 139.839 100.226 140.319 100.236C140.805 100.243 141.248 100.131 141.647 99.9003C141.948 99.7266 142.125 99.5445 142.177 99.3541C142.229 99.157 142.177 98.9699 142.02 98.7928L142.862 98.3769C143.152 98.6843 143.259 99.0133 143.183 99.3641C143.108 99.7082 142.828 100.021 142.342 100.301ZM138.175 99.4493L140.727 97.976C140.247 97.7388 139.79 97.6252 139.356 97.6352C138.922 97.6453 138.534 97.7488 138.193 97.9459C137.84 98.1497 137.657 98.3819 137.646 98.6425C137.634 98.8964 137.811 99.1653 138.175 99.4493ZM151.44 96.4314L145.538 93.0238L146.215 92.6329L147.274 93.2242L147.117 93.2543C146.874 92.9803 146.793 92.7131 146.874 92.4525C146.961 92.1886 147.181 91.9547 147.534 91.7509C147.991 91.487 148.477 91.3366 148.992 91.2999C149.513 91.2598 150.025 91.3049 150.528 91.4352C151.032 91.5655 151.495 91.7526 151.917 91.9965C152.34 92.2403 152.664 92.5076 152.889 92.7983C153.115 93.0889 153.193 93.3846 153.124 93.6853C153.06 93.9826 152.8 94.2632 152.343 94.5271C152.105 94.6641 151.842 94.7694 151.553 94.8429C151.269 94.913 150.983 94.9481 150.693 94.9481C150.41 94.9448 150.144 94.9013 149.895 94.8178L149.878 94.6875L152.169 96.0105L151.44 96.4314ZM151.579 94.1663C151.978 93.9358 152.14 93.6686 152.065 93.3645C151.995 93.0572 151.692 92.7481 151.153 92.4374C150.615 92.1267 150.08 91.9514 149.548 91.9113C149.021 91.8678 148.558 91.9614 148.159 92.1919C147.893 92.3456 147.725 92.516 147.655 92.703C147.592 92.8868 147.632 93.0839 147.777 93.2944C147.927 93.5015 148.191 93.7137 148.567 93.9308C148.943 94.148 149.31 94.3 149.669 94.3868C150.028 94.4737 150.369 94.4971 150.693 94.457C151.017 94.4169 151.313 94.32 151.579 94.1663ZM156.367 92.0836L151.766 89.4276L152.374 89.0768L153.606 89.7083L153.52 89.7383C153.184 89.4777 153.019 89.2389 153.025 89.0217C153.036 88.8012 153.204 88.5974 153.528 88.4103L154.474 87.8641L155.134 88.245L154.197 88.7862C153.971 88.9165 153.826 89.0535 153.763 89.1971C153.699 89.3341 153.713 89.4761 153.806 89.6231C153.893 89.7667 154.064 89.9121 154.318 90.0591L157.096 91.6627L156.367 92.0836ZM155.169 92.7752L154.526 92.4043L157.912 90.4499L158.554 90.8208L155.169 92.7752ZM151.211 90.49L150.568 90.1192L152.166 89.1971L152.808 89.5679L151.211 90.49ZM161.875 88.9034L157.275 86.2474L158.004 85.8265L162.604 88.4825L161.875 88.9034ZM160.026 89.9708L159.384 89.6L163.55 87.1946L164.192 87.5654L160.026 89.9708ZM156.155 87.6356L155.513 87.2647L158.004 85.8265L158.646 86.1973L156.155 87.6356ZM156.485 85.8716L155.634 85.3805L156.398 84.9395L157.249 85.4306L156.485 85.8716ZM166.42 86.2795L160.109 84.6107L160.908 84.1497L166.133 85.5829L163.651 82.5661L164.449 82.1051L167.34 85.7483L166.42 86.2795ZM171.32 83.5703C171.031 83.7374 170.719 83.8576 170.383 83.9311C170.047 84.0046 169.72 84.0263 169.402 83.9963C169.078 83.9629 168.792 83.8743 168.543 83.7307C168.149 83.5035 167.961 83.2613 167.979 83.004C167.996 82.7401 168.207 82.4344 168.612 82.087L169.845 81.0146C169.451 80.7874 169.069 80.6705 168.699 80.6638C168.335 80.6538 167.987 80.744 167.657 80.9344C167.339 81.1181 167.163 81.3036 167.128 81.4906C167.088 81.6744 167.166 81.8631 167.362 82.0569L166.529 82.4678C166.182 82.1672 166.037 81.8464 166.095 81.5057C166.153 81.1582 166.442 80.8342 166.963 80.5335C167.519 80.2128 168.118 80.0608 168.76 80.0775C169.396 80.0908 170.007 80.2662 170.591 80.6036L172.501 81.7061C172.605 81.7663 172.7 81.7947 172.787 81.7913C172.874 81.788 172.964 81.7596 173.056 81.7061L173.351 81.5357L173.994 81.9066C173.965 81.93 173.913 81.9634 173.837 82.0068C173.768 82.0536 173.699 82.097 173.629 82.1371C173.432 82.2507 173.233 82.3292 173.03 82.3726C172.834 82.4127 172.631 82.4127 172.423 82.3726C172.209 82.3292 171.986 82.244 171.754 82.117L171.893 82.0369C172.049 82.1738 172.13 82.3342 172.136 82.5179C172.142 82.695 172.075 82.8771 171.937 83.0642C171.792 83.2479 171.587 83.4166 171.32 83.5703ZM170.747 83.1594C171.06 82.979 171.268 82.7986 171.372 82.6182C171.471 82.4344 171.477 82.2574 171.39 82.087C171.297 81.9133 171.124 81.7529 170.869 81.6059L170.47 81.3754L169.341 82.3476C169.087 82.5614 168.959 82.7384 168.959 82.8788C168.954 83.0157 169.046 83.1393 169.237 83.2496C169.451 83.3732 169.691 83.4283 169.958 83.415C170.224 83.3949 170.487 83.3097 170.747 83.1594ZM177.445 79.914C176.999 80.1713 176.562 80.3033 176.134 80.3099C175.706 80.3166 175.278 80.1963 174.85 79.9491L170.44 77.4034L171.169 76.9825L175.579 79.5282C175.793 79.6518 176.001 79.7153 176.204 79.7186C176.4 79.7186 176.6 79.6601 176.803 79.5432L178.035 78.8316L178.677 79.2024L177.445 79.914ZM170.64 79.2726L169.998 78.9018L174.077 76.5465L174.719 76.9173L170.64 79.2726ZM181.894 77.4655C181.46 77.7161 180.986 77.8764 180.471 77.9466C179.962 78.0134 179.441 77.9933 178.908 77.8864C178.376 77.7728 177.867 77.5757 177.381 77.2951C176.895 77.0145 176.556 76.7222 176.365 76.4181C176.18 76.1108 176.142 75.8118 176.252 75.5211C176.362 75.2238 176.628 74.9532 177.051 74.7093C177.45 74.4788 177.899 74.3301 178.396 74.2633C178.888 74.1931 179.4 74.2115 179.933 74.3184C180.465 74.4253 180.989 74.6274 181.504 74.9248L181.721 75.0501L178.37 76.9844C178.891 77.2517 179.392 77.3903 179.872 77.4003C180.358 77.407 180.801 77.2951 181.2 77.0646C181.501 76.8909 181.677 76.7088 181.729 76.5184C181.781 76.3212 181.729 76.1342 181.573 75.9571L182.415 75.5412C182.704 75.8485 182.811 76.1776 182.736 76.5284C182.661 76.8725 182.38 77.1849 181.894 77.4655ZM177.728 76.6136L180.28 75.1403C179.799 74.9031 179.342 74.7895 178.908 74.7995C178.474 74.8095 178.087 74.9131 177.745 75.1102C177.392 75.314 177.21 75.5462 177.198 75.8068C177.187 76.0607 177.363 76.3296 177.728 76.6136ZM191.739 71.8217C191.091 72.1959 190.376 72.3713 189.595 72.3479C188.814 72.3245 188.07 72.109 187.364 71.7014L183.354 69.3862L184.101 68.9553L188.111 71.2705C188.62 71.5645 189.121 71.7231 189.612 71.7465C190.11 71.7666 190.576 71.6513 191.01 71.4008C191.444 71.1502 191.641 70.8829 191.6 70.599C191.565 70.3116 191.293 70.021 190.784 69.727L186.774 67.4118L187.521 66.9808L191.531 69.296C192.237 69.7036 192.61 70.1329 192.65 70.5839C192.691 71.0349 192.387 71.4475 191.739 71.8217ZM196.779 68.9121C196.345 69.1627 195.87 69.3331 195.355 69.4233C194.84 69.5135 194.325 69.5268 193.81 69.4634C193.289 69.3965 192.803 69.2529 192.352 69.0324L193.081 68.5513C193.428 68.705 193.775 68.8052 194.123 68.852C194.476 68.8954 194.814 68.8871 195.138 68.8269C195.468 68.7634 195.777 68.6482 196.067 68.4811C196.356 68.3141 196.564 68.1537 196.692 68.0001C196.813 67.843 196.854 67.696 196.813 67.5591C196.773 67.4154 196.654 67.2868 196.457 67.1732C196.261 67.0596 196.044 66.9878 195.806 66.9577C195.569 66.921 195.262 66.9377 194.886 67.0078C194.516 67.0746 194.024 67.2083 193.411 67.4087C192.861 67.5858 192.381 67.7094 191.97 67.7796C191.565 67.8464 191.197 67.8547 190.868 67.8046C190.544 67.7512 190.228 67.6359 189.922 67.4588C189.574 67.2584 189.352 67.0362 189.253 66.7923C189.155 66.5418 189.187 66.2862 189.349 66.0256C189.505 65.7617 189.794 65.5078 190.217 65.2639C190.639 65.02 191.087 64.8613 191.562 64.7878C192.031 64.711 192.499 64.7077 192.968 64.7778C193.443 64.8446 193.891 64.9733 194.313 65.1637L193.584 65.6448C193.301 65.5212 193.009 65.436 192.708 65.3892C192.401 65.3391 192.097 65.3374 191.796 65.3842C191.495 65.4309 191.206 65.5345 190.928 65.6949C190.546 65.9154 190.335 66.1442 190.295 66.3814C190.248 66.6153 190.373 66.8174 190.668 66.9878C190.859 67.098 191.059 67.1665 191.267 67.1932C191.475 67.2133 191.736 67.1899 192.048 67.1231C192.355 67.0529 192.757 66.9377 193.255 66.7773C193.897 66.5668 194.452 66.4265 194.921 66.3564C195.396 66.2829 195.818 66.2795 196.188 66.3463C196.559 66.4065 196.915 66.5351 197.256 66.7322C197.58 66.9193 197.777 67.1365 197.846 67.3837C197.916 67.6309 197.861 67.8865 197.681 68.1504C197.502 68.4143 197.201 68.6682 196.779 68.9121ZM199.666 67.085L193.503 63.527L194.961 62.6851C195.493 62.3777 196.078 62.1806 196.714 62.0937C197.351 62.0002 198.008 62.0252 198.685 62.1689C199.362 62.3059 200.03 62.5648 200.69 62.9456C201.349 63.3265 201.798 63.7124 202.035 64.1033C202.278 64.4908 202.319 64.8683 202.157 65.2358C202 65.6 201.656 65.9357 201.124 66.2431L199.666 67.085ZM199.683 66.233L200.351 65.8472C200.953 65.4997 201.225 65.1189 201.167 64.7046C201.109 64.2837 200.69 63.8477 199.909 63.3967C199.127 62.9456 198.372 62.7034 197.643 62.67C196.914 62.6299 196.249 62.7836 195.647 63.1311L194.978 63.5169L199.683 66.233ZM206.059 63.3936L200.626 60.2565L198.742 61.344L198.013 60.923L202.526 58.3172L203.256 58.7381L201.372 59.8256L206.806 62.9626L206.059 63.3936ZM216.26 57.5043L211.659 54.8483L212.389 54.4273L216.989 57.0833L216.26 57.5043ZM214.411 58.5717L213.769 58.2008L217.935 55.7954L218.577 56.1663L214.411 58.5717ZM210.54 56.2364L209.897 55.8656L212.389 54.4273L213.031 54.7982L210.54 56.2364ZM210.87 54.4724L210.019 53.9813L210.783 53.5403L211.633 54.0315L210.87 54.4724ZM219.39 55.6972L214.789 53.0412L215.458 52.6553L216.656 53.3168L216.491 53.3218C216.277 53.1314 216.158 52.9426 216.135 52.7555C216.112 52.5618 216.164 52.378 216.291 52.2043C216.418 52.0306 216.601 51.8752 216.838 51.7383C217.191 51.5345 217.561 51.4108 217.949 51.3674C218.342 51.3206 218.733 51.339 219.121 51.4225C219.503 51.5027 219.856 51.6364 220.18 51.8234L223.139 53.5323L222.41 53.9532L219.659 52.3647C219.231 52.1174 218.823 51.9788 218.435 51.9487C218.042 51.9153 217.671 51.9988 217.324 52.1993C217.087 52.3363 216.925 52.4899 216.838 52.6603C216.745 52.8274 216.74 53.0011 216.821 53.1815C216.902 53.3552 217.084 53.5239 217.367 53.6876L220.119 55.2762L219.39 55.6972ZM231.344 48.9158C230.944 49.1463 230.531 49.305 230.103 49.3919C229.674 49.4787 229.261 49.5038 228.861 49.467C228.462 49.4236 228.106 49.3251 227.794 49.1714L228.505 48.7003C228.835 48.8373 229.182 48.8941 229.547 48.8707C229.917 48.844 230.285 48.7254 230.649 48.5149C230.991 48.3178 231.205 48.1374 231.292 47.9737C231.384 47.8066 231.326 47.663 231.118 47.5427C230.985 47.4659 230.843 47.4208 230.693 47.4074C230.542 47.394 230.351 47.4208 230.12 47.4876C229.883 47.5511 229.567 47.663 229.174 47.8233C228.647 48.0338 228.199 48.1791 227.828 48.2593C227.458 48.3328 227.131 48.3479 226.848 48.3044C226.564 48.261 226.298 48.1675 226.049 48.0238C225.783 47.8701 225.612 47.6947 225.537 47.4976C225.462 47.3005 225.494 47.0917 225.632 46.8712C225.771 46.6507 226.029 46.4319 226.405 46.2147C226.787 45.9942 227.175 45.8506 227.568 45.7838C227.962 45.7103 228.346 45.6952 228.722 45.7387C229.093 45.7787 229.434 45.8623 229.747 45.9892L229.035 46.4603C228.838 46.3868 228.63 46.3434 228.41 46.33C228.19 46.3099 227.967 46.325 227.742 46.3751C227.516 46.4185 227.299 46.5004 227.091 46.6206C226.755 46.8144 226.573 46.9965 226.544 47.1669C226.515 47.3373 226.599 47.4792 226.796 47.5928C226.952 47.683 227.114 47.7331 227.282 47.7432C227.449 47.7532 227.646 47.7265 227.872 47.663C228.092 47.5962 228.364 47.4959 228.688 47.3623C229.237 47.1318 229.703 46.9764 230.085 46.8963C230.461 46.8127 230.788 46.791 231.066 46.8311C231.344 46.8712 231.61 46.9647 231.865 47.1117C232.136 47.2688 232.29 47.4508 232.325 47.658C232.359 47.8584 232.29 48.0689 232.116 48.2894C231.948 48.5066 231.691 48.7154 231.344 48.9158ZM236.279 46.0663C235.845 46.3169 235.371 46.4773 234.856 46.5474C234.346 46.6142 233.826 46.5942 233.293 46.4873C232.761 46.3737 232.252 46.1766 231.766 45.896C231.28 45.6153 230.941 45.323 230.75 45.019C230.565 44.7116 230.527 44.4126 230.637 44.122C230.747 43.8246 231.013 43.554 231.436 43.3101C231.835 43.0796 232.284 42.931 232.781 42.8641C233.273 42.794 233.785 42.8124 234.317 42.9193C234.85 43.0262 235.374 43.2283 235.889 43.5256L236.106 43.6509L232.755 45.5853C233.276 45.8525 233.776 45.9912 234.257 46.0012C234.743 46.0079 235.185 45.896 235.585 45.6654C235.886 45.4917 236.062 45.3096 236.114 45.1192C236.166 44.9221 236.114 44.735 235.958 44.558L236.8 44.142C237.089 44.4494 237.196 44.7785 237.121 45.1292C237.046 45.4733 236.765 45.7857 236.279 46.0663ZM232.113 45.2144L234.665 43.7411C234.184 43.5039 233.727 43.3903 233.293 43.4004C232.859 43.4104 232.472 43.5139 232.13 43.711C231.777 43.9148 231.595 44.147 231.583 44.4076C231.572 44.6615 231.748 44.9305 232.113 45.2144ZM241.267 43.1868C240.838 43.4341 240.367 43.5927 239.852 43.6629C239.337 43.7331 238.813 43.7147 238.281 43.6078C237.743 43.4975 237.231 43.3021 236.744 43.0215C236.258 42.7408 235.923 42.4468 235.738 42.1395C235.552 41.8321 235.521 41.5298 235.642 41.2324C235.758 40.9318 236.03 40.6578 236.458 40.4106C236.799 40.2135 237.167 40.0748 237.56 39.9946C237.948 39.9111 238.347 39.8877 238.758 39.9245C239.169 39.9612 239.577 40.0598 239.982 40.2202L239.27 40.6912C238.894 40.5542 238.521 40.4991 238.151 40.5258C237.78 40.5459 237.447 40.6411 237.152 40.8115C236.73 41.0554 236.551 41.336 236.614 41.6534C236.678 41.9641 236.976 42.2731 237.508 42.5805C238.041 42.8878 238.579 43.0615 239.123 43.1016C239.667 43.135 240.15 43.0298 240.572 42.7859C240.867 42.6155 241.035 42.4184 241.076 42.1946C241.122 41.9674 241.006 41.7336 240.728 41.493L241.544 41.0821C241.822 41.316 241.999 41.5582 242.074 41.8087C242.143 42.056 242.111 42.2982 241.978 42.5354C241.845 42.7726 241.608 42.9897 241.267 43.1868ZM246.089 40.4025C245.667 40.6464 245.198 40.8034 244.683 40.8736C244.174 40.9404 243.653 40.9203 243.121 40.8134C242.583 40.7032 242.07 40.5078 241.584 40.2271C241.093 39.9432 240.754 39.6475 240.569 39.3401C240.384 39.0328 240.349 38.7321 240.465 38.4381C240.586 38.1408 240.858 37.8702 241.281 37.6263C241.703 37.3824 242.169 37.227 242.678 37.1602C243.193 37.0901 243.717 37.1084 244.249 37.2153C244.781 37.3223 245.294 37.5177 245.785 37.8017C246.271 38.0823 246.61 38.378 246.801 38.6887C246.986 38.996 247.018 39.2984 246.896 39.5957C246.781 39.8897 246.512 40.1586 246.089 40.4025ZM245.395 40.0016C245.817 39.7577 245.994 39.4821 245.924 39.1748C245.855 38.8607 245.554 38.55 245.022 38.2427C244.489 37.9353 243.954 37.7632 243.416 37.7265C242.878 37.6831 242.397 37.7833 241.975 38.0272C241.553 38.2711 241.376 38.55 241.445 38.8641C241.515 39.1714 241.816 39.4788 242.348 39.7861C242.881 40.0935 243.416 40.2689 243.954 40.3123C244.492 40.3491 244.972 40.2455 245.395 40.0016ZM249.054 38.5703L244.454 35.9144L245.122 35.5285L246.32 36.19L246.155 36.195C245.941 36.0046 245.822 35.8158 245.799 35.6287C245.776 35.435 245.828 35.2512 245.956 35.0775C246.083 34.9038 246.265 34.7484 246.502 34.6114C246.855 34.4077 247.226 34.284 247.613 34.2406C248.007 34.1938 248.397 34.2122 248.785 34.2957C249.167 34.3759 249.52 34.5095 249.844 34.6966L252.804 36.4055L252.075 36.8264L249.323 35.2379C248.895 34.9906 248.487 34.852 248.099 34.8219C247.706 34.7885 247.336 34.872 246.988 35.0725C246.751 35.2095 246.589 35.3631 246.502 35.5335C246.41 35.7006 246.404 35.8743 246.485 36.0547C246.566 36.2284 246.748 36.3971 247.032 36.5608L249.783 38.1494L249.054 38.5703ZM255.691 34.859C255.286 35.0928 254.837 35.2381 254.346 35.2949C253.854 35.3517 253.347 35.3233 252.827 35.2097C252.312 35.0928 251.808 34.8924 251.316 34.6084C250.824 34.3244 250.477 34.0338 250.275 33.7364C250.078 33.4357 250.029 33.1434 250.127 32.8595C250.226 32.5755 250.477 32.3166 250.882 32.0827C251.206 31.8956 251.568 31.777 251.967 31.7269C252.361 31.6735 252.708 31.6701 253.009 31.7169L250.804 30.444L251.533 30.0231L257.696 33.5811L257.036 33.9619L256.316 33.5761C256.437 33.7932 256.446 34.0154 256.342 34.2426C256.232 34.4664 256.015 34.6719 255.691 34.859ZM255.04 34.433C255.318 34.2726 255.485 34.0956 255.543 33.9018C255.607 33.7047 255.564 33.5026 255.413 33.2954C255.263 33.0816 255.014 32.8745 254.667 32.674C254.308 32.4669 253.946 32.3216 253.582 32.2381C253.223 32.1512 252.876 32.1278 252.54 32.1679C252.199 32.2046 251.886 32.3049 251.603 32.4686C251.227 32.6857 251.079 32.948 251.16 33.2553C251.241 33.556 251.548 33.86 252.08 34.1674C252.607 34.4714 253.133 34.6485 253.66 34.6986C254.192 34.7454 254.652 34.6568 255.04 34.433ZM261.008 31.789C260.609 32.0195 260.195 32.1782 259.767 32.2651C259.339 32.3519 258.925 32.377 258.526 32.3402C258.127 32.2968 257.771 32.1983 257.458 32.0446L258.17 31.5735C258.5 31.7105 258.847 31.7673 259.211 31.7439C259.582 31.7172 259.949 31.5986 260.314 31.3881C260.655 31.191 260.869 31.0106 260.956 30.8469C261.049 30.6798 260.991 30.5362 260.783 30.4159C260.649 30.3391 260.508 30.294 260.357 30.2806C260.207 30.2672 260.016 30.294 259.784 30.3608C259.547 30.4243 259.232 30.5362 258.838 30.6965C258.312 30.907 257.863 31.0523 257.493 31.1325C257.123 31.206 256.796 31.2211 256.512 31.1776C256.229 31.1342 255.962 31.0407 255.714 30.897C255.447 30.7433 255.277 30.5679 255.201 30.3708C255.126 30.1737 255.158 29.9649 255.297 29.7444C255.436 29.5239 255.693 29.3051 256.069 29.0879C256.451 28.8674 256.839 28.7238 257.233 28.657C257.626 28.5835 258.011 28.5684 258.387 28.6119C258.757 28.6519 259.099 28.7355 259.411 28.8624L258.699 29.3335C258.503 29.26 258.294 29.2166 258.074 29.2032C257.855 29.1831 257.632 29.1982 257.406 29.2483C257.18 29.2917 256.963 29.3736 256.755 29.4938C256.42 29.6876 256.237 29.8697 256.208 30.0401C256.179 30.2105 256.263 30.3524 256.46 30.466C256.616 30.5562 256.778 30.6063 256.946 30.6164C257.114 30.6264 257.311 30.5997 257.536 30.5362C257.756 30.4694 258.028 30.3691 258.352 30.2355C258.902 30.005 259.368 29.8496 259.75 29.7695C260.126 29.6859 260.453 29.6642 260.73 29.7043C261.008 29.7444 261.274 29.8379 261.529 29.9849C261.801 30.142 261.954 30.324 261.989 30.5312C262.024 30.7316 261.954 30.9421 261.781 31.1626C261.613 31.3798 261.355 31.5886 261.008 31.789Z" fill="#E3E3E3"/>
<path d="M103.589 140.675C103.16 140.923 102.689 141.081 102.174 141.151C101.659 141.222 101.135 141.203 100.603 141.096C100.065 140.986 99.5524 140.791 99.0663 140.51C98.5803 140.229 98.2447 139.935 98.0595 139.628C97.8743 139.321 97.8425 139.018 97.964 138.721C98.0797 138.42 98.3517 138.146 98.7799 137.899C99.1213 137.702 99.4888 137.563 99.8822 137.483C100.27 137.4 100.669 137.376 101.08 137.413C101.491 137.45 101.899 137.548 102.304 137.709L101.592 138.18C101.216 138.043 100.843 137.988 100.472 138.014C100.102 138.034 99.7694 138.13 99.4743 138.3C99.0519 138.544 98.8725 138.824 98.9361 139.142C98.9998 139.453 99.2978 139.762 99.8302 140.069C100.363 140.376 100.901 140.55 101.445 140.59C101.989 140.624 102.472 140.518 102.894 140.274C103.189 140.104 103.357 139.907 103.398 139.683C103.444 139.456 103.328 139.222 103.05 138.982L103.866 138.571C104.144 138.804 104.32 139.047 104.396 139.297C104.465 139.544 104.433 139.787 104.3 140.024C104.167 140.261 103.93 140.478 103.589 140.675ZM108.411 137.891C107.989 138.135 107.52 138.292 107.005 138.362C106.496 138.429 105.975 138.409 105.443 138.302C104.904 138.192 104.392 137.996 103.906 137.716C103.414 137.432 103.076 137.136 102.891 136.829C102.706 136.521 102.671 136.221 102.787 135.927C102.908 135.629 103.18 135.359 103.602 135.115C104.025 134.871 104.491 134.716 105 134.649C105.515 134.579 106.039 134.597 106.571 134.704C107.103 134.811 107.615 135.006 108.107 135.29C108.593 135.571 108.932 135.866 109.123 136.177C109.308 136.485 109.34 136.787 109.218 137.084C109.103 137.378 108.833 137.647 108.411 137.891ZM107.717 137.49C108.139 137.246 108.316 136.971 108.246 136.663C108.177 136.349 107.876 136.039 107.343 135.731C106.811 135.424 106.276 135.252 105.738 135.215C105.2 135.172 104.719 135.272 104.297 135.516C103.874 135.76 103.698 136.039 103.767 136.353C103.837 136.66 104.138 136.967 104.67 137.275C105.202 137.582 105.738 137.757 106.276 137.801C106.814 137.838 107.294 137.734 107.717 137.49ZM111.376 136.059L106.776 133.403L107.444 133.017L108.642 133.678L108.477 133.683C108.263 133.493 108.144 133.304 108.121 133.117C108.098 132.923 108.15 132.74 108.277 132.566C108.405 132.392 108.587 132.237 108.824 132.1C109.177 131.896 109.548 131.773 109.935 131.729C110.329 131.682 110.719 131.701 111.107 131.784C111.489 131.864 111.842 131.998 112.166 132.185L115.126 133.894L114.397 134.315L111.645 132.726C111.217 132.479 110.809 132.34 110.421 132.31C110.028 132.277 109.658 132.361 109.31 132.561C109.073 132.698 108.911 132.852 108.824 133.022C108.732 133.189 108.726 133.363 108.807 133.543C108.888 133.717 109.07 133.886 109.354 134.049L112.105 135.638L111.376 136.059ZM118.386 132.132C117.987 132.362 117.573 132.521 117.145 132.608C116.717 132.695 116.303 132.72 115.904 132.683C115.504 132.64 115.148 132.541 114.836 132.388L115.548 131.916C115.878 132.053 116.225 132.11 116.589 132.087C116.96 132.06 117.327 131.942 117.692 131.731C118.033 131.534 118.247 131.354 118.334 131.19C118.427 131.023 118.369 130.879 118.16 130.759C118.027 130.682 117.885 130.637 117.735 130.624C117.585 130.61 117.394 130.637 117.162 130.704C116.925 130.767 116.61 130.879 116.216 131.04C115.69 131.25 115.241 131.395 114.871 131.475C114.5 131.549 114.173 131.564 113.89 131.521C113.606 131.477 113.34 131.384 113.091 131.24C112.825 131.086 112.654 130.911 112.579 130.714C112.504 130.517 112.536 130.308 112.675 130.087C112.814 129.867 113.071 129.648 113.447 129.431C113.829 129.21 114.217 129.067 114.61 129C115.004 128.926 115.389 128.911 115.765 128.955C116.135 128.995 116.476 129.078 116.789 129.205L116.077 129.676C115.88 129.603 115.672 129.56 115.452 129.546C115.232 129.526 115.01 129.541 114.784 129.591C114.558 129.635 114.341 129.717 114.133 129.837C113.797 130.031 113.615 130.213 113.586 130.383C113.557 130.553 113.641 130.695 113.838 130.809C113.994 130.899 114.156 130.949 114.324 130.959C114.492 130.969 114.688 130.943 114.914 130.879C115.134 130.812 115.406 130.712 115.73 130.578C116.28 130.348 116.746 130.193 117.127 130.112C117.504 130.029 117.831 130.007 118.108 130.047C118.386 130.087 118.652 130.181 118.907 130.328C119.179 130.485 119.332 130.667 119.367 130.874C119.402 131.075 119.332 131.285 119.159 131.506C118.991 131.723 118.733 131.932 118.386 132.132ZM123.816 128.877C123.371 129.134 122.934 129.266 122.506 129.272C122.077 129.279 121.649 129.159 121.221 128.912L116.812 126.366L117.541 125.945L121.95 128.491C122.164 128.614 122.372 128.678 122.575 128.681C122.772 128.681 122.971 128.623 123.174 128.506L124.406 127.794L125.049 128.165L123.816 128.877ZM117.011 128.235L116.369 127.864L120.448 125.509L121.091 125.88L117.011 128.235Z" fill="#BB87FF"/>
<path d="M157.244 109.697C156.955 109.864 156.643 109.984 156.307 110.058C155.971 110.131 155.644 110.153 155.326 110.123C155.002 110.09 154.716 110.001 154.467 109.857C154.073 109.63 153.885 109.388 153.903 109.131C153.92 108.867 154.131 108.561 154.536 108.214L155.769 107.141C155.375 106.914 154.993 106.797 154.623 106.791C154.258 106.781 153.911 106.871 153.581 107.061C153.263 107.245 153.087 107.43 153.052 107.617C153.011 107.801 153.09 107.99 153.286 108.184L152.453 108.595C152.106 108.294 151.961 107.973 152.019 107.632C152.077 107.285 152.366 106.961 152.887 106.66C153.443 106.34 154.041 106.188 154.684 106.204C155.32 106.218 155.931 106.393 156.515 106.73L158.425 107.833C158.529 107.893 158.624 107.921 158.711 107.918C158.798 107.915 158.888 107.886 158.98 107.833L159.275 107.663L159.918 108.033C159.889 108.057 159.837 108.09 159.761 108.134C159.692 108.18 159.623 108.224 159.553 108.264C159.356 108.377 159.157 108.456 158.954 108.499C158.757 108.54 158.555 108.54 158.347 108.499C158.133 108.456 157.91 108.371 157.678 108.244L157.817 108.164C157.973 108.301 158.054 108.461 158.06 108.645C158.066 108.822 157.999 109.004 157.861 109.191C157.716 109.375 157.51 109.543 157.244 109.697ZM156.671 109.286C156.984 109.106 157.192 108.925 157.296 108.745C157.395 108.561 157.401 108.384 157.314 108.214C157.221 108.04 157.048 107.88 156.793 107.733L156.394 107.502L155.265 108.474C155.011 108.688 154.883 108.865 154.883 109.006C154.878 109.143 154.97 109.266 155.161 109.376C155.375 109.5 155.615 109.555 155.882 109.542C156.148 109.522 156.411 109.437 156.671 109.286ZM161.173 107.309L155.661 105.179L156.46 104.718L160.895 106.587L158.378 104.352L159.09 103.941L162.961 105.394L159.723 102.834L160.522 102.373L164.219 105.55L163.299 106.081L159.793 104.758L162.084 106.783L161.173 107.309ZM167.132 103.988C166.843 104.155 166.531 104.275 166.195 104.349C165.859 104.422 165.533 104.444 165.214 104.414C164.89 104.381 164.604 104.292 164.355 104.149C163.961 103.921 163.773 103.679 163.791 103.422C163.808 103.158 164.019 102.852 164.424 102.505L165.657 101.432C165.263 101.205 164.882 101.088 164.511 101.082C164.147 101.072 163.799 101.162 163.47 101.352C163.151 101.536 162.975 101.721 162.94 101.909C162.9 102.092 162.978 102.281 163.174 102.475L162.341 102.886C161.994 102.585 161.849 102.264 161.907 101.924C161.965 101.576 162.254 101.252 162.775 100.951C163.331 100.631 163.93 100.479 164.572 100.495C165.208 100.509 165.819 100.684 166.403 101.022L168.313 102.124C168.417 102.184 168.513 102.213 168.599 102.209C168.686 102.206 168.776 102.177 168.868 102.124L169.164 101.954L169.806 102.324C169.777 102.348 169.725 102.381 169.65 102.425C169.58 102.471 169.511 102.515 169.441 102.555C169.245 102.669 169.045 102.747 168.842 102.79C168.646 102.831 168.443 102.831 168.235 102.79C168.021 102.747 167.798 102.662 167.566 102.535L167.705 102.455C167.862 102.592 167.943 102.752 167.948 102.936C167.954 103.113 167.888 103.295 167.749 103.482C167.604 103.666 167.399 103.835 167.132 103.988ZM166.56 103.577C166.872 103.397 167.08 103.216 167.185 103.036C167.283 102.852 167.289 102.675 167.202 102.505C167.109 102.331 166.936 102.171 166.681 102.024L166.282 101.793L165.153 102.765C164.899 102.979 164.772 103.156 164.772 103.297C164.766 103.434 164.858 103.557 165.049 103.667C165.263 103.791 165.504 103.846 165.77 103.833C166.036 103.813 166.299 103.728 166.56 103.577ZM172.519 100.758L167.919 98.1019L168.648 97.681L173.248 100.337L172.519 100.758ZM170.67 101.825L170.028 101.454L174.194 99.049L174.837 99.4199L170.67 101.825ZM166.799 99.49L166.157 99.1192L168.648 97.681L169.29 98.0518L166.799 99.49ZM167.129 97.7261L166.278 97.235L167.042 96.794L167.893 97.2851L167.129 97.7261ZM178.201 97.4774C177.756 97.7347 177.319 97.8667 176.89 97.8733C176.462 97.88 176.034 97.7597 175.606 97.5125L171.197 94.9668L171.926 94.5459L176.335 97.0916C176.549 97.2152 176.757 97.2787 176.96 97.282C177.157 97.282 177.356 97.2235 177.559 97.1066L178.791 96.395L179.434 96.7658L178.201 97.4774ZM171.396 96.836L170.754 96.4652L174.833 94.1099L175.476 94.4807L171.396 96.836Z" fill="#BB87FF"/>
<path d="M128.336 144.387C128.047 144.554 127.734 144.675 127.399 144.748C127.063 144.822 126.736 144.843 126.418 144.813C126.094 144.78 125.807 144.691 125.558 144.548C125.165 144.321 124.977 144.078 124.994 143.821C125.012 143.557 125.223 143.251 125.628 142.904L126.86 141.832C126.467 141.604 126.085 141.487 125.715 141.481C125.35 141.471 125.003 141.561 124.673 141.751C124.355 141.935 124.178 142.121 124.144 142.308C124.103 142.491 124.181 142.68 124.378 142.874L123.545 143.285C123.198 142.984 123.053 142.663 123.111 142.323C123.169 141.975 123.458 141.651 123.979 141.35C124.534 141.03 125.133 140.878 125.775 140.894C126.412 140.908 127.022 141.083 127.607 141.421L129.516 142.523C129.621 142.583 129.716 142.612 129.803 142.608C129.89 142.605 129.979 142.577 130.072 142.523L130.367 142.353L131.009 142.724C130.98 142.747 130.928 142.78 130.853 142.824C130.784 142.871 130.714 142.914 130.645 142.954C130.448 143.068 130.248 143.146 130.046 143.19C129.849 143.23 129.647 143.23 129.438 143.19C129.224 143.146 129.001 143.061 128.77 142.934L128.909 142.854C129.065 142.991 129.146 143.151 129.152 143.335C129.158 143.512 129.091 143.694 128.952 143.881C128.808 144.065 128.602 144.234 128.336 144.387ZM127.763 143.976C128.076 143.796 128.284 143.616 128.388 143.435C128.486 143.251 128.492 143.074 128.405 142.904C128.313 142.73 128.139 142.57 127.885 142.423L127.485 142.192L126.357 143.165C126.102 143.378 125.975 143.555 125.975 143.696C125.969 143.833 126.062 143.956 126.253 144.067C126.467 144.19 126.707 144.245 126.973 144.232C127.239 144.212 127.503 144.127 127.763 143.976ZM133.974 141.132C133.575 141.362 133.161 141.521 132.733 141.608C132.305 141.695 131.891 141.72 131.492 141.683C131.093 141.64 130.737 141.541 130.424 141.388L131.136 140.916C131.466 141.053 131.813 141.11 132.178 141.087C132.548 141.06 132.916 140.942 133.28 140.731C133.622 140.534 133.836 140.354 133.922 140.19C134.015 140.023 133.957 139.879 133.749 139.759C133.616 139.682 133.474 139.637 133.324 139.624C133.173 139.61 132.982 139.637 132.751 139.704C132.513 139.767 132.198 139.879 131.805 140.04C131.278 140.25 130.83 140.395 130.459 140.475C130.089 140.549 129.762 140.564 129.478 140.521C129.195 140.477 128.929 140.384 128.68 140.24C128.414 140.086 128.243 139.911 128.168 139.714C128.092 139.517 128.124 139.308 128.263 139.087C128.402 138.867 128.66 138.648 129.036 138.431C129.418 138.21 129.805 138.067 130.199 138C130.592 137.926 130.977 137.911 131.353 137.955C131.724 137.995 132.065 138.078 132.377 138.205L131.666 138.676C131.469 138.603 131.261 138.56 131.041 138.546C130.821 138.526 130.598 138.541 130.372 138.591C130.147 138.635 129.93 138.717 129.721 138.837C129.386 139.031 129.204 139.213 129.175 139.383C129.146 139.553 129.23 139.695 129.426 139.809C129.583 139.899 129.745 139.949 129.912 139.959C130.08 139.969 130.277 139.943 130.503 139.879C130.722 139.812 130.994 139.712 131.318 139.578C131.868 139.348 132.334 139.193 132.716 139.112C133.092 139.029 133.419 139.007 133.697 139.047C133.974 139.087 134.241 139.181 134.495 139.328C134.767 139.485 134.921 139.667 134.955 139.874C134.99 140.075 134.921 140.285 134.747 140.506C134.579 140.723 134.322 140.932 133.974 141.132ZM138.919 138.277C138.519 138.508 138.106 138.667 137.677 138.754C137.249 138.84 136.835 138.865 136.436 138.829C136.037 138.785 135.681 138.687 135.369 138.533L136.08 138.062C136.41 138.199 136.757 138.256 137.122 138.232C137.492 138.206 137.86 138.087 138.224 137.877C138.566 137.679 138.78 137.499 138.866 137.335C138.959 137.168 138.901 137.025 138.693 136.904C138.56 136.828 138.418 136.782 138.268 136.769C138.117 136.756 137.926 136.782 137.695 136.849C137.457 136.913 137.142 137.025 136.749 137.185C136.222 137.396 135.774 137.541 135.403 137.621C135.033 137.695 134.706 137.71 134.422 137.666C134.139 137.623 133.873 137.529 133.624 137.385C133.358 137.232 133.187 137.056 133.112 136.859C133.037 136.662 133.068 136.453 133.207 136.233C133.346 136.012 133.604 135.794 133.98 135.576C134.362 135.356 134.749 135.212 135.143 135.145C135.536 135.072 135.921 135.057 136.297 135.1C136.668 135.14 137.009 135.224 137.321 135.351L136.61 135.822C136.413 135.748 136.205 135.705 135.985 135.692C135.765 135.672 135.542 135.687 135.316 135.737C135.091 135.78 134.874 135.862 134.665 135.982C134.33 136.176 134.148 136.358 134.119 136.529C134.09 136.699 134.174 136.841 134.37 136.955C134.527 137.045 134.689 137.095 134.856 137.105C135.024 137.115 135.221 137.088 135.447 137.025C135.667 136.958 135.939 136.858 136.263 136.724C136.812 136.493 137.278 136.338 137.66 136.258C138.036 136.174 138.363 136.153 138.641 136.193C138.919 136.233 139.185 136.326 139.439 136.473C139.711 136.63 139.865 136.813 139.899 137.02C139.934 137.22 139.865 137.431 139.691 137.651C139.523 137.868 139.266 138.077 138.919 138.277ZM143.854 135.428C143.42 135.679 142.945 135.839 142.43 135.909C141.921 135.976 141.4 135.956 140.868 135.849C140.336 135.735 139.827 135.538 139.34 135.258C138.854 134.977 138.516 134.685 138.325 134.381C138.14 134.073 138.102 133.774 138.212 133.484C138.322 133.186 138.588 132.916 139.011 132.672C139.41 132.441 139.858 132.293 140.356 132.226C140.848 132.156 141.36 132.174 141.892 132.281C142.425 132.388 142.948 132.59 143.463 132.887L143.68 133.013L140.33 134.947C140.851 135.214 141.351 135.353 141.832 135.363C142.318 135.37 142.76 135.258 143.16 135.027C143.46 134.853 143.637 134.671 143.689 134.481C143.741 134.284 143.689 134.097 143.533 133.92L144.375 133.504C144.664 133.811 144.771 134.14 144.696 134.491C144.621 134.835 144.34 135.147 143.854 135.428ZM139.688 134.576L142.24 133.103C141.759 132.866 141.302 132.752 140.868 132.762C140.434 132.772 140.046 132.876 139.705 133.073C139.352 133.277 139.17 133.509 139.158 133.769C139.147 134.023 139.323 134.292 139.688 134.576ZM149.293 132.168C148.847 132.425 148.41 132.557 147.982 132.564C147.554 132.57 147.126 132.45 146.698 132.203L142.288 129.657L143.017 129.236L147.427 131.782C147.641 131.905 147.849 131.969 148.052 131.972C148.248 131.972 148.448 131.914 148.651 131.797L149.883 131.085L150.525 131.456L149.293 132.168ZM142.488 131.526L141.846 131.155L145.925 128.8L146.567 129.171L142.488 131.526ZM143.924 153.387C143.635 153.554 143.323 153.675 142.987 153.748C142.651 153.822 142.325 153.843 142.006 153.813C141.682 153.78 141.396 153.691 141.147 153.548C140.753 153.321 140.565 153.078 140.583 152.821C140.6 152.557 140.811 152.251 141.216 151.904L142.449 150.832C142.055 150.604 141.674 150.487 141.303 150.481C140.939 150.471 140.591 150.561 140.262 150.751C139.943 150.935 139.767 151.121 139.732 151.308C139.692 151.491 139.77 151.68 139.967 151.874L139.133 152.285C138.786 151.984 138.641 151.663 138.699 151.323C138.757 150.975 139.046 150.651 139.567 150.35C140.123 150.03 140.722 149.878 141.364 149.894C142 149.908 142.611 150.083 143.195 150.421L145.105 151.523C145.209 151.583 145.305 151.612 145.391 151.608C145.478 151.605 145.568 151.577 145.66 151.523L145.956 151.353L146.598 151.724C146.569 151.747 146.517 151.78 146.442 151.824C146.372 151.871 146.303 151.914 146.233 151.954C146.037 152.068 145.837 152.146 145.634 152.19C145.438 152.23 145.235 152.23 145.027 152.19C144.813 152.146 144.59 152.061 144.358 151.934L144.497 151.854C144.654 151.991 144.735 152.151 144.74 152.335C144.746 152.512 144.68 152.694 144.541 152.881C144.396 153.065 144.191 153.234 143.924 153.387ZM143.352 152.976C143.664 152.796 143.872 152.616 143.977 152.435C144.075 152.251 144.081 152.074 143.994 151.904C143.901 151.73 143.728 151.57 143.473 151.423L143.074 151.192L141.945 152.165C141.691 152.378 141.564 152.555 141.564 152.696C141.558 152.833 141.65 152.956 141.841 153.067C142.055 153.19 142.296 153.245 142.562 153.232C142.828 153.212 143.091 153.127 143.352 152.976ZM147.115 151.425L142.515 148.769L143.183 148.383L144.234 148.959L144.129 148.999C143.84 148.772 143.681 148.553 143.652 148.343C143.623 148.126 143.742 147.94 144.008 147.787C144.28 147.63 144.587 147.566 144.928 147.596C145.275 147.623 145.657 147.737 146.074 147.937L145.987 147.987C145.68 147.75 145.512 147.519 145.483 147.296C145.46 147.068 145.588 146.875 145.865 146.714C146.236 146.5 146.632 146.419 147.054 146.469C147.477 146.519 147.983 146.714 148.573 147.055L151.629 148.819L150.9 149.24L147.949 147.536C147.538 147.299 147.208 147.159 146.959 147.115C146.704 147.068 146.485 147.098 146.299 147.205C146.178 147.276 146.111 147.361 146.1 147.461C146.082 147.558 146.129 147.671 146.239 147.802C146.354 147.929 146.542 148.067 146.803 148.218L149.737 149.911L149.007 150.332L146.056 148.629C145.663 148.401 145.336 148.263 145.076 148.213C144.821 148.159 144.598 148.188 144.407 148.298C144.286 148.368 144.219 148.453 144.208 148.553C144.19 148.65 144.236 148.764 144.346 148.894C144.462 149.021 144.65 149.16 144.911 149.31L147.844 151.004L147.115 151.425ZM154.42 147.328C153.998 147.571 153.529 147.729 153.014 147.799C152.505 147.865 151.984 147.845 151.452 147.739C150.914 147.628 150.401 147.433 149.915 147.152C149.424 146.868 149.085 146.573 148.9 146.265C148.715 145.958 148.68 145.657 148.796 145.363C148.917 145.066 149.189 144.795 149.612 144.551C150.034 144.307 150.5 144.152 151.009 144.085C151.524 144.015 152.048 144.034 152.58 144.14C153.112 144.247 153.625 144.443 154.116 144.727C154.603 145.007 154.941 145.303 155.132 145.614C155.317 145.921 155.349 146.223 155.227 146.521C155.112 146.815 154.843 147.084 154.42 147.328ZM153.726 146.927C154.148 146.683 154.325 146.407 154.255 146.1C154.186 145.786 153.885 145.475 153.353 145.168C152.82 144.86 152.285 144.688 151.747 144.652C151.209 144.608 150.728 144.708 150.306 144.952C149.884 145.196 149.707 145.475 149.777 145.789C149.846 146.097 150.147 146.404 150.679 146.711C151.212 147.019 151.747 147.194 152.285 147.237C152.823 147.274 153.303 147.171 153.726 146.927ZM159.043 144.659C158.586 144.922 158.068 145.044 157.489 145.024C156.905 145.001 156.341 144.832 155.797 144.518L152.837 142.809L153.566 142.388L156.326 143.982C156.772 144.239 157.18 144.385 157.55 144.418C157.921 144.445 158.271 144.363 158.6 144.172C158.959 143.965 159.127 143.735 159.104 143.481C159.075 143.224 158.855 142.976 158.444 142.739L155.701 141.156L156.431 140.735L161.031 143.391L160.336 143.792L159.199 143.135L159.373 143.105C159.657 143.376 159.772 143.646 159.72 143.917C159.662 144.184 159.437 144.431 159.043 144.659ZM162.329 142.641L157.729 139.985L158.397 139.599L159.595 140.261L159.43 140.266C159.216 140.075 159.098 139.886 159.074 139.699C159.051 139.506 159.103 139.322 159.231 139.148C159.358 138.974 159.54 138.819 159.778 138.682C160.131 138.478 160.501 138.355 160.889 138.311C161.282 138.264 161.673 138.283 162.06 138.366C162.442 138.447 162.795 138.58 163.119 138.767L166.079 140.476L165.35 140.897L162.598 139.308C162.17 139.061 161.762 138.923 161.375 138.893C160.981 138.859 160.611 138.943 160.264 139.143C160.026 139.28 159.864 139.434 159.778 139.604C159.685 139.771 159.679 139.945 159.76 140.125C159.841 140.299 160.023 140.468 160.307 140.631L163.059 142.22L162.329 142.641ZM169.825 138.313C169.38 138.57 168.943 138.702 168.515 138.709C168.086 138.716 167.658 138.595 167.23 138.348L162.821 135.803L163.55 135.382L167.959 137.927C168.173 138.051 168.382 138.114 168.584 138.118C168.781 138.118 168.981 138.059 169.183 137.942L170.416 137.231L171.058 137.602L169.825 138.313ZM163.02 137.672L162.378 137.301L166.458 134.946L167.1 135.316L163.02 137.672ZM184.102 130.231C183.703 130.461 183.28 130.622 182.835 130.712C182.395 130.799 181.955 130.819 181.516 130.772C181.082 130.722 180.679 130.607 180.309 130.426L181.038 129.945C181.432 130.119 181.831 130.192 182.236 130.166C182.641 130.132 183.02 130.014 183.373 129.81C183.772 129.579 183.969 129.325 183.963 129.048C183.957 128.764 183.738 128.497 183.304 128.246C183.014 128.079 182.713 127.966 182.401 127.906C182.083 127.842 181.77 127.835 181.463 127.886C181.157 127.929 180.867 128.029 180.595 128.186C180.352 128.327 180.179 128.497 180.075 128.697C179.971 128.891 179.979 129.08 180.101 129.264L179.302 129.725L176.247 127.49L179.528 125.595L180.257 126.016L177.662 127.515L179.658 128.988H179.38C179.293 128.831 179.267 128.676 179.302 128.522C179.337 128.368 179.415 128.223 179.537 128.086C179.658 127.942 179.808 127.819 179.988 127.715C180.381 127.488 180.818 127.343 181.299 127.279C181.779 127.209 182.259 127.219 182.739 127.309C183.225 127.396 183.674 127.558 184.085 127.795C184.496 128.033 184.773 128.297 184.918 128.587C185.057 128.874 185.057 129.162 184.918 129.449C184.785 129.733 184.513 129.994 184.102 130.231ZM186.477 127.677L184.481 123.718L185.21 123.337L187.206 127.296L186.477 127.677ZM189.064 127.366C188.618 127.624 188.1 127.772 187.51 127.812C186.925 127.849 186.306 127.779 185.652 127.602C184.998 127.425 184.342 127.146 183.682 126.765C183.017 126.381 182.531 126 182.224 125.622C181.917 125.245 181.796 124.887 181.859 124.55C181.923 124.206 182.178 123.905 182.623 123.648C183.074 123.387 183.595 123.24 184.185 123.207C184.77 123.17 185.389 123.24 186.043 123.417C186.697 123.595 187.357 123.875 188.022 124.259C188.682 124.64 189.165 125.019 189.471 125.397C189.778 125.774 189.9 126.132 189.836 126.469C189.772 126.807 189.515 127.106 189.064 127.366ZM188.334 126.945C188.624 126.778 188.768 126.578 188.768 126.344C188.774 126.107 188.647 125.85 188.387 125.572C188.126 125.288 187.744 125.001 187.241 124.71C186.726 124.413 186.225 124.191 185.739 124.044C185.253 123.89 184.805 123.815 184.394 123.818C183.989 123.818 183.642 123.902 183.352 124.069C183.069 124.233 182.924 124.433 182.918 124.67C182.912 124.908 183.04 125.168 183.3 125.452C183.561 125.729 183.948 126.017 184.463 126.314C184.967 126.605 185.461 126.827 185.947 126.981C186.434 127.128 186.882 127.199 187.293 127.196C187.704 127.193 188.051 127.109 188.334 126.945ZM193.331 124.742L192.272 124.131L193.348 123.51L194.407 124.121L193.331 124.742ZM196.365 121.968L194.369 118.009L195.098 117.628L197.094 121.587L196.365 121.968ZM198.952 121.657C198.506 121.915 197.988 122.063 197.398 122.103C196.814 122.14 196.194 122.07 195.541 121.893C194.887 121.716 194.23 121.437 193.57 121.056C192.905 120.672 192.419 120.291 192.112 119.914C191.805 119.536 191.684 119.179 191.747 118.841C191.811 118.497 192.066 118.196 192.511 117.939C192.963 117.678 193.483 117.531 194.074 117.498C194.658 117.461 195.277 117.531 195.931 117.709C196.585 117.886 197.245 118.166 197.91 118.55C198.57 118.931 199.053 119.31 199.36 119.688C199.666 120.066 199.788 120.423 199.724 120.76C199.661 121.098 199.403 121.397 198.952 121.657ZM198.223 121.236C198.512 121.069 198.657 120.869 198.657 120.635C198.662 120.398 198.535 120.141 198.275 119.863C198.014 119.579 197.632 119.292 197.129 119.001C196.614 118.704 196.113 118.482 195.627 118.335C195.141 118.181 194.693 118.106 194.282 118.109C193.877 118.109 193.53 118.193 193.24 118.36C192.957 118.524 192.812 118.724 192.806 118.961C192.801 119.199 192.928 119.459 193.188 119.743C193.449 120.02 193.836 120.308 194.351 120.605C194.855 120.896 195.35 121.118 195.836 121.272C196.322 121.419 196.77 121.49 197.181 121.487C197.592 121.484 197.939 121.4 198.223 121.236ZM201.309 119.114L199.313 115.155L200.042 114.774L202.038 118.733L201.309 119.114ZM203.896 118.803C203.45 119.06 202.932 119.209 202.342 119.249C201.758 119.286 201.138 119.216 200.485 119.039C199.831 118.861 199.174 118.582 198.514 118.202C197.849 117.817 197.363 117.437 197.056 117.059C196.749 116.682 196.628 116.324 196.692 115.987C196.755 115.643 197.01 115.342 197.455 115.085C197.907 114.824 198.428 114.677 199.018 114.644C199.602 114.607 200.221 114.677 200.875 114.854C201.529 115.031 202.189 115.312 202.854 115.696C203.514 116.077 203.997 116.456 204.304 116.834C204.61 117.211 204.732 117.569 204.668 117.906C204.605 118.243 204.347 118.542 203.896 118.803ZM203.167 118.382C203.456 118.215 203.601 118.015 203.601 117.781C203.606 117.543 203.479 117.286 203.219 117.009C202.958 116.725 202.576 116.438 202.073 116.147C201.558 115.85 201.057 115.627 200.571 115.481C200.085 115.327 199.637 115.252 199.226 115.255C198.821 115.255 198.474 115.339 198.184 115.506C197.901 115.669 197.756 115.87 197.75 116.107C197.745 116.344 197.872 116.605 198.132 116.889C198.393 117.166 198.78 117.453 199.295 117.751C199.799 118.041 200.294 118.263 200.78 118.417C201.266 118.564 201.714 118.636 202.125 118.633C202.536 118.629 202.883 118.546 203.167 118.382ZM209.595 116.916L208.649 115.898L208.18 116.169L207.121 115.558L208.163 114.956L209.1 115.497L210.029 116.665L209.595 116.916ZM159.409 163.831L153.507 160.423L154.184 160.032L155.242 160.623L155.086 160.653C154.843 160.379 154.762 160.112 154.843 159.852C154.93 159.588 155.15 159.354 155.503 159.15C155.96 158.886 156.446 158.736 156.961 158.699C157.482 158.659 157.994 158.704 158.497 158.834C159.001 158.965 159.464 159.152 159.886 159.396C160.309 159.639 160.633 159.907 160.858 160.197C161.084 160.488 161.162 160.784 161.093 161.084C161.029 161.382 160.769 161.662 160.311 161.926C160.074 162.063 159.811 162.169 159.522 162.242C159.238 162.312 158.952 162.347 158.662 162.347C158.379 162.344 158.113 162.3 157.864 162.217L157.846 162.087L160.138 163.41L159.409 163.831ZM159.548 161.565C159.947 161.335 160.109 161.068 160.034 160.764C159.964 160.456 159.66 160.147 159.122 159.837C158.584 159.526 158.049 159.35 157.517 159.31C156.99 159.267 156.527 159.361 156.128 159.591C155.862 159.745 155.694 159.915 155.624 160.102C155.561 160.286 155.601 160.483 155.746 160.694C155.896 160.901 156.16 161.113 156.536 161.33C156.912 161.547 157.279 161.699 157.638 161.786C157.997 161.873 158.338 161.896 158.662 161.856C158.986 161.816 159.281 161.719 159.548 161.565ZM164.336 159.483L159.735 156.827L160.343 156.476L161.575 157.107L161.489 157.137C161.153 156.877 160.988 156.638 160.994 156.421C161.005 156.2 161.173 155.997 161.497 155.809L162.443 155.263L163.103 155.644L162.166 156.185C161.94 156.316 161.795 156.453 161.732 156.596C161.668 156.733 161.682 156.875 161.775 157.022C161.862 157.166 162.032 157.311 162.287 157.458L165.065 159.062L164.336 159.483ZM163.138 160.174L162.495 159.803L165.881 157.849L166.523 158.22L163.138 160.174ZM159.18 157.889L158.537 157.518L160.134 156.596L160.777 156.967L159.18 157.889ZM169.844 156.303L165.243 153.647L165.973 153.226L170.573 155.882L169.844 156.303ZM167.995 157.37L167.353 156.999L171.519 154.594L172.161 154.965L167.995 157.37ZM164.124 155.035L163.481 154.664L165.973 153.226L166.615 153.596L164.124 155.035ZM164.454 153.271L163.603 152.78L164.367 152.339L165.217 152.83L164.454 153.271ZM174.389 153.679L168.078 152.01L168.877 151.549L174.102 152.982L171.62 149.965L172.418 149.504L175.309 153.147L174.389 153.679ZM179.289 150.969C179 151.137 178.687 151.257 178.352 151.33C178.016 151.404 177.689 151.425 177.371 151.395C177.047 151.362 176.761 151.273 176.512 151.13C176.118 150.903 175.93 150.66 175.948 150.403C175.965 150.139 176.176 149.834 176.581 149.486L177.814 148.414C177.42 148.187 177.038 148.07 176.668 148.063C176.303 148.053 175.956 148.143 175.626 148.334C175.308 148.517 175.132 148.703 175.097 148.89C175.056 149.074 175.135 149.262 175.331 149.456L174.498 149.867C174.151 149.566 174.006 149.246 174.064 148.905C174.122 148.557 174.411 148.233 174.932 147.933C175.488 147.612 176.086 147.46 176.729 147.477C177.365 147.49 177.976 147.665 178.56 148.003L180.47 149.105C180.574 149.165 180.669 149.194 180.756 149.19C180.843 149.187 180.933 149.159 181.025 149.105L181.32 148.935L181.963 149.306C181.934 149.329 181.882 149.363 181.806 149.406C181.737 149.453 181.668 149.496 181.598 149.536C181.401 149.65 181.202 149.728 180.999 149.772C180.802 149.812 180.6 149.812 180.392 149.772C180.177 149.728 179.955 149.643 179.723 149.516L179.862 149.436C180.018 149.573 180.099 149.733 180.105 149.917C180.111 150.094 180.044 150.276 179.906 150.463C179.761 150.647 179.555 150.816 179.289 150.969ZM178.716 150.559C179.029 150.378 179.237 150.198 179.341 150.017C179.44 149.834 179.446 149.657 179.359 149.486C179.266 149.312 179.093 149.152 178.838 149.005L178.439 148.775L177.31 149.747C177.056 149.961 176.928 150.138 176.928 150.278C176.923 150.415 177.015 150.538 177.206 150.649C177.42 150.772 177.66 150.827 177.927 150.814C178.193 150.794 178.456 150.709 178.716 150.559ZM184.962 147.694C184.534 147.941 184.063 148.1 183.548 148.17C183.033 148.24 182.509 148.222 181.977 148.115C181.438 148.005 180.926 147.809 180.44 147.529C179.954 147.248 179.619 146.954 179.433 146.647C179.248 146.339 179.216 146.037 179.338 145.74C179.454 145.439 179.726 145.165 180.154 144.918C180.495 144.721 180.863 144.582 181.256 144.502C181.644 144.418 182.043 144.395 182.454 144.432C182.865 144.468 183.273 144.567 183.678 144.727L182.966 145.198C182.59 145.061 182.217 145.006 181.846 145.033C181.476 145.053 181.143 145.148 180.848 145.319C180.426 145.563 180.246 145.843 180.31 146.161C180.374 146.471 180.672 146.78 181.204 147.088C181.736 147.395 182.275 147.569 182.819 147.609C183.362 147.642 183.846 147.537 184.268 147.293C184.563 147.123 184.731 146.926 184.771 146.702C184.818 146.475 184.702 146.241 184.424 146L185.24 145.589C185.518 145.823 185.694 146.065 185.77 146.316C185.839 146.563 185.807 146.805 185.674 147.043C185.541 147.28 185.304 147.497 184.962 147.694ZM189.577 146.413L188.934 146.042L189.464 145.737C189.626 145.643 189.718 145.56 189.742 145.486C189.776 145.413 189.759 145.332 189.69 145.245L189.42 144.9L189.169 145.045L182.945 143.426L183.744 142.965L188.978 144.374L186.452 141.402L187.251 140.941L190.566 145.01C190.728 145.204 190.78 145.384 190.722 145.551C190.665 145.718 190.482 145.89 190.176 146.067L189.577 146.413ZM175.796 170.986C175.397 171.217 174.983 171.376 174.555 171.462C174.126 171.549 173.713 171.574 173.313 171.538C172.914 171.494 172.558 171.396 172.246 171.242L172.957 170.771C173.287 170.908 173.635 170.965 173.999 170.941C174.369 170.915 174.737 170.796 175.101 170.586C175.443 170.388 175.657 170.208 175.744 170.044C175.836 169.877 175.778 169.734 175.57 169.613C175.437 169.536 175.295 169.491 175.145 169.478C174.994 169.465 174.803 169.491 174.572 169.558C174.335 169.622 174.019 169.734 173.626 169.894C173.099 170.104 172.651 170.25 172.28 170.33C171.91 170.403 171.583 170.418 171.3 170.375C171.016 170.332 170.75 170.238 170.501 170.094C170.235 169.941 170.064 169.765 169.989 169.568C169.914 169.371 169.946 169.162 170.084 168.942C170.223 168.721 170.481 168.503 170.857 168.285C171.239 168.065 171.627 167.921 172.02 167.854C172.414 167.781 172.798 167.766 173.174 167.809C173.545 167.849 173.886 167.933 174.199 168.06L173.487 168.531C173.29 168.457 173.082 168.414 172.862 168.401C172.642 168.381 172.419 168.396 172.194 168.446C171.968 168.489 171.751 168.571 171.543 168.691C171.207 168.885 171.025 169.067 170.996 169.237C170.967 169.408 171.051 169.55 171.248 169.663C171.404 169.754 171.566 169.804 171.734 169.814C171.901 169.824 172.098 169.797 172.324 169.734C172.544 169.667 172.816 169.567 173.14 169.433C173.689 169.202 174.155 169.047 174.537 168.967C174.913 168.883 175.24 168.862 175.518 168.902C175.796 168.942 176.062 169.035 176.317 169.182C176.589 169.339 176.742 169.521 176.777 169.729C176.811 169.929 176.742 170.14 176.568 170.36C176.4 170.577 176.143 170.786 175.796 170.986ZM180.731 168.137C180.297 168.388 179.823 168.548 179.308 168.618C178.798 168.685 178.278 168.665 177.745 168.558C177.213 168.444 176.704 168.247 176.218 167.967C175.732 167.686 175.393 167.394 175.202 167.09C175.017 166.782 174.979 166.483 175.089 166.193C175.199 165.895 175.465 165.625 175.888 165.381C176.287 165.15 176.736 165.002 177.233 164.935C177.725 164.865 178.237 164.883 178.77 164.99C179.302 165.097 179.826 165.299 180.341 165.596L180.558 165.722L177.207 167.656C177.728 167.923 178.229 168.062 178.709 168.072C179.195 168.079 179.638 167.967 180.037 167.736C180.338 167.562 180.514 167.38 180.566 167.19C180.618 166.993 180.566 166.806 180.41 166.629L181.252 166.213C181.541 166.52 181.648 166.849 181.573 167.2C181.498 167.544 181.217 167.856 180.731 168.137ZM176.565 167.285L179.117 165.812C178.636 165.575 178.179 165.461 177.745 165.471C177.311 165.481 176.924 165.585 176.582 165.782C176.229 165.985 176.047 166.218 176.035 166.478C176.024 166.732 176.2 167.001 176.565 167.285ZM186.17 164.877C185.724 165.134 185.288 165.266 184.859 165.272C184.431 165.279 184.003 165.159 183.575 164.912L179.165 162.366L179.895 161.945L184.304 164.491C184.518 164.614 184.726 164.678 184.929 164.681C185.126 164.681 185.325 164.623 185.528 164.506L186.76 163.794L187.403 164.165L186.17 164.877ZM179.365 164.235L178.723 163.864L182.802 161.509L183.445 161.88L179.365 164.235ZM191.114 162.022C190.669 162.279 190.232 162.411 189.803 162.418C189.375 162.425 188.947 162.304 188.519 162.057L184.11 159.511L184.839 159.091L189.248 161.636C189.462 161.76 189.67 161.823 189.873 161.827C190.07 161.827 190.269 161.768 190.472 161.651L191.704 160.94L192.347 161.311L191.114 162.022ZM184.309 161.381L183.667 161.01L187.746 158.655L188.389 159.025L184.309 161.381ZM195.147 159.694L190.217 156.847C190.032 156.741 189.835 156.687 189.626 156.687C189.418 156.687 189.221 156.741 189.036 156.847L187.951 157.474L187.309 157.103L188.429 156.457C188.851 156.213 189.279 156.092 189.713 156.096C190.147 156.092 190.575 156.213 190.998 156.457L195.876 159.273L195.147 159.694ZM193.298 160.761L192.656 160.39L196.822 157.985L197.464 158.356L193.298 160.761ZM200.508 156.719C200.074 156.97 199.599 157.13 199.084 157.2C198.575 157.267 198.054 157.247 197.522 157.14C196.989 157.026 196.48 156.829 195.994 156.549C195.508 156.268 195.169 155.976 194.978 155.672C194.793 155.364 194.756 155.065 194.866 154.775C194.976 154.477 195.242 154.207 195.664 153.963C196.063 153.732 196.512 153.584 197.01 153.517C197.501 153.447 198.014 153.465 198.546 153.572C199.078 153.679 199.602 153.881 200.117 154.178L200.334 154.304L196.984 156.238C197.504 156.505 198.005 156.644 198.485 156.654C198.971 156.661 199.414 156.549 199.813 156.318C200.114 156.144 200.291 155.962 200.343 155.772C200.395 155.575 200.343 155.388 200.186 155.211L201.028 154.795C201.318 155.102 201.425 155.431 201.349 155.782C201.274 156.126 200.994 156.438 200.508 156.719ZM196.341 155.867L198.893 154.394C198.413 154.157 197.956 154.043 197.522 154.053C197.088 154.063 196.7 154.167 196.359 154.364C196.006 154.568 195.823 154.8 195.812 155.06C195.8 155.314 195.977 155.583 196.341 155.867ZM203.013 155.153L198.412 152.497L199.081 152.111L200.131 152.687L200.027 152.727C199.737 152.5 199.578 152.281 199.549 152.071C199.52 151.853 199.639 151.668 199.905 151.514C200.177 151.357 200.484 151.294 200.825 151.324C201.172 151.351 201.554 151.464 201.971 151.665L201.884 151.715C201.578 151.478 201.41 151.247 201.381 151.023C201.358 150.796 201.485 150.602 201.763 150.442C202.133 150.228 202.529 150.146 202.952 150.196C203.374 150.246 203.881 150.442 204.471 150.783L207.526 152.547L206.797 152.968L203.846 151.264C203.435 151.027 203.105 150.886 202.856 150.843C202.602 150.796 202.382 150.826 202.197 150.933C202.075 151.003 202.009 151.088 201.997 151.189C201.98 151.285 202.026 151.399 202.136 151.529C202.252 151.656 202.44 151.795 202.7 151.945L205.634 153.639L204.905 154.06L201.954 152.356C201.56 152.129 201.233 151.99 200.973 151.94C200.718 151.887 200.495 151.915 200.304 152.025C200.183 152.096 200.116 152.181 200.105 152.281C200.087 152.378 200.134 152.492 200.244 152.622C200.359 152.749 200.548 152.887 200.808 153.038L203.742 154.732L203.013 155.153ZM210.396 151.01C209.962 151.261 209.487 151.421 208.972 151.491C208.463 151.558 207.942 151.538 207.41 151.431C206.877 151.318 206.368 151.12 205.882 150.84C205.396 150.559 205.058 150.267 204.867 149.963C204.681 149.655 204.644 149.356 204.754 149.066C204.864 148.768 205.13 148.498 205.552 148.254C205.952 148.023 206.4 147.875 206.898 147.808C207.39 147.738 207.902 147.756 208.434 147.863C208.966 147.97 209.49 148.172 210.005 148.469L210.222 148.595L206.872 150.529C207.392 150.796 207.893 150.935 208.373 150.945C208.859 150.952 209.302 150.84 209.701 150.609C210.002 150.436 210.179 150.253 210.231 150.063C210.283 149.866 210.231 149.679 210.075 149.502L210.916 149.086C211.206 149.393 211.313 149.722 211.238 150.073C211.162 150.417 210.882 150.73 210.396 151.01ZM206.229 150.158L208.781 148.685C208.301 148.448 207.844 148.334 207.41 148.344C206.976 148.354 206.588 148.458 206.247 148.655C205.894 148.859 205.711 149.091 205.7 149.351C205.688 149.605 205.865 149.874 206.229 150.158ZM213.283 149.223L208.682 146.567L209.351 146.181L210.549 146.843L210.384 146.848C210.17 146.657 210.051 146.469 210.028 146.281C210.005 146.088 210.057 145.904 210.184 145.73C210.311 145.557 210.494 145.401 210.731 145.264C211.084 145.06 211.454 144.937 211.842 144.893C212.235 144.847 212.626 144.865 213.014 144.948C213.395 145.029 213.748 145.162 214.073 145.349L217.032 147.058L216.303 147.479L213.552 145.891C213.124 145.643 212.716 145.505 212.328 145.475C211.934 145.441 211.564 145.525 211.217 145.725C210.98 145.862 210.818 146.016 210.731 146.186C210.638 146.353 210.632 146.527 210.713 146.707C210.794 146.881 210.977 147.05 211.26 147.214L214.012 148.802L213.283 149.223ZM220.779 144.895C220.333 145.153 219.896 145.285 219.468 145.291C219.04 145.298 218.612 145.178 218.183 144.93L213.774 142.385L214.503 141.964L218.912 144.509C219.127 144.633 219.335 144.697 219.537 144.7C219.734 144.7 219.934 144.641 220.136 144.524L221.369 143.813L222.011 144.184L220.779 144.895ZM213.974 144.254L213.331 143.883L217.411 141.528L218.053 141.899L213.974 144.254Z" fill="#FF8808"/>
<path d="M159.863 122.226L157.563 121.038L156.903 120.658L157.667 120.217L158.327 120.597L160.384 121.925L159.863 122.226ZM168.531 121.221C167.883 121.595 167.168 121.77 166.387 121.747C165.606 121.724 164.862 121.508 164.156 121.101L160.146 118.785L160.893 118.354L164.903 120.67C165.412 120.964 165.913 121.122 166.404 121.146C166.902 121.166 167.368 121.05 167.802 120.8C168.236 120.549 168.433 120.282 168.392 119.998C168.357 119.711 168.085 119.42 167.576 119.126L163.566 116.811L164.313 116.38L168.323 118.695C169.029 119.103 169.402 119.532 169.442 119.983C169.483 120.434 169.179 120.847 168.531 121.221ZM173.571 118.311C173.137 118.562 172.662 118.732 172.147 118.822C171.632 118.913 171.117 118.926 170.602 118.862C170.081 118.796 169.595 118.652 169.144 118.432L169.873 117.95C170.22 118.104 170.567 118.204 170.915 118.251C171.268 118.295 171.606 118.286 171.93 118.226C172.26 118.163 172.569 118.047 172.859 117.88C173.148 117.713 173.356 117.553 173.484 117.399C173.605 117.242 173.646 117.095 173.605 116.958C173.565 116.815 173.446 116.686 173.249 116.572C173.053 116.459 172.836 116.387 172.598 116.357C172.361 116.32 172.054 116.337 171.678 116.407C171.308 116.474 170.816 116.607 170.203 116.808C169.653 116.985 169.173 117.109 168.762 117.179C168.357 117.246 167.989 117.254 167.66 117.204C167.336 117.15 167.02 117.035 166.714 116.858C166.366 116.658 166.144 116.435 166.045 116.191C165.947 115.941 165.979 115.685 166.141 115.425C166.297 115.161 166.586 114.907 167.009 114.663C167.431 114.419 167.88 114.26 168.354 114.187C168.823 114.11 169.291 114.107 169.76 114.177C170.235 114.244 170.683 114.372 171.105 114.563L170.376 115.044C170.093 114.92 169.801 114.835 169.5 114.788C169.193 114.738 168.889 114.737 168.588 114.783C168.287 114.83 167.998 114.934 167.72 115.094C167.338 115.315 167.127 115.543 167.087 115.781C167.04 116.014 167.165 116.217 167.46 116.387C167.651 116.497 167.851 116.566 168.059 116.592C168.267 116.612 168.528 116.589 168.84 116.522C169.147 116.452 169.549 116.337 170.047 116.176C170.689 115.966 171.244 115.826 171.713 115.756C172.188 115.682 172.61 115.679 172.98 115.745C173.351 115.806 173.707 115.934 174.048 116.131C174.372 116.318 174.569 116.536 174.638 116.783C174.708 117.03 174.653 117.286 174.473 117.55C174.294 117.813 173.993 118.067 173.571 118.311ZM176.458 116.484L170.295 112.926L171.753 112.084C172.285 111.777 172.87 111.58 173.506 111.493C174.143 111.399 174.8 111.424 175.477 111.568C176.154 111.705 176.822 111.964 177.482 112.345C178.141 112.726 178.59 113.112 178.827 113.502C179.07 113.89 179.111 114.267 178.949 114.635C178.792 114.999 178.448 115.335 177.916 115.642L176.458 116.484ZM176.475 115.632L177.143 115.246C177.745 114.899 178.017 114.518 177.959 114.104C177.901 113.683 177.482 113.247 176.701 112.796C175.919 112.345 175.164 112.103 174.435 112.069C173.706 112.029 173.041 112.183 172.439 112.53L171.77 112.916L176.475 115.632ZM182.851 112.793L177.418 109.656L175.534 110.743L174.805 110.322L179.318 107.716L180.048 108.137L178.164 109.225L183.598 112.362L182.851 112.793ZM184.584 107.954L182.284 106.766L181.624 106.385L182.388 105.944L183.047 106.325L185.104 107.653L184.584 107.954ZM200.928 134.517L198.628 133.33L197.969 132.949L198.732 132.508L199.392 132.889L201.449 134.217L200.928 134.517ZM207.374 134.634L201.211 131.076L201.958 130.645L204.952 132.374L204.275 132.424L207.713 130.44L207.626 130.831L204.631 129.102L205.378 128.671L211.54 132.229L210.794 132.66L207.765 130.911L208.442 130.861L205.004 132.845L205.091 132.455L208.121 134.203L207.374 134.634ZM212.492 131.68L211.763 131.259L213.299 130.372L208.595 127.656L207.058 128.543L206.329 128.122L210.148 125.917L210.877 126.338L209.341 127.225L214.045 129.941L215.582 129.054L216.311 129.475L212.492 131.68ZM219.467 127.813C219.033 128.064 218.527 128.219 217.948 128.279C217.369 128.333 216.744 128.279 216.073 128.119C215.396 127.955 214.705 127.669 213.999 127.262C213.333 126.878 212.85 126.495 212.549 126.114C212.254 125.73 212.147 125.364 212.228 125.017C212.303 124.666 212.581 124.352 213.061 124.075C213.437 123.857 213.854 123.714 214.311 123.644C214.774 123.57 215.254 123.563 215.752 123.624C216.244 123.68 216.727 123.796 217.201 123.969L216.472 124.45C215.992 124.287 215.515 124.202 215.04 124.195C214.571 124.185 214.155 124.285 213.79 124.496C213.472 124.679 213.298 124.893 213.27 125.137C213.235 125.378 213.345 125.641 213.599 125.929C213.854 126.209 214.247 126.503 214.78 126.811C215.306 127.115 215.816 127.339 216.307 127.482C216.799 127.626 217.256 127.689 217.679 127.673C218.101 127.649 218.477 127.542 218.807 127.352C219.102 127.182 219.279 126.993 219.337 126.786C219.395 126.572 219.348 126.351 219.198 126.124C219.042 125.894 218.793 125.673 218.451 125.463L216.976 126.315L216.264 125.904L218.434 124.651L221.55 126.45L220.856 126.851L219.363 126.029L219.64 125.949C219.855 126.166 220.005 126.383 220.092 126.6C220.184 126.814 220.184 127.025 220.092 127.232C219.999 127.432 219.791 127.626 219.467 127.813ZM222.206 126.071L216.044 122.513L216.79 122.082L219.785 123.811L219.108 123.861L222.545 121.877L222.458 122.267L219.463 120.539L220.21 120.108L226.373 123.666L225.626 124.097L222.597 122.348L223.274 122.298L219.837 124.282L219.924 123.891L222.953 125.64L222.206 126.071ZM225.649 120.245L223.349 119.057L222.689 118.676L223.453 118.235L224.112 118.616L226.17 119.944L225.649 120.245ZM231.349 134.954L229.049 133.766L228.389 133.385L229.153 132.944L229.813 133.325L231.87 134.653L231.349 134.954ZM237.968 134.971L237.239 134.55L238.776 133.663L234.071 130.947L232.535 131.834L231.806 131.413L235.625 129.208L236.354 129.629L234.818 130.516L239.522 133.232L241.058 132.345L241.787 132.766L237.968 134.971ZM242.826 132.166L236.663 128.608L237.722 127.997L245.221 129.801L239.909 126.734L240.656 126.303L246.818 129.861L245.759 130.473L238.26 128.669L243.572 131.735L242.826 132.166ZM250 128.184C249.566 128.435 249.092 128.605 248.577 128.696C248.062 128.786 247.547 128.799 247.032 128.736C246.511 128.669 246.025 128.525 245.574 128.305L246.303 127.824C246.65 127.977 246.997 128.078 247.344 128.124C247.697 128.168 248.036 128.159 248.36 128.099C248.69 128.036 248.999 127.921 249.289 127.753C249.578 127.586 249.786 127.426 249.914 127.272C250.035 127.115 250.076 126.968 250.035 126.831C249.995 126.688 249.876 126.559 249.679 126.446C249.483 126.332 249.266 126.26 249.028 126.23C248.791 126.193 248.484 126.21 248.108 126.28C247.738 126.347 247.246 126.481 246.633 126.681C246.083 126.858 245.603 126.982 245.192 127.052C244.787 127.119 244.419 127.127 244.089 127.077C243.765 127.024 243.45 126.908 243.143 126.731C242.796 126.531 242.573 126.309 242.475 126.065C242.377 125.814 242.409 125.559 242.571 125.298C242.727 125.034 243.016 124.78 243.439 124.536C243.861 124.292 244.309 124.134 244.784 124.06C245.253 123.983 245.721 123.98 246.19 124.05C246.664 124.117 247.113 124.246 247.535 124.436L246.806 124.917C246.523 124.793 246.231 124.708 245.93 124.662C245.623 124.611 245.319 124.61 245.018 124.657C244.717 124.703 244.428 124.807 244.15 124.967C243.768 125.188 243.557 125.417 243.517 125.654C243.47 125.888 243.595 126.09 243.89 126.26C244.081 126.37 244.28 126.439 244.489 126.466C244.697 126.486 244.957 126.462 245.27 126.395C245.577 126.325 245.979 126.21 246.476 126.05C247.119 125.839 247.674 125.699 248.143 125.629C248.617 125.555 249.04 125.552 249.41 125.619C249.781 125.679 250.136 125.807 250.478 126.005C250.802 126.192 250.999 126.409 251.068 126.656C251.137 126.903 251.082 127.159 250.903 127.423C250.724 127.687 250.423 127.941 250 128.184ZM254.337 125.52L248.903 122.383L247.02 123.471L246.291 123.05L250.804 120.444L251.533 120.865L249.65 121.952L255.083 125.089L254.337 125.52ZM257.276 123.824L252.988 119.183L253.995 118.602L262.032 121.077L261.234 121.538L254.169 119.283L258.075 123.363L257.276 123.824ZM256.469 122.265L256 121.694L258.344 120.341L259.333 120.611L256.469 122.265ZM262.602 120.749L256.439 117.191L257.498 116.579L264.998 118.383L259.686 115.316L260.432 114.885L266.595 118.443L265.536 119.055L258.036 117.251L263.348 120.318L262.602 120.749ZM269.169 116.957L263.736 113.82L261.852 114.907L261.123 114.486L265.636 111.881L266.366 112.302L264.482 113.389L269.916 116.526L269.169 116.957ZM270.902 112.118L268.602 110.93L267.942 110.55L268.706 110.109L269.365 110.489L271.423 111.817L270.902 112.118Z" fill="#70FF72"/>
</g>
<defs>
<filter id="filter0_ddi_1002_446" x="50.8647" y="-1.00136e-05" width="340.142" height="203.83" filterUnits="userSpaceOnUse" color-interpolation-filters="sRGB">
<feFlood flood-opacity="0" result="BackgroundImageFix"/>
<feColorMatrix in="SourceAlpha" type="matrix" values="0 0 0 0 0 0 0 0 0 0 0 0 0 0 0 0 0 0 127 0" result="hardAlpha"/>
<feOffset/>
<feGaussianBlur stdDeviation="0.954528"/>
<feComposite in2="hardAlpha" operator="out"/>
<feColorMatrix type="matrix" values="0 0 0 0 0.184314 0 0 0 0 0.329412 0 0 0 0 0.227451 0 0 0 0.24 0"/>
<feBlend mode="normal" in2="BackgroundImageFix" result="effect1_dropShadow_1002_446"/>
<feColorMatrix in="SourceAlpha" type="matrix" values="0 0 0 0 0 0 0 0 0 0 0 0 0 0 0 0 0 0 127 0" result="hardAlpha"/>
<feOffset dy="-3.38962"/>
<feGaussianBlur stdDeviation="4.40651"/>
<feComposite in2="hardAlpha" operator="out"/>
<feColorMatrix type="matrix" values="0 0 0 0 0.227451 0 0 0 0 0.34902 0 0 0 0 0.156863 0 0 0 0.33 0"/>
<feBlend mode="normal" in2="effect1_dropShadow_1002_446" result="effect2_dropShadow_1002_446"/>
<feBlend mode="normal" in="SourceGraphic" in2="BackgroundImageFix" result="shape"/>
<feColorMatrix in="SourceAlpha" type="matrix" values="0 0 0 0 0 0 0 0 0 0 0 0 0 0 0 0 0 0 127 0" result="hardAlpha"/>
<feOffset/>
<feGaussianBlur stdDeviation="33.9031"/>
<feComposite in2="hardAlpha" operator="arithmetic" k2="-1" k3="1"/>
<feColorMatrix type="matrix" values="0 0 0 0 0.221564 0 0 0 0 0.369629 0 0 0 0 0.131079 0 0 0 1 0"/>
<feBlend mode="normal" in2="shape" result="effect3_innerShadow_1002_446"/>
<feBlend mode="normal" in="effect3_innerShadow_1002_446" in2="effect2_dropShadow_1002_446" result="effect3_innerShadow_1002_446"/>
</filter>
<linearGradient id="paint0_linear_1002_446" x1="32.9562" y1="199.203" x2="95.6238" y2="261.314" gradientUnits="userSpaceOnUse">
<stop offset="0.0373123" stop-color="#3C6C1F"/>
</linearGradient>
<linearGradient id="paint1_linear_1002_446" x1="343.359" y1="59.7707" x2="431.361" y2="26.7566" gradientUnits="userSpaceOnUse">
<stop offset="0.0373123" stop-color="#3C6C1F"/>
<stop offset="1" stop-opacity="0"/>
</linearGradient>
<radialGradient id="paint2_radial_1002_446" cx="0" cy="0" r="1" gradientTransform="matrix(-207.251 124.861 -33.6123 -229.23 227.097 6.59221)" gradientUnits="userSpaceOnUse">
<stop stop-color="white"/>
<stop offset="1" stop-color="#507A37"/>
</radialGradient>
</defs>
</svg>
