
<svg id="svg" version="1.1" xmlns="http://www.w3.org/2000/svg" xmlns:xlink="http://www.w3.org/1999/xlink" width="400" height="160.0451467268623" viewBox="0, 0, 400,160.0451467268623"><g id="svgg"><path id="path0" d="M321.359 33.684 C 309.513 36.171,305.154 49.585,313.571 57.646 C 314.182 58.230,314.659 58.726,314.632 58.748 C 314.605 58.770,314.250 58.996,313.842 59.251 C 308.851 62.361,306.033 69.913,307.647 75.850 C 311.397 89.640,331.327 92.726,339.855 80.837 C 343.613 75.599,343.499 67.329,339.607 62.793 C 339.411 62.565,338.950 62.020,338.583 61.582 C 337.963 60.843,335.745 58.943,335.346 58.809 C 335.249 58.777,335.825 58.069,336.626 57.237 C 346.750 46.729,336.266 30.555,321.359 33.684 M76.747 34.788 C 76.812 34.951,77.125 35.758,77.443 36.583 C 77.760 37.408,78.200 38.496,78.420 39.000 C 78.859 40.006,84.060 53.089,84.718 54.843 C 84.943 55.444,85.324 56.365,85.564 56.890 C 85.804 57.414,86.000 57.880,86.000 57.924 C 86.000 57.968,86.968 60.427,88.152 63.387 C 89.336 66.347,90.693 69.777,91.167 71.009 C 91.642 72.242,92.145 73.512,92.285 73.833 C 92.425 74.154,92.637 74.642,92.756 74.917 C 92.875 75.192,93.394 76.504,93.909 77.833 C 94.424 79.162,95.458 81.769,96.208 83.625 L 97.570 87.000 101.720 87.000 C 104.974 87.000,105.850 86.955,105.782 86.792 C 104.926 84.738,104.090 82.778,103.847 82.250 C 103.678 81.883,103.033 80.346,102.414 78.833 C 101.795 77.321,100.955 75.296,100.547 74.333 C 99.259 71.290,96.516 64.728,94.817 60.621 C 93.914 58.441,92.949 56.167,92.671 55.567 C 92.394 54.968,92.167 54.447,92.167 54.411 C 92.167 54.300,89.825 48.675,89.325 47.583 C 89.179 47.266,87.415 43.036,85.015 37.250 L 83.909 34.583 80.269 34.538 C 76.843 34.496,76.635 34.511,76.747 34.788 M257.333 34.566 C 257.333 34.723,260.337 42.395,260.668 43.083 C 260.756 43.267,261.545 45.254,262.422 47.500 C 263.299 49.746,264.237 52.108,264.506 52.750 C 264.775 53.392,265.598 55.454,266.335 57.333 C 267.071 59.212,267.746 60.900,267.834 61.083 C 267.922 61.267,268.712 63.254,269.589 65.500 C 270.466 67.746,271.404 70.108,271.674 70.750 C 271.944 71.392,273.502 75.292,275.136 79.417 L 278.107 86.917 282.220 86.961 C 285.085 86.992,286.333 86.951,286.333 86.826 C 286.333 86.726,286.138 86.219,285.899 85.698 C 285.660 85.176,284.878 83.325,284.161 81.583 C 283.443 79.842,282.244 76.954,281.495 75.167 C 280.747 73.379,279.774 71.054,279.333 70.000 C 278.892 68.946,277.806 66.358,276.918 64.250 C 276.030 62.142,274.866 59.367,274.331 58.083 C 272.072 52.667,271.456 51.194,269.664 46.917 C 268.626 44.442,267.045 40.654,266.148 38.500 L 264.519 34.583 260.926 34.538 C 258.950 34.514,257.333 34.526,257.333 34.566 M126.528 34.796 C 126.599 34.963,129.529 39.180,132.633 43.583 C 132.892 43.950,133.469 44.775,133.917 45.417 C 134.364 46.058,134.995 46.958,135.318 47.417 C 135.641 47.875,136.641 49.300,137.539 50.583 C 138.438 51.867,139.903 53.955,140.795 55.225 C 141.687 56.494,142.529 57.695,142.667 57.893 C 142.986 58.354,145.890 62.517,147.433 64.724 C 153.892 73.968,155.945 76.896,156.565 77.750 C 156.965 78.300,157.649 79.275,158.085 79.917 C 158.522 80.558,159.820 82.415,160.969 84.042 L 163.060 87.000 167.613 87.000 C 170.118 87.000,172.167 86.970,172.167 86.934 C 172.167 86.866,169.585 83.111,166.081 78.083 C 164.995 76.525,163.576 74.477,162.928 73.533 C 162.280 72.588,161.258 71.126,160.657 70.283 C 160.056 69.440,159.100 68.075,158.533 67.250 C 157.966 66.425,157.290 65.450,157.032 65.083 C 156.774 64.717,155.993 63.584,155.297 62.567 L 154.032 60.718 155.592 58.484 C 156.450 57.255,157.436 55.839,157.784 55.336 C 158.132 54.834,159.392 53.033,160.583 51.334 C 161.775 49.635,163.125 47.704,163.583 47.044 C 164.042 46.384,164.567 45.634,164.750 45.379 C 164.933 45.124,165.758 43.948,166.583 42.765 C 167.408 41.583,168.511 40.008,169.034 39.266 C 171.137 36.280,171.596 35.618,171.890 35.153 L 172.197 34.667 167.451 34.667 L 162.705 34.667 161.695 36.125 C 161.139 36.927,159.836 38.810,158.800 40.309 C 157.764 41.808,156.804 43.196,156.667 43.394 C 155.385 45.241,152.838 48.905,151.795 50.401 C 151.086 51.418,150.267 52.606,149.975 53.042 C 149.298 54.050,149.382 54.080,148.231 52.408 C 147.691 51.623,146.500 49.905,145.583 48.589 C 144.667 47.272,143.304 45.308,142.555 44.223 C 140.287 40.935,137.070 36.298,136.476 35.460 L 135.917 34.670 131.194 34.668 C 128.597 34.667,126.497 34.725,126.528 34.796 M202.167 60.833 L 202.167 87.000 206.333 87.000 L 210.500 87.000 210.500 60.833 L 210.500 34.667 206.333 34.667 L 202.167 34.667 202.167 60.833 M327.830 40.174 C 337.427 43.366,335.190 55.545,325.000 55.577 C 316.938 55.602,312.842 47.501,318.290 42.305 C 319.195 41.441,321.231 40.277,322.201 40.068 C 322.411 40.023,322.883 39.917,323.250 39.833 C 324.286 39.597,326.615 39.770,327.830 40.174 M69.010 61.128 C 68.787 61.653,68.249 62.833,67.816 63.750 C 67.382 64.667,66.543 66.504,65.950 67.833 C 65.357 69.162,64.609 70.813,64.289 71.500 C 63.968 72.188,63.536 73.125,63.330 73.583 C 63.123 74.042,62.357 75.729,61.628 77.333 C 59.539 81.931,57.333 86.862,57.333 86.934 C 57.333 86.970,59.227 87.000,61.543 87.000 L 65.752 87.000 66.572 84.958 C 67.023 83.835,67.609 82.433,67.876 81.842 C 68.142 81.251,68.493 80.426,68.655 80.008 C 69.089 78.895,71.387 73.309,72.086 71.667 C 72.418 70.887,72.921 69.670,73.203 68.961 L 73.717 67.672 78.270 67.628 L 82.824 67.583 82.354 66.583 C 82.096 66.033,81.372 64.365,80.746 62.875 L 79.607 60.167 74.512 60.170 L 69.417 60.172 69.010 61.128 M249.680 60.875 C 248.715 63.093,244.083 73.342,242.544 76.667 C 242.225 77.354,241.865 78.142,241.742 78.417 C 241.620 78.692,240.832 80.417,239.991 82.250 C 239.149 84.083,238.323 85.902,238.153 86.292 L 237.845 87.000 242.070 87.000 L 246.295 87.000 246.576 86.375 C 246.730 86.031,246.923 85.600,247.005 85.417 C 247.086 85.233,247.576 84.033,248.092 82.750 C 248.609 81.467,249.352 79.667,249.744 78.750 C 250.136 77.833,251.110 75.471,251.909 73.500 C 252.707 71.529,253.591 69.410,253.872 68.792 L 254.383 67.667 258.858 67.667 C 261.319 67.667,263.333 67.629,263.333 67.582 C 263.333 67.500,261.210 62.525,260.507 60.958 L 260.151 60.167 255.070 60.167 L 249.988 60.167 249.680 60.875 M328.790 62.807 C 339.141 66.296,338.094 79.338,327.283 81.571 C 320.753 82.920,314.772 78.975,313.757 72.650 C 312.701 66.064,321.453 60.334,328.790 62.807 M136.130 72.941 C 135.646 73.642,134.762 74.916,134.167 75.773 C 133.571 76.629,132.784 77.762,132.417 78.290 C 132.051 78.818,131.071 80.225,130.239 81.417 C 129.407 82.608,128.364 84.108,127.920 84.750 C 127.476 85.392,126.929 86.160,126.704 86.458 L 126.294 87.000 130.961 87.000 L 135.627 87.000 137.452 84.375 C 139.767 81.043,141.929 77.941,142.533 77.083 C 142.791 76.717,143.749 75.348,144.660 74.042 L 146.318 71.667 141.664 71.667 L 137.010 71.667 136.130 72.941 M331.212 110.342 C 325.310 111.507,325.829 117.585,332.000 119.584 C 334.554 120.411,335.500 121.109,335.500 122.167 C 335.500 124.744,330.831 124.635,330.124 122.042 L 329.931 121.333 328.299 121.333 L 326.667 121.333 326.667 121.913 C 326.667 127.454,337.767 128.535,338.859 123.100 C 339.463 120.091,337.931 118.417,333.043 116.746 C 330.842 115.994,330.008 114.943,330.760 113.869 C 331.929 112.200,335.500 112.932,335.500 114.841 C 335.500 115.144,335.625 115.167,337.265 115.167 L 339.029 115.167 338.915 114.458 C 338.403 111.297,335.159 109.563,331.212 110.342 M57.411 110.625 C 57.474 110.785,57.971 112.229,58.516 113.833 C 59.060 115.438,59.832 117.650,60.229 118.750 C 60.627 119.850,61.393 122.044,61.931 123.625 L 62.909 126.500 64.669 126.500 L 66.429 126.500 66.866 125.208 C 67.106 124.498,67.729 122.717,68.251 121.250 C 68.772 119.783,69.681 117.158,70.271 115.417 C 70.861 113.675,71.407 112.100,71.484 111.917 C 71.853 111.045,72.000 110.638,72.000 110.492 C 72.000 110.401,71.200 110.333,70.118 110.333 L 68.236 110.333 68.056 110.958 C 67.957 111.302,67.579 112.558,67.215 113.750 C 66.851 114.942,66.148 117.285,65.652 118.958 C 65.156 120.631,64.708 122.000,64.655 122.000 C 64.579 122.000,62.082 113.727,61.322 110.958 L 61.151 110.333 59.224 110.333 C 57.457 110.333,57.307 110.357,57.411 110.625 M97.833 118.417 L 97.833 126.500 103.250 126.500 L 108.667 126.500 108.667 125.083 L 108.667 123.667 104.917 123.667 L 101.167 123.667 101.167 121.583 L 101.167 119.500 104.333 119.500 L 107.500 119.500 107.500 118.167 L 107.500 116.833 104.333 116.833 L 101.167 116.833 101.167 115.000 L 101.167 113.167 104.917 113.167 L 108.667 113.167 108.667 111.750 L 108.667 110.333 103.250 110.333 L 97.833 110.333 97.833 118.417 M135.000 118.417 L 135.000 126.500 136.664 126.500 L 138.329 126.500 138.373 121.292 L 138.417 116.083 138.833 116.791 C 139.442 117.824,142.225 122.400,143.916 125.147 L 144.749 126.500 146.458 126.500 L 148.167 126.500 148.167 118.417 L 148.167 110.333 146.419 110.333 L 144.671 110.333 144.627 115.445 L 144.583 120.556 142.266 116.736 C 140.991 114.635,139.604 112.337,139.182 111.629 L 138.417 110.342 136.708 110.337 L 135.000 110.333 135.000 118.417 M174.000 111.750 L 174.000 113.167 176.500 113.167 L 179.000 113.167 179.000 119.833 L 179.000 126.500 180.667 126.500 L 182.333 126.500 182.333 119.833 L 182.333 113.167 184.750 113.167 L 187.167 113.167 187.167 111.750 L 187.167 110.333 180.583 110.333 L 174.000 110.333 174.000 111.750 M213.201 116.542 C 213.257 123.572,213.301 123.830,214.679 125.075 C 217.323 127.464,222.632 127.099,224.486 124.402 C 225.434 123.021,225.500 122.488,225.500 116.171 L 225.500 110.333 223.845 110.333 L 222.190 110.333 222.136 116.125 C 222.067 123.444,221.884 123.934,219.234 123.905 C 216.708 123.876,216.508 123.302,216.504 116.042 L 216.500 110.333 214.826 110.333 L 213.151 110.333 213.201 116.542 M252.500 118.398 L 252.500 126.500 254.250 126.500 L 256.000 126.500 256.000 123.576 L 256.000 120.653 257.262 120.701 L 258.525 120.750 259.995 123.583 L 261.466 126.417 263.336 126.464 C 264.871 126.503,265.191 126.470,265.118 126.281 C 265.070 126.155,264.280 124.639,263.362 122.913 L 261.694 119.775 262.409 119.321 C 264.424 118.043,265.089 115.350,263.967 113.012 C 262.957 110.907,261.745 110.482,256.458 110.375 L 252.500 110.295 252.500 118.398 M291.167 118.417 L 291.167 126.500 296.583 126.500 L 302.000 126.500 302.000 125.083 L 302.000 123.667 298.333 123.667 L 294.667 123.667 294.667 121.583 L 294.667 119.500 297.833 119.500 L 301.000 119.500 301.000 118.167 L 301.000 116.833 297.833 116.833 L 294.667 116.833 294.667 115.000 L 294.667 113.167 298.333 113.167 L 302.000 113.167 302.000 111.750 L 302.000 110.333 296.583 110.333 L 291.167 110.333 291.167 118.417 M259.727 113.396 C 260.905 113.889,261.408 115.153,260.927 116.414 C 260.514 117.494,259.723 117.833,257.614 117.833 L 256.000 117.833 256.000 115.500 L 256.000 113.167 257.589 113.167 C 258.562 113.167,259.390 113.256,259.727 113.396 " stroke="none" fill="#ffffff" fill-rule="evenodd"></path><path id="path1" d="" stroke="none" fill="#282424" fill-rule="evenodd"></path><path id="path2" d="" stroke="none" fill="#ffffff" fill-rule="evenodd"></path><path id="path3" d="" stroke="none" fill="#ffffff" fill-rule="evenodd"></path><path id="path4" d="" stroke="none" fill="#ffffff" fill-rule="evenodd"></path></g></svg>