<svg width="1378" height="82" viewBox="0 0 1378 82" fill="none" xmlns="http://www.w3.org/2000/svg">
<path d="M154.322 2.59973V12.3487H124.974V79.4003H114.578V12.3487H85.2295V2.59973H154.322Z" fill="white"/>
<path d="M232.187 79.4003V45.8203H184.103V79.4003H173.707V2.59973H184.103V36.1797H232.187V2.59973H242.583V79.4003H232.187Z" fill="white"/>
<path d="M391.165 47.6618L415.315 79.4003H402.32L378.17 47.6618H357.377V79.4003H346.98V2.59973H388.783C403.186 2.59973 413.258 10.7239 413.258 25.1308C413.258 38.8877 404.161 46.7952 391.165 47.6618ZM388.674 12.3487H357.269V38.0211H388.674C397.013 38.0211 402.753 33.4716 402.753 25.1308C402.861 16.79 397.013 12.3487 388.674 12.3487Z" fill="white"/>
<path d="M521.337 79.4003H510.615L544.404 2.59973H555.775L589.455 79.4003H578.3L570.503 61.6354H529.134L521.337 79.4003ZM549.818 13.9736L533.249 51.9947H566.388L549.818 13.9736Z" fill="white"/>
<path d="M616.42 69.6513H667.427V79.4003H606.023V2.59973H616.42V69.6513Z" fill="white"/>
<path d="M959.825 2.59973V79.4003H948.129L901.346 17.4399V79.4003H890.949V2.59973H902.645L949.429 64.5601V2.59973H959.825Z" fill="white"/>
<path d="M1046.79 2.59973V12.3487H1017.44V79.4003H1007.04V12.3487H977.695V2.59973H1046.79Z" fill="white"/>
<path d="M1064.66 2.59973H1075.05V47.5535C1075.05 63.2602 1083.72 71.1678 1097.9 71.1678C1112.09 71.1678 1120.75 63.2602 1120.75 47.5535V2.59973H1131.15V47.5535C1131.15 69.0013 1117.94 80.8084 1097.9 80.8084C1077.76 80.8084 1064.66 68.893 1064.66 47.5535V2.59973Z" fill="white"/>
<path d="M1195.37 47.6618L1219.52 79.4003H1206.52L1182.48 47.6618H1161.58V79.4003H1151.19V2.59973H1192.99C1207.39 2.59973 1217.46 10.7239 1217.46 25.1308C1217.46 38.8877 1208.47 46.7952 1195.37 47.6618ZM1192.99 12.3487H1161.58V38.0211H1192.99C1201.33 38.0211 1207.07 33.4716 1207.07 25.1308C1207.07 16.79 1201.33 12.3487 1192.99 12.3487Z" fill="white"/>
<path d="M1324.03 60.3356C1327.6 66.9432 1335.83 71.1678 1346.01 71.1678C1357.6 71.1678 1366.04 65.7517 1366.04 58.2774C1366.04 50.8032 1360.85 47.4452 1349.69 46.1453L1336.26 44.7372C1320.99 43.2206 1314.71 34.7715 1314.71 24.0476C1314.71 10.5073 1326.19 1.08325 1344.28 1.08325C1363.23 1.08325 1373.19 12.3488 1376.66 21.6645H1365.29C1362.15 15.1652 1353.91 10.8323 1343.84 10.8323C1331.82 10.8323 1325 16.6817 1325 23.7226C1325 30.7636 1330.09 34.4465 1339.19 35.4214L1353.59 36.9379C1367.78 38.4545 1376.12 46.4703 1376.12 57.8442C1376.12 69.3263 1365.83 81.0251 1345.68 81.0251C1325.43 81.0251 1315.9 70.4095 1312.44 60.4439H1324.03V60.3356Z" fill="white"/>
<path d="M324.888 12.3487V2.59973H264.784V25.7807C264.784 31.5218 269.441 36.1797 275.181 36.1797V12.3487H324.888ZM321.856 45.8203V36.0713H275.072V45.8203H321.856ZM264.784 56.2193V79.4003H324.888V69.6513H275.181V45.8203C269.441 45.8203 264.784 50.4782 264.784 56.2193Z" fill="white"/>
<path d="M28.0487 45.0621C17.8689 45.0621 11.4794 50.0449 11.4794 58.3858C11.4794 65.86 18.3021 71.1678 28.0487 71.1678H46.0258C53.9314 71.1678 59.7794 68.2431 63.0283 60.3356H73.7495C70.0675 74.5258 58.913 80.9168 46.0258 80.9168H28.0487C10.9379 80.9168 1.08301 70.1929 1.08301 58.1691C1.08301 51.8864 3.24893 45.4954 11.1545 40.0793C3.7904 34.9881 1.4079 29.0304 1.4079 22.9644C1.4079 11.4822 11.0462 1.08325 27.7238 1.08325H45.7009C58.3715 1.08325 69.6343 7.36595 73.3164 21.6645H62.5951C59.6711 13.8653 53.4982 10.8323 45.7009 10.8323H27.7238C18.4103 10.8323 11.9126 15.7068 11.9126 22.9644C11.9126 30.9802 18.0855 35.4214 27.7238 35.4214H45.7009H54.6895V45.0621H46.0258H28.0487Z" fill="white"/>
<path d="M491.013 45.8203V36.0713H444.23V45.8203H491.013ZM494.046 12.3487V2.59973H433.941V12.3487V25.7807C433.941 31.5218 438.598 36.1797 444.338 36.1797V12.3487H494.046ZM433.941 56.2193V69.6513V79.4003H494.046V69.6513H444.338V45.8203C438.598 45.8203 433.941 50.4782 433.941 56.2193Z" fill="white"/>
<path d="M868.75 12.3487V2.59973H808.646V25.7807C808.646 31.5218 813.302 36.1797 819.042 36.1797V12.3487H868.75ZM865.826 45.8203V36.0713H819.042V45.8203H865.826ZM808.646 56.2193V79.4003H868.75V69.6513H819.042V45.8203C813.302 45.8203 808.646 50.4782 808.646 56.2193Z" fill="white"/>
<path d="M1294.03 45.8203V36.0713H1247.24V45.8203H1294.03ZM1236.96 56.2193V69.6513V79.4003H1297.06V69.6513H1247.35V45.8203C1241.61 45.8203 1236.96 50.4782 1236.96 56.2193ZM1297.06 12.3487V2.59973H1236.96V12.3487V25.7807C1236.96 31.5218 1241.61 36.1797 1247.35 36.1797V12.3487H1297.06Z" fill="white"/>
<path d="M750.815 79.4003H742.801C740.635 79.4003 738.578 77.9921 737.928 75.9339L712.37 2.59973H723.416L750.815 79.4003Z" fill="white"/>
<path d="M778.214 2.59973H789.369L763.811 75.9339C763.053 77.9921 761.104 79.4003 758.938 79.4003H750.924L778.214 2.59973Z" fill="white"/>
<path d="M756.771 35.4214H744.858L741.501 25.7807H760.236L756.771 35.4214Z" fill="white"/>
</svg>
