<svg class="md:hidden" width="288" height="14" viewBox="0 0 288 14" fill="none" xmlns="http://www.w3.org/2000/svg">
					<path d="M3.48947 2.75522V5.93432H9.1995V8.58357H3.48947V13.8821H0V0.0302734H10.7063V2.75522H3.48947Z" fill="white"></path>
					<path d="M32.119 11.1422V13.8821H22.4833V0.0302734H26.0164V11.1422H32.119Z" fill="white"></path>
					<path d="M45.4821 11.7339C44.3718 10.3265 43.8959 8.62283 43.8959 6.91913C43.8959 3.36359 45.9579 0.0302734 50.399 0.0302734C52.461 0.0302734 53.9678 0.622864 55.1574 2.10434C56.2677 3.36359 56.7435 5.36358 56.7435 6.91913C56.7435 8.47468 56.347 10.4006 55.3953 11.5858C54.285 13.1413 52.461 13.8821 50.399 13.8821C48.3371 13.8821 46.6716 13.2154 45.4821 11.7339ZM48.0199 4.10433C47.7026 4.91914 47.6233 6.03025 47.6233 6.84506C47.6233 8.54876 47.9405 11.2154 50.399 11.2154C51.5093 11.2154 52.2231 10.6969 52.6196 9.65986C52.9368 8.9932 53.0161 7.73394 53.0161 6.91913C53.0161 5.8821 52.8575 4.77099 52.461 3.80804C52.0645 2.84508 51.43 2.54878 50.399 2.54878C49.1301 2.54878 48.4164 3.14137 48.0199 4.10433Z" fill="white"></path>
					<path d="M86.2057 13.8821H82.7163L80.2578 4.84829L77.9579 13.8821H74.627L70.6617 0.105555H74.2305L76.5304 9.2899L78.9889 0.105555H82.1611L84.6989 9.2899L84.8575 8.68764L87.0781 0.0302734H89.9331L86.2057 13.8821Z" fill="white"></path>
					<path d="M144.919 13.8821H143.154V1.54413H139.182V0.0302734H148.818V1.54413H144.846L144.919 13.8821Z" fill="white"></path>
					<path d="M169.575 13.8068L167.059 7.85955H163.391V13.8068H161.665V0.0302734H166.699C167.85 0.0302734 168.928 0.180836 169.719 0.85837C170.582 1.5359 171.157 2.66513 171.157 3.86963C171.157 5.45054 170.151 7.03145 168.64 7.40786L171.301 13.7315H169.431V13.8821H169.575V13.8068ZM166.483 6.4292C167.346 6.4292 168.137 6.27864 168.784 5.6011C169.288 5.07413 169.431 4.54716 169.431 3.79435C169.431 2.96625 169.144 2.28872 168.425 1.83703C167.85 1.46062 167.274 1.46062 166.555 1.46062H163.175V6.35392L166.483 6.4292Z" fill="white"></path>
					<path d="M194.855 13.8821H193.142L191.786 9.79465H186.79L185.576 13.8821H184.149L188.503 0.0302734H190.358L194.855 13.8821ZM189.288 1.8469L187.218 8.50787H191.286L189.288 1.8469Z" fill="white"></path>
					<path d="M208.773 0.0302734H213.114C214.994 0.0302734 216.514 0.408738 217.816 1.99829C218.973 3.43645 219.48 5.17739 219.48 6.91832C219.48 8.65926 218.973 10.2488 218.033 11.687C217.02 13.2008 215.501 13.8821 213.692 13.8821H208.918V0.0302734H208.773ZM212.969 12.2925C214.488 12.2925 215.79 11.9141 216.731 10.5516C217.382 9.49188 217.743 8.12941 217.743 6.84263C217.743 5.40447 217.382 3.89061 216.514 2.75522C215.501 1.54413 214.488 1.31705 213.041 1.31705H210.509V12.2168C210.509 12.2925 212.969 12.2925 212.969 12.2925Z" fill="white"></path>
					<path d="M243.033 13.8821H233.398V0.0302734H242.796V1.54413H235.214V5.85862H241.217V7.29679H235.214V12.2925H243.033V13.8821Z" fill="white"></path>
					<path d="M264.75 13.8068L261.953 7.85955H257.799V13.8068H255.881V0.0302734H261.474C262.752 0.0302734 263.951 0.180836 264.83 0.85837C265.788 1.5359 266.428 2.66513 266.428 3.86963C266.428 5.45054 265.309 7.03145 263.631 7.40786L266.587 13.7315H264.51V13.8821H264.75V13.8068ZM261.394 6.4292C262.353 6.4292 263.232 6.27864 263.951 5.6011C264.51 5.07413 264.67 4.54716 264.67 3.79435C264.67 2.96625 264.35 2.28872 263.551 1.83703C262.912 1.46062 262.273 1.46062 261.474 1.46062H257.719V6.35392L261.394 6.4292Z" fill="white"></path>
					<path d="M278.76 9.68232C279.347 11.598 280.887 12.4085 282.867 12.4085C283.673 12.4085 284.773 12.1874 285.287 11.7454C285.8 11.377 286.167 10.7138 286.167 9.97704C286.167 8.57713 284.993 8.06137 283.82 7.84033L281.547 7.25089C280.667 7.02985 279.787 6.88249 278.98 6.21937C278.32 5.62993 277.954 4.6721 277.954 3.78794C277.954 1.20915 280.227 0.0302734 282.647 0.0302734C285.067 0.0302734 286.827 1.06179 287.487 3.27218L285.947 3.64058C285.653 2.16699 284.04 1.28283 282.5 1.28283C281.254 1.28283 279.567 1.94595 279.567 3.41954C279.567 4.89314 280.74 5.33522 282.134 5.55626L284.187 6.07201C285.067 6.29305 286.093 6.58777 286.753 7.10353C287.633 7.76665 288 8.6508 288 9.756C288 10.9349 287.413 12.1138 286.46 12.8506C285.433 13.661 284.113 13.8821 282.867 13.8821C280.007 13.8821 278.174 12.7032 277.294 10.0507L278.76 9.68232Z" fill="white"></path>
					<path d="M120.981 13.8821H107.063V0.0302734H120.981V13.8821Z" fill="#E92126"></path>
				</svg>