<?xml version="1.0" encoding="utf-8"?>
<!-- Generator: Adobe Illustrator 27.4.1, SVG Export Plug-In . SVG Version: 6.00 Build 0)  -->
<svg version="1.1" id="uuid-500f1f99-a4d3-43bf-97a1-eed542885d62"
	 xmlns="http://www.w3.org/2000/svg" xmlns:xlink="http://www.w3.org/1999/xlink" x="0px" y="0px" viewBox="0 0 260 65"
	 style="enable-background:new 0 0 260 65;" xml:space="preserve">
<style type="text/css">
	.st0{fill:#FFFFFF;}
</style>
<g id="uuid-1f3d13ce-fe50-4c4b-addc-bab93e04b1d8">
	<g>
		<polygon class="st0" points="35.3,38.2 35.1,38.2 26,24.7 26,45.1 23.2,45.1 23.2,19.9 26.1,19.9 35.2,33.7 44.4,19.9 47.3,19.9 
			47.3,45.1 44.4,45.1 44.4,24.7 		"/>
		<path class="st0" d="M73.6,23.1l-5.8,12.8h11.5L73.6,23.1L73.6,23.1z M86.4,45.1h-3l-3-6.6H66.8l-3,6.6h-2.9l11.5-25.3H75
			L86.4,45.1L86.4,45.1z"/>
		<polygon class="st0" points="115.4,19.9 118.4,19.9 107.6,45.3 105.1,45.3 94.3,19.9 97.4,19.9 106.4,41.6 115.3,19.9 		"/>
		<polygon class="st0" points="150.2,22.5 134.8,22.5 134.8,31.1 148.5,31.1 148.5,33.7 134.8,33.7 134.8,42.5 150.3,42.5 
			150.3,45.1 132,45.1 132,19.9 150.2,19.9 		"/>
		<polygon class="st0" points="183.2,19.9 186,19.9 186,45.1 183.7,45.1 167.5,24.5 167.5,45.1 164.7,45.1 164.7,19.9 167.3,19.9 
			183.2,40.1 		"/>
		<polygon class="st0" points="209.6,19.7 211.7,19.7 211.7,45.1 208.9,45.1 208.9,22.7 204.1,24.2 203.4,21.9 		"/>
		<polygon class="st0" points="234.7,19.7 236.8,19.7 236.8,45.1 234,45.1 234,22.7 229.2,24.2 228.5,21.9 		"/>
	</g>
</g>
</svg>
