<svg width="28" height="28" viewBox="0 0 28 28" fill="none" xmlns="http://www.w3.org/2000/svg">
<path d="M17.2031 4.67969C18.814 4.94822 19.7826 5.33848 21.0576 5.79102C21.8002 6.05472 22.4683 6.56949 22.877 7.30078C25.1093 11.2956 26.006 15.1083 25.9287 18.9121C25.9078 19.9349 25.3873 20.8896 24.5225 21.4531C22.7397 22.6145 21.0613 23.2885 19.5342 23.9248C19.0623 24.1214 18.5178 23.919 18.2891 23.4619L17.2393 21.3623C16.2017 21.6469 14.9693 21.8828 13.7168 21.8828C12.464 21.8828 11.2311 21.647 10.1934 21.3623L9.14355 23.4619C8.9149 23.9191 8.37129 24.1212 7.89941 23.9248C6.37239 23.2885 4.69307 22.6146 2.91016 21.4531C2.04541 20.8896 1.5247 19.935 1.50391 18.9121L1.50488 18.9111C1.42757 15.1074 2.32425 11.2955 4.55664 7.30078C4.9653 6.56945 5.63232 6.05471 6.375 5.79102C7.65022 5.33842 8.61922 4.94823 10.2305 4.67969L10.3828 4.66699C10.7372 4.66425 11.0705 4.85561 11.2441 5.17383L11.7979 6.18848C12.2626 6.10573 12.9147 6.02734 13.7168 6.02734C14.5179 6.02738 15.1693 6.10583 15.6338 6.18848L16.1885 5.17383C16.3869 4.81012 16.7945 4.61158 17.2031 4.67969ZM16.9902 7.76855C16.7649 8.18159 16.2756 8.37376 15.8291 8.22559L15.833 8.22754C15.831 8.22692 15.8247 8.22512 15.8164 8.22266C15.799 8.21748 15.7677 8.20851 15.7246 8.19727C15.6382 8.17472 15.5015 8.14153 15.3193 8.1084C14.9544 8.04205 14.4078 7.97366 13.7168 7.97363C13.0258 7.97363 12.4792 8.04206 12.1143 8.1084C11.932 8.14154 11.7945 8.1747 11.708 8.19727C11.6651 8.20845 11.6346 8.21748 11.6172 8.22266L11.6006 8.22754L11.6025 8.22656H11.6035V8.22559C11.1572 8.37363 10.6687 8.1814 10.4434 7.76855L9.87598 6.72949C8.85552 6.95022 8.12164 7.23627 7.02637 7.625C6.68051 7.74778 6.40954 7.97322 6.25488 8.25C4.31258 11.7256 3.48533 14.995 3.44727 18.2266L3.4502 18.8721V18.873C3.45825 19.2612 3.65491 19.6162 3.97266 19.8232C5.29096 20.682 6.54504 21.2452 7.80957 21.7773L8.32812 20.7412C8.13035 20.6637 7.95429 20.593 7.80566 20.5293C7.63038 20.4542 7.49066 20.39 7.39355 20.3447C7.34516 20.3221 7.30611 20.304 7.2793 20.291L7.23828 20.2705L7.23535 20.2695L7.23438 20.2686C7.23587 20.2651 7.26184 20.2126 7.66895 19.3984L7.2334 20.2686C6.75303 20.0282 6.55867 19.4434 6.79883 18.9629C7.02422 18.5126 7.55176 18.3135 8.0127 18.4883L8.10352 18.5283L8.12695 18.54C8.14591 18.5492 8.17606 18.5635 8.21582 18.582C8.2958 18.6194 8.41656 18.6739 8.57129 18.7402C8.88202 18.8734 9.32957 19.0526 9.86621 19.2314C10.9516 19.5932 12.3521 19.9375 13.7168 19.9375C15.0813 19.9374 16.4812 19.5932 17.5664 19.2314C18.1032 19.0525 18.5506 18.8734 18.8613 18.7402C19.0162 18.6739 19.1368 18.6194 19.2168 18.582C19.2565 18.5635 19.2867 18.5492 19.3057 18.54C19.315 18.5355 19.3222 18.5322 19.3262 18.5303C19.3275 18.5296 19.3284 18.5286 19.3291 18.5283C19.8096 18.2881 20.3944 18.4825 20.6348 18.9629C20.8598 19.4134 20.7026 19.9558 20.2861 20.2197L20.1992 20.2686L20.1973 20.2695C20.1965 20.2699 20.1954 20.27 20.1943 20.2705C20.1921 20.2716 20.1892 20.2736 20.1855 20.2754C20.1779 20.2792 20.1667 20.2845 20.1533 20.291C20.1266 20.304 20.0885 20.3221 20.04 20.3447C19.9429 20.39 19.8035 20.4541 19.6279 20.5293C19.4791 20.5931 19.3027 20.6636 19.1045 20.7412L19.6221 21.7773C20.8872 21.245 22.142 20.6825 23.4609 19.8232C23.7787 19.6161 23.9754 19.2605 23.9834 18.8721C24.0533 15.4299 23.2503 11.9571 21.1787 8.25C21.0241 7.97339 20.7528 7.74783 20.4072 7.625C19.3114 7.23607 18.5768 6.95027 17.5557 6.72949L16.9902 7.76855ZM9.93555 12.7441C11.0211 12.7441 11.9014 13.7602 11.9014 15.0127C11.9012 16.2651 11.021 17.2803 9.93555 17.2803C8.8503 17.28 7.97086 16.2649 7.9707 15.0127C7.9707 13.7603 8.8502 12.7444 9.93555 12.7441ZM17.4961 12.7441C18.5816 12.7441 19.4619 13.7602 19.4619 15.0127C19.4618 16.2651 18.5815 17.2803 17.4961 17.2803C16.4107 17.2802 15.5304 16.265 15.5303 15.0127C15.5303 13.7602 16.4106 12.7443 17.4961 12.7441Z" fill="black"/>
</svg>
