<svg width="366" height="499" viewBox="0 0 366 499" fill="none" xmlns="http://www.w3.org/2000/svg">
<g clip-path="url(#clip0_1755_11580)">
<path d="M260.535 228.883L-153.132 467.714M301.901 252.766L-111.765 491.597M343.268 276.649L-70.3988 515.48M384.635 300.532L-29.0321 539.363M426.001 324.415L12.3346 563.246M467.368 348.298L53.7013 587.129M508.735 372.181L95.068 611.012M550.101 396.065L136.435 634.895M591.468 419.948L177.801 658.778M177.801 228.883L591.468 467.714M136.435 252.766L550.101 491.597M95.0679 276.649L508.735 515.48M53.7013 300.532L467.368 539.363M12.3346 324.415L426.001 563.246M-29.0321 348.298L384.635 587.129M-70.3988 372.181L343.268 611.012M-111.765 396.065L301.901 634.895M-153.132 419.948L260.535 658.778M219.168 205L-194.499 443.831L219.168 682.661L632.835 443.831L219.168 205Z" stroke="url(#paint0_radial_1755_11580)" stroke-opacity="0.44" stroke-width="0.298538"/>
<circle cx="42.7514" cy="42.7514" r="42.7514" transform="matrix(0.866025 0.5 -0.866025 0.5 179.543 313)" fill="black"/>
<circle cx="42.7514" cy="42.7514" r="42.7514" transform="matrix(0.866025 0.5 -0.866025 0.5 179.543 313)" fill="url(#paint1_linear_1755_11580)"/>
<circle cx="42.7514" cy="42.7514" r="42.7514" transform="matrix(0.866025 0.5 -0.866025 0.5 179.543 313)" stroke="white" stroke-opacity="0.4"/>
<path d="M127.188 355.751C127.188 364.099 133.048 371.656 142.523 377.127V416.895C133.048 411.425 127.188 403.867 127.188 395.52V355.751Z" fill="black" stroke="white" stroke-opacity="0.4"/>
<path d="M142.523 377.127C162.971 388.932 196.123 388.932 216.571 377.127V416.896C196.123 428.701 162.971 428.701 142.523 416.896V377.127Z" fill="black" stroke="white" stroke-opacity="0.4"/>
<path d="M231.902 355.751C231.902 364.099 226.042 371.656 216.566 377.127V416.895C226.042 411.425 231.902 403.867 231.902 395.52V355.751Z" fill="black" stroke="white" stroke-opacity="0.4"/>
<g filter="url(#filter0_i_1755_11580)">
<circle cx="180.517" cy="263.665" r="104.295" transform="rotate(11.066 180.517 263.665)" fill="#1F3114" fill-opacity="0.1"/>
</g>
<path d="M261.143 328.459L256.454 329.066L268.333 308.77L270.208 308.796L273.11 308.838L261.143 328.459ZM244.422 345.464L241.432 346.125L240.61 346.307L255.601 330.395L259.845 329.846L244.422 345.464ZM211.359 360.794L215.346 360.574L199.307 365.98L197.381 366.117L211.359 360.794ZM165.613 364.827L165.627 364.83L172.354 365.875L170.809 366.177L167.097 366.899L163.539 366.352L165.613 364.827ZM147.554 362.421L141.229 358.992L144.343 359.965L146.326 361.335L148.183 362.617L147.554 362.421ZM122.842 350.346L121.507 349.15L110.274 339.083L114.002 340.91L124.694 351.291L122.842 350.346ZM92.239 317.283L93.6248 318.251L100.735 328.898L104.102 333.939L102.968 333.074L102.739 332.899L91.4635 316.742L92.239 317.283ZM135.135 170.431L135.448 170.35L136.866 169.978L121.005 180.589L119.585 180.897L118.362 181.162L135.135 170.431ZM208.257 163.841L208.934 164.298L212.801 166.921L212.622 166.878L206.054 165.236L204.709 162.948L208.257 163.841ZM275.779 232.647L268.251 211.953L269.298 212.697L271.468 214.241L279.497 234.818L275.779 232.647ZM224.691 357.794L223.246 358.176L239.063 347.885L241.421 347.363L224.691 357.794ZM152.05 363.821L147.722 360.831L154.411 362.536L155.608 364.732L152.05 363.821ZM115.514 183.015L119.511 182.149L104.672 198.303L103.962 198.391L100.248 198.852L115.514 183.015ZM148.713 167.38L144.457 167.629L160.611 161.975L162.774 161.811L148.713 167.38ZM215.556 168.856L220.824 178.453L207.151 175.097L206.344 166.553C207.281 166.787 208.884 167.187 210.522 167.597L215.556 168.856ZM269.03 211.025L267.462 209.909L256.87 194.037L258.111 195.002L269.488 211.349L269.03 211.025ZM281.406 258.648L278.906 257.641L277.252 244.143L276.032 234.195L278.518 235.644L280.134 236.588L283.345 259.432L281.406 258.648ZM281.336 284.173L276.524 283.206L276.708 281.316L278.874 258.929L283.448 260.774L282.153 275.125L281.336 284.173ZM274.95 288.519L276.28 284.389C277.375 284.609 279.886 285.114 281.09 285.356L273.741 307.638L268.814 307.57L274.95 288.519ZM228.653 348.13L236.725 347.965L219.57 359.128L213.226 359.481L228.653 348.13ZM170.407 356.332L173.365 356.805L184.173 358.528L178.97 362.6L175.687 365.17L166.399 363.727L170.407 356.332ZM155.382 361.516L154.74 353.151L163.76 354.995C166.028 355.457 168.082 355.878 169.16 356.098L165.143 363.512C163.972 363.271 160.669 362.597 158.132 362.078L155.382 361.516ZM135.838 356.041L127.04 345.655L138.367 349.081L143.376 358.397L140.58 357.523L135.838 356.041ZM116.842 341.985L124.898 344.995L133.491 355.141L128.323 353.132L125.938 350.817L116.842 341.985ZM77.5366 269.209L82.1098 271.038L85.0757 294.247L80.8584 291.824L80.523 289.545L77.5366 269.209ZM79.3292 244.605C79.8934 244.719 80.7413 244.891 81.611 245.067L84.2832 245.609L83.2716 256.978L82.1343 269.747L77.4242 267.862L77.5737 266.04L79.3292 244.605ZM86.6559 221.154L89.3501 221.204L91.7343 221.25L84.5175 244.424C83.8815 244.296 82.7698 244.071 81.6999 243.854L79.5618 243.42L84.5174 227.865L86.6559 221.154ZM146.896 168.696L132.482 179.614L131.547 180.322L127.014 180.424L123.302 180.505L140.384 169.077L145.739 168.764L146.896 168.696ZM182.88 162.502L174.542 169.302L162.645 168.058L174.922 161.745L177.275 161.969L182.88 162.502ZM205.105 166.264L205.383 169.214L205.912 174.83C205.398 174.727 204.656 174.58 203.776 174.404L202.577 174.165C202.025 174.055 201.446 173.939 200.843 173.819L199.719 173.593C196.411 172.933 192.87 172.226 191.34 171.921L193.737 167.235L195.24 164.298L199.987 165.244C202.083 165.663 204.209 166.087 205.105 166.264ZM267.564 307.507L256.59 306.277L264.054 281.924C265.037 282.123 267.235 282.564 269.463 283.014L275.09 284.148L270.552 298.237L267.564 307.507ZM244.708 328.834L256.138 307.442L266.998 308.659L254.972 329.206L244.708 328.834ZM229.77 346.899L243.993 330.018L253.957 330.379L238.561 346.72L229.77 346.899ZM201.125 359.143L214.108 347.148L226.764 348.018L211.047 359.584L210.175 359.545L201.125 359.143ZM170.909 355.19L176.086 341.601L194.828 344.724L185.37 357.496L172.302 355.411L170.909 355.19ZM154.704 351.91L155.385 337.399C157.019 337.732 161.332 338.612 165.566 339.474L174.881 341.374L171.861 349.295L169.698 354.975C168.435 354.716 164.864 353.988 161.442 353.288L154.704 351.91ZM139.961 349.493C143.207 350.305 151.449 352.364 153.474 352.869L153.507 352.878L154.148 361.223L145.016 358.894L139.961 349.493ZM86.8516 296.411L96.2579 299.984L102.648 320.993L94.5415 317.374L94.1699 316.359L86.8516 296.411ZM193.987 164.094L190.1 171.695L176.164 169.539L184.576 162.677L193.99 164.089L193.987 164.094ZM233.841 182.27L222.426 178.86L217.205 169.35L224.799 171.689L233.841 182.27ZM265.359 208.933L257.918 205.612L256.395 203.017L248.121 188.921L253.891 191.753L265.097 208.542L265.359 208.933ZM264.899 228.472L258.457 207.174L266.022 210.553L266.54 210.785L274.268 232.026L264.899 228.472ZM267.132 254.133L265.088 229.837L274.731 233.495L277.637 257.227L267.132 254.133ZM186.748 357.664L196.177 344.931L200.662 345.489L212.524 346.965L211.261 348.133L199.444 359.051L198.47 358.945L186.748 357.664ZM197.528 360.056L185.221 366.141L177.407 365.357L185.814 358.777L197.528 360.056ZM155.476 336.185L157.687 316.035L171.225 318.788C175.603 319.679 179.678 320.508 181.22 320.821L175.282 340.224C173.944 339.95 170.288 339.205 166.433 338.419L155.476 336.185ZM118.526 327.801C120.158 328.267 123.176 329.129 126.175 329.985L134.393 332.334L137.957 347.696L125.697 343.985L120.521 332.304L118.526 327.801ZM110.529 325.112L117.006 327.35L117.541 328.559L124.123 343.414L114.766 339.918L104.961 323.189C106.332 323.663 108.429 324.387 110.529 325.112ZM83.3811 271.449L93.9435 274.571L95.4233 291.354L96.0627 298.618L86.3834 294.941L84.0902 277.005L83.3811 271.449ZM96.5919 248.101L93.9818 273.324L83.3094 270.17L84.9914 251.275L85.4731 245.851L92.1034 247.192C93.9979 247.576 95.7422 247.929 96.5919 248.101ZM105.31 199.492L115.703 199.859L104.499 221.395L93.5287 220.163L102.98 203.582L105.31 199.492ZM145.365 182.417L138.92 191.97L133.244 200.38L126.945 199.734L117.861 198.803L132.025 181.544L141.189 182.144L145.365 182.417ZM149.036 168.589L159.115 168.995L147.735 179.831L146.23 181.264L145.426 181.212L133.411 180.425L146.455 170.545L149.036 168.589ZM235.193 183.934L242.532 200.389L226.556 195.88L222.845 180.245C222.87 180.252 222.891 180.259 222.917 180.266L235.193 183.934ZM246.171 187.987L256.15 204.984L244.053 200.836L239.353 190.298L236.769 184.501L246.171 187.987ZM255.373 306.12L252.261 305.655L238.545 303.596L240.578 296.421L245.732 278.229L262.866 281.684L258.995 294.311L255.373 306.12ZM176.477 340.442L182.413 321.05L185.788 321.645L205 325.036L195.563 343.62L179.714 340.981L176.477 340.442ZM157.843 314.833L159.277 305.382L161.561 290.332C163.459 290.716 169.46 291.931 175.31 293.118L187.748 295.639L181.551 319.657L167.706 316.841L157.843 314.833ZM153.509 351.634L139.286 348.08L135.709 332.667C138.057 333.235 144.287 334.741 148.981 335.876L154.19 337.137L153.98 341.613L153.509 351.634ZM104.1 321.613L97.657 300.434L112.374 304.93L116.649 325.949L114.293 325.134L104.1 321.613ZM165.646 183.632L175.004 170.581L189.62 172.841L184.554 186.707L165.646 183.632ZM205.335 192.076L203.203 212.511C200.713 212.012 191.577 210.181 185.239 208.909L179.533 207.764L185.372 188.082C186.519 188.312 189.361 188.881 192.578 189.524L205.335 192.076ZM227.871 327.14L238.136 304.756L254.862 307.266L243.379 328.761L227.871 327.14ZM188.935 295.87L213.987 300.596L205.513 323.9L182.739 319.882L188.12 299.032L188.935 295.87ZM161.762 289.139L166.75 262.28C166.909 262.313 167.089 262.348 167.304 262.392L167.47 262.426C167.814 262.496 168.214 262.576 168.667 262.667L171.426 263.226C171.548 263.25 171.668 263.273 171.792 263.299L174.661 263.878C174.887 263.924 175.112 263.97 175.343 264.015L193.912 267.766L189.671 287.023L188.029 294.464C186.267 294.106 180.684 292.975 175.054 291.833L161.762 289.139ZM135.475 331.368L134.479 315.79L134.15 310.628L134.746 310.766C134.859 310.792 134.979 310.819 135.103 310.848L135.794 311.007C141.157 312.243 153.752 315.146 156.501 315.78L154.291 335.917L151.532 335.251L135.475 331.368ZM113.68 305.287L132.921 310.331L134.244 331.034L117.969 326.385L117.844 325.762L113.68 305.287ZM111.605 279.111L112.269 303.634L97.3145 299.067L95.1848 274.905L111.605 279.111ZM97.7804 248.342L106.541 250.113C110.11 250.835 113.626 251.544 114.944 251.812L112.674 269.962L111.683 277.883L95.1617 273.652L95.4281 271.084L97.7804 248.342ZM122.577 224.078L105.769 221.57L117.027 199.932L132.65 201.532L122.577 224.078ZM184.176 187.87L181.591 196.58L178.34 207.539L155.624 203.593L157.624 199.541L164.932 184.74L177.39 186.765L184.176 187.87ZM203.053 213.713L199.361 238.44L188.857 236.327C182.429 235.034 175.215 233.582 173.094 233.155L176.668 218.997L179.21 208.931L198.642 212.829C200.657 213.232 202.254 213.552 203.053 213.713ZM226.871 217.885L204.392 212.764L206.522 192.338L225.478 196.849L226.871 217.885ZM243.091 201.803L247.441 223.197L228.101 218.178L226.711 197.179C227.919 197.521 230.32 198.199 232.942 198.937L243.091 201.803ZM248.746 223.55L244.41 202.235L257.006 206.554L263.501 228.026L248.746 223.55ZM215.544 299.65L222.188 273.477L244.543 277.989L237.343 303.405L215.544 299.65ZM215.194 300.815L236.9 304.554L226.611 326.99L206.728 324.091L215.194 300.815ZM204.237 213.968C207.646 214.744 223.824 218.429 226.895 219.129L225.535 244.069C221.792 243.263 203.929 239.416 200.546 238.688L204.112 214.812L204.237 213.968ZM200.345 239.879L215.753 243.197C220.107 244.135 224.005 244.975 225.414 245.279L221.294 271.731L221.244 272.054L195.337 266.823L198.771 248.348L200.345 239.879ZM244.788 276.806C241.429 276.128 225.633 272.94 222.429 272.294L226.596 245.544C229.882 246.306 245.101 249.835 248.199 250.552L246.138 266.415L244.788 276.806ZM237.892 221.966L247.634 224.495L248.244 249.323L226.731 244.335L227.588 228.607L228.089 219.422C229.696 219.84 233.805 220.905 237.892 221.966ZM189.216 294.695L195.096 268.006L221.003 273.237L214.352 299.435L195.849 295.947L189.216 294.695ZM134.126 309.383L134.431 303.772L135.469 284.68C139.203 285.49 156.998 289.351 160.378 290.084L156.661 314.577L141.417 311.064L134.126 309.383ZM133.909 201.68L153.908 204.542L145.582 228.004L123.811 224.279L129.594 211.335L133.909 201.68ZM132.933 309.086L113.485 303.989L112.822 279.405C115.712 280.08 126.225 282.534 131.591 283.785L134.276 284.413L133.787 293.375L132.933 309.086ZM138.485 256.57L134.407 283.203L129.055 281.955L112.864 278.174L116.131 252.052C119.5 252.732 135.29 255.924 138.485 256.57ZM135.587 283.47L139.67 256.809C143.309 257.545 162.034 261.328 165.567 262.041L160.579 288.891L135.587 283.47ZM165.804 260.857L139.908 255.626L146.43 229.384L171.631 234.102L165.804 260.857ZM120.4 236.237L123.379 225.431L138.295 227.983L145.238 229.17L138.722 255.386L136.963 255.03L116.367 250.867L120.4 236.237ZM155.122 204.732L178.021 208.71L171.907 232.925L146.787 228.221L154.505 206.473L155.122 204.732ZM112.087 223.734L122.179 225.239L115.18 250.627L98.0147 247.157L105.274 222.715L112.087 223.734ZM184.389 264.611C183.747 264.481 183.092 264.349 182.431 264.216L181.431 264.013C180.528 263.832 179.622 263.647 178.725 263.468L176.719 263.062C176.673 263.053 176.628 263.044 176.583 263.035L166.99 261.096L172.817 234.331C174.399 234.65 179.052 235.586 184.066 236.595L199.163 239.633L196.195 255.599L194.153 266.583C192.735 266.296 188.935 265.529 184.573 264.649L184.389 264.611ZM265.907 255.051L263.11 280.502C260.248 279.924 248.637 277.583 245.974 277.046L246.085 276.182L249.38 250.841C250.494 251.126 252.902 251.739 255.575 252.42L265.907 255.051ZM260.254 252.365L249.46 249.616L248.849 224.844L263.839 229.39L265.892 253.801L260.254 252.365ZM154.541 183.467L163.669 184.568L154.376 203.39L134.583 200.556L146.749 182.527L154.541 183.467ZM160.78 169.077L173.634 170.42L164.306 183.43L155.783 182.402L147.8 181.439L154.353 175.198L160.78 169.077ZM213.6 345.882L199.538 344.133L196.829 343.796L206.249 325.243L225.919 328.11L218.742 338.465L213.6 345.882ZM216.963 343.152L227.265 328.291L242.523 329.888L228.185 346.907L214.992 345.997L216.963 343.152ZM123.864 189.583L116.403 198.674L106.299 198.319L121.515 181.753L130.454 181.554L123.864 189.583ZM89.258 233.263L92.9777 221.317L104.059 222.562L96.8261 246.917C94.8281 246.512 87.8676 245.103 85.7074 244.666L89.258 233.263ZM277.701 258.504L276.602 269.866L275.336 282.966L264.298 280.742L267.087 255.379C268.204 255.708 270.523 256.39 272.774 257.053L277.701 258.504ZM219.265 179.313L221.514 179.864L224.691 193.246L225.237 195.552L206.614 191.119L207.166 176.345L217.766 178.946C218.3 179.077 218.806 179.201 219.265 179.313ZM196.878 174.259C199.119 174.706 201.501 175.181 203.341 175.549L205.966 176.073L205.415 190.861L185.758 186.929L188.469 179.511L190.829 173.051C191.46 173.177 192.644 173.412 194.132 173.71L196.878 174.259ZM87.2672 219.958L98.9958 200.226L103.845 199.625L92.2023 220.05L89.9059 220.008L87.2672 219.958ZM229.47 173.481L232.346 174.59L244.087 185.925L235.988 182.923L235.051 181.826L227.156 172.587L229.47 173.481ZM166.796 161.518L167.17 161.527L172.431 161.667L160.43 167.838L151.718 167.487L159.852 164.266L166.796 161.518ZM107.031 336.149L95.7278 319.226L103.189 322.557L112.82 338.984L112.312 338.735L107.031 336.149ZM205.505 361.731L193.231 366.405L187.761 366.233L192.87 363.708L199.781 360.292L204.471 360.501L208.293 360.67L205.505 361.731ZM237.819 177.374L239.645 179.005L250.622 188.803L246.934 186.994L236.014 176.452L237.819 177.374ZM212.784 165.233L219.347 168.746L216.221 167.782L214.163 166.387L212.191 165.05L212.784 165.233ZM198.357 161.611L203.071 162.55L204.458 164.905L201.382 164.291L196.293 163.276L198.248 161.697L198.357 161.611ZM193.056 160.81L196.748 161.358L194.737 162.98L187.779 161.937L189.044 161.668L193.056 160.81ZM189.033 160.433L184.363 161.431L183.807 161.379L180.96 161.106L188.267 160.363L189.033 160.433ZM89.5173 313.908L81.4999 293.587L85.3384 295.791L92.8351 316.227L90.195 314.381L89.5173 313.908ZM157.198 365.126L155.967 362.868C156.372 362.951 156.846 363.047 157.377 363.157L164.004 364.512L161.865 366.082L157.198 365.126ZM171.28 367.314L175.882 366.416L178.953 366.726L171.812 367.367L171.28 367.314ZM284.795 261.497L284.691 260.329C284.692 260.324 284.685 260.321 284.684 260.318C284.684 260.311 284.689 260.305 284.688 260.299L281.288 236.129C281.283 236.099 281.264 236.072 281.254 236.043C281.251 236.026 281.257 236.01 281.252 235.993L272.524 213.632C272.516 213.606 272.487 213.592 272.475 213.567C272.465 213.548 272.471 213.525 272.459 213.507L259.049 194.237C259.025 194.201 258.992 194.172 258.96 194.143C258.957 194.139 258.958 194.133 258.954 194.13L241.762 178.938L238.538 176.399C238.535 176.397 238.531 176.398 238.528 176.396C238.499 176.374 238.471 176.351 238.439 176.335L232.953 173.534C232.951 173.534 232.951 173.534 232.951 173.534C232.949 173.534 232.948 173.532 232.948 173.532L217.104 165.621L213.287 164.137C213.282 164.135 213.278 164.139 213.273 164.136L213.247 164.123L208.688 162.704C208.683 162.703 208.679 162.705 208.676 162.705C208.669 162.703 208.662 162.697 208.655 162.695L203.602 161.426C203.599 161.425 203.595 161.428 203.59 161.427C203.585 161.426 203.579 161.42 203.574 161.419L198.316 160.371C198.309 160.369 198.304 160.372 198.297 160.37C198.292 160.369 198.291 160.366 198.286 160.366L193.124 159.6C193.115 159.598 193.108 159.602 193.099 159.6C193.096 159.599 193.093 159.595 193.09 159.596L188.306 159.164C188.294 159.164 188.288 159.152 188.276 159.151L184.097 159.055L166.644 160.308C166.644 160.308 166.644 160.308 166.642 160.309L160.442 160.775C160.413 160.778 160.387 160.787 160.36 160.792C160.349 160.795 160.34 160.792 160.329 160.795L156.261 161.895L134.694 169.3C134.689 169.302 134.687 169.309 134.682 169.311C134.642 169.326 134.601 169.341 134.566 169.363L114.883 181.954C114.863 181.966 114.861 181.991 114.843 182.004C114.822 182.022 114.792 182.025 114.773 182.044L98.1924 199.244C98.1837 199.253 98.1845 199.267 98.1772 199.277C98.1615 199.295 98.1402 199.306 98.1259 199.326L96.8969 201.157L84.9571 221.223C84.9521 221.231 84.9575 221.239 84.9541 221.247C84.9355 221.279 84.9136 221.311 84.9011 221.349L77.7999 243.607C77.792 243.63 77.7977 243.653 77.7931 243.677C77.7886 243.7 77.7746 243.718 77.7737 243.741L75.8801 267.002C75.8762 267.039 75.8857 267.08 75.8889 267.117C75.8906 267.126 75.8826 267.131 75.8846 267.138L79.2815 290.194L79.7122 292.323C79.7159 292.339 79.7313 292.349 79.7364 292.367C79.7378 292.369 79.7391 292.371 79.7384 292.375C79.7438 292.391 79.7356 292.407 79.7426 292.424L88.4617 314.52C88.4721 314.546 88.4989 314.56 88.5113 314.585C88.5218 314.603 88.5155 314.626 88.5276 314.644L101.803 333.668C101.828 333.703 101.859 333.729 101.89 333.758C101.894 333.762 101.892 333.771 101.897 333.775L118.859 348.79L122.128 351.326C122.134 351.33 122.141 351.33 122.147 351.333C122.171 351.351 122.195 351.372 122.224 351.386L127.715 354.187C127.717 354.188 127.716 354.189 127.718 354.19L143.244 362.023L147.046 363.513C147.054 363.517 147.063 363.517 147.072 363.52L147.085 363.528C147.085 363.528 151.182 364.82 151.632 364.957C151.638 364.958 151.64 364.962 151.645 364.963C151.645 364.963 156.586 366.23 156.68 366.253C156.682 366.254 156.682 366.254 156.682 366.254C156.682 366.254 161.886 367.319 161.891 367.32C161.899 367.321 161.908 367.323 161.916 367.325L167.017 368.109C167.021 368.11 167.024 368.109 167.026 368.109C167.034 368.111 167.043 368.112 167.051 368.112L171.686 368.559C171.693 368.56 171.695 368.566 171.7 368.567C171.732 368.573 171.764 368.576 171.8 368.578L175.912 368.694L193.37 367.616C193.371 367.616 193.372 367.614 193.373 367.615L193.375 367.615L199.471 367.177C199.503 367.176 199.534 367.166 199.565 367.159C199.572 367.157 199.579 367.16 199.586 367.158L203.547 366.083L225.124 358.927C225.136 358.922 225.145 358.914 225.158 358.907C225.19 358.895 225.223 358.886 225.255 358.866L245.046 346.529C245.064 346.517 245.065 346.494 245.081 346.482C245.103 346.465 245.135 346.461 245.155 346.441L261.938 329.447C261.949 329.433 261.95 329.414 261.961 329.399C261.98 329.377 262.007 329.361 262.024 329.337L274.693 308.564C274.695 308.559 274.695 308.552 274.698 308.546C274.7 308.543 274.706 308.541 274.708 308.538L275.308 307.401L282.661 285.124C282.669 285.103 282.664 285.081 282.668 285.06C282.673 285.036 282.688 285.015 282.689 284.989L284.795 261.497Z" fill="#2C4C19"/>
<path d="M278.227 228.204C278.365 228.259 278.571 228.372 278.852 228.562C294.821 241.536 301.98 260.358 297.368 278.962C292.756 297.565 276.38 315.94 245.3 328.028L245.169 328.078L245.236 328.161L248.133 331.731L213.636 335.284L240.434 322.246L242.944 325.336L243.036 325.449L243.213 325.379C272.867 313.669 288.737 295.693 294.004 277.896C299.269 260.102 293.939 242.47 281.156 231.441L281.15 231.436L281.143 231.431C280.022 230.674 278.951 229.544 278.452 228.799C278.328 228.614 278.242 228.456 278.199 228.335C278.177 228.275 278.166 228.228 278.166 228.193C278.166 228.19 278.166 228.187 278.166 228.184C278.182 228.189 278.203 228.195 278.227 228.204Z" fill="black" stroke="white" stroke-width="0.3"/>
<path d="M83.3274 225.452C48.0595 250.43 42.9031 288.564 92.5365 317.22C120.251 333.221 159.49 340.233 197.965 336.136C198.774 336.05 199.427 336.164 199.905 336.383C200.387 336.604 200.702 336.936 200.814 337.293C200.926 337.65 200.832 338.026 200.511 338.332C200.193 338.636 199.644 338.878 198.817 338.966C158.746 343.223 117.886 335.916 89.02 319.25C36.4819 288.918 45.0829 246.891 85.1567 220.899L83.3274 225.452Z" fill="black" stroke="white" stroke-width="0.3"/>
</g>
<defs>
<filter id="filter0_i_1755_11580" x="76.2031" y="159.351" width="208.629" height="208.629" filterUnits="userSpaceOnUse" color-interpolation-filters="sRGB">
<feFlood flood-opacity="0" result="BackgroundImageFix"/>
<feBlend mode="normal" in="SourceGraphic" in2="BackgroundImageFix" result="shape"/>
<feColorMatrix in="SourceAlpha" type="matrix" values="0 0 0 0 0 0 0 0 0 0 0 0 0 0 0 0 0 0 127 0" result="hardAlpha"/>
<feOffset/>
<feGaussianBlur stdDeviation="52.2629"/>
<feComposite in2="hardAlpha" operator="arithmetic" k2="-1" k3="1"/>
<feColorMatrix type="matrix" values="0 0 0 0 0.181172 0 0 0 0 0.347976 0 0 0 0 0.0792368 0 0 0 1 0"/>
<feBlend mode="normal" in2="shape" result="effect1_innerShadow_1755_11580"/>
</filter>
<radialGradient id="paint0_radial_1755_11580" cx="0" cy="0" r="1" gradientUnits="userSpaceOnUse" gradientTransform="translate(195.602 540.051) rotate(-90) scale(335.051 440.172)">
<stop offset="0.5" stop-color="white"/>
<stop offset="1" stop-color="white" stop-opacity="0"/>
</radialGradient>
<linearGradient id="paint1_linear_1755_11580" x1="63.9523" y1="177.511" x2="74.2797" y2="24.7788" gradientUnits="userSpaceOnUse">
<stop/>
<stop offset="1" stop-color="#666666" stop-opacity="0"/>
</linearGradient>
<clipPath id="clip0_1755_11580">
<rect width="366" height="499" fill="white"/>
</clipPath>
</defs>
</svg>
