<svg width="366" height="499" viewBox="0 0 366 499" fill="none" xmlns="http://www.w3.org/2000/svg">
<g clip-path="url(#clip0_2133_8805)">
<path d="M227.772 283.113L268.863 306.853V198.194L227.772 134.275V283.113Z" fill="url(#paint0_linear_2133_8805)"/>
<path d="M144.513 283.113L103.422 306.853V198.194L144.513 134.275V283.113Z" fill="url(#paint1_linear_2133_8805)"/>
<path d="M268.535 228.883L-145.132 467.714M309.901 252.766L-103.765 491.597M351.268 276.649L-62.3988 515.48M392.635 300.532L-21.0321 539.363M434.001 324.415L20.3346 563.246M475.368 348.298L61.7013 587.129M516.735 372.181L103.068 611.012M558.101 396.065L144.435 634.895M599.468 419.948L185.801 658.778M185.801 228.883L599.468 467.714M144.435 252.766L558.101 491.597M103.068 276.649L516.735 515.48M61.7013 300.532L475.368 539.363M20.3346 324.415L434.001 563.246M-21.0321 348.298L392.635 587.129M-62.3988 372.181L351.268 611.012M-103.765 396.065L309.901 634.895M-145.132 419.948L268.535 658.778M227.168 205L-186.499 443.831L227.168 682.661L640.835 443.831L227.168 205Z" stroke="url(#paint2_radial_2133_8805)" stroke-opacity="0.44" stroke-width="0.298538"/>
<rect width="96.4515" height="96.4515" transform="matrix(0.866025 0.5 -0.866025 0.5 185.898 265.848)" fill="black"/>
<rect width="96.4515" height="96.4515" transform="matrix(0.866025 0.5 -0.866025 0.5 185.898 265.848)" fill="url(#paint3_linear_2133_8805)"/>
<rect width="96.4515" height="96.4515" transform="matrix(0.866025 0.5 -0.866025 0.5 185.898 265.848)" fill="black"/>
<rect width="96.4515" height="96.4515" transform="matrix(0.866025 0.5 -0.866025 0.5 185.898 265.848)" fill="url(#paint4_linear_2133_8805)"/>
<rect width="96.4515" height="96.4515" transform="matrix(0.866025 0.5 -0.866025 0.5 185.898 265.848)" stroke="white" stroke-opacity="0.44" stroke-width="0.906947"/>
<rect width="96.4515" height="57.8709" transform="matrix(0.866025 0.5 0 1 102.363 314.073)" fill="black" stroke="white" stroke-opacity="0.44" stroke-width="0.906947"/>
<foreignObject x="147.78" y="275.669" width="159.765" height="182.905"><div xmlns="http://www.w3.org/1999/xhtml" style="backdrop-filter:blur(18.86px);clip-path:url(#bgblur_1_2133_8805_clip_path);height:100%;width:100%"></div></foreignObject><rect data-figma-bg-blur-radius="37.7242" width="96.4515" height="57.8709" transform="matrix(0.866025 -0.5 0 1 185.898 362.299)" fill="black" stroke="white" stroke-opacity="0.44" stroke-width="0.906947"/>
<foreignObject x="94.4014" y="235.632" width="182.986" height="111.643"><div xmlns="http://www.w3.org/1999/xhtml" style="backdrop-filter:blur(3.55px);clip-path:url(#bgblur_2_2133_8805_clip_path);height:100%;width:100%"></div></foreignObject><g filter="url(#filter1_iiii_2133_8805)" data-figma-bg-blur-radius="7.09466">
<rect width="96.4541" height="96.4541" transform="matrix(0.866025 0.5 -0.866025 0.5 185.895 243.227)" fill="#1B2A12" fill-opacity="0.33"/>
<rect width="96.4541" height="96.4541" transform="matrix(0.866025 0.5 -0.866025 0.5 185.895 243.227)" stroke="#507A37"/>
</g>
<foreignObject x="94.835" y="283.608" width="98.5878" height="86.5331"><div xmlns="http://www.w3.org/1999/xhtml" style="backdrop-filter:blur(3.55px);clip-path:url(#bgblur_3_2133_8805_clip_path);height:100%;width:100%"></div></foreignObject><g filter="url(#filter2_i_2133_8805)" data-figma-bg-blur-radius="7.09466">
<rect width="96.4541" height="22.6168" transform="matrix(0.866025 0.5 0 1 102.363 291.453)" fill="#1B2A12" fill-opacity="0.33"/>
<rect width="96.4541" height="22.6168" transform="matrix(0.866025 0.5 0 1 102.363 291.453)" stroke="#507A37"/>
</g>
<foreignObject x="178.366" y="283.61" width="98.5878" height="86.5331"><div xmlns="http://www.w3.org/1999/xhtml" style="backdrop-filter:blur(3.55px);clip-path:url(#bgblur_4_2133_8805_clip_path);height:100%;width:100%"></div></foreignObject><g filter="url(#filter3_i_2133_8805)" data-figma-bg-blur-radius="7.09466">
<rect width="96.4541" height="22.6168" transform="matrix(0.866025 -0.5 0 1 185.895 339.682)" fill="#1B2A12" fill-opacity="0.33"/>
<rect width="96.4541" height="22.6168" transform="matrix(0.866025 -0.5 0 1 185.895 339.682)" stroke="#507A37"/>
</g>
<path d="M102.363 292.146V132.488" stroke="black" stroke-width="0.9"/>
<path d="M102.363 292.146V132.488" stroke="url(#paint5_linear_2133_8805)" stroke-width="0.9"/>
<path d="M269.426 292.146V132.488" stroke="black" stroke-width="0.9"/>
<path d="M269.426 292.146V132.488" stroke="url(#paint6_linear_2133_8805)" stroke-width="0.9"/>
<path d="M186.121 243.227V83.5684" stroke="black" stroke-width="0.9"/>
<path d="M186.121 243.227V83.5684" stroke="url(#paint7_linear_2133_8805)" stroke-width="0.9"/>
<foreignObject x="137.425" y="256.953" width="97.3963" height="65.1268"><div xmlns="http://www.w3.org/1999/xhtml" style="backdrop-filter:blur(3.55px);clip-path:url(#bgblur_5_2133_8805_clip_path);height:100%;width:100%"></div></foreignObject><g filter="url(#filter4_iiii_2133_8805)" data-figma-bg-blur-radius="7.09466">
<circle cx="34.4936" cy="34.4936" r="34.4936" transform="matrix(0.849624 -0.527389 0.856131 0.516759 127.285 289.883)" fill="#1B2A12" fill-opacity="0.33"/>
<circle cx="34.4936" cy="34.4936" r="33.9936" transform="matrix(0.849624 -0.527389 0.856131 0.516759 127.285 289.883)" stroke="#507A37"/>
</g>
<foreignObject x="137.425" y="256.953" width="97.3963" height="65.1268"><div xmlns="http://www.w3.org/1999/xhtml" style="backdrop-filter:blur(3.55px);clip-path:url(#bgblur_6_2133_8805_clip_path);height:100%;width:100%"></div></foreignObject><circle data-figma-bg-blur-radius="7.09466" cx="28.1188" cy="28.1188" r="27.6188" transform="matrix(0.849624 -0.527389 0.856131 0.516759 138.16 289.815)" fill="#1B2A12" fill-opacity="0.33" stroke="#507A37"/>
<g filter="url(#filter5_d_2133_8805)">
<mask id="path-16-outside-1_2133_8805" maskUnits="userSpaceOnUse" x="157.484" y="272.304" width="57.1916" height="34.8992" fill="black">
<rect fill="white" x="157.484" y="272.304" width="57.1916" height="34.8992"/>
<path d="M174.722 280.626C175.883 280.117 177.079 279.741 178.312 279.5C180.356 279.079 182.39 278.999 184.413 279.258C186.461 279.502 188.376 280.041 190.157 280.875L187.1 283.045C185.938 282.494 184.691 282.132 183.358 281.959C182.025 281.787 180.682 281.848 179.327 282.143C178.839 282.239 178.357 282.368 177.879 282.532L186.577 287.782C188.891 286.962 190.934 286.405 192.706 286.113C194.701 285.753 196.464 285.704 197.994 285.966C199.5 286.214 200.871 286.711 202.109 287.458C203.594 288.354 204.501 289.383 204.829 290.543C205.157 291.673 204.954 292.844 204.222 294.056C203.624 295.003 202.714 295.913 201.498 296.788L204.286 298.471L201.559 300.164L198.716 298.448C197.272 299.156 195.766 299.676 194.197 300.006C191.98 300.443 189.787 300.532 187.615 300.274C185.419 300 183.38 299.387 181.5 298.432L184.52 296.285C185.979 296.955 187.437 297.384 188.893 297.571C190.373 297.743 191.828 297.674 193.256 297.363C194.043 297.175 194.821 296.907 195.592 296.563L186.278 290.94C183.833 291.828 181.737 292.458 179.986 292.826C178.188 293.185 176.597 293.263 175.215 293.06C173.832 292.827 172.498 292.322 171.211 291.545C169.775 290.678 168.857 289.703 168.455 288.618C168.029 287.519 168.134 286.394 168.767 285.243C169.352 284.208 170.373 283.201 171.83 282.22L168.514 280.218L171.241 278.525L174.722 280.626ZM198.418 294.929C199.138 294.408 199.692 293.9 200.075 293.403C200.613 292.675 200.806 291.995 200.654 291.362C200.477 290.714 199.956 290.128 199.09 289.605C198.273 289.112 197.371 288.793 196.383 288.648C195.396 288.503 194.114 288.602 192.538 288.944C191.737 289.118 190.814 289.372 189.767 289.707L198.418 294.929ZM174.877 284.059C173.597 284.946 172.883 285.853 172.735 286.781C172.569 287.823 173.104 288.718 174.342 289.465C175.134 289.943 175.986 290.232 176.899 290.332C177.788 290.417 178.909 290.282 180.263 289.926C181.069 289.709 182.02 289.411 183.118 289.033L174.877 284.059Z"/>
</mask>
<path d="M174.722 280.626L173.872 281.153L174.592 281.588L175.42 281.225L174.722 280.626ZM178.312 279.5L178.673 280.203L178.681 280.201L178.689 280.2L178.312 279.5ZM184.413 279.258L184.159 279.981L184.176 279.983L184.413 279.258ZM190.157 280.875L191.068 281.356L191.905 280.762L190.894 280.288L190.157 280.875ZM187.1 283.045L186.358 283.63L187.261 284.058L188.012 283.525L187.1 283.045ZM183.358 281.959L183.615 281.237L183.615 281.237L183.358 281.959ZM179.327 282.143L179.688 282.846L179.707 282.843L179.725 282.839L179.327 282.143ZM177.879 282.532L177.295 281.888L175.889 282.371L177.03 283.059L177.879 282.532ZM186.577 287.782L185.727 288.309L186.379 288.703L187.176 288.42L186.577 287.782ZM192.706 286.113L193.013 286.825L193.027 286.823L193.04 286.821L192.706 286.113ZM197.994 285.966L197.662 286.678L197.675 286.68L197.994 285.966ZM202.109 287.458L202.959 286.93L202.958 286.93L202.109 287.458ZM204.829 290.543L203.641 290.674L203.642 290.677L204.829 290.543ZM204.222 294.056L205.347 294.319L205.35 294.314L205.353 294.309L204.222 294.056ZM201.498 296.788L200.582 296.312L199.854 296.836L200.649 297.316L201.498 296.788ZM204.286 298.471L205.143 298.988L205.992 298.461L205.136 297.944L204.286 298.471ZM201.559 300.164L200.71 300.692L201.566 301.208L202.415 300.681L201.559 300.164ZM198.716 298.448L199.565 297.921L198.804 297.461L197.965 297.873L198.716 298.448ZM194.197 300.006L194.56 300.709L194.571 300.707L194.583 300.704L194.197 300.006ZM187.615 300.274L187.368 300.997L187.378 300.998L187.615 300.274ZM181.5 298.432L180.588 297.953L179.785 298.524L180.727 299.002L181.5 298.432ZM184.52 296.285L185.248 295.694L184.347 295.28L183.608 295.806L184.52 296.285ZM188.893 297.571L188.638 298.294L188.649 298.296L188.661 298.297L188.893 297.571ZM193.256 297.363L193.653 298.058L193.671 298.055L193.688 298.05L193.256 297.363ZM195.592 296.563L196.298 297.158L197.451 296.644L196.442 296.035L195.592 296.563ZM186.278 290.94L187.127 290.413L186.468 290.015L185.667 290.306L186.278 290.94ZM179.986 292.826L180.353 293.528L180.362 293.526L180.372 293.524L179.986 292.826ZM175.215 293.06L174.888 293.772L174.907 293.775L174.927 293.778L175.215 293.06ZM171.211 291.545L170.361 292.072L170.361 292.072L171.211 291.545ZM168.455 288.618L169.632 288.451L169.629 288.444L168.455 288.618ZM168.767 285.243L167.628 285.006L167.625 285.011L168.767 285.243ZM171.83 282.22L172.72 282.715L173.502 282.189L172.68 281.693L171.83 282.22ZM168.514 280.218L167.658 279.701L166.808 280.229L167.664 280.745L168.514 280.218ZM171.241 278.525L172.091 277.998L171.234 277.481L170.385 278.008L171.241 278.525ZM198.418 294.929L197.569 295.457L198.494 296.015L199.337 295.404L198.418 294.929ZM200.075 293.403L201.165 293.715L201.17 293.709L201.174 293.704L200.075 293.403ZM200.654 291.362L201.847 291.25L201.846 291.243L201.844 291.236L200.654 291.362ZM199.09 289.605L199.939 289.078L199.939 289.078L199.09 289.605ZM196.383 288.648L196.671 287.93L196.671 287.93L196.383 288.648ZM192.538 288.944L192.141 288.248L192.141 288.248L192.538 288.944ZM189.767 289.707L189.214 289.053L187.74 289.524L188.917 290.234L189.767 289.707ZM174.877 284.059L175.727 283.531L174.822 282.985L173.975 283.572L174.877 284.059ZM172.735 286.781L171.535 286.714L171.535 286.714L172.735 286.781ZM174.342 289.465L173.492 289.993L173.492 289.993L174.342 289.465ZM176.899 290.332L176.68 291.059L176.693 291.061L176.706 291.062L176.899 290.332ZM180.263 289.926L180.733 290.604L180.743 290.602L180.263 289.926ZM183.118 289.033L183.704 289.676L185.107 289.193L183.968 288.506L183.118 289.033ZM174.722 280.626L175.42 281.225C176.489 280.757 177.573 280.418 178.673 280.203L178.312 279.5L177.951 278.797C176.586 279.064 175.276 279.477 174.023 280.027L174.722 280.626ZM178.312 279.5L178.689 280.2C180.538 279.819 182.354 279.75 184.159 279.981L184.413 279.258L184.667 278.536C182.426 278.249 180.174 278.339 177.934 278.8L178.312 279.5ZM184.413 279.258L184.176 279.983C186.029 280.204 187.775 280.692 189.42 281.463L190.157 280.875L190.894 280.288C188.978 279.39 186.894 278.801 184.651 278.533L184.413 279.258ZM190.157 280.875L189.246 280.395L186.189 282.565L187.1 283.045L188.012 283.525L191.068 281.356L190.157 280.875ZM187.1 283.045L187.843 282.46C186.55 281.847 185.138 281.435 183.615 281.237L183.358 281.959L183.101 282.682C184.243 282.83 185.327 283.141 186.358 283.63L187.1 283.045ZM183.358 281.959L183.615 281.237C182.053 281.034 180.482 281.109 178.929 281.448L179.327 282.143L179.725 282.839C180.881 282.587 181.998 282.539 183.101 282.682L183.358 281.959ZM179.327 282.143L178.966 281.44C178.396 281.552 177.839 281.702 177.295 281.888L177.879 282.532L178.464 283.176C178.875 283.035 179.283 282.926 179.688 282.846L179.327 282.143ZM177.879 282.532L177.03 283.059L185.727 288.309L186.577 287.782L187.427 287.254L178.729 282.005L177.879 282.532ZM186.577 287.782L187.176 288.42C189.436 287.619 191.378 287.095 193.013 286.825L192.706 286.113L192.399 285.4C190.489 285.715 188.345 286.304 185.978 287.143L186.577 287.782ZM192.706 286.113L193.04 286.821C194.882 286.489 196.406 286.462 197.662 286.678L197.994 285.966L198.326 285.255C196.521 284.946 194.52 285.017 192.372 285.404L192.706 286.113ZM197.994 285.966L197.675 286.68C198.958 286.89 200.152 287.317 201.259 287.985L202.109 287.458L202.958 286.93C201.591 286.105 200.042 285.537 198.314 285.253L197.994 285.966ZM202.109 287.458L201.259 287.985C202.583 288.784 203.359 289.677 203.641 290.674L204.829 290.543L206.018 290.413C205.644 289.088 204.605 287.924 202.959 286.93L202.109 287.458ZM204.829 290.543L203.642 290.677C203.927 291.662 203.758 292.7 203.091 293.804L204.222 294.056L205.353 294.309C206.151 292.989 206.386 291.684 206.017 290.41L204.829 290.543ZM204.222 294.056L203.098 293.794C202.555 294.652 201.721 295.492 200.582 296.312L201.498 296.788L202.415 297.265C203.707 296.335 204.693 295.354 205.347 294.319L204.222 294.056ZM201.498 296.788L200.649 297.316L203.437 298.999L204.286 298.471L205.136 297.944L202.348 296.261L201.498 296.788ZM204.286 298.471L203.43 297.955L200.703 299.647L201.559 300.164L202.415 300.681L205.143 298.988L204.286 298.471ZM201.559 300.164L202.409 299.637L199.565 297.921L198.716 298.448L197.866 298.975L200.71 300.692L201.559 300.164ZM198.716 298.448L197.965 297.873C196.618 298.533 195.234 299.009 193.811 299.308L194.197 300.006L194.583 300.704C196.299 300.343 197.926 299.778 199.466 299.023L198.716 298.448ZM194.197 300.006L193.834 299.303C191.802 299.703 189.814 299.782 187.852 299.549L187.615 300.274L187.378 300.998C189.759 301.281 192.159 301.182 194.56 300.709L194.197 300.006ZM187.615 300.274L187.862 299.55C185.877 299.303 184.016 298.747 182.273 297.863L181.5 298.432L180.727 299.002C182.744 300.026 184.96 300.698 187.368 300.997L187.615 300.274ZM181.5 298.432L182.412 298.912L185.432 296.765L184.52 296.285L183.608 295.806L180.588 297.953L181.5 298.432ZM184.52 296.285L183.792 296.877C185.36 297.597 186.975 298.08 188.638 298.294L188.893 297.571L189.148 296.849C187.898 296.688 186.598 296.314 185.248 295.694L184.52 296.285ZM188.893 297.571L188.661 298.297C190.352 298.493 192.024 298.413 193.653 298.058L193.256 297.363L192.858 296.667C191.631 296.934 190.394 296.993 189.125 296.846L188.893 297.571ZM193.256 297.363L193.688 298.05C194.588 297.836 195.456 297.534 196.298 297.158L195.592 296.563L194.886 295.967C194.185 296.279 193.499 296.514 192.824 296.675L193.256 297.363ZM195.592 296.563L196.442 296.035L187.127 290.413L186.278 290.94L185.428 291.468L194.743 297.09L195.592 296.563ZM186.278 290.94L185.667 290.306C183.26 291.18 181.242 291.782 179.6 292.128L179.986 292.826L180.372 293.524C182.231 293.133 184.407 292.476 186.888 291.575L186.278 290.94ZM179.986 292.826L179.619 292.124C177.966 292.454 176.609 292.504 175.503 292.342L175.215 293.06L174.927 293.778C176.585 294.021 178.41 293.915 180.353 293.528L179.986 292.826ZM175.215 293.06L175.542 292.348C174.402 292.156 173.239 291.729 172.06 291.018L171.211 291.545L170.361 292.072C171.756 292.914 173.263 293.498 174.888 293.772L175.215 293.06ZM171.211 291.545L172.06 291.018C170.769 290.238 169.977 289.383 169.632 288.451L168.455 288.618L167.279 288.786C167.736 290.022 168.781 291.119 170.361 292.072L171.211 291.545ZM168.455 288.618L169.629 288.444C169.259 287.489 169.343 286.505 169.91 285.475L168.767 285.243L167.625 285.011C166.924 286.284 166.8 287.55 167.282 288.793L168.455 288.618ZM168.767 285.243L169.907 285.48C170.427 284.559 171.351 283.636 172.72 282.715L171.83 282.22L170.941 281.725C169.395 282.765 168.276 283.858 167.628 285.006L168.767 285.243ZM171.83 282.22L172.68 281.693L169.363 279.691L168.514 280.218L167.664 280.745L170.981 282.747L171.83 282.22ZM168.514 280.218L169.37 280.735L172.097 279.042L171.241 278.525L170.385 278.008L167.658 279.701L168.514 280.218ZM171.241 278.525L170.391 279.053L173.872 281.153L174.722 280.626L175.571 280.099L172.091 277.998L171.241 278.525ZM198.418 294.929L199.337 295.404C200.108 294.845 200.727 294.283 201.165 293.715L200.075 293.403L198.985 293.091C198.658 293.516 198.168 293.97 197.499 294.455L198.418 294.929ZM200.075 293.403L201.174 293.704C201.784 292.878 202.04 292.054 201.847 291.25L200.654 291.362L199.461 291.474C199.571 291.936 199.442 292.473 198.977 293.102L200.075 293.403ZM200.654 291.362L201.844 291.236C201.62 290.415 200.96 289.694 199.939 289.078L199.09 289.605L198.24 290.133C198.952 290.562 199.335 291.013 199.464 291.488L200.654 291.362ZM199.09 289.605L199.939 289.078C198.988 288.504 197.898 288.11 196.671 287.93L196.383 288.648L196.095 289.366C196.843 289.476 197.557 289.72 198.24 290.133L199.09 289.605ZM196.383 288.648L196.671 287.93C195.355 287.737 193.81 287.886 192.141 288.248L192.538 288.944L192.934 289.64C194.418 289.318 195.437 289.27 196.095 289.366L196.383 288.648ZM192.538 288.944L192.141 288.248C191.271 288.437 190.293 288.708 189.214 289.053L189.767 289.707L190.319 290.361C191.335 290.037 192.204 289.798 192.934 289.64L192.538 288.944ZM189.767 289.707L188.917 290.234L197.569 295.457L198.418 294.929L199.268 294.402L190.616 289.18L189.767 289.707ZM174.877 284.059L173.975 283.572C172.571 284.545 171.713 285.593 171.535 286.714L172.735 286.781L173.936 286.848C174.053 286.113 174.622 285.347 175.779 284.546L174.877 284.059ZM172.735 286.781L171.535 286.714C171.333 287.982 172.003 289.094 173.492 289.993L174.342 289.465L175.191 288.938C174.205 288.343 173.805 287.665 173.936 286.848L172.735 286.781ZM174.342 289.465L173.492 289.993C174.421 290.553 175.484 290.928 176.68 291.059L176.899 290.332L177.119 289.605C176.489 289.536 175.847 289.333 175.191 288.938L174.342 289.465ZM176.899 290.332L176.706 291.062C177.919 291.178 179.29 290.983 180.733 290.604L180.263 289.926L179.794 289.248C178.529 289.58 177.656 289.657 177.093 289.603L176.899 290.332ZM180.263 289.926L180.743 290.602C181.597 290.372 182.586 290.061 183.704 289.676L183.118 289.033L182.532 288.39C181.454 288.761 180.54 289.047 179.784 289.25L180.263 289.926ZM183.118 289.033L183.968 288.506L175.727 283.531L174.877 284.059L174.027 284.586L182.268 289.561L183.118 289.033Z" fill="#507A37" mask="url(#path-16-outside-1_2133_8805)"/>
</g>
<g filter="url(#filter6_dd_2133_8805)">
<path d="M185.895 178.252C189.409 178.252 192.779 179.648 195.264 182.133C197.749 184.618 199.145 187.988 199.145 191.502V194.065C203.091 194.558 206.145 197.922 206.145 202.002V214.252C206.145 218.67 202.563 222.252 198.145 222.252H173.645C169.226 222.252 165.645 218.67 165.645 214.252V202.002C165.645 197.922 168.698 194.558 172.645 194.065V191.502C172.645 187.988 174.041 184.618 176.525 182.133C179.01 179.648 182.38 178.252 185.895 178.252ZM174.645 213.252H197.145V203.002H174.645V213.252ZM185.895 187.252C184.767 187.252 183.687 187.7 182.89 188.497C182.093 189.294 181.645 190.375 181.645 191.502V194.002H190.145V191.502C190.145 190.375 189.696 189.294 188.899 188.497C188.102 187.7 187.022 187.252 185.895 187.252Z" fill="black"/>
<path d="M195.264 182.133L195.617 181.779V181.779L195.264 182.133ZM199.145 194.065H198.645C198.645 194.318 198.832 194.53 199.083 194.562L199.145 194.065ZM172.645 194.065L172.706 194.562C172.957 194.53 173.145 194.318 173.145 194.065H172.645ZM176.525 182.133L176.172 181.779V181.779L176.525 182.133ZM174.645 213.252H174.145C174.145 213.528 174.368 213.752 174.645 213.752V213.252ZM197.145 213.252V213.752C197.421 213.752 197.645 213.528 197.645 213.252H197.145ZM197.145 203.002H197.645C197.645 202.726 197.421 202.502 197.145 202.502V203.002ZM174.645 203.002V202.502C174.368 202.502 174.145 202.726 174.145 203.002H174.645ZM182.89 188.497L183.243 188.851V188.851L182.89 188.497ZM181.645 194.002H181.145C181.145 194.278 181.368 194.502 181.645 194.502V194.002ZM190.145 194.002V194.502C190.421 194.502 190.645 194.278 190.645 194.002H190.145ZM188.899 188.497L189.253 188.144V188.144L188.899 188.497ZM185.895 178.252V178.752C189.276 178.752 192.519 180.095 194.91 182.486L195.264 182.133L195.617 181.779C193.039 179.201 189.541 177.752 185.895 177.752V178.252ZM195.264 182.133L194.91 182.486C197.301 184.877 198.645 188.12 198.645 191.502H199.145H199.645C199.645 187.855 198.196 184.358 195.617 181.779L195.264 182.133ZM199.145 191.502H198.645V194.065H199.145H199.645V191.502H199.145ZM199.145 194.065L199.083 194.562C202.782 195.023 205.645 198.178 205.645 202.002H206.145H206.645C206.645 197.667 203.4 194.092 199.206 193.569L199.145 194.065ZM206.145 202.002H205.645V214.252H206.145H206.645V202.002H206.145ZM206.145 214.252H205.645C205.645 218.394 202.287 221.752 198.145 221.752V222.252V222.752C202.839 222.752 206.645 218.946 206.645 214.252H206.145ZM198.145 222.252V221.752H173.645V222.252V222.752H198.145V222.252ZM173.645 222.252V221.752C169.502 221.752 166.145 218.394 166.145 214.252H165.645H165.145C165.145 218.946 168.95 222.752 173.645 222.752V222.252ZM165.645 214.252H166.145V202.002H165.645H165.145V214.252H165.645ZM165.645 202.002H166.145C166.145 198.178 169.007 195.023 172.706 194.562L172.645 194.065L172.583 193.569C168.389 194.092 165.145 197.667 165.145 202.002H165.645ZM172.645 194.065H173.145V191.502H172.645H172.145V194.065H172.645ZM172.645 191.502H173.145C173.145 188.12 174.488 184.877 176.879 182.486L176.525 182.133L176.172 181.779C173.593 184.358 172.145 187.855 172.145 191.502H172.645ZM176.525 182.133L176.879 182.486C179.27 180.095 182.513 178.752 185.895 178.752V178.252V177.752C182.248 177.752 178.75 179.201 176.172 181.779L176.525 182.133ZM174.645 213.252V213.752H197.145V213.252V212.752H174.645V213.252ZM197.145 213.252H197.645V203.002H197.145H196.645V213.252H197.145ZM197.145 203.002V202.502H174.645V203.002V203.502H197.145V203.002ZM174.645 203.002H174.145V213.252H174.645H175.145V203.002H174.645ZM185.895 187.252V186.752C184.635 186.752 183.427 187.253 182.536 188.144L182.89 188.497L183.243 188.851C183.947 188.147 184.9 187.752 185.895 187.752V187.252ZM182.89 188.497L182.536 188.144C181.645 189.034 181.145 190.242 181.145 191.502H181.645H182.145C182.145 190.508 182.54 189.554 183.243 188.851L182.89 188.497ZM181.645 191.502H181.145V194.002H181.645H182.145V191.502H181.645ZM181.645 194.002V194.502H190.145V194.002V193.502H181.645V194.002ZM190.145 194.002H190.645V191.502H190.145H189.645V194.002H190.145ZM190.145 191.502H190.645C190.645 190.242 190.144 189.034 189.253 188.144L188.899 188.497L188.546 188.851C189.249 189.554 189.645 190.508 189.645 191.502H190.145ZM188.899 188.497L189.253 188.144C188.362 187.253 187.154 186.752 185.895 186.752V187.252V187.752C186.889 187.752 187.843 188.147 188.546 188.851L188.899 188.497Z" fill="#DAFF07"/>
<path d="M195.264 182.133L195.617 181.779V181.779L195.264 182.133ZM199.145 194.065H198.645C198.645 194.318 198.832 194.53 199.083 194.562L199.145 194.065ZM172.645 194.065L172.706 194.562C172.957 194.53 173.145 194.318 173.145 194.065H172.645ZM176.525 182.133L176.172 181.779V181.779L176.525 182.133ZM174.645 213.252H174.145C174.145 213.528 174.368 213.752 174.645 213.752V213.252ZM197.145 213.252V213.752C197.421 213.752 197.645 213.528 197.645 213.252H197.145ZM197.145 203.002H197.645C197.645 202.726 197.421 202.502 197.145 202.502V203.002ZM174.645 203.002V202.502C174.368 202.502 174.145 202.726 174.145 203.002H174.645ZM182.89 188.497L183.243 188.851V188.851L182.89 188.497ZM181.645 194.002H181.145C181.145 194.278 181.368 194.502 181.645 194.502V194.002ZM190.145 194.002V194.502C190.421 194.502 190.645 194.278 190.645 194.002H190.145ZM188.899 188.497L189.253 188.144V188.144L188.899 188.497ZM185.895 178.252V178.752C189.276 178.752 192.519 180.095 194.91 182.486L195.264 182.133L195.617 181.779C193.039 179.201 189.541 177.752 185.895 177.752V178.252ZM195.264 182.133L194.91 182.486C197.301 184.877 198.645 188.12 198.645 191.502H199.145H199.645C199.645 187.855 198.196 184.358 195.617 181.779L195.264 182.133ZM199.145 191.502H198.645V194.065H199.145H199.645V191.502H199.145ZM199.145 194.065L199.083 194.562C202.782 195.023 205.645 198.178 205.645 202.002H206.145H206.645C206.645 197.667 203.4 194.092 199.206 193.569L199.145 194.065ZM206.145 202.002H205.645V214.252H206.145H206.645V202.002H206.145ZM206.145 214.252H205.645C205.645 218.394 202.287 221.752 198.145 221.752V222.252V222.752C202.839 222.752 206.645 218.946 206.645 214.252H206.145ZM198.145 222.252V221.752H173.645V222.252V222.752H198.145V222.252ZM173.645 222.252V221.752C169.502 221.752 166.145 218.394 166.145 214.252H165.645H165.145C165.145 218.946 168.95 222.752 173.645 222.752V222.252ZM165.645 214.252H166.145V202.002H165.645H165.145V214.252H165.645ZM165.645 202.002H166.145C166.145 198.178 169.007 195.023 172.706 194.562L172.645 194.065L172.583 193.569C168.389 194.092 165.145 197.667 165.145 202.002H165.645ZM172.645 194.065H173.145V191.502H172.645H172.145V194.065H172.645ZM172.645 191.502H173.145C173.145 188.12 174.488 184.877 176.879 182.486L176.525 182.133L176.172 181.779C173.593 184.358 172.145 187.855 172.145 191.502H172.645ZM176.525 182.133L176.879 182.486C179.27 180.095 182.513 178.752 185.895 178.752V178.252V177.752C182.248 177.752 178.75 179.201 176.172 181.779L176.525 182.133ZM174.645 213.252V213.752H197.145V213.252V212.752H174.645V213.252ZM197.145 213.252H197.645V203.002H197.145H196.645V213.252H197.145ZM197.145 203.002V202.502H174.645V203.002V203.502H197.145V203.002ZM174.645 203.002H174.145V213.252H174.645H175.145V203.002H174.645ZM185.895 187.252V186.752C184.635 186.752 183.427 187.253 182.536 188.144L182.89 188.497L183.243 188.851C183.947 188.147 184.9 187.752 185.895 187.752V187.252ZM182.89 188.497L182.536 188.144C181.645 189.034 181.145 190.242 181.145 191.502H181.645H182.145C182.145 190.508 182.54 189.554 183.243 188.851L182.89 188.497ZM181.645 191.502H181.145V194.002H181.645H182.145V191.502H181.645ZM181.645 194.002V194.502H190.145V194.002V193.502H181.645V194.002ZM190.145 194.002H190.645V191.502H190.145H189.645V194.002H190.145ZM190.145 191.502H190.645C190.645 190.242 190.144 189.034 189.253 188.144L188.899 188.497L188.546 188.851C189.249 189.554 189.645 190.508 189.645 191.502H190.145ZM188.899 188.497L189.253 188.144C188.362 187.253 187.154 186.752 185.895 186.752V187.252V187.752C186.889 187.752 187.843 188.147 188.546 188.851L188.899 188.497Z" fill="#507A37"/>
</g>
<path d="M103.423 324.691L62.332 348.431V239.772L103.423 175.854V324.691Z" fill="url(#paint8_linear_2133_8805)"/>
<path d="M226.763 444.029L185.672 467.769V359.109L226.763 295.191V444.029Z" fill="url(#paint9_linear_2133_8805)"/>
<path d="M268.862 324.701L309.953 348.441V239.782L268.862 175.863V324.701Z" fill="url(#paint10_linear_2133_8805)"/>
<path d="M-20.5439 444.22L20.5469 467.961V359.301L-20.5439 295.383V444.22Z" fill="url(#paint11_linear_2133_8805)"/>
<path d="M62.3311 444.22L103.422 467.961V359.301L62.3311 295.383V444.22Z" fill="url(#paint12_linear_2133_8805)"/>
<path d="M351.208 420.09L310.117 443.83V335.17L351.208 271.252V420.09Z" fill="url(#paint13_linear_2133_8805)"/>
<path d="M310.114 491.599L269.023 515.339V406.679L310.114 342.761V491.599Z" fill="url(#paint14_linear_2133_8805)"/>
</g>
<defs>
<clipPath id="bgblur_1_2133_8805_clip_path" transform="translate(-147.78 -275.669)"><rect width="96.4515" height="57.8709" transform="matrix(0.866025 -0.5 0 1 185.898 362.299)"/>
</clipPath><filter id="filter1_iiii_2133_8805" x="94.4014" y="235.632" width="182.986" height="111.643" filterUnits="userSpaceOnUse" color-interpolation-filters="sRGB">
<feFlood flood-opacity="0" result="BackgroundImageFix"/>
<feBlend mode="normal" in="SourceGraphic" in2="BackgroundImageFix" result="shape"/>
<feColorMatrix in="SourceAlpha" type="matrix" values="0 0 0 0 0 0 0 0 0 0 0 0 0 0 0 0 0 0 127 0" result="hardAlpha"/>
<feOffset/>
<feGaussianBlur stdDeviation="19.3739"/>
<feComposite in2="hardAlpha" operator="arithmetic" k2="-1" k3="1"/>
<feColorMatrix type="matrix" values="0 0 0 0 0.121569 0 0 0 0 0.192157 0 0 0 0 0.0784314 0 0 0 1 0"/>
<feBlend mode="normal" in2="shape" result="effect1_innerShadow_2133_8805"/>
<feColorMatrix in="SourceAlpha" type="matrix" values="0 0 0 0 0 0 0 0 0 0 0 0 0 0 0 0 0 0 127 0" result="hardAlpha"/>
<feOffset/>
<feGaussianBlur stdDeviation="19.3739"/>
<feComposite in2="hardAlpha" operator="arithmetic" k2="-1" k3="1"/>
<feColorMatrix type="matrix" values="0 0 0 0 0.121569 0 0 0 0 0.192157 0 0 0 0 0.0784314 0 0 0 1 0"/>
<feBlend mode="normal" in2="effect1_innerShadow_2133_8805" result="effect2_innerShadow_2133_8805"/>
<feColorMatrix in="SourceAlpha" type="matrix" values="0 0 0 0 0 0 0 0 0 0 0 0 0 0 0 0 0 0 127 0" result="hardAlpha"/>
<feOffset/>
<feGaussianBlur stdDeviation="19.3739"/>
<feComposite in2="hardAlpha" operator="arithmetic" k2="-1" k3="1"/>
<feColorMatrix type="matrix" values="0 0 0 0 0.121569 0 0 0 0 0.192157 0 0 0 0 0.0784314 0 0 0 1 0"/>
<feBlend mode="normal" in2="effect2_innerShadow_2133_8805" result="effect3_innerShadow_2133_8805"/>
<feColorMatrix in="SourceAlpha" type="matrix" values="0 0 0 0 0 0 0 0 0 0 0 0 0 0 0 0 0 0 127 0" result="hardAlpha"/>
<feOffset/>
<feGaussianBlur stdDeviation="19.3739"/>
<feComposite in2="hardAlpha" operator="arithmetic" k2="-1" k3="1"/>
<feColorMatrix type="matrix" values="0 0 0 0 0.121569 0 0 0 0 0.192157 0 0 0 0 0.0784314 0 0 0 1 0"/>
<feBlend mode="normal" in2="effect3_innerShadow_2133_8805" result="effect4_innerShadow_2133_8805"/>
</filter>
<clipPath id="bgblur_2_2133_8805_clip_path" transform="translate(-94.4014 -235.632)"><rect width="96.4541" height="96.4541" transform="matrix(0.866025 0.5 -0.866025 0.5 185.895 243.227)"/>
</clipPath><filter id="filter2_i_2133_8805" x="94.835" y="283.608" width="98.5878" height="86.5331" filterUnits="userSpaceOnUse" color-interpolation-filters="sRGB">
<feFlood flood-opacity="0" result="BackgroundImageFix"/>
<feBlend mode="normal" in="SourceGraphic" in2="BackgroundImageFix" result="shape"/>
<feColorMatrix in="SourceAlpha" type="matrix" values="0 0 0 0 0 0 0 0 0 0 0 0 0 0 0 0 0 0 127 0" result="hardAlpha"/>
<feOffset/>
<feGaussianBlur stdDeviation="10.1"/>
<feComposite in2="hardAlpha" operator="arithmetic" k2="-1" k3="1"/>
<feColorMatrix type="matrix" values="0 0 0 0 0.221564 0 0 0 0 0.369629 0 0 0 0 0.131079 0 0 0 1 0"/>
<feBlend mode="normal" in2="shape" result="effect1_innerShadow_2133_8805"/>
</filter>
<clipPath id="bgblur_3_2133_8805_clip_path" transform="translate(-94.835 -283.608)"><rect width="96.4541" height="22.6168" transform="matrix(0.866025 0.5 0 1 102.363 291.453)"/>
</clipPath><filter id="filter3_i_2133_8805" x="178.366" y="283.61" width="98.5878" height="86.5331" filterUnits="userSpaceOnUse" color-interpolation-filters="sRGB">
<feFlood flood-opacity="0" result="BackgroundImageFix"/>
<feBlend mode="normal" in="SourceGraphic" in2="BackgroundImageFix" result="shape"/>
<feColorMatrix in="SourceAlpha" type="matrix" values="0 0 0 0 0 0 0 0 0 0 0 0 0 0 0 0 0 0 127 0" result="hardAlpha"/>
<feOffset/>
<feGaussianBlur stdDeviation="10.1"/>
<feComposite in2="hardAlpha" operator="arithmetic" k2="-1" k3="1"/>
<feColorMatrix type="matrix" values="0 0 0 0 0.221564 0 0 0 0 0.369629 0 0 0 0 0.131079 0 0 0 1 0"/>
<feBlend mode="normal" in2="shape" result="effect1_innerShadow_2133_8805"/>
</filter>
<clipPath id="bgblur_4_2133_8805_clip_path" transform="translate(-178.366 -283.61)"><rect width="96.4541" height="22.6168" transform="matrix(0.866025 -0.5 0 1 185.895 339.682)"/>
</clipPath><filter id="filter4_iiii_2133_8805" x="137.425" y="256.953" width="97.3963" height="65.1268" filterUnits="userSpaceOnUse" color-interpolation-filters="sRGB">
<feFlood flood-opacity="0" result="BackgroundImageFix"/>
<feBlend mode="normal" in="SourceGraphic" in2="BackgroundImageFix" result="shape"/>
<feColorMatrix in="SourceAlpha" type="matrix" values="0 0 0 0 0 0 0 0 0 0 0 0 0 0 0 0 0 0 127 0" result="hardAlpha"/>
<feOffset/>
<feGaussianBlur stdDeviation="19.3739"/>
<feComposite in2="hardAlpha" operator="arithmetic" k2="-1" k3="1"/>
<feColorMatrix type="matrix" values="0 0 0 0 0.121569 0 0 0 0 0.192157 0 0 0 0 0.0784314 0 0 0 1 0"/>
<feBlend mode="normal" in2="shape" result="effect1_innerShadow_2133_8805"/>
<feColorMatrix in="SourceAlpha" type="matrix" values="0 0 0 0 0 0 0 0 0 0 0 0 0 0 0 0 0 0 127 0" result="hardAlpha"/>
<feOffset/>
<feGaussianBlur stdDeviation="19.3739"/>
<feComposite in2="hardAlpha" operator="arithmetic" k2="-1" k3="1"/>
<feColorMatrix type="matrix" values="0 0 0 0 0.121569 0 0 0 0 0.192157 0 0 0 0 0.0784314 0 0 0 1 0"/>
<feBlend mode="normal" in2="effect1_innerShadow_2133_8805" result="effect2_innerShadow_2133_8805"/>
<feColorMatrix in="SourceAlpha" type="matrix" values="0 0 0 0 0 0 0 0 0 0 0 0 0 0 0 0 0 0 127 0" result="hardAlpha"/>
<feOffset/>
<feGaussianBlur stdDeviation="19.3739"/>
<feComposite in2="hardAlpha" operator="arithmetic" k2="-1" k3="1"/>
<feColorMatrix type="matrix" values="0 0 0 0 0.121569 0 0 0 0 0.192157 0 0 0 0 0.0784314 0 0 0 1 0"/>
<feBlend mode="normal" in2="effect2_innerShadow_2133_8805" result="effect3_innerShadow_2133_8805"/>
<feColorMatrix in="SourceAlpha" type="matrix" values="0 0 0 0 0 0 0 0 0 0 0 0 0 0 0 0 0 0 127 0" result="hardAlpha"/>
<feOffset/>
<feGaussianBlur stdDeviation="19.3739"/>
<feComposite in2="hardAlpha" operator="arithmetic" k2="-1" k3="1"/>
<feColorMatrix type="matrix" values="0 0 0 0 0.121569 0 0 0 0 0.192157 0 0 0 0 0.0784314 0 0 0 1 0"/>
<feBlend mode="normal" in2="effect3_innerShadow_2133_8805" result="effect4_innerShadow_2133_8805"/>
</filter>
<clipPath id="bgblur_5_2133_8805_clip_path" transform="translate(-137.425 -256.953)"><circle cx="34.4936" cy="34.4936" r="34.4936" transform="matrix(0.849624 -0.527389 0.856131 0.516759 127.285 289.883)"/>
</clipPath><clipPath id="bgblur_6_2133_8805_clip_path" transform="translate(-137.425 -256.953)"><circle cx="28.1188" cy="28.1188" r="27.6188" transform="matrix(0.849624 -0.527389 0.856131 0.516759 138.16 289.815)"/>
</clipPath><filter id="filter5_d_2133_8805" x="151.809" y="262.481" width="69.3789" height="53.7275" filterUnits="userSpaceOnUse" color-interpolation-filters="sRGB">
<feFlood flood-opacity="0" result="BackgroundImageFix"/>
<feColorMatrix in="SourceAlpha" type="matrix" values="0 0 0 0 0 0 0 0 0 0 0 0 0 0 0 0 0 0 127 0" result="hardAlpha"/>
<feOffset/>
<feGaussianBlur stdDeviation="7.5"/>
<feComposite in2="hardAlpha" operator="out"/>
<feColorMatrix type="matrix" values="0 0 0 0 0.575949 0 0 0 0 0.85761 0 0 0 0 0.294288 0 0 0 1 0"/>
<feBlend mode="normal" in2="BackgroundImageFix" result="effect1_dropShadow_2133_8805"/>
<feBlend mode="normal" in="SourceGraphic" in2="effect1_dropShadow_2133_8805" result="shape"/>
</filter>
<filter id="filter6_dd_2133_8805" x="75.2445" y="87.852" width="221.3" height="224.8" filterUnits="userSpaceOnUse" color-interpolation-filters="sRGB">
<feFlood flood-opacity="0" result="BackgroundImageFix"/>
<feColorMatrix in="SourceAlpha" type="matrix" values="0 0 0 0 0 0 0 0 0 0 0 0 0 0 0 0 0 0 127 0" result="hardAlpha"/>
<feOffset/>
<feGaussianBlur stdDeviation="8.95"/>
<feComposite in2="hardAlpha" operator="out"/>
<feColorMatrix type="matrix" values="0 0 0 0 0.575949 0 0 0 0 0.85761 0 0 0 0 0.294288 0 0 0 0.31 0"/>
<feBlend mode="normal" in2="BackgroundImageFix" result="effect1_dropShadow_2133_8805"/>
<feColorMatrix in="SourceAlpha" type="matrix" values="0 0 0 0 0 0 0 0 0 0 0 0 0 0 0 0 0 0 127 0" result="hardAlpha"/>
<feOffset/>
<feGaussianBlur stdDeviation="44.95"/>
<feComposite in2="hardAlpha" operator="out"/>
<feColorMatrix type="matrix" values="0 0 0 0 0.575949 0 0 0 0 0.85761 0 0 0 0 0.294288 0 0 0 0.31 0"/>
<feBlend mode="normal" in2="effect1_dropShadow_2133_8805" result="effect2_dropShadow_2133_8805"/>
<feBlend mode="normal" in="SourceGraphic" in2="effect2_dropShadow_2133_8805" result="shape"/>
</filter>
<linearGradient id="paint0_linear_2133_8805" x1="259.732" y1="204.129" x2="241.926" y2="358.902" gradientUnits="userSpaceOnUse">
<stop stop-opacity="0"/>
<stop offset="1" stop-color="#507A37"/>
</linearGradient>
<linearGradient id="paint1_linear_2133_8805" x1="112.553" y1="204.129" x2="130.359" y2="358.902" gradientUnits="userSpaceOnUse">
<stop stop-opacity="0"/>
<stop offset="1" stop-color="#507A37"/>
</linearGradient>
<radialGradient id="paint2_radial_2133_8805" cx="0" cy="0" r="1" gradientUnits="userSpaceOnUse" gradientTransform="translate(203.602 540.051) rotate(-90) scale(335.051 440.172)">
<stop offset="0.5" stop-color="white"/>
<stop offset="1" stop-color="white" stop-opacity="0"/>
</radialGradient>
<linearGradient id="paint3_linear_2133_8805" x1="72.1415" y1="200.242" x2="83.7913" y2="27.9517" gradientUnits="userSpaceOnUse">
<stop/>
<stop offset="1" stop-color="#666666" stop-opacity="0"/>
</linearGradient>
<linearGradient id="paint4_linear_2133_8805" x1="72.1415" y1="200.242" x2="83.7913" y2="27.9517" gradientUnits="userSpaceOnUse">
<stop/>
<stop offset="1" stop-color="#666666" stop-opacity="0"/>
</linearGradient>
<linearGradient id="paint5_linear_2133_8805" x1="102.863" y1="132.488" x2="102.863" y2="292.146" gradientUnits="userSpaceOnUse">
<stop/>
<stop offset="1" stop-color="#507A37"/>
</linearGradient>
<linearGradient id="paint6_linear_2133_8805" x1="269.926" y1="132.488" x2="269.926" y2="292.146" gradientUnits="userSpaceOnUse">
<stop/>
<stop offset="1" stop-color="#507A37"/>
</linearGradient>
<linearGradient id="paint7_linear_2133_8805" x1="186.621" y1="83.5684" x2="186.621" y2="243.227" gradientUnits="userSpaceOnUse">
<stop/>
<stop offset="1" stop-color="#507A37"/>
</linearGradient>
<linearGradient id="paint8_linear_2133_8805" x1="71.4636" y1="245.707" x2="89.2693" y2="400.48" gradientUnits="userSpaceOnUse">
<stop stop-opacity="0"/>
<stop offset="1" stop-color="#507A37"/>
</linearGradient>
<linearGradient id="paint9_linear_2133_8805" x1="194.803" y1="365.044" x2="212.609" y2="519.817" gradientUnits="userSpaceOnUse">
<stop stop-opacity="0"/>
<stop offset="1" stop-color="#507A37"/>
</linearGradient>
<linearGradient id="paint10_linear_2133_8805" x1="300.822" y1="245.717" x2="283.016" y2="400.49" gradientUnits="userSpaceOnUse">
<stop stop-opacity="0"/>
<stop offset="1" stop-color="#507A37"/>
</linearGradient>
<linearGradient id="paint11_linear_2133_8805" x1="11.4153" y1="365.236" x2="-6.39043" y2="520.009" gradientUnits="userSpaceOnUse">
<stop stop-opacity="0"/>
<stop offset="1" stop-color="#507A37"/>
</linearGradient>
<linearGradient id="paint12_linear_2133_8805" x1="94.2903" y1="365.236" x2="76.4846" y2="520.009" gradientUnits="userSpaceOnUse">
<stop stop-opacity="0"/>
<stop offset="1" stop-color="#507A37"/>
</linearGradient>
<linearGradient id="paint13_linear_2133_8805" x1="319.249" y1="341.105" x2="337.054" y2="495.878" gradientUnits="userSpaceOnUse">
<stop stop-opacity="0"/>
<stop offset="1" stop-color="#507A37"/>
</linearGradient>
<linearGradient id="paint14_linear_2133_8805" x1="278.155" y1="412.615" x2="295.961" y2="567.388" gradientUnits="userSpaceOnUse">
<stop stop-opacity="0"/>
<stop offset="1" stop-color="#507A37"/>
</linearGradient>
<clipPath id="clip0_2133_8805">
<rect width="366" height="499" fill="white"/>
</clipPath>
</defs>
</svg>
