<svg width="366" height="499" viewBox="0 0 366 499" fill="none" xmlns="http://www.w3.org/2000/svg">
<g clip-path="url(#clip0_2_2080)">
<rect width="366" height="499" fill="black"/>
<path d="M22.4954 38.0239V26.6639H24.4154L28.0474 36.5199L31.6634 26.6639H33.5834V38.0239H32.2074V29.2239L28.9594 38.0239H27.1194L23.8714 29.2239V38.0239H22.4954ZM39.4904 38.2159C38.7118 38.2159 38.0291 38.0346 37.4424 37.6719C36.8558 37.3093 36.4024 36.7973 36.0824 36.1359C35.7624 35.4639 35.6024 34.6799 35.6024 33.7839C35.6024 32.8773 35.7624 32.0933 36.0824 31.4319C36.4024 30.7706 36.8558 30.2586 37.4424 29.8959C38.0291 29.5333 38.7118 29.3519 39.4904 29.3519C40.2691 29.3519 40.9464 29.5333 41.5224 29.8959C42.1091 30.2586 42.5624 30.7706 42.8824 31.4319C43.2024 32.0933 43.3624 32.8773 43.3624 33.7839C43.3624 34.6799 43.2024 35.4639 42.8824 36.1359C42.5624 36.7973 42.1091 37.3093 41.5224 37.6719C40.9464 38.0346 40.2691 38.2159 39.4904 38.2159ZM39.4904 36.9359C40.2691 36.9359 40.8718 36.6586 41.2984 36.1039C41.7358 35.5386 41.9544 34.7653 41.9544 33.7839C41.9544 32.8026 41.7358 32.0346 41.2984 31.4799C40.8718 30.9146 40.2691 30.6319 39.4904 30.6319C38.7118 30.6319 38.1038 30.9146 37.6664 31.4799C37.2291 32.0346 37.0104 32.8026 37.0104 33.7839C37.0104 34.7653 37.2291 35.5386 37.6664 36.1039C38.1038 36.6586 38.7118 36.9359 39.4904 36.9359ZM47.1041 38.0239L44.0161 29.5439H45.4881L47.9521 36.6479L50.4161 29.5439H51.8881L48.8001 38.0239H47.1041ZM56.4123 38.2159C55.6123 38.2159 54.919 38.0346 54.3323 37.6719C53.7563 37.3093 53.3083 36.7973 52.9883 36.1359C52.679 35.4639 52.5243 34.6799 52.5243 33.7839C52.5243 32.8879 52.679 32.1093 52.9883 31.4479C53.3083 30.7866 53.751 30.2746 54.3163 29.9119C54.8923 29.5386 55.5696 29.3519 56.3483 29.3519C57.0843 29.3519 57.735 29.5279 58.3003 29.8799C58.8656 30.2213 59.303 30.7226 59.6123 31.3839C59.9323 32.0453 60.0923 32.8506 60.0923 33.7999V34.1999H53.9323C53.9856 35.1066 54.2256 35.7893 54.6523 36.2479C55.0896 36.7066 55.6763 36.9359 56.4123 36.9359C56.967 36.9359 57.4203 36.8079 57.7723 36.5519C58.135 36.2853 58.3856 35.9386 58.5243 35.5119L59.9643 35.6239C59.7403 36.3813 59.3136 37.0053 58.6843 37.4959C58.0656 37.9759 57.3083 38.2159 56.4123 38.2159ZM53.9323 33.0159H58.6203C58.5563 32.1946 58.3163 31.5919 57.9003 31.2079C57.495 30.8239 56.9776 30.6319 56.3483 30.6319C55.6976 30.6319 55.159 30.8346 54.7323 31.2399C54.3163 31.6346 54.0496 32.2266 53.9323 33.0159ZM68.3571 38.2159C67.4824 38.2159 66.7837 38.0133 66.2611 37.6079C65.7491 37.2026 65.4931 36.6373 65.4931 35.9119C65.4931 35.1866 65.7064 34.6159 66.1331 34.1999C66.5597 33.7839 67.2371 33.4906 68.1651 33.3199L71.1731 32.7599C71.1731 32.0453 71.0024 31.5119 70.6611 31.1599C70.3304 30.8079 69.8291 30.6319 69.1571 30.6319C68.5704 30.6319 68.1064 30.7653 67.7651 31.0319C67.4237 31.2879 67.1891 31.6613 67.0611 32.1519L65.6371 32.0399C65.7971 31.2399 66.1811 30.5946 66.7891 30.1039C67.4077 29.6026 68.1971 29.3519 69.1571 29.3519C70.2451 29.3519 71.0771 29.6613 71.6531 30.2799C72.2291 30.8879 72.5171 31.7306 72.5171 32.8079V36.3119C72.5171 36.5039 72.5491 36.6426 72.6131 36.7279C72.6877 36.8026 72.8051 36.8399 72.9651 36.8399H73.3011V38.0239C73.2584 38.0346 73.1891 38.0399 73.0931 38.0399C72.9971 38.0506 72.8957 38.0559 72.7891 38.0559C72.4051 38.0559 72.0904 37.9973 71.8451 37.8799C71.6104 37.7519 71.4397 37.5599 71.3331 37.3039C71.2264 37.0373 71.1731 36.6906 71.1731 36.2639L71.3331 36.2959C71.2584 36.6586 71.0771 36.9893 70.7891 37.2879C70.5011 37.5759 70.1437 37.8053 69.7171 37.9759C69.2904 38.1359 68.8371 38.2159 68.3571 38.2159ZM68.4851 37.0319C69.0504 37.0319 69.5304 36.9253 69.9251 36.7119C70.3304 36.4879 70.6397 36.1893 70.8531 35.8159C71.0664 35.4319 71.1731 35.0053 71.1731 34.5359V33.9279L68.4211 34.4399C67.8451 34.5466 67.4451 34.7119 67.2211 34.9359C67.0077 35.1493 66.9011 35.4319 66.9011 35.7839C66.9011 36.1786 67.0397 36.4879 67.3171 36.7119C67.6051 36.9253 67.9944 37.0319 68.4851 37.0319ZM77.5012 38.0239C76.7332 38.0239 76.1625 37.8479 75.7892 37.4959C75.4265 37.1439 75.2452 36.5946 75.2452 35.8479V27.5599H76.5892V35.8159C76.5892 36.1999 76.6745 36.4666 76.8452 36.6159C77.0159 36.7653 77.2772 36.8399 77.6292 36.8399H78.8452V38.0239H77.5012ZM73.9972 30.7279V29.5439H78.8452V30.7279H73.9972ZM85.0308 40.4239V39.2399H86.0068C86.3055 39.2399 86.5241 39.1919 86.6628 39.0959C86.8121 39.0106 86.9241 38.8666 86.9988 38.6639L87.3028 37.8639H86.8388L83.7348 29.5439H85.2068L87.7348 36.6159L90.1508 29.5439H91.6228L88.1828 39.0959C88.0228 39.5546 87.7828 39.8906 87.4628 40.1039C87.1428 40.3173 86.7001 40.4239 86.1348 40.4239H85.0308ZM96.1467 38.2159C95.368 38.2159 94.6854 38.0346 94.0987 37.6719C93.512 37.3093 93.0587 36.7973 92.7387 36.1359C92.4187 35.4639 92.2587 34.6799 92.2587 33.7839C92.2587 32.8773 92.4187 32.0933 92.7387 31.4319C93.0587 30.7706 93.512 30.2586 94.0987 29.8959C94.6854 29.5333 95.368 29.3519 96.1467 29.3519C96.9254 29.3519 97.6027 29.5333 98.1787 29.8959C98.7654 30.2586 99.2187 30.7706 99.5387 31.4319C99.8587 32.0933 100.019 32.8773 100.019 33.7839C100.019 34.6799 99.8587 35.4639 99.5387 36.1359C99.2187 36.7973 98.7654 37.3093 98.1787 37.6719C97.6027 38.0346 96.9254 38.2159 96.1467 38.2159ZM96.1467 36.9359C96.9254 36.9359 97.528 36.6586 97.9547 36.1039C98.392 35.5386 98.6107 34.7653 98.6107 33.7839C98.6107 32.8026 98.392 32.0346 97.9547 31.4799C97.528 30.9146 96.9254 30.6319 96.1467 30.6319C95.368 30.6319 94.76 30.9146 94.3227 31.4799C93.8854 32.0346 93.6667 32.8026 93.6667 33.7839C93.6667 34.7653 93.8854 35.5386 94.3227 36.1039C94.76 36.6586 95.368 36.9359 96.1467 36.9359ZM104.634 38.2159C103.792 38.2159 103.114 37.9333 102.602 37.3679C102.101 36.7919 101.85 36.0026 101.85 34.9999V29.5439H103.194V34.6319C103.194 35.4533 103.338 36.0613 103.626 36.4559C103.925 36.8399 104.378 37.0319 104.986 37.0319C105.658 37.0319 106.186 36.8186 106.57 36.3919C106.954 35.9546 107.146 35.3573 107.146 34.5999V29.5439H108.49V38.0239H107.21V35.9279L107.418 36.0399C107.248 36.7333 106.922 37.2719 106.442 37.6559C105.962 38.0293 105.36 38.2159 104.634 38.2159ZM111.053 38.0239V29.5439H112.237L112.301 31.6879L112.173 31.6399C112.28 30.9146 112.509 30.3866 112.861 30.0559C113.224 29.7146 113.704 29.5439 114.301 29.5439H115.133V30.8239H114.317C113.891 30.8239 113.533 30.9039 113.245 31.0639C112.968 31.2133 112.755 31.4426 112.605 31.7519C112.467 32.0506 112.397 32.4346 112.397 32.9039V38.0239H111.053ZM124.428 38.2159C123.639 38.2159 122.951 38.0346 122.364 37.6719C121.788 37.3093 121.34 36.7973 121.02 36.1359C120.7 35.4639 120.54 34.6799 120.54 33.7839C120.54 32.8879 120.7 32.1093 121.02 31.4479C121.34 30.7866 121.788 30.2746 122.364 29.9119C122.951 29.5386 123.639 29.3519 124.428 29.3519C125.079 29.3519 125.655 29.4693 126.156 29.7039C126.668 29.9279 127.084 30.2586 127.404 30.6959C127.724 31.1333 127.932 31.6666 128.028 32.2959L126.62 32.3919C126.524 31.8266 126.279 31.3946 125.884 31.0959C125.489 30.7866 125.004 30.6319 124.428 30.6319C123.649 30.6319 123.041 30.9146 122.604 31.4799C122.167 32.0346 121.948 32.8026 121.948 33.7839C121.948 34.7653 122.167 35.5386 122.604 36.1039C123.041 36.6586 123.649 36.9359 124.428 36.9359C125.004 36.9359 125.489 36.7759 125.884 36.4559C126.279 36.1359 126.524 35.6559 126.62 35.0159L128.028 35.1119C127.932 35.7413 127.724 36.2906 127.404 36.7599C127.084 37.2186 126.668 37.5759 126.156 37.8319C125.655 38.0879 125.079 38.2159 124.428 38.2159ZM132.478 38.2159C131.635 38.2159 130.958 37.9333 130.446 37.3679C129.945 36.7919 129.694 36.0026 129.694 34.9999V29.5439H131.038V34.6319C131.038 35.4533 131.182 36.0613 131.47 36.4559C131.769 36.8399 132.222 37.0319 132.83 37.0319C133.502 37.0319 134.03 36.8186 134.414 36.3919C134.798 35.9546 134.99 35.3573 134.99 34.5999V29.5439H136.334V38.0239H135.054V35.9279L135.262 36.0399C135.091 36.7333 134.766 37.2719 134.286 37.6559C133.806 38.0293 133.203 38.2159 132.478 38.2159ZM141.829 38.2159C141.072 38.2159 140.426 38.0933 139.893 37.8479C139.37 37.6026 138.96 37.2666 138.661 36.8399C138.373 36.4026 138.208 35.9066 138.165 35.3519L139.573 35.2559C139.658 35.7679 139.877 36.1786 140.229 36.4879C140.581 36.7866 141.114 36.9359 141.829 36.9359C142.405 36.9359 142.864 36.8453 143.205 36.6639C143.557 36.4719 143.733 36.1679 143.733 35.7519C143.733 35.5279 143.68 35.3413 143.573 35.1919C143.466 35.0426 143.258 34.9146 142.949 34.8079C142.64 34.6906 142.181 34.5786 141.573 34.4719C140.762 34.3226 140.122 34.1413 139.653 33.9279C139.194 33.7039 138.864 33.4319 138.661 33.1119C138.469 32.7813 138.373 32.3919 138.373 31.9439C138.373 31.1866 138.65 30.5679 139.205 30.0879C139.76 29.5973 140.549 29.3519 141.573 29.3519C142.266 29.3519 142.848 29.4799 143.317 29.7359C143.797 29.9813 144.17 30.3119 144.437 30.7279C144.714 31.1333 144.896 31.5813 144.981 32.0719L143.573 32.1679C143.509 31.8693 143.392 31.6079 143.221 31.3839C143.05 31.1493 142.826 30.9679 142.549 30.8399C142.272 30.7013 141.941 30.6319 141.557 30.6319C140.949 30.6319 140.501 30.7493 140.213 30.9839C139.925 31.2186 139.781 31.5173 139.781 31.8799C139.781 32.1573 139.845 32.3866 139.973 32.5679C140.112 32.7386 140.33 32.8826 140.629 32.9999C140.928 33.1066 141.328 33.2026 141.829 33.2879C142.693 33.4373 143.365 33.6186 143.845 33.8319C144.325 34.0453 144.661 34.3066 144.853 34.6159C145.045 34.9253 145.141 35.3039 145.141 35.7519C145.141 36.2746 144.992 36.7226 144.693 37.0959C144.405 37.4586 144.01 37.7359 143.509 37.9279C143.018 38.1199 142.458 38.2159 141.829 38.2159ZM149.751 38.0239C148.983 38.0239 148.413 37.8479 148.039 37.4959C147.677 37.1439 147.495 36.5946 147.495 35.8479V27.5599H148.839V35.8159C148.839 36.1999 148.925 36.4666 149.095 36.6159C149.266 36.7653 149.527 36.8399 149.879 36.8399H151.095V38.0239H149.751ZM146.247 30.7279V29.5439H151.095V30.7279H146.247ZM155.975 38.2159C155.196 38.2159 154.513 38.0346 153.927 37.6719C153.34 37.3093 152.887 36.7973 152.567 36.1359C152.247 35.4639 152.087 34.6799 152.087 33.7839C152.087 32.8773 152.247 32.0933 152.567 31.4319C152.887 30.7706 153.34 30.2586 153.927 29.8959C154.513 29.5333 155.196 29.3519 155.975 29.3519C156.753 29.3519 157.431 29.5333 158.007 29.8959C158.593 30.2586 159.047 30.7706 159.367 31.4319C159.687 32.0933 159.847 32.8773 159.847 33.7839C159.847 34.6799 159.687 35.4639 159.367 36.1359C159.047 36.7973 158.593 37.3093 158.007 37.6719C157.431 38.0346 156.753 38.2159 155.975 38.2159ZM155.975 36.9359C156.753 36.9359 157.356 36.6586 157.783 36.1039C158.22 35.5386 158.439 34.7653 158.439 33.7839C158.439 32.8026 158.22 32.0346 157.783 31.4799C157.356 30.9146 156.753 30.6319 155.975 30.6319C155.196 30.6319 154.588 30.9146 154.151 31.4799C153.713 32.0346 153.495 32.8026 153.495 33.7839C153.495 34.7653 153.713 35.5386 154.151 36.1039C154.588 36.6586 155.196 36.9359 155.975 36.9359ZM161.678 38.0239V29.5439H162.91L162.958 31.6879L162.766 31.6239C162.862 31.1546 163.028 30.7546 163.262 30.4239C163.508 30.0826 163.806 29.8213 164.158 29.6399C164.51 29.4479 164.9 29.3519 165.326 29.3519C166.062 29.3519 166.66 29.5546 167.118 29.9599C167.588 30.3653 167.881 30.9306 167.998 31.6559L167.742 31.6399C167.828 31.1493 167.982 30.7386 168.206 30.4079C168.441 30.0666 168.74 29.8053 169.102 29.6239C169.465 29.4426 169.881 29.3519 170.35 29.3519C170.958 29.3519 171.47 29.4799 171.886 29.7359C172.302 29.9813 172.617 30.3439 172.83 30.8239C173.044 31.3039 173.15 31.8853 173.15 32.5679V38.0239H171.806V32.8559C171.806 32.0879 171.657 31.5119 171.358 31.1279C171.06 30.7333 170.617 30.5359 170.03 30.5359C169.636 30.5359 169.289 30.6319 168.99 30.8239C168.702 31.0159 168.478 31.2933 168.318 31.6559C168.158 32.0079 168.078 32.4399 168.078 32.9519V38.0239H166.734V32.9519C166.734 32.1946 166.601 31.6026 166.334 31.1759C166.068 30.7493 165.62 30.5359 164.99 30.5359C164.596 30.5359 164.249 30.6319 163.95 30.8239C163.662 31.0159 163.433 31.2933 163.262 31.6559C163.102 32.0186 163.022 32.4506 163.022 32.9519V38.0239H161.678ZM178.834 38.2159C178.034 38.2159 177.341 38.0346 176.754 37.6719C176.178 37.3093 175.73 36.7973 175.41 36.1359C175.101 35.4639 174.946 34.6799 174.946 33.7839C174.946 32.8879 175.101 32.1093 175.41 31.4479C175.73 30.7866 176.173 30.2746 176.738 29.9119C177.314 29.5386 177.992 29.3519 178.77 29.3519C179.506 29.3519 180.157 29.5279 180.722 29.8799C181.288 30.2213 181.725 30.7226 182.034 31.3839C182.354 32.0453 182.514 32.8506 182.514 33.7999V34.1999H176.354C176.408 35.1066 176.648 35.7893 177.074 36.2479C177.512 36.7066 178.098 36.9359 178.834 36.9359C179.389 36.9359 179.842 36.8079 180.194 36.5519C180.557 36.2853 180.808 35.9386 180.946 35.5119L182.386 35.6239C182.162 36.3813 181.736 37.0053 181.106 37.4959C180.488 37.9759 179.73 38.2159 178.834 38.2159ZM176.354 33.0159H181.042C180.978 32.1946 180.738 31.5919 180.322 31.2079C179.917 30.8239 179.4 30.6319 178.77 30.6319C178.12 30.6319 177.581 30.8346 177.154 31.2399C176.738 31.6346 176.472 32.2266 176.354 33.0159ZM184.335 38.0239V29.5439H185.519L185.583 31.6879L185.455 31.6399C185.561 30.9146 185.791 30.3866 186.143 30.0559C186.505 29.7146 186.985 29.5439 187.583 29.5439H188.415V30.8239H187.599C187.172 30.8239 186.815 30.9039 186.527 31.0639C186.249 31.2133 186.036 31.4426 185.887 31.7519C185.748 32.0506 185.679 32.4346 185.679 32.9039V38.0239H184.335ZM192.845 38.2159C192.087 38.2159 191.442 38.0933 190.909 37.8479C190.386 37.6026 189.975 37.2666 189.677 36.8399C189.389 36.4026 189.223 35.9066 189.181 35.3519L190.589 35.2559C190.674 35.7679 190.893 36.1786 191.245 36.4879C191.597 36.7866 192.13 36.9359 192.845 36.9359C193.421 36.9359 193.879 36.8453 194.221 36.6639C194.573 36.4719 194.749 36.1679 194.749 35.7519C194.749 35.5279 194.695 35.3413 194.589 35.1919C194.482 35.0426 194.274 34.9146 193.965 34.8079C193.655 34.6906 193.197 34.5786 192.589 34.4719C191.778 34.3226 191.138 34.1413 190.669 33.9279C190.21 33.7039 189.879 33.4319 189.677 33.1119C189.485 32.7813 189.389 32.3919 189.389 31.9439C189.389 31.1866 189.666 30.5679 190.221 30.0879C190.775 29.5973 191.565 29.3519 192.589 29.3519C193.282 29.3519 193.863 29.4799 194.333 29.7359C194.813 29.9813 195.186 30.3119 195.453 30.7279C195.73 31.1333 195.911 31.5813 195.997 32.0719L194.589 32.1679C194.525 31.8693 194.407 31.6079 194.237 31.3839C194.066 31.1493 193.842 30.9679 193.565 30.8399C193.287 30.7013 192.957 30.6319 192.573 30.6319C191.965 30.6319 191.517 30.7493 191.229 30.9839C190.941 31.2186 190.797 31.5173 190.797 31.8799C190.797 32.1573 190.861 32.3866 190.989 32.5679C191.127 32.7386 191.346 32.8826 191.645 32.9999C191.943 33.1066 192.343 33.2026 192.845 33.2879C193.709 33.4373 194.381 33.6186 194.861 33.8319C195.341 34.0453 195.677 34.3066 195.869 34.6159C196.061 34.9253 196.157 35.3039 196.157 35.7519C196.157 36.2746 196.007 36.7226 195.709 37.0959C195.421 37.4586 195.026 37.7359 194.525 37.9279C194.034 38.1199 193.474 38.2159 192.845 38.2159ZM197.635 30.9679L198.403 28.4719H197.587V26.6639H199.395V28.2479L198.435 30.9679H197.635ZM208.485 38.2159C207.728 38.2159 207.083 38.0933 206.549 37.8479C206.027 37.6026 205.616 37.2666 205.317 36.8399C205.029 36.4026 204.864 35.9066 204.821 35.3519L206.229 35.2559C206.315 35.7679 206.533 36.1786 206.885 36.4879C207.237 36.7866 207.771 36.9359 208.485 36.9359C209.061 36.9359 209.52 36.8453 209.861 36.6639C210.213 36.4719 210.389 36.1679 210.389 35.7519C210.389 35.5279 210.336 35.3413 210.229 35.1919C210.123 35.0426 209.915 34.9146 209.605 34.8079C209.296 34.6906 208.837 34.5786 208.229 34.4719C207.419 34.3226 206.779 34.1413 206.309 33.9279C205.851 33.7039 205.52 33.4319 205.317 33.1119C205.125 32.7813 205.029 32.3919 205.029 31.9439C205.029 31.1866 205.307 30.5679 205.861 30.0879C206.416 29.5973 207.205 29.3519 208.229 29.3519C208.923 29.3519 209.504 29.4799 209.973 29.7359C210.453 29.9813 210.827 30.3119 211.093 30.7279C211.371 31.1333 211.552 31.5813 211.637 32.0719L210.229 32.1679C210.165 31.8693 210.048 31.6079 209.877 31.3839C209.707 31.1493 209.483 30.9679 209.205 30.8399C208.928 30.7013 208.597 30.6319 208.213 30.6319C207.605 30.6319 207.157 30.7493 206.869 30.9839C206.581 31.2186 206.437 31.5173 206.437 31.8799C206.437 32.1573 206.501 32.3866 206.629 32.5679C206.768 32.7386 206.987 32.8826 207.285 32.9999C207.584 33.1066 207.984 33.2026 208.485 33.2879C209.349 33.4373 210.021 33.6186 210.501 33.8319C210.981 34.0453 211.317 34.3066 211.509 34.6159C211.701 34.9253 211.797 35.3039 211.797 35.7519C211.797 36.2746 211.648 36.7226 211.349 37.0959C211.061 37.4586 210.667 37.7359 210.165 37.9279C209.675 38.1199 209.115 38.2159 208.485 38.2159ZM213.632 40.4239V29.5439H214.88L214.912 31.3679L214.72 31.2719C214.933 30.6426 215.285 30.1679 215.776 29.8479C216.277 29.5173 216.853 29.3519 217.504 29.3519C218.346 29.3519 219.034 29.5599 219.568 29.9759C220.112 30.3919 220.512 30.9359 220.768 31.6079C221.034 32.2799 221.168 33.0053 221.168 33.7839C221.168 34.5626 221.034 35.2879 220.768 35.9599C220.512 36.6319 220.112 37.1759 219.568 37.5919C219.034 38.0079 218.346 38.2159 217.504 38.2159C217.066 38.2159 216.656 38.1413 216.272 37.9919C215.898 37.8426 215.578 37.6346 215.312 37.3679C215.056 37.1013 214.88 36.7866 214.784 36.4239L214.976 36.1999V40.4239H213.632ZM217.376 36.9359C218.112 36.9359 218.693 36.6586 219.12 36.1039C219.546 35.5493 219.76 34.7759 219.76 33.7839C219.76 32.7919 219.546 32.0186 219.12 31.4639C218.693 30.9093 218.112 30.6319 217.376 30.6319C216.885 30.6319 216.458 30.7493 216.096 30.9839C215.744 31.2186 215.466 31.5706 215.264 32.0399C215.072 32.5093 214.976 33.0906 214.976 33.7839C214.976 34.4773 215.072 35.0586 215.264 35.5279C215.456 35.9973 215.733 36.3493 216.096 36.5839C216.458 36.8186 216.885 36.9359 217.376 36.9359ZM226.303 38.2159C225.503 38.2159 224.81 38.0346 224.223 37.6719C223.647 37.3093 223.199 36.7973 222.879 36.1359C222.57 35.4639 222.415 34.6799 222.415 33.7839C222.415 32.8879 222.57 32.1093 222.879 31.4479C223.199 30.7866 223.642 30.2746 224.207 29.9119C224.783 29.5386 225.46 29.3519 226.239 29.3519C226.975 29.3519 227.626 29.5279 228.191 29.8799C228.756 30.2213 229.194 30.7226 229.503 31.3839C229.823 32.0453 229.983 32.8506 229.983 33.7999V34.1999H223.823C223.876 35.1066 224.116 35.7893 224.543 36.2479C224.98 36.7066 225.567 36.9359 226.303 36.9359C226.858 36.9359 227.311 36.8079 227.663 36.5519C228.026 36.2853 228.276 35.9386 228.415 35.5119L229.855 35.6239C229.631 36.3813 229.204 37.0053 228.575 37.4959C227.956 37.9759 227.199 38.2159 226.303 38.2159ZM223.823 33.0159H228.511C228.447 32.1946 228.207 31.5919 227.791 31.2079C227.386 30.8239 226.868 30.6319 226.239 30.6319C225.588 30.6319 225.05 30.8346 224.623 31.2399C224.207 31.6346 223.94 32.2266 223.823 33.0159ZM235.115 38.2159C234.315 38.2159 233.622 38.0346 233.035 37.6719C232.459 37.3093 232.011 36.7973 231.691 36.1359C231.382 35.4639 231.227 34.6799 231.227 33.7839C231.227 32.8879 231.382 32.1093 231.691 31.4479C232.011 30.7866 232.454 30.2746 233.019 29.9119C233.595 29.5386 234.273 29.3519 235.051 29.3519C235.787 29.3519 236.438 29.5279 237.003 29.8799C237.569 30.2213 238.006 30.7226 238.315 31.3839C238.635 32.0453 238.795 32.8506 238.795 33.7999V34.1999H232.635C232.689 35.1066 232.929 35.7893 233.355 36.2479C233.793 36.7066 234.379 36.9359 235.115 36.9359C235.67 36.9359 236.123 36.8079 236.475 36.5519C236.838 36.2853 237.089 35.9386 237.227 35.5119L238.667 35.6239C238.443 36.3813 238.017 37.0053 237.387 37.4959C236.769 37.9759 236.011 38.2159 235.115 38.2159ZM232.635 33.0159H237.323C237.259 32.1946 237.019 31.5919 236.603 31.2079C236.198 30.8239 235.681 30.6319 235.051 30.6319C234.401 30.6319 233.862 30.8346 233.435 31.2399C233.019 31.6346 232.753 32.2266 232.635 33.0159ZM243.624 38.2159C242.888 38.2159 242.248 38.0346 241.704 37.6719C241.171 37.3093 240.76 36.7973 240.472 36.1359C240.184 35.4746 240.04 34.6906 240.04 33.7839C240.04 32.8773 240.184 32.0933 240.472 31.4319C240.76 30.7706 241.171 30.2586 241.704 29.8959C242.248 29.5333 242.888 29.3519 243.624 29.3519C244.189 29.3519 244.707 29.4746 245.176 29.7199C245.645 29.9546 245.997 30.2906 246.232 30.7279V26.6639H247.576V38.0239H246.36L246.312 36.7439C246.077 37.2026 245.72 37.5653 245.24 37.8319C244.76 38.0879 244.221 38.2159 243.624 38.2159ZM243.896 36.9359C244.397 36.9359 244.819 36.8079 245.16 36.5519C245.512 36.2959 245.779 35.9333 245.96 35.4639C246.141 34.9839 246.232 34.4239 246.232 33.7839C246.232 33.1226 246.141 32.5573 245.96 32.0879C245.779 31.6186 245.512 31.2613 245.16 31.0159C244.819 30.7599 244.397 30.6319 243.896 30.6319C243.149 30.6319 242.552 30.9146 242.104 31.4799C241.667 32.0346 241.448 32.8026 241.448 33.7839C241.448 34.7546 241.667 35.5226 242.104 36.0879C242.552 36.6533 243.149 36.9359 243.896 36.9359ZM249.556 38.0239V36.2159H251.364V38.0239H249.556ZM21.9834 60.0239C21.9834 59.2239 22.1061 58.5039 22.3514 57.8639C22.6074 57.2133 23.0501 56.5946 23.6794 56.0079C24.3194 55.4213 25.2048 54.8293 26.3354 54.2319C26.8581 53.9546 27.2794 53.6986 27.5994 53.4639C27.9194 53.2293 28.1541 52.9786 28.3034 52.7119C28.4528 52.4453 28.5274 52.1199 28.5274 51.7359C28.5274 51.3413 28.4421 50.9999 28.2714 50.7119C28.1008 50.4133 27.8448 50.1786 27.5034 50.0079C27.1728 49.8373 26.7568 49.7519 26.2554 49.7519C25.4554 49.7519 24.8208 49.9599 24.3514 50.3759C23.8928 50.7919 23.6048 51.3839 23.4874 52.1519L22.0474 52.0559C22.1754 50.9466 22.6021 50.0613 23.3274 49.3999C24.0528 48.7386 25.0288 48.4079 26.2554 48.4079C27.0341 48.4079 27.7008 48.5466 28.2554 48.8239C28.8101 49.1013 29.2314 49.4906 29.5194 49.9919C29.8181 50.4826 29.9674 51.0533 29.9674 51.7039C29.9674 52.2799 29.8714 52.7813 29.6794 53.2079C29.4874 53.6239 29.1621 54.0133 28.7034 54.3759C28.2554 54.7386 27.6368 55.1279 26.8474 55.5439C25.8234 56.0879 25.0448 56.6373 24.5114 57.1919C23.9888 57.7466 23.7114 58.2426 23.6794 58.6799H29.9674V60.0239H21.9834ZM36.7794 60.0239V57.5599H31.0034V56.3119L36.6834 48.6639H38.1554V56.2159H39.5634V57.5599H38.1554V60.0239H36.7794ZM32.6674 56.2159H36.7794V50.7759L32.6674 56.2159ZM41.0072 61.7839L45.7272 48.0239H47.0072L42.2872 61.7839H41.0072ZM50.7464 60.0239C50.7464 58.8506 50.9064 57.6826 51.2264 56.5199C51.5464 55.3466 52.0051 54.2106 52.6024 53.1119C53.2104 52.0133 53.9358 50.9786 54.7784 50.0079H48.2184V48.6639H56.2824V49.9119C55.3331 50.9999 54.5491 52.0773 53.9304 53.1439C53.3224 54.1999 52.8744 55.2933 52.5864 56.4239C52.2984 57.5439 52.1544 58.7439 52.1544 60.0239H50.7464ZM64.7851 62.6159C64.1771 62.6159 63.6277 62.5146 63.1371 62.3119C62.6464 62.1093 62.2357 61.8213 61.9051 61.4479C61.5744 61.0746 61.3504 60.6426 61.2331 60.1519L62.6411 60.0559C62.7691 60.4506 62.9931 60.7599 63.3131 60.9839C63.6437 61.2186 64.1344 61.3359 64.7851 61.3359C65.5531 61.3359 66.1397 61.1813 66.5451 60.8719C66.9611 60.5626 67.1691 60.0986 67.1691 59.4799V58.1039C66.9664 58.5519 66.6411 58.9093 66.1931 59.1759C65.7451 59.4426 65.2437 59.5759 64.6891 59.5759C63.9744 59.5759 63.3344 59.3999 62.7691 59.0479C62.2144 58.6959 61.7771 58.2106 61.4571 57.5919C61.1477 56.9733 60.9931 56.2639 60.9931 55.4639C60.9931 54.6533 61.1477 53.9439 61.4571 53.3359C61.7664 52.7173 62.1931 52.2319 62.7371 51.8799C63.2917 51.5279 63.9211 51.3519 64.6251 51.3519C65.2224 51.3519 65.7557 51.4906 66.2251 51.7679C66.7051 52.0453 67.0411 52.4186 67.2331 52.8879V51.5439H68.5131V59.4479C68.5131 60.1093 68.3637 60.6746 68.0651 61.1439C67.7664 61.6239 67.3397 61.9866 66.7851 62.2319C66.2304 62.4879 65.5637 62.6159 64.7851 62.6159ZM64.7531 58.2959C65.4784 58.2959 66.0597 58.0453 66.4971 57.5439C66.9344 57.0319 67.1584 56.3386 67.1691 55.4639C67.1797 54.8773 67.0837 54.3759 66.8811 53.9599C66.6891 53.5333 66.4064 53.2079 66.0331 52.9839C65.6704 52.7493 65.2437 52.6319 64.7531 52.6319C64.0064 52.6319 63.4251 52.8879 63.0091 53.3999C62.6037 53.9013 62.4011 54.5893 62.4011 55.4639C62.4011 56.3386 62.6091 57.0319 63.0251 57.5439C63.4517 58.0453 64.0277 58.2959 64.7531 58.2959ZM72.7331 60.0239C72.2424 60.0239 71.8424 59.8959 71.5331 59.6399C71.2237 59.3839 71.0691 58.9786 71.0691 58.4239V48.6639H72.4131V58.3119C72.4131 58.4826 72.4557 58.6159 72.5411 58.7119C72.6371 58.7973 72.7704 58.8399 72.9411 58.8399H73.6771V60.0239H72.7331ZM78.5529 60.2159C77.7743 60.2159 77.0916 60.0346 76.5049 59.6719C75.9183 59.3093 75.4649 58.7973 75.1449 58.1359C74.8249 57.4639 74.6649 56.6799 74.6649 55.7839C74.6649 54.8773 74.8249 54.0933 75.1449 53.4319C75.4649 52.7706 75.9183 52.2586 76.5049 51.8959C77.0916 51.5333 77.7743 51.3519 78.5529 51.3519C79.3316 51.3519 80.0089 51.5333 80.5849 51.8959C81.1716 52.2586 81.6249 52.7706 81.9449 53.4319C82.2649 54.0933 82.4249 54.8773 82.4249 55.7839C82.4249 56.6799 82.2649 57.4639 81.9449 58.1359C81.6249 58.7973 81.1716 59.3093 80.5849 59.6719C80.0089 60.0346 79.3316 60.2159 78.5529 60.2159ZM78.5529 58.9359C79.3316 58.9359 79.9343 58.6586 80.3609 58.1039C80.7983 57.5386 81.0169 56.7653 81.0169 55.7839C81.0169 54.8026 80.7983 54.0346 80.3609 53.4799C79.9343 52.9146 79.3316 52.6319 78.5529 52.6319C77.7743 52.6319 77.1663 52.9146 76.7289 53.4799C76.2916 54.0346 76.0729 54.8026 76.0729 55.7839C76.0729 56.7653 76.2916 57.5386 76.7289 58.1039C77.1663 58.6586 77.7743 58.9359 78.5529 58.9359ZM88.1446 60.2159C87.5579 60.2159 87.0352 60.0879 86.5766 59.8319C86.1179 59.5653 85.7659 59.2026 85.5206 58.7439L85.4726 60.0239H84.2566V48.6639H85.6006V52.7279C85.8139 52.3759 86.1446 52.0613 86.5926 51.7839C87.0406 51.4959 87.5579 51.3519 88.1446 51.3519C88.8912 51.3519 89.5366 51.5333 90.0806 51.8959C90.6246 52.2586 91.0459 52.7706 91.3446 53.4319C91.6432 54.0933 91.7926 54.8773 91.7926 55.7839C91.7926 56.6906 91.6432 57.4746 91.3446 58.1359C91.0459 58.7973 90.6246 59.3093 90.0806 59.6719C89.5366 60.0346 88.8912 60.2159 88.1446 60.2159ZM88.0646 58.9359C88.7792 58.9359 89.3446 58.6533 89.7606 58.0879C90.1766 57.5226 90.3846 56.7546 90.3846 55.7839C90.3846 54.8026 90.1766 54.0346 89.7606 53.4799C89.3446 52.9146 88.7899 52.6319 88.0966 52.6319C87.5739 52.6319 87.1259 52.7599 86.7526 53.0159C86.3792 53.2613 86.0912 53.6186 85.8886 54.0879C85.6966 54.5573 85.6006 55.1226 85.6006 55.7839C85.6006 56.4239 85.6966 56.9839 85.8886 57.4639C86.0912 57.9333 86.3739 58.2959 86.7366 58.5519C87.1099 58.8079 87.5526 58.9359 88.0646 58.9359ZM96.1227 60.2159C95.248 60.2159 94.5494 60.0133 94.0267 59.6079C93.5147 59.2026 93.2587 58.6373 93.2587 57.9119C93.2587 57.1866 93.472 56.6159 93.8987 56.1999C94.3254 55.7839 95.0027 55.4906 95.9307 55.3199L98.9387 54.7599C98.9387 54.0453 98.768 53.5119 98.4267 53.1599C98.096 52.8079 97.5947 52.6319 96.9227 52.6319C96.336 52.6319 95.872 52.7653 95.5307 53.0319C95.1894 53.2879 94.9547 53.6613 94.8267 54.1519L93.4027 54.0399C93.5627 53.2399 93.9467 52.5946 94.5547 52.1039C95.1734 51.6026 95.9627 51.3519 96.9227 51.3519C98.0107 51.3519 98.8427 51.6613 99.4187 52.2799C99.9947 52.8879 100.283 53.7306 100.283 54.8079V58.3119C100.283 58.5039 100.315 58.6426 100.379 58.7279C100.453 58.8026 100.571 58.8399 100.731 58.8399H101.067V60.0239C101.024 60.0346 100.955 60.0399 100.859 60.0399C100.763 60.0506 100.661 60.0559 100.555 60.0559C100.171 60.0559 99.856 59.9973 99.6107 59.8799C99.376 59.7519 99.2054 59.5599 99.0987 59.3039C98.992 59.0373 98.9387 58.6906 98.9387 58.2639L99.0987 58.2959C99.024 58.6586 98.8427 58.9893 98.5547 59.2879C98.2667 59.5759 97.9094 59.8053 97.4827 59.9759C97.056 60.1359 96.6027 60.2159 96.1227 60.2159ZM96.2507 59.0319C96.816 59.0319 97.296 58.9253 97.6907 58.7119C98.096 58.4879 98.4054 58.1893 98.6187 57.8159C98.832 57.4319 98.9387 57.0053 98.9387 56.5359V55.9279L96.1867 56.4399C95.6107 56.5466 95.2107 56.7119 94.9867 56.9359C94.7734 57.1493 94.6667 57.4319 94.6667 57.7839C94.6667 58.1786 94.8054 58.4879 95.0827 58.7119C95.3707 58.9253 95.76 59.0319 96.2507 59.0319ZM104.155 60.0239C103.664 60.0239 103.264 59.8959 102.955 59.6399C102.646 59.3839 102.491 58.9786 102.491 58.4239V48.6639H103.835V58.3119C103.835 58.4826 103.878 58.6159 103.963 58.7119C104.059 58.7973 104.192 58.8399 104.363 58.8399H105.099V60.0239H104.155ZM110.757 62.4239V51.5439H112.005L112.037 53.3679L111.845 53.2719C112.058 52.6426 112.41 52.1679 112.901 51.8479C113.402 51.5173 113.978 51.3519 114.629 51.3519C115.471 51.3519 116.159 51.5599 116.693 51.9759C117.237 52.3919 117.637 52.9359 117.893 53.6079C118.159 54.2799 118.293 55.0053 118.293 55.7839C118.293 56.5626 118.159 57.2879 117.893 57.9599C117.637 58.6319 117.237 59.1759 116.693 59.5919C116.159 60.0079 115.471 60.2159 114.629 60.2159C114.191 60.2159 113.781 60.1413 113.397 59.9919C113.023 59.8426 112.703 59.6346 112.437 59.3679C112.181 59.1013 112.005 58.7866 111.909 58.4239L112.101 58.1999V62.4239H110.757ZM114.501 58.9359C115.237 58.9359 115.818 58.6586 116.245 58.1039C116.671 57.5493 116.885 56.7759 116.885 55.7839C116.885 54.7919 116.671 54.0186 116.245 53.4639C115.818 52.9093 115.237 52.6319 114.501 52.6319C114.01 52.6319 113.583 52.7493 113.221 52.9839C112.869 53.2186 112.591 53.5706 112.389 54.0399C112.197 54.5093 112.101 55.0906 112.101 55.7839C112.101 56.4773 112.197 57.0586 112.389 57.5279C112.581 57.9973 112.858 58.3493 113.221 58.5839C113.583 58.8186 114.01 58.9359 114.501 58.9359ZM122.623 60.2159C121.748 60.2159 121.049 60.0133 120.527 59.6079C120.015 59.2026 119.759 58.6373 119.759 57.9119C119.759 57.1866 119.972 56.6159 120.399 56.1999C120.825 55.7839 121.503 55.4906 122.431 55.3199L125.439 54.7599C125.439 54.0453 125.268 53.5119 124.927 53.1599C124.596 52.8079 124.095 52.6319 123.423 52.6319C122.836 52.6319 122.372 52.7653 122.031 53.0319C121.689 53.2879 121.455 53.6613 121.327 54.1519L119.903 54.0399C120.063 53.2399 120.447 52.5946 121.055 52.1039C121.673 51.6026 122.463 51.3519 123.423 51.3519C124.511 51.3519 125.343 51.6613 125.919 52.2799C126.495 52.8879 126.783 53.7306 126.783 54.8079V58.3119C126.783 58.5039 126.815 58.6426 126.879 58.7279C126.953 58.8026 127.071 58.8399 127.231 58.8399H127.567V60.0239C127.524 60.0346 127.455 60.0399 127.359 60.0399C127.263 60.0506 127.161 60.0559 127.055 60.0559C126.671 60.0559 126.356 59.9973 126.111 59.8799C125.876 59.7519 125.705 59.5599 125.599 59.3039C125.492 59.0373 125.439 58.6906 125.439 58.2639L125.599 58.2959C125.524 58.6586 125.343 58.9893 125.055 59.2879C124.767 59.5759 124.409 59.8053 123.983 59.9759C123.556 60.1359 123.103 60.2159 122.623 60.2159ZM122.751 59.0319C123.316 59.0319 123.796 58.9253 124.191 58.7119C124.596 58.4879 124.905 58.1893 125.119 57.8159C125.332 57.4319 125.439 57.0053 125.439 56.5359V55.9279L122.687 56.4399C122.111 56.5466 121.711 56.7119 121.487 56.9359C121.273 57.1493 121.167 57.4319 121.167 57.7839C121.167 58.1786 121.305 58.4879 121.583 58.7119C121.871 58.9253 122.26 59.0319 122.751 59.0319ZM129.125 62.4239V61.2399H130.101C130.399 61.2399 130.618 61.1919 130.757 61.0959C130.906 61.0106 131.018 60.8666 131.093 60.6639L131.397 59.8639H130.933L127.829 51.5439H129.301L131.829 58.6159L134.245 51.5439H135.717L132.277 61.0959C132.117 61.5546 131.877 61.8906 131.557 62.1039C131.237 62.3173 130.794 62.4239 130.229 62.4239H129.125ZM136.96 60.0239V51.5439H138.192L138.24 53.6879L138.048 53.6239C138.144 53.1546 138.309 52.7546 138.544 52.4239C138.789 52.0826 139.088 51.8213 139.44 51.6399C139.792 51.4479 140.181 51.3519 140.608 51.3519C141.344 51.3519 141.941 51.5546 142.4 51.9599C142.869 52.3653 143.162 52.9306 143.28 53.6559L143.024 53.6399C143.109 53.1493 143.264 52.7386 143.488 52.4079C143.722 52.0666 144.021 51.8053 144.384 51.6239C144.746 51.4426 145.162 51.3519 145.632 51.3519C146.24 51.3519 146.752 51.4799 147.168 51.7359C147.584 51.9813 147.898 52.3439 148.112 52.8239C148.325 53.3039 148.432 53.8853 148.432 54.5679V60.0239H147.088V54.8559C147.088 54.0879 146.938 53.5119 146.64 53.1279C146.341 52.7333 145.898 52.5359 145.312 52.5359C144.917 52.5359 144.57 52.6319 144.272 52.8239C143.984 53.0159 143.76 53.2933 143.6 53.6559C143.44 54.0079 143.36 54.4399 143.36 54.9519V60.0239H142.016V54.9519C142.016 54.1946 141.882 53.6026 141.616 53.1759C141.349 52.7493 140.901 52.5359 140.272 52.5359C139.877 52.5359 139.53 52.6319 139.232 52.8239C138.944 53.0159 138.714 53.2933 138.544 53.6559C138.384 54.0186 138.304 54.4506 138.304 54.9519V60.0239H136.96ZM154.115 60.2159C153.315 60.2159 152.622 60.0346 152.035 59.6719C151.459 59.3093 151.011 58.7973 150.691 58.1359C150.382 57.4639 150.227 56.6799 150.227 55.7839C150.227 54.8879 150.382 54.1093 150.691 53.4479C151.011 52.7866 151.454 52.2746 152.019 51.9119C152.595 51.5386 153.273 51.3519 154.051 51.3519C154.787 51.3519 155.438 51.5279 156.003 51.8799C156.569 52.2213 157.006 52.7226 157.315 53.3839C157.635 54.0453 157.795 54.8506 157.795 55.7999V56.1999H151.635C151.689 57.1066 151.929 57.7893 152.355 58.2479C152.793 58.7066 153.379 58.9359 154.115 58.9359C154.67 58.9359 155.123 58.8079 155.475 58.5519C155.838 58.2853 156.089 57.9386 156.227 57.5119L157.667 57.6239C157.443 58.3813 157.017 59.0053 156.387 59.4959C155.769 59.9759 155.011 60.2159 154.115 60.2159ZM151.635 55.0159H156.323C156.259 54.1946 156.019 53.5919 155.603 53.2079C155.198 52.8239 154.681 52.6319 154.051 52.6319C153.401 52.6319 152.862 52.8346 152.435 53.2399C152.019 53.6346 151.753 54.2266 151.635 55.0159ZM159.616 60.0239V51.5439H160.848L160.896 53.7039L160.736 53.5599C160.843 53.0586 161.029 52.6479 161.296 52.3279C161.563 51.9973 161.883 51.7519 162.256 51.5919C162.64 51.4319 163.051 51.3519 163.488 51.3519C164.139 51.3519 164.672 51.4959 165.088 51.7839C165.515 52.0719 165.829 52.4613 166.032 52.9519C166.245 53.4319 166.352 53.9706 166.352 54.5679V60.0239H165.008V54.9519C165.008 54.4293 164.944 53.9919 164.816 53.6399C164.699 53.2773 164.507 53.0053 164.24 52.8239C163.973 52.6319 163.627 52.5359 163.2 52.5359C162.549 52.5359 162.011 52.7439 161.584 53.1599C161.168 53.5653 160.96 54.1626 160.96 54.9519V60.0239H159.616ZM171.376 60.0239C170.608 60.0239 170.038 59.8479 169.664 59.4959C169.302 59.1439 169.12 58.5946 169.12 57.8479V49.5599H170.464V57.8159C170.464 58.1999 170.55 58.4666 170.72 58.6159C170.891 58.7653 171.152 58.8399 171.504 58.8399H172.72V60.0239H171.376ZM167.872 52.7279V51.5439H172.72V52.7279H167.872ZM177.376 60.2159C176.618 60.2159 175.973 60.0933 175.44 59.8479C174.917 59.6026 174.506 59.2666 174.208 58.8399C173.92 58.4026 173.754 57.9066 173.712 57.3519L175.12 57.2559C175.205 57.7679 175.424 58.1786 175.776 58.4879C176.128 58.7866 176.661 58.9359 177.376 58.9359C177.952 58.9359 178.41 58.8453 178.752 58.6639C179.104 58.4719 179.28 58.1679 179.28 57.7519C179.28 57.5279 179.226 57.3413 179.12 57.1919C179.013 57.0426 178.805 56.9146 178.496 56.8079C178.186 56.6906 177.728 56.5786 177.12 56.4719C176.309 56.3226 175.669 56.1413 175.2 55.9279C174.741 55.7039 174.41 55.4319 174.208 55.1119C174.016 54.7813 173.92 54.3919 173.92 53.9439C173.92 53.1866 174.197 52.5679 174.752 52.0879C175.306 51.5973 176.096 51.3519 177.12 51.3519C177.813 51.3519 178.394 51.4799 178.864 51.7359C179.344 51.9813 179.717 52.3119 179.984 52.7279C180.261 53.1333 180.442 53.5813 180.528 54.0719L179.12 54.1679C179.056 53.8693 178.938 53.6079 178.768 53.3839C178.597 53.1493 178.373 52.9679 178.096 52.8399C177.818 52.7013 177.488 52.6319 177.104 52.6319C176.496 52.6319 176.048 52.7493 175.76 52.9839C175.472 53.2186 175.328 53.5173 175.328 53.8799C175.328 54.1573 175.392 54.3866 175.52 54.5679C175.658 54.7386 175.877 54.8826 176.176 54.9999C176.474 55.1066 176.874 55.2026 177.376 55.2879C178.24 55.4373 178.912 55.6186 179.392 55.8319C179.872 56.0453 180.208 56.3066 180.4 56.6159C180.592 56.9253 180.688 57.3039 180.688 57.7519C180.688 58.2746 180.538 58.7226 180.24 59.0959C179.952 59.4586 179.557 59.7359 179.056 59.9279C178.565 60.1199 178.005 60.2159 177.376 60.2159ZM182.102 60.0239V58.2159H183.91V60.0239H182.102Z" fill="white"/>
<path d="M22.4954 38.0239V26.6639H24.4154L28.0474 36.5199L31.6634 26.6639H33.5834V38.0239H32.2074V29.2239L28.9594 38.0239H27.1194L23.8714 29.2239V38.0239H22.4954ZM39.4904 38.2159C38.7118 38.2159 38.0291 38.0346 37.4424 37.6719C36.8558 37.3093 36.4024 36.7973 36.0824 36.1359C35.7624 35.4639 35.6024 34.6799 35.6024 33.7839C35.6024 32.8773 35.7624 32.0933 36.0824 31.4319C36.4024 30.7706 36.8558 30.2586 37.4424 29.8959C38.0291 29.5333 38.7118 29.3519 39.4904 29.3519C40.2691 29.3519 40.9464 29.5333 41.5224 29.8959C42.1091 30.2586 42.5624 30.7706 42.8824 31.4319C43.2024 32.0933 43.3624 32.8773 43.3624 33.7839C43.3624 34.6799 43.2024 35.4639 42.8824 36.1359C42.5624 36.7973 42.1091 37.3093 41.5224 37.6719C40.9464 38.0346 40.2691 38.2159 39.4904 38.2159ZM39.4904 36.9359C40.2691 36.9359 40.8718 36.6586 41.2984 36.1039C41.7358 35.5386 41.9544 34.7653 41.9544 33.7839C41.9544 32.8026 41.7358 32.0346 41.2984 31.4799C40.8718 30.9146 40.2691 30.6319 39.4904 30.6319C38.7118 30.6319 38.1038 30.9146 37.6664 31.4799C37.2291 32.0346 37.0104 32.8026 37.0104 33.7839C37.0104 34.7653 37.2291 35.5386 37.6664 36.1039C38.1038 36.6586 38.7118 36.9359 39.4904 36.9359ZM47.1041 38.0239L44.0161 29.5439H45.4881L47.9521 36.6479L50.4161 29.5439H51.8881L48.8001 38.0239H47.1041ZM56.4123 38.2159C55.6123 38.2159 54.919 38.0346 54.3323 37.6719C53.7563 37.3093 53.3083 36.7973 52.9883 36.1359C52.679 35.4639 52.5243 34.6799 52.5243 33.7839C52.5243 32.8879 52.679 32.1093 52.9883 31.4479C53.3083 30.7866 53.751 30.2746 54.3163 29.9119C54.8923 29.5386 55.5696 29.3519 56.3483 29.3519C57.0843 29.3519 57.735 29.5279 58.3003 29.8799C58.8656 30.2213 59.303 30.7226 59.6123 31.3839C59.9323 32.0453 60.0923 32.8506 60.0923 33.7999V34.1999H53.9323C53.9856 35.1066 54.2256 35.7893 54.6523 36.2479C55.0896 36.7066 55.6763 36.9359 56.4123 36.9359C56.967 36.9359 57.4203 36.8079 57.7723 36.5519C58.135 36.2853 58.3856 35.9386 58.5243 35.5119L59.9643 35.6239C59.7403 36.3813 59.3136 37.0053 58.6843 37.4959C58.0656 37.9759 57.3083 38.2159 56.4123 38.2159ZM53.9323 33.0159H58.6203C58.5563 32.1946 58.3163 31.5919 57.9003 31.2079C57.495 30.8239 56.9776 30.6319 56.3483 30.6319C55.6976 30.6319 55.159 30.8346 54.7323 31.2399C54.3163 31.6346 54.0496 32.2266 53.9323 33.0159ZM68.3571 38.2159C67.4824 38.2159 66.7837 38.0133 66.2611 37.6079C65.7491 37.2026 65.4931 36.6373 65.4931 35.9119C65.4931 35.1866 65.7064 34.6159 66.1331 34.1999C66.5597 33.7839 67.2371 33.4906 68.1651 33.3199L71.1731 32.7599C71.1731 32.0453 71.0024 31.5119 70.6611 31.1599C70.3304 30.8079 69.8291 30.6319 69.1571 30.6319C68.5704 30.6319 68.1064 30.7653 67.7651 31.0319C67.4237 31.2879 67.1891 31.6613 67.0611 32.1519L65.6371 32.0399C65.7971 31.2399 66.1811 30.5946 66.7891 30.1039C67.4077 29.6026 68.1971 29.3519 69.1571 29.3519C70.2451 29.3519 71.0771 29.6613 71.6531 30.2799C72.2291 30.8879 72.5171 31.7306 72.5171 32.8079V36.3119C72.5171 36.5039 72.5491 36.6426 72.6131 36.7279C72.6877 36.8026 72.8051 36.8399 72.9651 36.8399H73.3011V38.0239C73.2584 38.0346 73.1891 38.0399 73.0931 38.0399C72.9971 38.0506 72.8957 38.0559 72.7891 38.0559C72.4051 38.0559 72.0904 37.9973 71.8451 37.8799C71.6104 37.7519 71.4397 37.5599 71.3331 37.3039C71.2264 37.0373 71.1731 36.6906 71.1731 36.2639L71.3331 36.2959C71.2584 36.6586 71.0771 36.9893 70.7891 37.2879C70.5011 37.5759 70.1437 37.8053 69.7171 37.9759C69.2904 38.1359 68.8371 38.2159 68.3571 38.2159ZM68.4851 37.0319C69.0504 37.0319 69.5304 36.9253 69.9251 36.7119C70.3304 36.4879 70.6397 36.1893 70.8531 35.8159C71.0664 35.4319 71.1731 35.0053 71.1731 34.5359V33.9279L68.4211 34.4399C67.8451 34.5466 67.4451 34.7119 67.2211 34.9359C67.0077 35.1493 66.9011 35.4319 66.9011 35.7839C66.9011 36.1786 67.0397 36.4879 67.3171 36.7119C67.6051 36.9253 67.9944 37.0319 68.4851 37.0319ZM77.5012 38.0239C76.7332 38.0239 76.1625 37.8479 75.7892 37.4959C75.4265 37.1439 75.2452 36.5946 75.2452 35.8479V27.5599H76.5892V35.8159C76.5892 36.1999 76.6745 36.4666 76.8452 36.6159C77.0159 36.7653 77.2772 36.8399 77.6292 36.8399H78.8452V38.0239H77.5012ZM73.9972 30.7279V29.5439H78.8452V30.7279H73.9972ZM85.0308 40.4239V39.2399H86.0068C86.3055 39.2399 86.5241 39.1919 86.6628 39.0959C86.8121 39.0106 86.9241 38.8666 86.9988 38.6639L87.3028 37.8639H86.8388L83.7348 29.5439H85.2068L87.7348 36.6159L90.1508 29.5439H91.6228L88.1828 39.0959C88.0228 39.5546 87.7828 39.8906 87.4628 40.1039C87.1428 40.3173 86.7001 40.4239 86.1348 40.4239H85.0308ZM96.1467 38.2159C95.368 38.2159 94.6854 38.0346 94.0987 37.6719C93.512 37.3093 93.0587 36.7973 92.7387 36.1359C92.4187 35.4639 92.2587 34.6799 92.2587 33.7839C92.2587 32.8773 92.4187 32.0933 92.7387 31.4319C93.0587 30.7706 93.512 30.2586 94.0987 29.8959C94.6854 29.5333 95.368 29.3519 96.1467 29.3519C96.9254 29.3519 97.6027 29.5333 98.1787 29.8959C98.7654 30.2586 99.2187 30.7706 99.5387 31.4319C99.8587 32.0933 100.019 32.8773 100.019 33.7839C100.019 34.6799 99.8587 35.4639 99.5387 36.1359C99.2187 36.7973 98.7654 37.3093 98.1787 37.6719C97.6027 38.0346 96.9254 38.2159 96.1467 38.2159ZM96.1467 36.9359C96.9254 36.9359 97.528 36.6586 97.9547 36.1039C98.392 35.5386 98.6107 34.7653 98.6107 33.7839C98.6107 32.8026 98.392 32.0346 97.9547 31.4799C97.528 30.9146 96.9254 30.6319 96.1467 30.6319C95.368 30.6319 94.76 30.9146 94.3227 31.4799C93.8854 32.0346 93.6667 32.8026 93.6667 33.7839C93.6667 34.7653 93.8854 35.5386 94.3227 36.1039C94.76 36.6586 95.368 36.9359 96.1467 36.9359ZM104.634 38.2159C103.792 38.2159 103.114 37.9333 102.602 37.3679C102.101 36.7919 101.85 36.0026 101.85 34.9999V29.5439H103.194V34.6319C103.194 35.4533 103.338 36.0613 103.626 36.4559C103.925 36.8399 104.378 37.0319 104.986 37.0319C105.658 37.0319 106.186 36.8186 106.57 36.3919C106.954 35.9546 107.146 35.3573 107.146 34.5999V29.5439H108.49V38.0239H107.21V35.9279L107.418 36.0399C107.248 36.7333 106.922 37.2719 106.442 37.6559C105.962 38.0293 105.36 38.2159 104.634 38.2159ZM111.053 38.0239V29.5439H112.237L112.301 31.6879L112.173 31.6399C112.28 30.9146 112.509 30.3866 112.861 30.0559C113.224 29.7146 113.704 29.5439 114.301 29.5439H115.133V30.8239H114.317C113.891 30.8239 113.533 30.9039 113.245 31.0639C112.968 31.2133 112.755 31.4426 112.605 31.7519C112.467 32.0506 112.397 32.4346 112.397 32.9039V38.0239H111.053ZM124.428 38.2159C123.639 38.2159 122.951 38.0346 122.364 37.6719C121.788 37.3093 121.34 36.7973 121.02 36.1359C120.7 35.4639 120.54 34.6799 120.54 33.7839C120.54 32.8879 120.7 32.1093 121.02 31.4479C121.34 30.7866 121.788 30.2746 122.364 29.9119C122.951 29.5386 123.639 29.3519 124.428 29.3519C125.079 29.3519 125.655 29.4693 126.156 29.7039C126.668 29.9279 127.084 30.2586 127.404 30.6959C127.724 31.1333 127.932 31.6666 128.028 32.2959L126.62 32.3919C126.524 31.8266 126.279 31.3946 125.884 31.0959C125.489 30.7866 125.004 30.6319 124.428 30.6319C123.649 30.6319 123.041 30.9146 122.604 31.4799C122.167 32.0346 121.948 32.8026 121.948 33.7839C121.948 34.7653 122.167 35.5386 122.604 36.1039C123.041 36.6586 123.649 36.9359 124.428 36.9359C125.004 36.9359 125.489 36.7759 125.884 36.4559C126.279 36.1359 126.524 35.6559 126.62 35.0159L128.028 35.1119C127.932 35.7413 127.724 36.2906 127.404 36.7599C127.084 37.2186 126.668 37.5759 126.156 37.8319C125.655 38.0879 125.079 38.2159 124.428 38.2159ZM132.478 38.2159C131.635 38.2159 130.958 37.9333 130.446 37.3679C129.945 36.7919 129.694 36.0026 129.694 34.9999V29.5439H131.038V34.6319C131.038 35.4533 131.182 36.0613 131.47 36.4559C131.769 36.8399 132.222 37.0319 132.83 37.0319C133.502 37.0319 134.03 36.8186 134.414 36.3919C134.798 35.9546 134.99 35.3573 134.99 34.5999V29.5439H136.334V38.0239H135.054V35.9279L135.262 36.0399C135.091 36.7333 134.766 37.2719 134.286 37.6559C133.806 38.0293 133.203 38.2159 132.478 38.2159ZM141.829 38.2159C141.072 38.2159 140.426 38.0933 139.893 37.8479C139.37 37.6026 138.96 37.2666 138.661 36.8399C138.373 36.4026 138.208 35.9066 138.165 35.3519L139.573 35.2559C139.658 35.7679 139.877 36.1786 140.229 36.4879C140.581 36.7866 141.114 36.9359 141.829 36.9359C142.405 36.9359 142.864 36.8453 143.205 36.6639C143.557 36.4719 143.733 36.1679 143.733 35.7519C143.733 35.5279 143.68 35.3413 143.573 35.1919C143.466 35.0426 143.258 34.9146 142.949 34.8079C142.64 34.6906 142.181 34.5786 141.573 34.4719C140.762 34.3226 140.122 34.1413 139.653 33.9279C139.194 33.7039 138.864 33.4319 138.661 33.1119C138.469 32.7813 138.373 32.3919 138.373 31.9439C138.373 31.1866 138.65 30.5679 139.205 30.0879C139.76 29.5973 140.549 29.3519 141.573 29.3519C142.266 29.3519 142.848 29.4799 143.317 29.7359C143.797 29.9813 144.17 30.3119 144.437 30.7279C144.714 31.1333 144.896 31.5813 144.981 32.0719L143.573 32.1679C143.509 31.8693 143.392 31.6079 143.221 31.3839C143.05 31.1493 142.826 30.9679 142.549 30.8399C142.272 30.7013 141.941 30.6319 141.557 30.6319C140.949 30.6319 140.501 30.7493 140.213 30.9839C139.925 31.2186 139.781 31.5173 139.781 31.8799C139.781 32.1573 139.845 32.3866 139.973 32.5679C140.112 32.7386 140.33 32.8826 140.629 32.9999C140.928 33.1066 141.328 33.2026 141.829 33.2879C142.693 33.4373 143.365 33.6186 143.845 33.8319C144.325 34.0453 144.661 34.3066 144.853 34.6159C145.045 34.9253 145.141 35.3039 145.141 35.7519C145.141 36.2746 144.992 36.7226 144.693 37.0959C144.405 37.4586 144.01 37.7359 143.509 37.9279C143.018 38.1199 142.458 38.2159 141.829 38.2159ZM149.751 38.0239C148.983 38.0239 148.413 37.8479 148.039 37.4959C147.677 37.1439 147.495 36.5946 147.495 35.8479V27.5599H148.839V35.8159C148.839 36.1999 148.925 36.4666 149.095 36.6159C149.266 36.7653 149.527 36.8399 149.879 36.8399H151.095V38.0239H149.751ZM146.247 30.7279V29.5439H151.095V30.7279H146.247ZM155.975 38.2159C155.196 38.2159 154.513 38.0346 153.927 37.6719C153.34 37.3093 152.887 36.7973 152.567 36.1359C152.247 35.4639 152.087 34.6799 152.087 33.7839C152.087 32.8773 152.247 32.0933 152.567 31.4319C152.887 30.7706 153.34 30.2586 153.927 29.8959C154.513 29.5333 155.196 29.3519 155.975 29.3519C156.753 29.3519 157.431 29.5333 158.007 29.8959C158.593 30.2586 159.047 30.7706 159.367 31.4319C159.687 32.0933 159.847 32.8773 159.847 33.7839C159.847 34.6799 159.687 35.4639 159.367 36.1359C159.047 36.7973 158.593 37.3093 158.007 37.6719C157.431 38.0346 156.753 38.2159 155.975 38.2159ZM155.975 36.9359C156.753 36.9359 157.356 36.6586 157.783 36.1039C158.22 35.5386 158.439 34.7653 158.439 33.7839C158.439 32.8026 158.22 32.0346 157.783 31.4799C157.356 30.9146 156.753 30.6319 155.975 30.6319C155.196 30.6319 154.588 30.9146 154.151 31.4799C153.713 32.0346 153.495 32.8026 153.495 33.7839C153.495 34.7653 153.713 35.5386 154.151 36.1039C154.588 36.6586 155.196 36.9359 155.975 36.9359ZM161.678 38.0239V29.5439H162.91L162.958 31.6879L162.766 31.6239C162.862 31.1546 163.028 30.7546 163.262 30.4239C163.508 30.0826 163.806 29.8213 164.158 29.6399C164.51 29.4479 164.9 29.3519 165.326 29.3519C166.062 29.3519 166.66 29.5546 167.118 29.9599C167.588 30.3653 167.881 30.9306 167.998 31.6559L167.742 31.6399C167.828 31.1493 167.982 30.7386 168.206 30.4079C168.441 30.0666 168.74 29.8053 169.102 29.6239C169.465 29.4426 169.881 29.3519 170.35 29.3519C170.958 29.3519 171.47 29.4799 171.886 29.7359C172.302 29.9813 172.617 30.3439 172.83 30.8239C173.044 31.3039 173.15 31.8853 173.15 32.5679V38.0239H171.806V32.8559C171.806 32.0879 171.657 31.5119 171.358 31.1279C171.06 30.7333 170.617 30.5359 170.03 30.5359C169.636 30.5359 169.289 30.6319 168.99 30.8239C168.702 31.0159 168.478 31.2933 168.318 31.6559C168.158 32.0079 168.078 32.4399 168.078 32.9519V38.0239H166.734V32.9519C166.734 32.1946 166.601 31.6026 166.334 31.1759C166.068 30.7493 165.62 30.5359 164.99 30.5359C164.596 30.5359 164.249 30.6319 163.95 30.8239C163.662 31.0159 163.433 31.2933 163.262 31.6559C163.102 32.0186 163.022 32.4506 163.022 32.9519V38.0239H161.678ZM178.834 38.2159C178.034 38.2159 177.341 38.0346 176.754 37.6719C176.178 37.3093 175.73 36.7973 175.41 36.1359C175.101 35.4639 174.946 34.6799 174.946 33.7839C174.946 32.8879 175.101 32.1093 175.41 31.4479C175.73 30.7866 176.173 30.2746 176.738 29.9119C177.314 29.5386 177.992 29.3519 178.77 29.3519C179.506 29.3519 180.157 29.5279 180.722 29.8799C181.288 30.2213 181.725 30.7226 182.034 31.3839C182.354 32.0453 182.514 32.8506 182.514 33.7999V34.1999H176.354C176.408 35.1066 176.648 35.7893 177.074 36.2479C177.512 36.7066 178.098 36.9359 178.834 36.9359C179.389 36.9359 179.842 36.8079 180.194 36.5519C180.557 36.2853 180.808 35.9386 180.946 35.5119L182.386 35.6239C182.162 36.3813 181.736 37.0053 181.106 37.4959C180.488 37.9759 179.73 38.2159 178.834 38.2159ZM176.354 33.0159H181.042C180.978 32.1946 180.738 31.5919 180.322 31.2079C179.917 30.8239 179.4 30.6319 178.77 30.6319C178.12 30.6319 177.581 30.8346 177.154 31.2399C176.738 31.6346 176.472 32.2266 176.354 33.0159ZM184.335 38.0239V29.5439H185.519L185.583 31.6879L185.455 31.6399C185.561 30.9146 185.791 30.3866 186.143 30.0559C186.505 29.7146 186.985 29.5439 187.583 29.5439H188.415V30.8239H187.599C187.172 30.8239 186.815 30.9039 186.527 31.0639C186.249 31.2133 186.036 31.4426 185.887 31.7519C185.748 32.0506 185.679 32.4346 185.679 32.9039V38.0239H184.335ZM192.845 38.2159C192.087 38.2159 191.442 38.0933 190.909 37.8479C190.386 37.6026 189.975 37.2666 189.677 36.8399C189.389 36.4026 189.223 35.9066 189.181 35.3519L190.589 35.2559C190.674 35.7679 190.893 36.1786 191.245 36.4879C191.597 36.7866 192.13 36.9359 192.845 36.9359C193.421 36.9359 193.879 36.8453 194.221 36.6639C194.573 36.4719 194.749 36.1679 194.749 35.7519C194.749 35.5279 194.695 35.3413 194.589 35.1919C194.482 35.0426 194.274 34.9146 193.965 34.8079C193.655 34.6906 193.197 34.5786 192.589 34.4719C191.778 34.3226 191.138 34.1413 190.669 33.9279C190.21 33.7039 189.879 33.4319 189.677 33.1119C189.485 32.7813 189.389 32.3919 189.389 31.9439C189.389 31.1866 189.666 30.5679 190.221 30.0879C190.775 29.5973 191.565 29.3519 192.589 29.3519C193.282 29.3519 193.863 29.4799 194.333 29.7359C194.813 29.9813 195.186 30.3119 195.453 30.7279C195.73 31.1333 195.911 31.5813 195.997 32.0719L194.589 32.1679C194.525 31.8693 194.407 31.6079 194.237 31.3839C194.066 31.1493 193.842 30.9679 193.565 30.8399C193.287 30.7013 192.957 30.6319 192.573 30.6319C191.965 30.6319 191.517 30.7493 191.229 30.9839C190.941 31.2186 190.797 31.5173 190.797 31.8799C190.797 32.1573 190.861 32.3866 190.989 32.5679C191.127 32.7386 191.346 32.8826 191.645 32.9999C191.943 33.1066 192.343 33.2026 192.845 33.2879C193.709 33.4373 194.381 33.6186 194.861 33.8319C195.341 34.0453 195.677 34.3066 195.869 34.6159C196.061 34.9253 196.157 35.3039 196.157 35.7519C196.157 36.2746 196.007 36.7226 195.709 37.0959C195.421 37.4586 195.026 37.7359 194.525 37.9279C194.034 38.1199 193.474 38.2159 192.845 38.2159ZM197.635 30.9679L198.403 28.4719H197.587V26.6639H199.395V28.2479L198.435 30.9679H197.635ZM208.485 38.2159C207.728 38.2159 207.083 38.0933 206.549 37.8479C206.027 37.6026 205.616 37.2666 205.317 36.8399C205.029 36.4026 204.864 35.9066 204.821 35.3519L206.229 35.2559C206.315 35.7679 206.533 36.1786 206.885 36.4879C207.237 36.7866 207.771 36.9359 208.485 36.9359C209.061 36.9359 209.52 36.8453 209.861 36.6639C210.213 36.4719 210.389 36.1679 210.389 35.7519C210.389 35.5279 210.336 35.3413 210.229 35.1919C210.123 35.0426 209.915 34.9146 209.605 34.8079C209.296 34.6906 208.837 34.5786 208.229 34.4719C207.419 34.3226 206.779 34.1413 206.309 33.9279C205.851 33.7039 205.52 33.4319 205.317 33.1119C205.125 32.7813 205.029 32.3919 205.029 31.9439C205.029 31.1866 205.307 30.5679 205.861 30.0879C206.416 29.5973 207.205 29.3519 208.229 29.3519C208.923 29.3519 209.504 29.4799 209.973 29.7359C210.453 29.9813 210.827 30.3119 211.093 30.7279C211.371 31.1333 211.552 31.5813 211.637 32.0719L210.229 32.1679C210.165 31.8693 210.048 31.6079 209.877 31.3839C209.707 31.1493 209.483 30.9679 209.205 30.8399C208.928 30.7013 208.597 30.6319 208.213 30.6319C207.605 30.6319 207.157 30.7493 206.869 30.9839C206.581 31.2186 206.437 31.5173 206.437 31.8799C206.437 32.1573 206.501 32.3866 206.629 32.5679C206.768 32.7386 206.987 32.8826 207.285 32.9999C207.584 33.1066 207.984 33.2026 208.485 33.2879C209.349 33.4373 210.021 33.6186 210.501 33.8319C210.981 34.0453 211.317 34.3066 211.509 34.6159C211.701 34.9253 211.797 35.3039 211.797 35.7519C211.797 36.2746 211.648 36.7226 211.349 37.0959C211.061 37.4586 210.667 37.7359 210.165 37.9279C209.675 38.1199 209.115 38.2159 208.485 38.2159ZM213.632 40.4239V29.5439H214.88L214.912 31.3679L214.72 31.2719C214.933 30.6426 215.285 30.1679 215.776 29.8479C216.277 29.5173 216.853 29.3519 217.504 29.3519C218.346 29.3519 219.034 29.5599 219.568 29.9759C220.112 30.3919 220.512 30.9359 220.768 31.6079C221.034 32.2799 221.168 33.0053 221.168 33.7839C221.168 34.5626 221.034 35.2879 220.768 35.9599C220.512 36.6319 220.112 37.1759 219.568 37.5919C219.034 38.0079 218.346 38.2159 217.504 38.2159C217.066 38.2159 216.656 38.1413 216.272 37.9919C215.898 37.8426 215.578 37.6346 215.312 37.3679C215.056 37.1013 214.88 36.7866 214.784 36.4239L214.976 36.1999V40.4239H213.632ZM217.376 36.9359C218.112 36.9359 218.693 36.6586 219.12 36.1039C219.546 35.5493 219.76 34.7759 219.76 33.7839C219.76 32.7919 219.546 32.0186 219.12 31.4639C218.693 30.9093 218.112 30.6319 217.376 30.6319C216.885 30.6319 216.458 30.7493 216.096 30.9839C215.744 31.2186 215.466 31.5706 215.264 32.0399C215.072 32.5093 214.976 33.0906 214.976 33.7839C214.976 34.4773 215.072 35.0586 215.264 35.5279C215.456 35.9973 215.733 36.3493 216.096 36.5839C216.458 36.8186 216.885 36.9359 217.376 36.9359ZM226.303 38.2159C225.503 38.2159 224.81 38.0346 224.223 37.6719C223.647 37.3093 223.199 36.7973 222.879 36.1359C222.57 35.4639 222.415 34.6799 222.415 33.7839C222.415 32.8879 222.57 32.1093 222.879 31.4479C223.199 30.7866 223.642 30.2746 224.207 29.9119C224.783 29.5386 225.46 29.3519 226.239 29.3519C226.975 29.3519 227.626 29.5279 228.191 29.8799C228.756 30.2213 229.194 30.7226 229.503 31.3839C229.823 32.0453 229.983 32.8506 229.983 33.7999V34.1999H223.823C223.876 35.1066 224.116 35.7893 224.543 36.2479C224.98 36.7066 225.567 36.9359 226.303 36.9359C226.858 36.9359 227.311 36.8079 227.663 36.5519C228.026 36.2853 228.276 35.9386 228.415 35.5119L229.855 35.6239C229.631 36.3813 229.204 37.0053 228.575 37.4959C227.956 37.9759 227.199 38.2159 226.303 38.2159ZM223.823 33.0159H228.511C228.447 32.1946 228.207 31.5919 227.791 31.2079C227.386 30.8239 226.868 30.6319 226.239 30.6319C225.588 30.6319 225.05 30.8346 224.623 31.2399C224.207 31.6346 223.94 32.2266 223.823 33.0159ZM235.115 38.2159C234.315 38.2159 233.622 38.0346 233.035 37.6719C232.459 37.3093 232.011 36.7973 231.691 36.1359C231.382 35.4639 231.227 34.6799 231.227 33.7839C231.227 32.8879 231.382 32.1093 231.691 31.4479C232.011 30.7866 232.454 30.2746 233.019 29.9119C233.595 29.5386 234.273 29.3519 235.051 29.3519C235.787 29.3519 236.438 29.5279 237.003 29.8799C237.569 30.2213 238.006 30.7226 238.315 31.3839C238.635 32.0453 238.795 32.8506 238.795 33.7999V34.1999H232.635C232.689 35.1066 232.929 35.7893 233.355 36.2479C233.793 36.7066 234.379 36.9359 235.115 36.9359C235.67 36.9359 236.123 36.8079 236.475 36.5519C236.838 36.2853 237.089 35.9386 237.227 35.5119L238.667 35.6239C238.443 36.3813 238.017 37.0053 237.387 37.4959C236.769 37.9759 236.011 38.2159 235.115 38.2159ZM232.635 33.0159H237.323C237.259 32.1946 237.019 31.5919 236.603 31.2079C236.198 30.8239 235.681 30.6319 235.051 30.6319C234.401 30.6319 233.862 30.8346 233.435 31.2399C233.019 31.6346 232.753 32.2266 232.635 33.0159ZM243.624 38.2159C242.888 38.2159 242.248 38.0346 241.704 37.6719C241.171 37.3093 240.76 36.7973 240.472 36.1359C240.184 35.4746 240.04 34.6906 240.04 33.7839C240.04 32.8773 240.184 32.0933 240.472 31.4319C240.76 30.7706 241.171 30.2586 241.704 29.8959C242.248 29.5333 242.888 29.3519 243.624 29.3519C244.189 29.3519 244.707 29.4746 245.176 29.7199C245.645 29.9546 245.997 30.2906 246.232 30.7279V26.6639H247.576V38.0239H246.36L246.312 36.7439C246.077 37.2026 245.72 37.5653 245.24 37.8319C244.76 38.0879 244.221 38.2159 243.624 38.2159ZM243.896 36.9359C244.397 36.9359 244.819 36.8079 245.16 36.5519C245.512 36.2959 245.779 35.9333 245.96 35.4639C246.141 34.9839 246.232 34.4239 246.232 33.7839C246.232 33.1226 246.141 32.5573 245.96 32.0879C245.779 31.6186 245.512 31.2613 245.16 31.0159C244.819 30.7599 244.397 30.6319 243.896 30.6319C243.149 30.6319 242.552 30.9146 242.104 31.4799C241.667 32.0346 241.448 32.8026 241.448 33.7839C241.448 34.7546 241.667 35.5226 242.104 36.0879C242.552 36.6533 243.149 36.9359 243.896 36.9359ZM249.556 38.0239V36.2159H251.364V38.0239H249.556ZM21.9834 60.0239C21.9834 59.2239 22.1061 58.5039 22.3514 57.8639C22.6074 57.2133 23.0501 56.5946 23.6794 56.0079C24.3194 55.4213 25.2048 54.8293 26.3354 54.2319C26.8581 53.9546 27.2794 53.6986 27.5994 53.4639C27.9194 53.2293 28.1541 52.9786 28.3034 52.7119C28.4528 52.4453 28.5274 52.1199 28.5274 51.7359C28.5274 51.3413 28.4421 50.9999 28.2714 50.7119C28.1008 50.4133 27.8448 50.1786 27.5034 50.0079C27.1728 49.8373 26.7568 49.7519 26.2554 49.7519C25.4554 49.7519 24.8208 49.9599 24.3514 50.3759C23.8928 50.7919 23.6048 51.3839 23.4874 52.1519L22.0474 52.0559C22.1754 50.9466 22.6021 50.0613 23.3274 49.3999C24.0528 48.7386 25.0288 48.4079 26.2554 48.4079C27.0341 48.4079 27.7008 48.5466 28.2554 48.8239C28.8101 49.1013 29.2314 49.4906 29.5194 49.9919C29.8181 50.4826 29.9674 51.0533 29.9674 51.7039C29.9674 52.2799 29.8714 52.7813 29.6794 53.2079C29.4874 53.6239 29.1621 54.0133 28.7034 54.3759C28.2554 54.7386 27.6368 55.1279 26.8474 55.5439C25.8234 56.0879 25.0448 56.6373 24.5114 57.1919C23.9888 57.7466 23.7114 58.2426 23.6794 58.6799H29.9674V60.0239H21.9834ZM36.7794 60.0239V57.5599H31.0034V56.3119L36.6834 48.6639H38.1554V56.2159H39.5634V57.5599H38.1554V60.0239H36.7794ZM32.6674 56.2159H36.7794V50.7759L32.6674 56.2159ZM41.0072 61.7839L45.7272 48.0239H47.0072L42.2872 61.7839H41.0072ZM50.7464 60.0239C50.7464 58.8506 50.9064 57.6826 51.2264 56.5199C51.5464 55.3466 52.0051 54.2106 52.6024 53.1119C53.2104 52.0133 53.9358 50.9786 54.7784 50.0079H48.2184V48.6639H56.2824V49.9119C55.3331 50.9999 54.5491 52.0773 53.9304 53.1439C53.3224 54.1999 52.8744 55.2933 52.5864 56.4239C52.2984 57.5439 52.1544 58.7439 52.1544 60.0239H50.7464ZM64.7851 62.6159C64.1771 62.6159 63.6277 62.5146 63.1371 62.3119C62.6464 62.1093 62.2357 61.8213 61.9051 61.4479C61.5744 61.0746 61.3504 60.6426 61.2331 60.1519L62.6411 60.0559C62.7691 60.4506 62.9931 60.7599 63.3131 60.9839C63.6437 61.2186 64.1344 61.3359 64.7851 61.3359C65.5531 61.3359 66.1397 61.1813 66.5451 60.8719C66.9611 60.5626 67.1691 60.0986 67.1691 59.4799V58.1039C66.9664 58.5519 66.6411 58.9093 66.1931 59.1759C65.7451 59.4426 65.2437 59.5759 64.6891 59.5759C63.9744 59.5759 63.3344 59.3999 62.7691 59.0479C62.2144 58.6959 61.7771 58.2106 61.4571 57.5919C61.1477 56.9733 60.9931 56.2639 60.9931 55.4639C60.9931 54.6533 61.1477 53.9439 61.4571 53.3359C61.7664 52.7173 62.1931 52.2319 62.7371 51.8799C63.2917 51.5279 63.9211 51.3519 64.6251 51.3519C65.2224 51.3519 65.7557 51.4906 66.2251 51.7679C66.7051 52.0453 67.0411 52.4186 67.2331 52.8879V51.5439H68.5131V59.4479C68.5131 60.1093 68.3637 60.6746 68.0651 61.1439C67.7664 61.6239 67.3397 61.9866 66.7851 62.2319C66.2304 62.4879 65.5637 62.6159 64.7851 62.6159ZM64.7531 58.2959C65.4784 58.2959 66.0597 58.0453 66.4971 57.5439C66.9344 57.0319 67.1584 56.3386 67.1691 55.4639C67.1797 54.8773 67.0837 54.3759 66.8811 53.9599C66.6891 53.5333 66.4064 53.2079 66.0331 52.9839C65.6704 52.7493 65.2437 52.6319 64.7531 52.6319C64.0064 52.6319 63.4251 52.8879 63.0091 53.3999C62.6037 53.9013 62.4011 54.5893 62.4011 55.4639C62.4011 56.3386 62.6091 57.0319 63.0251 57.5439C63.4517 58.0453 64.0277 58.2959 64.7531 58.2959ZM72.7331 60.0239C72.2424 60.0239 71.8424 59.8959 71.5331 59.6399C71.2237 59.3839 71.0691 58.9786 71.0691 58.4239V48.6639H72.4131V58.3119C72.4131 58.4826 72.4557 58.6159 72.5411 58.7119C72.6371 58.7973 72.7704 58.8399 72.9411 58.8399H73.6771V60.0239H72.7331ZM78.5529 60.2159C77.7743 60.2159 77.0916 60.0346 76.5049 59.6719C75.9183 59.3093 75.4649 58.7973 75.1449 58.1359C74.8249 57.4639 74.6649 56.6799 74.6649 55.7839C74.6649 54.8773 74.8249 54.0933 75.1449 53.4319C75.4649 52.7706 75.9183 52.2586 76.5049 51.8959C77.0916 51.5333 77.7743 51.3519 78.5529 51.3519C79.3316 51.3519 80.0089 51.5333 80.5849 51.8959C81.1716 52.2586 81.6249 52.7706 81.9449 53.4319C82.2649 54.0933 82.4249 54.8773 82.4249 55.7839C82.4249 56.6799 82.2649 57.4639 81.9449 58.1359C81.6249 58.7973 81.1716 59.3093 80.5849 59.6719C80.0089 60.0346 79.3316 60.2159 78.5529 60.2159ZM78.5529 58.9359C79.3316 58.9359 79.9343 58.6586 80.3609 58.1039C80.7983 57.5386 81.0169 56.7653 81.0169 55.7839C81.0169 54.8026 80.7983 54.0346 80.3609 53.4799C79.9343 52.9146 79.3316 52.6319 78.5529 52.6319C77.7743 52.6319 77.1663 52.9146 76.7289 53.4799C76.2916 54.0346 76.0729 54.8026 76.0729 55.7839C76.0729 56.7653 76.2916 57.5386 76.7289 58.1039C77.1663 58.6586 77.7743 58.9359 78.5529 58.9359ZM88.1446 60.2159C87.5579 60.2159 87.0352 60.0879 86.5766 59.8319C86.1179 59.5653 85.7659 59.2026 85.5206 58.7439L85.4726 60.0239H84.2566V48.6639H85.6006V52.7279C85.8139 52.3759 86.1446 52.0613 86.5926 51.7839C87.0406 51.4959 87.5579 51.3519 88.1446 51.3519C88.8912 51.3519 89.5366 51.5333 90.0806 51.8959C90.6246 52.2586 91.0459 52.7706 91.3446 53.4319C91.6432 54.0933 91.7926 54.8773 91.7926 55.7839C91.7926 56.6906 91.6432 57.4746 91.3446 58.1359C91.0459 58.7973 90.6246 59.3093 90.0806 59.6719C89.5366 60.0346 88.8912 60.2159 88.1446 60.2159ZM88.0646 58.9359C88.7792 58.9359 89.3446 58.6533 89.7606 58.0879C90.1766 57.5226 90.3846 56.7546 90.3846 55.7839C90.3846 54.8026 90.1766 54.0346 89.7606 53.4799C89.3446 52.9146 88.7899 52.6319 88.0966 52.6319C87.5739 52.6319 87.1259 52.7599 86.7526 53.0159C86.3792 53.2613 86.0912 53.6186 85.8886 54.0879C85.6966 54.5573 85.6006 55.1226 85.6006 55.7839C85.6006 56.4239 85.6966 56.9839 85.8886 57.4639C86.0912 57.9333 86.3739 58.2959 86.7366 58.5519C87.1099 58.8079 87.5526 58.9359 88.0646 58.9359ZM96.1227 60.2159C95.248 60.2159 94.5494 60.0133 94.0267 59.6079C93.5147 59.2026 93.2587 58.6373 93.2587 57.9119C93.2587 57.1866 93.472 56.6159 93.8987 56.1999C94.3254 55.7839 95.0027 55.4906 95.9307 55.3199L98.9387 54.7599C98.9387 54.0453 98.768 53.5119 98.4267 53.1599C98.096 52.8079 97.5947 52.6319 96.9227 52.6319C96.336 52.6319 95.872 52.7653 95.5307 53.0319C95.1894 53.2879 94.9547 53.6613 94.8267 54.1519L93.4027 54.0399C93.5627 53.2399 93.9467 52.5946 94.5547 52.1039C95.1734 51.6026 95.9627 51.3519 96.9227 51.3519C98.0107 51.3519 98.8427 51.6613 99.4187 52.2799C99.9947 52.8879 100.283 53.7306 100.283 54.8079V58.3119C100.283 58.5039 100.315 58.6426 100.379 58.7279C100.453 58.8026 100.571 58.8399 100.731 58.8399H101.067V60.0239C101.024 60.0346 100.955 60.0399 100.859 60.0399C100.763 60.0506 100.661 60.0559 100.555 60.0559C100.171 60.0559 99.856 59.9973 99.6107 59.8799C99.376 59.7519 99.2054 59.5599 99.0987 59.3039C98.992 59.0373 98.9387 58.6906 98.9387 58.2639L99.0987 58.2959C99.024 58.6586 98.8427 58.9893 98.5547 59.2879C98.2667 59.5759 97.9094 59.8053 97.4827 59.9759C97.056 60.1359 96.6027 60.2159 96.1227 60.2159ZM96.2507 59.0319C96.816 59.0319 97.296 58.9253 97.6907 58.7119C98.096 58.4879 98.4054 58.1893 98.6187 57.8159C98.832 57.4319 98.9387 57.0053 98.9387 56.5359V55.9279L96.1867 56.4399C95.6107 56.5466 95.2107 56.7119 94.9867 56.9359C94.7734 57.1493 94.6667 57.4319 94.6667 57.7839C94.6667 58.1786 94.8054 58.4879 95.0827 58.7119C95.3707 58.9253 95.76 59.0319 96.2507 59.0319ZM104.155 60.0239C103.664 60.0239 103.264 59.8959 102.955 59.6399C102.646 59.3839 102.491 58.9786 102.491 58.4239V48.6639H103.835V58.3119C103.835 58.4826 103.878 58.6159 103.963 58.7119C104.059 58.7973 104.192 58.8399 104.363 58.8399H105.099V60.0239H104.155ZM110.757 62.4239V51.5439H112.005L112.037 53.3679L111.845 53.2719C112.058 52.6426 112.41 52.1679 112.901 51.8479C113.402 51.5173 113.978 51.3519 114.629 51.3519C115.471 51.3519 116.159 51.5599 116.693 51.9759C117.237 52.3919 117.637 52.9359 117.893 53.6079C118.159 54.2799 118.293 55.0053 118.293 55.7839C118.293 56.5626 118.159 57.2879 117.893 57.9599C117.637 58.6319 117.237 59.1759 116.693 59.5919C116.159 60.0079 115.471 60.2159 114.629 60.2159C114.191 60.2159 113.781 60.1413 113.397 59.9919C113.023 59.8426 112.703 59.6346 112.437 59.3679C112.181 59.1013 112.005 58.7866 111.909 58.4239L112.101 58.1999V62.4239H110.757ZM114.501 58.9359C115.237 58.9359 115.818 58.6586 116.245 58.1039C116.671 57.5493 116.885 56.7759 116.885 55.7839C116.885 54.7919 116.671 54.0186 116.245 53.4639C115.818 52.9093 115.237 52.6319 114.501 52.6319C114.01 52.6319 113.583 52.7493 113.221 52.9839C112.869 53.2186 112.591 53.5706 112.389 54.0399C112.197 54.5093 112.101 55.0906 112.101 55.7839C112.101 56.4773 112.197 57.0586 112.389 57.5279C112.581 57.9973 112.858 58.3493 113.221 58.5839C113.583 58.8186 114.01 58.9359 114.501 58.9359ZM122.623 60.2159C121.748 60.2159 121.049 60.0133 120.527 59.6079C120.015 59.2026 119.759 58.6373 119.759 57.9119C119.759 57.1866 119.972 56.6159 120.399 56.1999C120.825 55.7839 121.503 55.4906 122.431 55.3199L125.439 54.7599C125.439 54.0453 125.268 53.5119 124.927 53.1599C124.596 52.8079 124.095 52.6319 123.423 52.6319C122.836 52.6319 122.372 52.7653 122.031 53.0319C121.689 53.2879 121.455 53.6613 121.327 54.1519L119.903 54.0399C120.063 53.2399 120.447 52.5946 121.055 52.1039C121.673 51.6026 122.463 51.3519 123.423 51.3519C124.511 51.3519 125.343 51.6613 125.919 52.2799C126.495 52.8879 126.783 53.7306 126.783 54.8079V58.3119C126.783 58.5039 126.815 58.6426 126.879 58.7279C126.953 58.8026 127.071 58.8399 127.231 58.8399H127.567V60.0239C127.524 60.0346 127.455 60.0399 127.359 60.0399C127.263 60.0506 127.161 60.0559 127.055 60.0559C126.671 60.0559 126.356 59.9973 126.111 59.8799C125.876 59.7519 125.705 59.5599 125.599 59.3039C125.492 59.0373 125.439 58.6906 125.439 58.2639L125.599 58.2959C125.524 58.6586 125.343 58.9893 125.055 59.2879C124.767 59.5759 124.409 59.8053 123.983 59.9759C123.556 60.1359 123.103 60.2159 122.623 60.2159ZM122.751 59.0319C123.316 59.0319 123.796 58.9253 124.191 58.7119C124.596 58.4879 124.905 58.1893 125.119 57.8159C125.332 57.4319 125.439 57.0053 125.439 56.5359V55.9279L122.687 56.4399C122.111 56.5466 121.711 56.7119 121.487 56.9359C121.273 57.1493 121.167 57.4319 121.167 57.7839C121.167 58.1786 121.305 58.4879 121.583 58.7119C121.871 58.9253 122.26 59.0319 122.751 59.0319ZM129.125 62.4239V61.2399H130.101C130.399 61.2399 130.618 61.1919 130.757 61.0959C130.906 61.0106 131.018 60.8666 131.093 60.6639L131.397 59.8639H130.933L127.829 51.5439H129.301L131.829 58.6159L134.245 51.5439H135.717L132.277 61.0959C132.117 61.5546 131.877 61.8906 131.557 62.1039C131.237 62.3173 130.794 62.4239 130.229 62.4239H129.125ZM136.96 60.0239V51.5439H138.192L138.24 53.6879L138.048 53.6239C138.144 53.1546 138.309 52.7546 138.544 52.4239C138.789 52.0826 139.088 51.8213 139.44 51.6399C139.792 51.4479 140.181 51.3519 140.608 51.3519C141.344 51.3519 141.941 51.5546 142.4 51.9599C142.869 52.3653 143.162 52.9306 143.28 53.6559L143.024 53.6399C143.109 53.1493 143.264 52.7386 143.488 52.4079C143.722 52.0666 144.021 51.8053 144.384 51.6239C144.746 51.4426 145.162 51.3519 145.632 51.3519C146.24 51.3519 146.752 51.4799 147.168 51.7359C147.584 51.9813 147.898 52.3439 148.112 52.8239C148.325 53.3039 148.432 53.8853 148.432 54.5679V60.0239H147.088V54.8559C147.088 54.0879 146.938 53.5119 146.64 53.1279C146.341 52.7333 145.898 52.5359 145.312 52.5359C144.917 52.5359 144.57 52.6319 144.272 52.8239C143.984 53.0159 143.76 53.2933 143.6 53.6559C143.44 54.0079 143.36 54.4399 143.36 54.9519V60.0239H142.016V54.9519C142.016 54.1946 141.882 53.6026 141.616 53.1759C141.349 52.7493 140.901 52.5359 140.272 52.5359C139.877 52.5359 139.53 52.6319 139.232 52.8239C138.944 53.0159 138.714 53.2933 138.544 53.6559C138.384 54.0186 138.304 54.4506 138.304 54.9519V60.0239H136.96ZM154.115 60.2159C153.315 60.2159 152.622 60.0346 152.035 59.6719C151.459 59.3093 151.011 58.7973 150.691 58.1359C150.382 57.4639 150.227 56.6799 150.227 55.7839C150.227 54.8879 150.382 54.1093 150.691 53.4479C151.011 52.7866 151.454 52.2746 152.019 51.9119C152.595 51.5386 153.273 51.3519 154.051 51.3519C154.787 51.3519 155.438 51.5279 156.003 51.8799C156.569 52.2213 157.006 52.7226 157.315 53.3839C157.635 54.0453 157.795 54.8506 157.795 55.7999V56.1999H151.635C151.689 57.1066 151.929 57.7893 152.355 58.2479C152.793 58.7066 153.379 58.9359 154.115 58.9359C154.67 58.9359 155.123 58.8079 155.475 58.5519C155.838 58.2853 156.089 57.9386 156.227 57.5119L157.667 57.6239C157.443 58.3813 157.017 59.0053 156.387 59.4959C155.769 59.9759 155.011 60.2159 154.115 60.2159ZM151.635 55.0159H156.323C156.259 54.1946 156.019 53.5919 155.603 53.2079C155.198 52.8239 154.681 52.6319 154.051 52.6319C153.401 52.6319 152.862 52.8346 152.435 53.2399C152.019 53.6346 151.753 54.2266 151.635 55.0159ZM159.616 60.0239V51.5439H160.848L160.896 53.7039L160.736 53.5599C160.843 53.0586 161.029 52.6479 161.296 52.3279C161.563 51.9973 161.883 51.7519 162.256 51.5919C162.64 51.4319 163.051 51.3519 163.488 51.3519C164.139 51.3519 164.672 51.4959 165.088 51.7839C165.515 52.0719 165.829 52.4613 166.032 52.9519C166.245 53.4319 166.352 53.9706 166.352 54.5679V60.0239H165.008V54.9519C165.008 54.4293 164.944 53.9919 164.816 53.6399C164.699 53.2773 164.507 53.0053 164.24 52.8239C163.973 52.6319 163.627 52.5359 163.2 52.5359C162.549 52.5359 162.011 52.7439 161.584 53.1599C161.168 53.5653 160.96 54.1626 160.96 54.9519V60.0239H159.616ZM171.376 60.0239C170.608 60.0239 170.038 59.8479 169.664 59.4959C169.302 59.1439 169.12 58.5946 169.12 57.8479V49.5599H170.464V57.8159C170.464 58.1999 170.55 58.4666 170.72 58.6159C170.891 58.7653 171.152 58.8399 171.504 58.8399H172.72V60.0239H171.376ZM167.872 52.7279V51.5439H172.72V52.7279H167.872ZM177.376 60.2159C176.618 60.2159 175.973 60.0933 175.44 59.8479C174.917 59.6026 174.506 59.2666 174.208 58.8399C173.92 58.4026 173.754 57.9066 173.712 57.3519L175.12 57.2559C175.205 57.7679 175.424 58.1786 175.776 58.4879C176.128 58.7866 176.661 58.9359 177.376 58.9359C177.952 58.9359 178.41 58.8453 178.752 58.6639C179.104 58.4719 179.28 58.1679 179.28 57.7519C179.28 57.5279 179.226 57.3413 179.12 57.1919C179.013 57.0426 178.805 56.9146 178.496 56.8079C178.186 56.6906 177.728 56.5786 177.12 56.4719C176.309 56.3226 175.669 56.1413 175.2 55.9279C174.741 55.7039 174.41 55.4319 174.208 55.1119C174.016 54.7813 173.92 54.3919 173.92 53.9439C173.92 53.1866 174.197 52.5679 174.752 52.0879C175.306 51.5973 176.096 51.3519 177.12 51.3519C177.813 51.3519 178.394 51.4799 178.864 51.7359C179.344 51.9813 179.717 52.3119 179.984 52.7279C180.261 53.1333 180.442 53.5813 180.528 54.0719L179.12 54.1679C179.056 53.8693 178.938 53.6079 178.768 53.3839C178.597 53.1493 178.373 52.9679 178.096 52.8399C177.818 52.7013 177.488 52.6319 177.104 52.6319C176.496 52.6319 176.048 52.7493 175.76 52.9839C175.472 53.2186 175.328 53.5173 175.328 53.8799C175.328 54.1573 175.392 54.3866 175.52 54.5679C175.658 54.7386 175.877 54.8826 176.176 54.9999C176.474 55.1066 176.874 55.2026 177.376 55.2879C178.24 55.4373 178.912 55.6186 179.392 55.8319C179.872 56.0453 180.208 56.3066 180.4 56.6159C180.592 56.9253 180.688 57.3039 180.688 57.7519C180.688 58.2746 180.538 58.7226 180.24 59.0959C179.952 59.4586 179.557 59.7359 179.056 59.9279C178.565 60.1199 178.005 60.2159 177.376 60.2159ZM182.102 60.0239V58.2159H183.91V60.0239H182.102Z" fill="white"/>
<path d="M260.534 228.883L-153.133 467.714M301.9 252.766L-111.766 491.597M343.267 276.649L-70.3997 515.48M384.634 300.532L-29.0331 539.363M426 324.415L12.3336 563.246M467.367 348.298L53.7003 587.129M508.734 372.181L95.067 611.012M550.1 396.065L136.434 634.895M591.467 419.948L177.8 658.778M177.8 228.883L591.467 467.714M136.434 252.766L550.1 491.597M95.067 276.649L508.734 515.48M53.7003 300.532L467.367 539.363M12.3336 324.415L426 563.246M-29.0331 348.298L384.634 587.129M-70.3998 372.181L343.267 611.012M-111.766 396.065L301.9 634.895M-153.133 419.948L260.534 658.778M219.167 205L-194.5 443.831L219.167 682.661L632.834 443.831L219.167 205Z" stroke="url(#paint0_radial_2_2080)" stroke-opacity="0.44" stroke-width="0.298538"/>
<circle cx="42.7514" cy="42.7514" r="42.7514" transform="matrix(0.866025 0.5 -0.866025 0.5 179.546 313)" fill="black"/>
<circle cx="42.7514" cy="42.7514" r="42.7514" transform="matrix(0.866025 0.5 -0.866025 0.5 179.546 313)" fill="url(#paint1_linear_2_2080)"/>
<circle cx="42.7514" cy="42.7514" r="42.7514" transform="matrix(0.866025 0.5 -0.866025 0.5 179.546 313)" stroke="white" stroke-opacity="0.4"/>
<path d="M127.188 355.751C127.188 364.099 133.048 371.657 142.523 377.127V416.896C133.048 411.425 127.188 403.868 127.188 395.52V355.751Z" fill="black" stroke="white" stroke-opacity="0.4"/>
<path d="M142.524 377.127C162.972 388.932 196.124 388.932 216.572 377.127V416.896C196.124 428.701 162.972 428.701 142.524 416.896V377.127Z" fill="black" stroke="white" stroke-opacity="0.4"/>
<path d="M231.905 355.751C231.905 364.099 226.045 371.657 216.569 377.127V416.896C226.045 411.425 231.905 403.868 231.905 395.52V355.751Z" fill="black" stroke="white" stroke-opacity="0.4"/>
<g filter="url(#filter0_i_2_2080)">
<circle cx="180.517" cy="263.666" r="104.295" transform="rotate(11.066 180.517 263.666)" fill="#1F3114" fill-opacity="0.1"/>
</g>
<path d="M261.139 328.459L256.45 329.066L268.329 308.77L270.204 308.796L273.106 308.838L261.139 328.459ZM244.418 345.463L241.428 346.124L240.606 346.307L255.597 330.395L259.841 329.846L244.418 345.463ZM211.356 360.794L215.342 360.574L199.303 365.98L197.377 366.117L211.356 360.794ZM165.61 364.827L165.623 364.83L172.35 365.874L170.805 366.177L167.093 366.899L163.535 366.352L165.61 364.827ZM147.55 362.421L141.225 358.992L144.339 359.964L146.323 361.334L148.179 362.617L147.55 362.421ZM122.839 350.346L121.503 349.15L110.27 339.083L113.998 340.91L124.691 351.291L122.839 350.346ZM92.2351 317.283L93.6209 318.251L100.731 328.897L104.098 333.939L102.964 333.074L102.735 332.899L91.4596 316.742L92.2351 317.283ZM135.131 170.431L135.444 170.35L136.862 169.978L121.001 180.589L119.581 180.897L118.358 181.161L135.131 170.431ZM208.253 163.84L208.93 164.298L212.797 166.921L212.618 166.877L206.051 165.236L204.705 162.948L208.253 163.84ZM275.775 232.647L268.247 211.953L269.294 212.697L271.464 214.24L279.493 234.817L275.775 232.647ZM224.687 357.793L223.243 358.176L239.059 347.884L241.417 347.363L224.687 357.793ZM152.046 363.82L147.718 360.831L154.407 362.536L155.604 364.732L152.046 363.82ZM115.51 183.015L119.507 182.149L104.668 198.303L103.958 198.391L100.244 198.852L115.51 183.015ZM148.709 167.379L144.453 167.629L160.607 161.974L162.77 161.811L148.709 167.379ZM215.552 168.856L220.82 178.453L207.147 175.097L206.341 166.553C207.277 166.787 208.88 167.187 210.518 167.597L215.552 168.856ZM269.027 211.025L267.458 209.908L256.866 194.037L258.107 195.002L269.484 211.349L269.027 211.025ZM281.402 258.648L278.903 257.64L277.248 244.143L276.028 234.195L278.514 235.644L280.13 236.588L283.341 259.431L281.402 258.648ZM281.332 284.173L276.52 283.206L276.704 281.315L278.87 258.929L283.444 260.774L282.149 275.124L281.332 284.173ZM274.946 288.518L276.276 284.388C277.371 284.609 279.882 285.114 281.086 285.355L273.737 307.638L268.81 307.569L274.946 288.518ZM228.649 348.13L236.721 347.965L219.566 359.127L213.222 359.481L228.649 348.13ZM170.403 356.332L173.361 356.805L184.169 358.528L178.966 362.6L175.683 365.17L166.395 363.727L170.403 356.332ZM155.378 361.515L154.736 353.151L163.756 354.994C166.024 355.457 168.078 355.877 169.156 356.098L165.139 363.511C163.968 363.271 160.665 362.597 158.128 362.078L155.378 361.515ZM135.834 356.04L127.036 345.655L138.363 349.081L143.373 358.397L140.576 357.523L135.834 356.04ZM116.838 341.985L124.894 344.995L133.487 355.141L128.319 353.132L125.934 350.817L116.838 341.985ZM77.5326 269.208L82.1059 271.038L85.0718 294.247L80.8545 291.824L80.5191 289.545L77.5326 269.208ZM79.3253 244.605C79.8895 244.719 80.7374 244.891 81.6071 245.067L84.2793 245.608L83.2676 256.977L82.1304 269.746L77.4203 267.862L77.5698 266.04L79.3253 244.605ZM86.652 221.153L89.3462 221.203L91.7304 221.25L84.5136 244.424C83.8775 244.296 82.7659 244.07 81.696 243.853L79.5578 243.42L84.5135 227.865L86.652 221.153ZM146.892 168.696L132.478 179.614L131.543 180.322L127.01 180.423L123.298 180.505L140.38 169.077L145.735 168.764L146.892 168.696ZM182.876 162.502L174.538 169.302L162.641 168.058L174.918 161.745L177.271 161.969L182.876 162.502ZM205.101 166.264L205.379 169.214L205.908 174.83C205.394 174.727 204.652 174.58 203.772 174.403L202.573 174.164C202.022 174.055 201.442 173.939 200.839 173.819L199.715 173.593C196.407 172.933 192.866 172.226 191.336 171.921L193.733 167.235L195.236 164.298L199.983 165.244C202.079 165.662 204.205 166.087 205.101 166.264ZM267.56 307.506L256.586 306.277L264.05 281.924C265.033 282.122 267.231 282.564 269.459 283.014L275.086 284.148L270.548 298.237L267.56 307.506ZM244.704 328.834L256.134 307.441L266.994 308.659L254.968 329.205L244.704 328.834ZM229.766 346.898L243.989 330.018L253.953 330.379L238.557 346.72L229.766 346.898ZM201.121 359.143L214.104 347.147L226.76 348.018L211.043 359.584L210.171 359.545L201.121 359.143ZM170.905 355.19L176.082 341.601L194.824 344.723L185.366 357.496L172.298 355.411L170.905 355.19ZM154.7 351.91L155.381 337.399C157.015 337.732 161.328 338.611 165.562 339.474L174.877 341.373L171.857 349.295L169.694 354.974C168.431 354.716 164.86 353.987 161.438 353.288L154.7 351.91ZM139.957 349.493C143.203 350.305 151.445 352.364 153.47 352.869L153.503 352.877L154.144 361.223L145.012 358.894L139.957 349.493ZM86.8477 296.411L96.254 299.984L102.644 320.992L94.5376 317.374L94.166 316.359L86.8477 296.411ZM193.984 164.094L190.096 171.694L176.16 169.538L184.572 162.677L193.986 164.089L193.984 164.094ZM233.837 182.27L222.422 178.859L217.201 169.349L224.795 171.689L233.837 182.27ZM265.355 208.933L257.914 205.612L256.391 203.017L248.117 188.921L253.887 191.753L265.094 208.542L265.355 208.933ZM264.895 228.472L258.453 207.174L266.018 210.552L266.536 210.784L274.264 232.026L264.895 228.472ZM267.128 254.133L265.084 229.837L274.727 233.495L277.634 257.226L267.128 254.133ZM186.744 357.664L196.173 344.931L200.658 345.488L212.52 346.965L211.257 348.133L199.44 359.05L198.466 358.944L186.744 357.664ZM197.524 360.056L185.217 366.141L177.403 365.356L185.81 358.777L197.524 360.056ZM155.472 336.184L157.683 316.035L171.221 318.788C175.599 319.678 179.674 320.508 181.217 320.821L175.278 340.223C173.94 339.95 170.284 339.205 166.429 338.418L155.472 336.184ZM118.522 327.801C120.154 328.267 123.172 329.128 126.171 329.985L134.389 332.334L137.953 347.695L125.693 343.985L120.518 332.304L118.522 327.801ZM110.525 325.112L117.002 327.35L117.537 328.559L124.119 343.414L114.762 339.918L104.957 323.189C106.328 323.663 108.425 324.387 110.525 325.112ZM83.3772 271.449L93.9396 274.571L95.4194 291.354L96.0588 298.618L86.3795 294.941L84.0863 277.005L83.3772 271.449ZM96.588 248.101L93.9779 273.323L83.3055 270.17L84.9875 251.275L85.4692 245.851L92.0995 247.192C93.994 247.576 95.7383 247.929 96.588 248.101ZM105.306 199.492L115.699 199.859L104.495 221.395L93.5248 220.163L102.976 203.582L105.306 199.492ZM145.361 182.417L138.916 191.969L133.241 200.38L126.941 199.733L117.857 198.802L132.021 181.544L141.185 182.144L145.361 182.417ZM149.032 168.588L159.111 168.994L147.731 179.831L146.226 181.264L145.422 181.212L133.407 180.424L146.451 170.544L149.032 168.588ZM235.189 183.934L242.528 200.389L226.552 195.88L222.841 180.245C222.866 180.252 222.887 180.259 222.913 180.266L235.189 183.934ZM246.167 187.986L256.146 204.984L244.049 200.835L239.349 190.298L236.765 184.5L246.167 187.986ZM255.369 306.12L252.257 305.655L238.541 303.595L240.574 296.421L245.728 278.229L262.862 281.684L258.991 294.31L255.369 306.12ZM176.473 340.442L182.409 321.05L185.784 321.645L204.996 325.036L195.56 343.62L179.71 340.98L176.473 340.442ZM157.839 314.833L159.273 305.382L161.557 290.332C163.455 290.716 169.456 291.931 175.306 293.117L187.744 295.639L181.547 319.657L167.702 316.84L157.839 314.833ZM153.505 351.633L139.282 348.079L135.705 332.667C138.053 333.235 144.283 334.741 148.977 335.876L154.186 337.136L153.976 341.613L153.505 351.633ZM104.096 321.613L97.6531 300.434L112.37 304.93L116.645 325.949L114.289 325.134L104.096 321.613ZM165.642 183.632L175.001 170.581L189.616 172.841L184.55 186.706L165.642 183.632ZM205.331 192.075L203.199 212.511C200.709 212.012 191.573 210.18 185.235 208.908L179.529 207.764L185.368 188.082C186.515 188.312 189.357 188.881 192.574 189.524L205.331 192.075ZM227.867 327.139L238.132 304.756L254.858 307.266L243.375 328.761L227.867 327.139ZM188.931 295.87L213.983 300.595L205.509 323.899L182.736 319.882L188.116 299.032L188.931 295.87ZM161.758 289.139L166.746 262.28C166.905 262.313 167.085 262.348 167.301 262.392L167.466 262.426C167.81 262.495 168.21 262.576 168.663 262.666L171.422 263.225C171.544 263.249 171.664 263.273 171.788 263.299L174.657 263.878C174.883 263.924 175.108 263.97 175.339 264.015L193.908 267.766L189.667 287.023L188.026 294.464C186.263 294.105 180.68 292.975 175.05 291.833L161.758 289.139ZM135.471 331.368L134.475 315.79L134.146 310.628L134.742 310.766C134.855 310.792 134.975 310.819 135.099 310.848L135.79 311.006C141.153 312.243 153.748 315.146 156.497 315.779L154.287 335.917L151.528 335.25L135.471 331.368ZM113.676 305.287L132.917 310.331L134.24 331.034L117.966 326.385L117.84 325.761L113.676 305.287ZM111.601 279.11L112.265 303.634L97.3105 299.067L95.1809 274.905L111.601 279.11ZM97.7765 248.341L106.537 250.113C110.106 250.835 113.622 251.544 114.94 251.811L112.67 269.962L111.679 277.883L95.1578 273.652L95.4242 271.084L97.7765 248.341ZM122.573 224.078L105.765 221.57L117.023 199.931L132.646 201.532L122.573 224.078ZM184.172 187.87L181.587 196.58L178.336 207.538L155.62 203.593L157.62 199.541L164.928 184.739L177.386 186.765L184.172 187.87ZM203.05 213.712L199.357 238.439L188.853 236.327C182.425 235.034 175.211 233.581 173.09 233.155L176.665 218.996L179.206 208.931L198.638 212.829C200.653 213.232 202.25 213.552 203.05 213.712ZM226.867 217.885L204.388 212.764L206.518 192.338L225.474 196.849L226.867 217.885ZM243.087 201.802L247.437 223.196L228.097 218.178L226.707 197.179C227.916 197.521 230.316 198.198 232.938 198.937L243.087 201.802ZM248.742 223.55L244.406 202.235L257.002 206.554L263.497 228.026L248.742 223.55ZM215.54 299.65L222.184 273.477L244.539 277.988L237.339 303.405L215.54 299.65ZM215.19 300.815L236.896 304.554L226.607 326.989L206.724 324.091L215.19 300.815ZM204.234 213.967C207.642 214.744 223.82 218.428 226.892 219.129L225.531 244.069C221.788 243.263 203.926 239.416 200.542 238.688L204.108 214.812L204.234 213.967ZM200.341 239.879L215.749 243.197C220.103 244.135 224.001 244.975 225.41 245.279L221.29 271.73L221.24 272.054L195.333 266.822L198.767 248.348L200.341 239.879ZM244.784 276.806C241.425 276.127 225.629 272.94 222.425 272.293L226.592 245.544C229.879 246.305 245.097 249.834 248.195 250.552L246.135 266.415L244.784 276.806ZM237.888 221.966L247.63 224.494L248.24 249.323L226.727 244.335L227.584 228.607L228.085 219.422C229.692 219.84 233.801 220.905 237.888 221.966ZM189.212 294.695L195.092 268.006L220.999 273.237L214.348 299.435L195.845 295.946L189.212 294.695ZM134.122 309.382L134.427 303.772L135.465 284.68C139.199 285.49 156.994 289.351 160.374 290.084L156.657 314.577L141.413 311.064L134.122 309.382ZM133.905 201.68L153.904 204.542L145.578 228.004L123.808 224.278L129.59 211.335L133.905 201.68ZM132.929 309.086L113.481 303.989L112.818 279.405C115.708 280.08 126.221 282.534 131.587 283.785L134.272 284.413L133.783 293.375L132.929 309.086ZM138.481 256.57L134.403 283.203L129.051 281.955L112.86 278.174L116.127 252.051C119.496 252.732 135.286 255.923 138.481 256.57ZM135.583 283.469L139.666 256.809C143.305 257.544 162.03 261.328 165.563 262.04L160.575 288.891L135.583 283.469ZM165.8 260.857L139.904 255.625L146.426 229.383L171.627 234.101L165.8 260.857ZM120.396 236.237L123.375 225.431L138.291 227.982L145.234 229.17L138.719 255.386L136.959 255.03L116.363 250.867L120.396 236.237ZM155.118 204.732L178.017 208.71L171.903 232.925L146.783 228.221L154.501 206.473L155.118 204.732ZM112.083 223.733L122.175 225.239L115.176 250.627L98.0108 247.157L105.27 222.715L112.083 223.733ZM184.385 264.611C183.743 264.481 183.088 264.349 182.427 264.216L181.427 264.013C180.524 263.832 179.618 263.647 178.721 263.468L176.715 263.062C176.67 263.053 176.624 263.044 176.579 263.035L166.986 261.096L172.813 234.331C174.395 234.65 179.048 235.586 184.062 236.595L199.159 239.633L196.191 255.599L194.149 266.583C192.731 266.296 188.931 265.529 184.569 264.648L184.385 264.611ZM265.903 255.05L263.106 280.501C260.244 279.924 248.633 277.582 245.971 277.046L246.081 276.182L249.376 250.841C250.49 251.125 252.898 251.739 255.571 252.42L265.903 255.05ZM260.25 252.365L249.457 249.616L248.845 224.844L263.835 229.39L265.888 253.801L260.25 252.365ZM154.538 183.467L163.666 184.568L154.372 203.39L134.579 200.556L146.745 182.527L154.538 183.467ZM160.776 169.077L173.63 170.42L164.302 183.429L155.779 182.402L147.796 181.439L154.349 175.198L160.776 169.077ZM213.596 345.881L199.534 344.133L196.825 343.795L206.245 325.243L225.915 328.11L218.738 338.465L213.596 345.881ZM216.959 343.152L227.261 328.291L242.519 329.887L228.181 346.907L214.988 345.997L216.959 343.152ZM123.86 189.583L116.399 198.674L106.295 198.318L121.511 181.753L130.451 181.553L123.86 189.583ZM89.2541 233.263L92.9738 221.317L104.056 222.562L96.8222 246.917C94.8242 246.512 87.8637 245.102 85.7035 244.666L89.2541 233.263ZM277.697 258.504L276.598 269.866L275.332 282.966L264.294 280.742L267.083 255.379C268.2 255.708 270.519 256.39 272.77 257.053L277.697 258.504ZM219.261 179.313L221.51 179.864L224.687 193.246L225.234 195.552L206.61 191.119L207.162 176.345L217.762 178.946C218.296 179.077 218.802 179.201 219.261 179.313ZM196.874 174.259C199.115 174.706 201.497 175.18 203.337 175.548L205.962 176.073L205.411 190.861L185.754 186.929L188.465 179.51L190.825 173.051C191.456 173.176 192.64 173.412 194.128 173.71L196.874 174.259ZM87.2633 219.958L98.9919 200.226L103.841 199.624L92.1984 220.05L89.902 220.007L87.2633 219.958ZM229.466 173.48L232.342 174.59L244.083 185.925L235.984 182.922L235.047 181.825L227.152 172.587L229.466 173.48ZM166.792 161.517L167.166 161.527L172.427 161.667L160.426 167.838L151.715 167.487L159.848 164.266L166.792 161.517ZM107.027 336.149L95.7239 319.226L103.186 322.557L112.816 338.984L112.308 338.735L107.027 336.149ZM205.502 361.731L193.227 366.404L187.757 366.233L192.866 363.708L199.777 360.292L204.467 360.501L208.289 360.67L205.502 361.731ZM237.815 177.374L239.642 179.005L250.618 188.803L246.93 186.994L236.01 176.452L237.815 177.374ZM212.78 165.232L219.343 168.746L216.217 167.782L214.159 166.387L212.187 165.05L212.78 165.232ZM198.353 161.611L203.067 162.55L204.455 164.905L201.378 164.291L196.289 163.276L198.244 161.697L198.353 161.611ZM193.052 160.81L196.744 161.357L194.733 162.979L187.776 161.936L189.04 161.667L193.052 160.81ZM189.029 160.433L184.359 161.43L183.803 161.379L180.956 161.106L188.263 160.362L189.029 160.433ZM89.5134 313.908L81.496 293.586L85.3345 295.791L92.8312 316.227L90.1911 314.381L89.5134 313.908ZM157.194 365.126L155.963 362.868C156.368 362.951 156.842 363.047 157.373 363.156L164 364.511L161.861 366.082L157.194 365.126ZM171.276 367.314L175.878 366.416L178.949 366.726L171.809 367.367L171.276 367.314ZM284.791 261.497L284.687 260.329C284.688 260.324 284.682 260.321 284.681 260.317C284.68 260.31 284.685 260.304 284.684 260.299L281.284 236.129C281.28 236.098 281.26 236.072 281.251 236.042C281.247 236.026 281.253 236.01 281.248 235.993L272.52 213.632C272.512 213.606 272.483 213.592 272.471 213.567C272.461 213.547 272.467 213.524 272.455 213.506L259.045 194.237C259.021 194.201 258.988 194.172 258.956 194.143C258.953 194.139 258.955 194.132 258.95 194.13L241.758 178.938L238.534 176.399C238.531 176.397 238.527 176.398 238.524 176.395C238.495 176.374 238.467 176.351 238.435 176.335L232.949 173.534C232.947 173.534 232.947 173.534 232.947 173.534C232.945 173.533 232.944 173.531 232.944 173.531L217.1 165.621L213.283 164.137C213.278 164.135 213.274 164.139 213.269 164.136L213.243 164.122L208.684 162.703C208.679 162.702 208.675 162.705 208.672 162.704C208.665 162.703 208.658 162.696 208.651 162.695L203.598 161.426C203.595 161.425 203.591 161.428 203.586 161.427C203.581 161.426 203.575 161.419 203.57 161.418L198.312 160.371C198.306 160.369 198.3 160.372 198.293 160.37C198.288 160.369 198.287 160.366 198.282 160.366L193.12 159.599C193.112 159.598 193.104 159.601 193.095 159.6C193.092 159.599 193.089 159.595 193.086 159.596L188.302 159.164C188.29 159.163 188.284 159.152 188.272 159.151L184.093 159.054L166.64 160.307C166.64 160.307 166.64 160.307 166.638 160.309L160.438 160.775C160.409 160.778 160.383 160.787 160.356 160.792C160.345 160.795 160.336 160.791 160.325 160.794L156.257 161.895L134.69 169.3C134.685 169.302 134.683 169.309 134.678 169.311C134.638 169.326 134.597 169.34 134.562 169.363L114.879 181.954C114.859 181.965 114.857 181.991 114.839 182.003C114.818 182.022 114.788 182.024 114.769 182.043L98.1885 199.244C98.1798 199.252 98.1806 199.266 98.1732 199.277C98.1576 199.295 98.1363 199.306 98.122 199.326L96.893 201.157L84.9532 221.223C84.9482 221.23 84.9536 221.238 84.9502 221.246C84.9316 221.279 84.9097 221.311 84.8972 221.349L77.796 243.607C77.7881 243.63 77.7938 243.653 77.7892 243.677C77.7847 243.7 77.7707 243.718 77.7698 243.74L75.8762 267.002C75.8723 267.039 75.8818 267.079 75.885 267.116C75.8867 267.125 75.8787 267.131 75.8807 267.138L79.2776 290.193L79.7083 292.323C79.712 292.339 79.7274 292.349 79.7325 292.367C79.7339 292.369 79.7352 292.371 79.7345 292.375C79.7399 292.391 79.7317 292.407 79.7387 292.424L88.4578 314.52C88.4682 314.546 88.495 314.56 88.5074 314.585C88.5179 314.603 88.5116 314.626 88.5237 314.644L101.799 333.668C101.824 333.702 101.855 333.729 101.886 333.758C101.89 333.762 101.888 333.771 101.893 333.775L118.855 348.79L122.124 351.325C122.13 351.33 122.137 351.33 122.143 351.333C122.167 351.351 122.191 351.372 122.22 351.386L127.711 354.187C127.713 354.188 127.713 354.189 127.714 354.19L143.241 362.022L147.042 363.513C147.05 363.516 147.059 363.516 147.068 363.52L147.081 363.528C147.081 363.528 151.178 364.82 151.629 364.957C151.634 364.958 151.636 364.962 151.641 364.963C151.641 364.963 156.582 366.229 156.676 366.253C156.678 366.253 156.678 366.253 156.678 366.253C156.678 366.253 161.882 367.318 161.887 367.319C161.895 367.321 161.904 367.323 161.912 367.324L167.013 368.109C167.017 368.109 167.02 368.108 167.022 368.109C167.03 368.11 167.039 368.112 167.047 368.112L171.682 368.558C171.689 368.56 171.691 368.565 171.696 368.566C171.728 368.573 171.76 368.576 171.797 368.577L175.908 368.694L193.366 367.615C193.367 367.616 193.368 367.614 193.369 367.614L193.371 367.615L199.467 367.176C199.499 367.176 199.53 367.166 199.561 367.158C199.568 367.156 199.575 367.159 199.582 367.157L203.543 366.083L225.121 358.927C225.132 358.922 225.141 358.913 225.154 358.907C225.186 358.894 225.219 358.885 225.251 358.865L245.042 346.528C245.06 346.516 245.061 346.494 245.077 346.482C245.099 346.465 245.132 346.461 245.151 346.441L261.934 329.447C261.946 329.433 261.946 329.414 261.957 329.399C261.976 329.377 262.003 329.361 262.02 329.337L274.689 308.564C274.691 308.559 274.691 308.552 274.694 308.546C274.696 308.543 274.702 308.54 274.704 308.537L275.304 307.4L282.657 285.124C282.665 285.103 282.66 285.081 282.665 285.059C282.669 285.036 282.684 285.015 282.685 284.989L284.791 261.497Z" fill="#2C4C19"/>
<path d="M278.227 228.204C278.365 228.259 278.571 228.372 278.852 228.562C294.821 241.536 301.98 260.358 297.368 278.962C292.756 297.565 276.38 315.94 245.3 328.028L245.169 328.078L245.236 328.161L248.133 331.731L213.636 335.284L240.434 322.246L242.944 325.336L243.036 325.449L243.213 325.379C272.867 313.669 288.737 295.693 294.004 277.896C299.269 260.102 293.939 242.47 281.156 231.441L281.15 231.436L281.143 231.431C280.022 230.674 278.951 229.544 278.452 228.799C278.328 228.614 278.242 228.456 278.199 228.335C278.177 228.275 278.166 228.228 278.166 228.193C278.166 228.19 278.166 228.187 278.166 228.184C278.182 228.189 278.203 228.195 278.227 228.204Z" fill="black" stroke="white" stroke-width="0.3"/>
<path d="M83.3274 225.452C48.0595 250.43 42.9031 288.564 92.5365 317.22C120.251 333.221 159.49 340.233 197.965 336.136C198.774 336.05 199.427 336.164 199.905 336.383C200.387 336.604 200.702 336.936 200.814 337.293C200.926 337.65 200.832 338.026 200.511 338.332C200.193 338.636 199.644 338.878 198.817 338.966C158.746 343.223 117.886 335.916 89.02 319.25C36.4819 288.918 45.0829 246.891 85.1567 220.899L83.3274 225.452Z" fill="black" stroke="white" stroke-width="0.3"/>
</g>
<rect x="0.443939" y="0.443939" width="365.112" height="498.112" stroke="#BABABA" stroke-width="0.887879"/>
<defs>
<filter id="filter0_i_2_2080" x="76.2021" y="159.351" width="208.63" height="208.63" filterUnits="userSpaceOnUse" color-interpolation-filters="sRGB">
<feFlood flood-opacity="0" result="BackgroundImageFix"/>
<feBlend mode="normal" in="SourceGraphic" in2="BackgroundImageFix" result="shape"/>
<feColorMatrix in="SourceAlpha" type="matrix" values="0 0 0 0 0 0 0 0 0 0 0 0 0 0 0 0 0 0 127 0" result="hardAlpha"/>
<feOffset/>
<feGaussianBlur stdDeviation="52.2629"/>
<feComposite in2="hardAlpha" operator="arithmetic" k2="-1" k3="1"/>
<feColorMatrix type="matrix" values="0 0 0 0 0.181172 0 0 0 0 0.347976 0 0 0 0 0.0792368 0 0 0 1 0"/>
<feBlend mode="normal" in2="shape" result="effect1_innerShadow_2_2080"/>
</filter>
<radialGradient id="paint0_radial_2_2080" cx="0" cy="0" r="1" gradientUnits="userSpaceOnUse" gradientTransform="translate(195.601 540.051) rotate(-90) scale(335.051 440.172)">
<stop offset="0.5" stop-color="white"/>
<stop offset="1" stop-color="white" stop-opacity="0"/>
</radialGradient>
<linearGradient id="paint1_linear_2_2080" x1="63.9523" y1="177.511" x2="74.2797" y2="24.7788" gradientUnits="userSpaceOnUse">
<stop/>
<stop offset="1" stop-color="#666666" stop-opacity="0"/>
</linearGradient>
<clipPath id="clip0_2_2080">
<rect width="366" height="499" fill="white"/>
</clipPath>
</defs>
</svg>
