<svg width="210" height="210" viewBox="0 0 210 210" fill="none" xmlns="http://www.w3.org/2000/svg">
<rect width="210" height="210" fill="white"/>
<path d="M72.9258 49.9395H114.088C126.783 49.9395 137.074 60.2308 137.074 72.9259H72.9258V49.9395Z" fill="black"/>
<path d="M174 72.9395L174 107.125C174 123.658 160.597 137.061 144.064 137.061L137.061 137.061L137.061 72.9395L174 72.9395Z" fill="black"/>
<path d="M137.074 160.061L95.9124 160.061C83.2173 160.061 72.9259 149.769 72.9259 137.074L137.074 137.074L137.074 160.061Z" fill="black"/>
<path d="M36 137.061L36 102.875C36 86.3421 49.4027 72.9393 65.9359 72.9393L72.9394 72.9393L72.9394 137.061L36 137.061Z" fill="black"/>
</svg>
