<svg width="324" height="109" viewBox="0 0 324 109" fill="none" xmlns="http://www.w3.org/2000/svg">
<path d="M22.1367 23.3389H46.813C54.4236 23.3389 60.5933 29.5085 60.5933 37.1191H22.1367V23.3389Z" fill="black"/>
<path d="M82.7305 37.127L82.7305 57.6209C82.7305 67.5324 74.6956 75.5673 64.7841 75.5673L60.5855 75.5673L60.5855 37.127L82.7305 37.127Z" fill="black"/>
<path d="M60.5938 89.3545L35.9175 89.3545C28.3068 89.3545 22.1372 83.1849 22.1372 75.5742L60.5938 75.5742L60.5938 89.3545Z" fill="black"/>
<path d="M0 75.5664L-8.95818e-07 55.0725C-1.32906e-06 45.161 8.03487 37.1261 17.9464 37.1261L22.145 37.1261L22.145 75.5664L0 75.5664Z" fill="black"/>
<path d="M131.455 34.1753H142.762V78H131.455V73.0916C128.709 77.1819 124.355 79.2271 118.395 79.2271C113.604 79.2271 109.63 77.6202 106.475 74.4064C103.378 71.1926 101.829 66.7517 101.829 61.0837V34.1753H113.136V59.6813C113.136 62.6029 113.925 64.8526 115.503 66.4303C117.08 67.9495 119.184 68.7092 121.814 68.7092C124.735 68.7092 127.072 67.8035 128.825 65.992C130.578 64.1806 131.455 61.4635 131.455 57.8407V34.1753ZM178.185 45.0439H168.281V63.2749C168.281 64.7942 168.66 65.9044 169.42 66.6056C170.18 67.3068 171.29 67.7158 172.751 67.8327C174.212 67.8911 176.023 67.8619 178.185 67.745V78C170.413 78.8765 164.921 78.1461 161.707 75.8088C158.552 73.4715 156.974 69.2935 156.974 63.2749V45.0439H149.348V34.1753H156.974V25.3228L168.281 21.9044V34.1753H178.185V45.0439ZM194.341 60.7331C195.861 66.2258 199.98 68.9721 206.7 68.9721C211.024 68.9721 214.296 67.5113 216.517 64.5897L225.632 69.8486C221.308 76.1009 214.939 79.2271 206.525 79.2271C199.279 79.2271 193.465 77.0359 189.082 72.6534C184.7 68.2709 182.509 62.749 182.509 56.0877C182.509 49.4848 184.671 43.9921 188.995 39.6096C193.319 35.1687 198.87 32.9483 205.648 32.9483C212.076 32.9483 217.364 35.1687 221.513 39.6096C225.72 44.0505 227.823 49.5432 227.823 56.0877C227.823 57.5485 227.677 59.097 227.385 60.7331H194.341ZM194.166 51.9682H216.517C215.874 48.9881 214.53 46.7676 212.485 45.3068C210.498 43.846 208.219 43.1156 205.648 43.1156C202.61 43.1156 200.097 43.9044 198.11 45.4821C196.123 47.0014 194.809 49.1634 194.166 51.9682ZM273.641 78H260.581L251.115 64.6773L241.561 78H228.501L244.541 55.6494L229.202 34.1753H242.262L251.115 46.5339L259.967 34.1753H272.939L257.601 55.5618L273.641 78ZM313.542 72.5657C309.042 77.0066 303.55 79.2271 297.064 79.2271C290.578 79.2271 285.085 77.0066 280.585 72.5657C276.145 68.0664 273.924 62.5737 273.924 56.0877C273.924 49.6016 276.145 44.1381 280.585 39.6972C285.085 35.1979 290.578 32.9483 297.064 32.9483C303.55 32.9483 309.042 35.1979 313.542 39.6972C318.041 44.1381 320.291 49.6016 320.291 56.0877C320.291 62.5737 318.041 68.0664 313.542 72.5657ZM288.562 64.765C290.84 67.0438 293.674 68.1833 297.064 68.1833C300.453 68.1833 303.287 67.0438 305.566 64.765C307.844 62.4861 308.984 59.5936 308.984 56.0877C308.984 52.5817 307.844 49.6893 305.566 47.4104C303.287 45.1315 300.453 43.9921 297.064 43.9921C293.674 43.9921 290.84 45.1315 288.562 47.4104C286.341 49.6893 285.231 52.5817 285.231 56.0877C285.231 59.5936 286.341 62.4861 288.562 64.765Z" fill="black"/>
</svg>
