<svg width="138" height="111" viewBox="0 0 138 111" fill="none" xmlns="http://www.w3.org/2000/svg">
<path d="M36.9258 0H78.0876C90.7827 0 101.074 10.2914 101.074 22.9865H36.9258V0Z" fill="black"/>
<path d="M138 23L138 57.1854C138 73.7185 124.597 87.1212 108.064 87.1212L101.061 87.1212L101.061 23L138 23Z" fill="black"/>
<path d="M101.074 110.121L59.9124 110.121C47.2173 110.121 36.9259 99.8297 36.9259 87.1346L101.074 87.1346L101.074 110.121Z" fill="black"/>
<path d="M0 87.1211L-1.49429e-06 52.9357C-2.21698e-06 36.4026 13.4027 22.9999 29.9359 22.9999L36.9394 22.9999L36.9394 87.1211L0 87.1211Z" fill="black"/>
</svg>
