<svg width="26" height="26" viewBox="0 0 26 26" fill="none" xmlns="http://www.w3.org/2000/svg">
<path d="M22.1727 16.8931V8.44651C22.1723 8.07621 22.0746 7.71252 21.8893 7.39192C21.7039 7.07133 21.4376 6.8051 21.1169 6.61995L13.7262 2.39668C13.4051 2.21134 13.041 2.11377 12.6703 2.11377C12.2997 2.11377 11.9355 2.21134 11.6145 2.39668L4.22379 6.61995C3.9031 6.8051 3.63673 7.07133 3.45142 7.39192C3.2661 7.71252 3.16835 8.07621 3.16797 8.44651V16.8931C3.16835 17.2634 3.2661 17.6271 3.45142 17.9477C3.63673 18.2682 3.9031 18.5345 4.22379 18.7196L11.6145 22.9429C11.9355 23.1282 12.2997 23.2258 12.6703 23.2258C13.041 23.2258 13.4051 23.1282 13.7262 22.9429L21.1169 18.7196C21.4376 18.5345 21.7039 18.2682 21.8893 17.9477C22.0746 17.6271 22.1723 17.2634 22.1727 16.8931Z" stroke="black" stroke-width="2.11164" stroke-linecap="round" stroke-linejoin="round"/>
<path d="M22.1727 16.8931V8.44651C22.1723 8.07621 22.0746 7.71252 21.8893 7.39192C21.7039 7.07133 21.4376 6.8051 21.1169 6.61995L13.7262 2.39668C13.4051 2.21134 13.041 2.11377 12.6703 2.11377C12.2997 2.11377 11.9355 2.21134 11.6145 2.39668L4.22379 6.61995C3.9031 6.8051 3.63673 7.07133 3.45142 7.39192C3.2661 7.71252 3.16835 8.07621 3.16797 8.44651V16.8931C3.16835 17.2634 3.2661 17.6271 3.45142 17.9477C3.63673 18.2682 3.9031 18.5345 4.22379 18.7196L11.6145 22.9429C11.9355 23.1282 12.2997 23.2258 12.6703 23.2258C13.041 23.2258 13.4051 23.1282 13.7262 22.9429L21.1169 18.7196C21.4376 18.5345 21.7039 18.2682 21.8893 17.9477C22.0746 17.6271 22.1723 17.2634 22.1727 16.8931Z" stroke="url(#paint0_linear_46_502)" stroke-width="2.11164" stroke-linecap="round" stroke-linejoin="round"/>
<path d="M12.6686 16.8931C15.001 16.8931 16.8919 15.0023 16.8919 12.6698C16.8919 10.3374 15.001 8.44653 12.6686 8.44653C10.3361 8.44653 8.44531 10.3374 8.44531 12.6698C8.44531 15.0023 10.3361 16.8931 12.6686 16.8931Z" stroke="black" stroke-width="2.11164" stroke-linecap="round" stroke-linejoin="round"/>
<path d="M12.6686 16.8931C15.001 16.8931 16.8919 15.0023 16.8919 12.6698C16.8919 10.3374 15.001 8.44653 12.6686 8.44653C10.3361 8.44653 8.44531 10.3374 8.44531 12.6698C8.44531 15.0023 10.3361 16.8931 12.6686 16.8931Z" stroke="url(#paint1_linear_46_502)" stroke-width="2.11164" stroke-linecap="round" stroke-linejoin="round"/>
<defs>
<linearGradient id="paint0_linear_46_502" x1="0.581871" y1="9.72768" x2="61.5713" y2="19.6143" gradientUnits="userSpaceOnUse">
<stop offset="1"/>
</linearGradient>
<linearGradient id="paint1_linear_46_502" x1="7.29594" y1="11.4927" x2="34.2409" y2="16.3449" gradientUnits="userSpaceOnUse">
<stop offset="1"/>
</linearGradient>
</defs>
</svg>
