<svg width="21" height="21" viewBox="0 0 21 21" fill="none" xmlns="http://www.w3.org/2000/svg">
<circle cx="10.4949" cy="10.4949" r="9.69492" stroke="black" stroke-width="1.6"/>
<g clip-path="url(#clip0_1719_11401)">
<path d="M14.2561 7.58926C14.0969 7.13745 13.8061 6.74363 13.4211 6.45849C13.0362 6.17334 12.5747 6.00992 12.0961 5.98926H8.89609C8.25957 5.98926 7.64912 6.24211 7.19904 6.6922C6.74895 7.14229 6.49609 7.75274 6.49609 8.38926C6.49609 9.02578 6.74895 9.63623 7.19904 10.0863C7.64912 10.5364 8.25957 10.7893 8.89609 10.7893H12.0961C12.7326 10.7893 13.3431 11.0421 13.7932 11.4922C14.2432 11.9423 14.4961 12.5527 14.4961 13.1893C14.4961 13.8258 14.2432 14.4362 13.7932 14.8863C13.3431 15.3364 12.7326 15.5893 12.0961 15.5893H8.89609C8.41749 15.5686 7.95602 15.4052 7.57108 15.12C7.18613 14.8349 6.89533 14.4411 6.73609 13.9893" stroke="black" stroke-width="1.6" stroke-linecap="round" stroke-linejoin="round"/>
<path d="M10.4961 3.58984V5.98984M10.4961 15.5898V17.9898" stroke="black" stroke-width="1.6" stroke-linecap="round" stroke-linejoin="round"/>
</g>
<defs>
<clipPath id="clip0_1719_11401">
<rect width="19.2" height="19.2" fill="white" transform="translate(0.896484 1.18945)"/>
</clipPath>
</defs>
</svg>
