<svg width="27" height="22" viewBox="0 0 27 22" fill="none" xmlns="http://www.w3.org/2000/svg">
<path d="M25.6641 9.74609V10.7461H26.6641V9.74609H25.6641ZM1 9.74609H0V10.7461H1V9.74609ZM1 1V0H0V1H1ZM25.6641 1H26.6641V0H25.6641V1ZM4.82227 4.07129V3.07129H4.82193L4.82227 4.07129ZM3.52148 5.37305L2.52148 5.37301V5.37305H3.52148ZM4.82227 6.6748L4.82193 7.6748H4.82227V6.6748ZM6.12402 5.37305H7.12402V5.37301L6.12402 5.37305ZM10.3926 4.07129L10.3929 3.07129H10.3926V4.07129ZM9.09082 5.37305L8.09082 5.37301V5.37305H9.09082ZM10.3926 6.6748V7.6748H10.3929L10.3926 6.6748ZM11.6934 5.37305H12.6934V5.37301L11.6934 5.37305ZM25.6641 9.74609V8.74609H1V9.74609V10.7461H25.6641V9.74609ZM1 9.74609H2V1H1H0V9.74609H1ZM1 1V2H25.6641V1V0H1V1ZM25.6641 1H24.6641V9.74609H25.6641H26.6641V1H25.6641ZM4.82227 4.07129L4.82193 3.07129C3.55065 3.07172 2.52153 4.1028 2.52148 5.37301L3.52148 5.37305L4.52148 5.37308C4.52149 5.20603 4.65672 5.07135 4.8226 5.07129L4.82227 4.07129ZM3.52148 5.37305H2.52148C2.52148 6.64334 3.55067 7.67437 4.82193 7.6748L4.82227 6.6748L4.8226 5.6748C4.65667 5.67475 4.52148 5.54006 4.52148 5.37305H3.52148ZM4.82227 6.6748V7.6748C6.09335 7.6748 7.12402 6.64413 7.12402 5.37305H6.12402H5.12402C5.12402 5.53957 4.98878 5.6748 4.82227 5.6748V6.6748ZM6.12402 5.37305L7.12402 5.37301C7.12398 4.10201 6.09337 3.07129 4.82227 3.07129V4.07129V5.07129C4.98873 5.07129 5.12402 5.20652 5.12402 5.37308L6.12402 5.37305ZM10.3926 4.07129V3.07129C9.12147 3.07129 8.09086 4.10201 8.09082 5.37301L9.09082 5.37305L10.0908 5.37308C10.0908 5.20652 10.2261 5.07129 10.3926 5.07129V4.07129ZM9.09082 5.37305H8.09082C8.09082 6.64413 9.12149 7.6748 10.3926 7.6748V6.6748V5.6748C10.2261 5.6748 10.0908 5.53957 10.0908 5.37305H9.09082ZM10.3926 6.6748L10.3929 7.6748C11.6643 7.67445 12.6934 6.64331 12.6934 5.37305H11.6934H10.6934C10.6934 5.54014 10.5582 5.67476 10.3923 5.6748L10.3926 6.6748ZM11.6934 5.37305L12.6934 5.37301C12.6933 4.10283 11.6643 3.07165 10.3929 3.07129L10.3926 4.07129L10.3923 5.07129C10.5581 5.07134 10.6934 5.20595 10.6934 5.37308L11.6934 5.37305Z" fill="black"/>
<path d="M25.6641 20.4841V21.4841H26.6641V20.4841H25.6641ZM1 20.4841H0V21.4841H1V20.4841ZM1 11.738V10.738H0V11.738H1ZM25.6641 11.738H26.6641V10.738H25.6641V11.738ZM4.82227 14.8103V13.8103H4.82193L4.82227 14.8103ZM3.52148 16.1111L2.52148 16.1109V16.1111H3.52148ZM4.82227 17.4128L4.82193 18.4128H4.82227V17.4128ZM6.12402 16.1111H7.12402V16.1109L6.12402 16.1111ZM10.3926 14.8103L10.3929 13.8103H10.3926V14.8103ZM9.09082 16.1111L8.09082 16.1109V16.1111H9.09082ZM10.3926 17.4128V18.4128H10.3929L10.3926 17.4128ZM11.6934 16.1111H12.6934V16.1109L11.6934 16.1111ZM25.6641 20.4841V19.4841H1V20.4841V21.4841H25.6641V20.4841ZM1 20.4841H2V11.738H1H0V20.4841H1ZM1 11.738V12.738H25.6641V11.738V10.738H1V11.738ZM25.6641 11.738H24.6641V20.4841H25.6641H26.6641V11.738H25.6641ZM4.82227 14.8103L4.82193 13.8103C3.55153 13.8107 2.52174 14.8401 2.52148 16.1109L3.52148 16.1111L4.52148 16.1113C4.52152 15.945 4.65598 15.8104 4.8226 15.8103L4.82227 14.8103ZM3.52148 16.1111H2.52148C2.52148 17.3814 3.55067 18.4124 4.82193 18.4128L4.82227 17.4128L4.8226 16.4128C4.65667 16.4128 4.52148 16.2781 4.52148 16.1111H3.52148ZM4.82227 17.4128V18.4128C6.09335 18.4128 7.12402 17.3822 7.12402 16.1111H6.12402H5.12402C5.12402 16.2776 4.98878 16.4128 4.82227 16.4128V17.4128ZM6.12402 16.1111L7.12402 16.1109C7.12376 14.8393 6.09249 13.8103 4.82227 13.8103V14.8103V15.8103C4.98947 15.8103 5.12399 15.9455 5.12402 16.1113L6.12402 16.1111ZM10.3926 14.8103V13.8103C9.12235 13.8103 8.09108 14.8393 8.09082 16.1109L9.09082 16.1111L10.0908 16.1113C10.0909 15.9455 10.2254 15.8103 10.3926 15.8103V14.8103ZM9.09082 16.1111H8.09082C8.09082 17.3822 9.12149 18.4128 10.3926 18.4128V17.4128V16.4128C10.2261 16.4128 10.0908 16.2776 10.0908 16.1111H9.09082ZM10.3926 17.4128L10.3929 18.4128C11.6643 18.4125 12.6934 17.3814 12.6934 16.1111H11.6934H10.6934C10.6934 16.2782 10.5582 16.4128 10.3923 16.4128L10.3926 17.4128ZM11.6934 16.1111L12.6934 16.1109C12.6931 14.8401 11.6634 13.8107 10.3929 13.8103L10.3926 14.8103L10.3923 15.8103C10.5588 15.8103 10.6933 15.9449 10.6934 16.1113L11.6934 16.1111Z" fill="black"/>
</svg>
