<svg width="44" height="44" viewBox="0 0 44 44" fill="none" xmlns="http://www.w3.org/2000/svg">
<rect width="43.5" height="43.5" fill="black"/>
<g clip-path="url(#clip0_2_2005)">
<path d="M22.1834 14.385C21.988 14.2959 21.7757 14.2498 21.5609 14.2498C21.3461 14.2498 21.1338 14.2959 20.9384 14.385L14.5109 17.31C14.3778 17.3687 14.2646 17.4648 14.1852 17.5867C14.1058 17.7085 14.0635 17.8508 14.0635 17.9963C14.0635 18.1417 14.1058 18.284 14.1852 18.4059C14.2646 18.5277 14.3778 18.6238 14.5109 18.6825L20.9459 21.615C21.1413 21.7042 21.3536 21.7503 21.5684 21.7503C21.7832 21.7503 21.9955 21.7042 22.1909 21.615L28.6259 18.69C28.759 18.6313 28.8721 18.5352 28.9516 18.4134C29.031 18.2915 29.0733 18.1492 29.0733 18.0038C29.0733 17.8583 29.031 17.716 28.9516 17.5942C28.8721 17.4723 28.759 17.3762 28.6259 17.3175L22.1834 14.385Z" stroke="black" stroke-width="1.5" stroke-linecap="round" stroke-linejoin="round"/>
<path d="M22.1834 14.385C21.988 14.2959 21.7757 14.2498 21.5609 14.2498C21.3461 14.2498 21.1338 14.2959 20.9384 14.385L14.5109 17.31C14.3778 17.3687 14.2646 17.4648 14.1852 17.5867C14.1058 17.7085 14.0635 17.8508 14.0635 17.9963C14.0635 18.1417 14.1058 18.284 14.1852 18.4059C14.2646 18.5277 14.3778 18.6238 14.5109 18.6825L20.9459 21.615C21.1413 21.7042 21.3536 21.7503 21.5684 21.7503C21.7832 21.7503 21.9955 21.7042 22.1909 21.615L28.6259 18.69C28.759 18.6313 28.8721 18.5352 28.9516 18.4134C29.031 18.2915 29.0733 18.1492 29.0733 18.0038C29.0733 17.8583 29.031 17.716 28.9516 17.5942C28.8721 17.4723 28.759 17.3762 28.6259 17.3175L22.1834 14.385Z" stroke="url(#paint0_linear_2_2005)" stroke-width="1.5" stroke-linecap="round" stroke-linejoin="round"/>
<path d="M14.0605 21.75C14.0602 21.8935 14.101 22.034 14.1781 22.155C14.2552 22.2759 14.3654 22.3723 14.4955 22.4325L20.9455 25.365C21.14 25.453 21.3509 25.4986 21.5643 25.4986C21.7777 25.4986 21.9886 25.453 22.183 25.365L28.618 22.44C28.7508 22.3803 28.8633 22.2833 28.9419 22.1608C29.0205 22.0383 29.0617 21.8955 29.0605 21.75" stroke="black" stroke-width="1.5" stroke-linecap="round" stroke-linejoin="round"/>
<path d="M14.0605 21.75C14.0602 21.8935 14.101 22.034 14.1781 22.155C14.2552 22.2759 14.3654 22.3723 14.4955 22.4325L20.9455 25.365C21.14 25.453 21.3509 25.4986 21.5643 25.4986C21.7777 25.4986 21.9886 25.453 22.183 25.365L28.618 22.44C28.7508 22.3803 28.8633 22.2833 28.9419 22.1608C29.0205 22.0383 29.0617 21.8955 29.0605 21.75" stroke="url(#paint1_linear_2_2005)" stroke-width="1.5" stroke-linecap="round" stroke-linejoin="round"/>
<path d="M14.0605 25.5C14.0602 25.6435 14.101 25.784 14.1781 25.905C14.2552 26.0259 14.3654 26.1223 14.4955 26.1825L20.9455 29.115C21.14 29.203 21.3509 29.2486 21.5643 29.2486C21.7777 29.2486 21.9886 29.203 22.183 29.115L28.618 26.19C28.7508 26.1303 28.8633 26.0333 28.9419 25.9108C29.0205 25.7883 29.0617 25.6455 29.0605 25.5" stroke="black" stroke-width="1.5" stroke-linecap="round" stroke-linejoin="round"/>
<path d="M14.0605 25.5C14.0602 25.6435 14.101 25.784 14.1781 25.905C14.2552 26.0259 14.3654 26.1223 14.4955 26.1825L20.9455 29.115C21.14 29.203 21.3509 29.2486 21.5643 29.2486C21.7777 29.2486 21.9886 29.203 22.183 29.115L28.618 26.19C28.7508 26.1303 28.8633 26.0333 28.9419 25.9108C29.0205 25.7883 29.0617 25.6455 29.0605 25.5" stroke="url(#paint2_linear_2_2005)" stroke-width="1.5" stroke-linecap="round" stroke-linejoin="round"/>
</g>
<defs>
<linearGradient id="paint0_linear_2_2005" x1="12.021" y1="16.9548" x2="55.7739" y2="32.722" gradientUnits="userSpaceOnUse">
<stop stop-color="white"/>
<stop offset="0.665377" stop-color="#7E7E7E"/>
<stop offset="1"/>
</linearGradient>
<linearGradient id="paint1_linear_2_2005" x1="12.0194" y1="23.1019" x2="44.537" y2="46.534" gradientUnits="userSpaceOnUse">
<stop stop-color="white"/>
<stop offset="0.665377" stop-color="#7E7E7E"/>
<stop offset="1"/>
</linearGradient>
<linearGradient id="paint2_linear_2_2005" x1="12.0194" y1="26.8519" x2="44.537" y2="50.284" gradientUnits="userSpaceOnUse">
<stop stop-color="white"/>
<stop offset="0.665377" stop-color="#7E7E7E"/>
<stop offset="1"/>
</linearGradient>
<clipPath id="clip0_2_2005">
<rect width="18" height="18" fill="white" transform="translate(12.5596 12.75)"/>
</clipPath>
</defs>
</svg>
