<svg width="20" height="20" viewBox="0 0 20 20" fill="none" xmlns="http://www.w3.org/2000/svg">
<g clip-path="url(#clip0_553_738)">
<path d="M11.2493 6.66663H9.16602V9.16663H11.2493C11.5809 9.16663 11.8988 9.03493 12.1332 8.80051C12.3677 8.56609 12.4993 8.24815 12.4993 7.91663C12.4993 7.58511 12.3677 7.26716 12.1332 7.03274C11.8988 6.79832 11.5809 6.66663 11.2493 6.66663Z" fill="white"/>
<path d="M11.2493 10.8334H9.16602V13.3334H11.2493C11.5809 13.3334 11.8988 13.2017 12.1332 12.9673C12.3677 12.7328 12.4993 12.4149 12.4993 12.0834C12.4993 11.7519 12.3677 11.4339 12.1332 11.1995C11.8988 10.9651 11.5809 10.8334 11.2493 10.8334Z" fill="white"/>
<path d="M10 0C8.02219 0 6.08879 0.58649 4.4443 1.6853C2.79981 2.78412 1.51809 4.3459 0.761209 6.17317C0.00433284 8.00043 -0.193701 10.0111 0.192152 11.9509C0.578004 13.8907 1.53041 15.6725 2.92894 17.0711C4.32746 18.4696 6.10929 19.422 8.0491 19.8079C9.98891 20.1937 11.9996 19.9957 13.8268 19.2388C15.6541 18.4819 17.2159 17.2002 18.3147 15.5557C19.4135 13.9112 20 11.9778 20 10C20 7.34784 18.9464 4.8043 17.0711 2.92893C15.1957 1.05357 12.6522 0 10 0ZM14.1667 12.0833C14.1667 12.8569 13.8594 13.5987 13.3124 14.1457C12.7654 14.6927 12.0236 15 11.25 15H10.8333V15.8333C10.8333 16.0543 10.7455 16.2663 10.5893 16.4226C10.433 16.5789 10.221 16.6667 10 16.6667C9.77899 16.6667 9.56703 16.5789 9.41075 16.4226C9.25447 16.2663 9.16667 16.0543 9.16667 15.8333V15H7.08334C6.86232 15 6.65036 14.9122 6.49408 14.7559C6.3378 14.5996 6.25 14.3877 6.25 14.1667C6.25 13.9457 6.3378 13.7337 6.49408 13.5774C6.65036 13.4211 6.86232 13.3333 7.08334 13.3333H7.5V6.66667H7.08334C6.86232 6.66667 6.65036 6.57887 6.49408 6.42259C6.3378 6.26631 6.25 6.05435 6.25 5.83333C6.25 5.61232 6.3378 5.40036 6.49408 5.24408C6.65036 5.0878 6.86232 5 7.08334 5H9.16667V4.16667C9.16667 3.94565 9.25447 3.73369 9.41075 3.57741C9.56703 3.42113 9.77899 3.33333 10 3.33333C10.221 3.33333 10.433 3.42113 10.5893 3.57741C10.7455 3.73369 10.8333 3.94565 10.8333 4.16667V5H11.25C11.833 4.99152 12.4051 5.15797 12.8926 5.47785C13.3801 5.79773 13.7605 6.25637 13.9847 6.79456C14.209 7.33276 14.2668 7.92582 14.1507 8.49719C14.0346 9.06856 13.7499 9.59201 13.3333 10C13.6033 10.2748 13.816 10.6004 13.959 10.9581C14.1021 11.3157 14.1727 11.6982 14.1667 12.0833Z" fill="white"/>
</g>
<defs>
<clipPath id="clip0_553_738">
<rect width="20" height="20" fill="white"/>
</clipPath>
</defs>
</svg>
