<svg width="682" height="243" viewBox="0 0 682 243" fill="none" xmlns="http://www.w3.org/2000/svg">
<path d="M52 26H185" stroke="black" stroke-dasharray="4 4"/>
<path d="M223 26C223 26 278 19 278 52C278 85 356 85 356 85" stroke="black" stroke-dasharray="4 4"/>
<path d="M223 144C223 144 278 151 278 118C278 85 356 85 356 85" stroke="black" stroke-dasharray="4 4"/>
<circle cx="203.857" cy="25.8571" r="18.1071" fill="#00C38F" stroke="url(#paint0_linear_553_868)" stroke-width="1.5"/>
<path fill-rule="evenodd" clip-rule="evenodd" d="M205.485 26.3151C205.394 26.3225 204.925 26.353 203.877 26.353C203.043 26.353 202.452 26.3258 202.244 26.3151C199.023 26.1613 196.62 25.5527 196.62 24.8239C196.62 24.0952 199.023 23.4874 202.244 23.3311V25.7089C202.455 25.7254 203.058 25.7641 203.891 25.7641C204.891 25.7641 205.392 25.7188 205.482 25.7098V23.3328C208.696 23.4882 211.095 24.0969 211.095 24.8239C211.095 25.551 208.697 26.1597 205.482 26.3143L205.485 26.3151ZM205.485 23.0868V20.959H209.97V17.7143H197.759V20.959H202.243V23.086C198.598 23.2678 195.857 24.0516 195.857 24.9909C195.857 25.9302 198.598 26.7132 202.243 26.8958V33.7143H205.484V26.8933C209.121 26.7116 211.857 25.9286 211.857 24.9901C211.857 24.0516 209.123 23.2686 205.484 23.086L205.485 23.0868Z" fill="white"/>
<path d="M52 84H185" stroke="black" stroke-dasharray="4 4"/>
<path d="M446 84H636" stroke="black" stroke-dasharray="4 4"/>
<circle cx="653" cy="84" r="28.25" fill="#FF9500" stroke="url(#paint1_linear_553_868)" stroke-width="1.5"/>
<path fill-rule="evenodd" clip-rule="evenodd" d="M651.206 75.4698C651.206 74.6809 650.567 74.0413 649.778 74.0413C648.989 74.0413 648.349 74.6809 648.349 75.4698V76.3327C648.155 76.4426 647.974 76.579 647.814 76.7397C647.346 77.2069 647.084 77.8407 647.084 78.5015V89.1183C647.084 89.779 647.346 90.4127 647.814 90.88C647.974 91.0407 648.155 91.1772 648.349 91.287V92.5304C648.349 93.3194 648.989 93.959 649.778 93.959C650.567 93.959 651.206 93.3194 651.206 92.5304V91.6099H652.662V92.5304C652.662 93.3194 653.301 93.959 654.09 93.959C654.879 93.959 655.519 93.3194 655.519 92.5304V91.3796C656.255 91.145 656.932 90.7369 657.488 90.1804C658.403 89.2653 658.918 88.0241 658.918 86.7298C658.918 85.4355 658.403 84.1943 657.488 83.2791C657.418 83.2089 657.346 83.141 657.272 83.0755C657.878 82.317 658.216 81.3741 658.225 80.3958C658.234 79.2908 657.824 78.2234 657.076 77.4097C656.639 76.9343 656.106 76.5663 655.519 76.3259V75.4698C655.519 74.6809 654.879 74.0413 654.09 74.0413C653.301 74.0413 652.662 74.6809 652.662 75.4698V76.0099H651.206V75.4698ZM649.941 84.7072V88.7527H654.037C654.574 88.7527 655.088 88.5396 655.468 88.1602C655.847 87.7808 656.06 87.2663 656.06 86.7298C656.06 86.1933 655.847 85.6788 655.468 85.2994C655.096 84.9271 654.593 84.7149 654.067 84.7072H649.941ZM653.987 81.85H649.941V78.867H654.027C654.389 78.9053 654.726 79.0743 654.973 79.3431C655.23 79.6229 655.371 79.9901 655.367 80.3701C655.364 80.7502 655.216 81.1148 654.954 81.3899C654.699 81.6575 654.355 81.8211 653.987 81.85Z" fill="white"/>
<path d="M223 84H356" stroke="black" stroke-dasharray="4 4"/>
<circle cx="203.857" cy="83.8571" r="18.1071" fill="#008FA6" stroke="url(#paint2_linear_553_868)" stroke-width="1.5"/>
<path fill-rule="evenodd" clip-rule="evenodd" d="M205.001 77.1429C205.001 76.5117 204.489 76 203.858 76C203.227 76 202.715 76.5117 202.715 77.1429V77.7143H202.07C200.217 77.7143 198.715 79.2163 198.715 81.069C198.715 82.6509 199.82 84.0178 201.367 84.3493L202.715 84.6382V88H202.143C201.612 88 201.163 87.6369 201.037 87.1437C200.879 86.5324 200.256 86.1645 199.645 86.3218C199.034 86.4791 198.666 87.1022 198.823 87.7135C199.203 89.192 200.544 90.2857 202.143 90.2857H202.715V90.8571C202.715 91.4883 203.227 92 203.858 92C204.489 92 205.001 91.4883 205.001 90.8571V90.2857H205.33C207.357 90.2857 209.001 88.6423 209.001 86.615C209.001 84.8841 207.791 83.3884 206.099 83.0257L205.001 82.7904V80C205.813 80 206.495 80.5659 206.671 81.3261C206.813 81.9411 207.427 82.3246 208.042 82.1826C208.657 82.0406 209.04 81.427 208.898 80.812C208.489 79.0378 206.9 77.7143 205.001 77.7143V77.1429ZM202.715 80H202.07C201.479 80 201.001 80.4786 201.001 81.069C201.001 81.5731 201.353 82.0087 201.846 82.1143L202.715 82.3006V80ZM205.001 85.128V88H205.33C206.095 88 206.715 87.3799 206.715 86.615C206.715 85.9619 206.259 85.3976 205.62 85.2607L205.001 85.128Z" fill="white"/>
<path d="M52 142H185" stroke="black" stroke-dasharray="4 4"/>
<circle cx="203.857" cy="141.857" r="18.1071" fill="#00C38F" stroke="url(#paint3_linear_553_868)" stroke-width="1.5"/>
<path fill-rule="evenodd" clip-rule="evenodd" d="M205.485 142.315C205.394 142.323 204.925 142.353 203.877 142.353C203.043 142.353 202.452 142.326 202.244 142.315C199.023 142.161 196.62 141.553 196.62 140.824C196.62 140.095 199.023 139.487 202.244 139.331V141.709C202.455 141.725 203.058 141.764 203.891 141.764C204.891 141.764 205.392 141.719 205.482 141.71V139.333C208.696 139.488 211.095 140.097 211.095 140.824C211.095 141.551 208.697 142.16 205.482 142.314L205.485 142.315ZM205.485 139.087V136.959H209.97V133.714H197.759V136.959H202.243V139.086C198.598 139.268 195.857 140.052 195.857 140.991C195.857 141.93 198.598 142.713 202.243 142.896V149.714H205.484V142.893C209.121 142.712 211.857 141.929 211.857 140.99C211.857 140.052 209.123 139.269 205.484 139.086L205.485 139.087Z" fill="white"/>
<circle cx="26" cy="26" r="25.25" fill="#E2E2E2" stroke="url(#paint4_linear_553_868)" stroke-width="1.5"/>
<g clip-path="url(#clip0_553_868)">
<path d="M37.8764 32.0313L33.9144 36.1706C33.8277 36.2609 33.7236 36.3326 33.6084 36.3812C33.4922 36.4303 33.3674 36.4555 33.2414 36.4554H14.4599C14.3705 36.4555 14.283 36.4301 14.2077 36.3821C14.1332 36.3347 14.0742 36.2665 14.0381 36.1859C14.0024 36.1061 13.9915 36.0175 14.0067 35.9314C14.0221 35.8449 14.0628 35.7649 14.1237 35.7016L18.0886 31.5623C18.175 31.4723 18.2788 31.4008 18.3938 31.3521C18.5095 31.3031 18.6339 31.2777 18.7596 31.2775H37.54C37.6293 31.2775 37.7169 31.3029 37.7923 31.3509C37.8667 31.3983 37.9257 31.4664 37.962 31.5469C37.9976 31.6268 38.0085 31.7155 37.9933 31.8016C37.9779 31.8881 37.9372 31.968 37.8764 32.0313ZM33.9144 23.6958C33.8277 23.6055 33.7236 23.5339 33.6084 23.4852C33.4922 23.4361 33.3674 23.4109 33.2414 23.411H14.4599C14.3705 23.4109 14.283 23.4364 14.2077 23.4844C14.1332 23.5318 14.0742 23.6 14.0381 23.6805C14.0024 23.7603 13.9915 23.849 14.0067 23.9351C14.0221 24.0216 14.0628 24.1015 14.1237 24.1648L18.0886 28.3042C18.175 28.3943 18.2788 28.4658 18.3938 28.5144C18.5092 28.5634 18.6338 28.5888 18.7596 28.589H37.54C37.6293 28.5891 37.7169 28.5636 37.7923 28.5156C37.8667 28.4682 37.9257 28.4 37.962 28.3195C37.9976 28.2397 38.0085 28.151 37.9933 28.0649C37.9778 27.9785 37.9372 27.8986 37.8764 27.8352L33.9144 23.6958ZM14.46 20.7225H33.2415C33.3675 20.7226 33.4923 20.6974 33.6085 20.6483C33.7237 20.5996 33.8278 20.528 33.9145 20.4377L37.8765 16.2983C37.9373 16.235 37.978 16.1551 37.9935 16.0686C38.0087 15.9825 37.9977 15.8938 37.9621 15.814C37.9258 15.7335 37.8668 15.6654 37.7924 15.618C37.717 15.57 37.6294 15.5445 37.5401 15.5446H18.7596C18.6339 15.5448 18.5095 15.5701 18.3938 15.6191C18.2788 15.6678 18.175 15.7393 18.0886 15.8293L14.1246 19.9687C14.0638 20.032 14.0231 20.1118 14.0077 20.1982C13.9924 20.2842 14.0033 20.3728 14.0389 20.4526C14.0749 20.5331 14.1337 20.6012 14.2081 20.6486C14.2833 20.6967 14.3707 20.7224 14.46 20.7225Z" fill="black"/>
</g>
<circle cx="26" cy="84" r="25.25" fill="#E2E2E2" stroke="url(#paint5_linear_553_868)" stroke-width="1.5"/>
<path d="M25.9441 89.97L18.5801 85.62L25.9431 96L33.3131 85.62L25.9411 89.97H25.9441ZM26.0561 72L18.6901 84.223L26.0551 88.577L33.4201 84.227L26.0561 72Z" fill="black"/>
<circle cx="26" cy="142" r="25.25" fill="#E2E2E2" stroke="url(#paint6_linear_553_868)" stroke-width="1.5"/>
<path d="M31.82 146.342L37.512 143.055C37.6601 142.969 37.783 142.846 37.8686 142.698C37.9543 142.549 37.9996 142.381 38 142.21V135.635C37.9997 135.464 37.9545 135.295 37.8689 135.147C37.7833 134.998 37.6602 134.875 37.512 134.789L31.819 131.503C31.6704 131.418 31.5019 131.373 31.3305 131.373C31.1591 131.373 30.9906 131.418 30.842 131.503L25.15 134.789C25.0016 134.875 24.8783 134.998 24.7925 135.147C24.7067 135.295 24.6614 135.464 24.661 135.635V147.382L20.67 149.686L16.678 147.382V142.772L20.67 140.468L23.303 141.988V138.896L21.158 137.658C21.0094 137.573 20.8409 137.528 20.6695 137.528C20.4981 137.528 20.3296 137.573 20.181 137.658L14.488 140.945C14.3398 141.031 14.2167 141.154 14.1311 141.303C14.0455 141.451 14.0003 141.62 14 141.791V148.364C14.0001 148.536 14.0452 148.704 14.1309 148.853C14.2165 149.001 14.3396 149.125 14.488 149.211L20.181 152.497C20.3297 152.582 20.4981 152.627 20.6695 152.627C20.8409 152.627 21.0093 152.582 21.158 152.497L26.85 149.211C26.9984 149.125 27.1217 149.002 27.2075 148.853C27.2933 148.705 27.3386 148.536 27.339 148.365V136.618L27.411 136.577L31.331 134.314L35.321 136.619V141.228L31.331 143.532L28.701 142.015V145.107L30.841 146.343C30.9898 146.429 31.1584 146.474 31.33 146.474C31.5016 146.474 31.6702 146.429 31.819 146.343L31.82 146.342Z" fill="black"/>
<g filter="url(#filter0_dddd_553_868)">
<circle cx="383" cy="80" r="64" fill="black"/>
<circle cx="383" cy="80" r="63.25" stroke="url(#paint7_linear_553_868)" stroke-width="1.5"/>
</g>
<path d="M371.293 60H386.421C391.087 60 394.869 63.7824 394.869 68.4481H371.293V60Z" fill="white"/>
<path d="M408.441 68.4531L408.441 81.0171C408.441 87.0934 403.516 92.0193 397.439 92.0193L394.865 92.0193L394.865 68.4531L408.441 68.4531Z" fill="white"/>
<path d="M394.869 100.472L379.741 100.472C375.075 100.472 371.293 96.6901 371.293 92.0243L394.869 92.0243L394.869 100.472Z" fill="white"/>
<path d="M357.721 92.0193L357.721 79.4553C357.721 73.3789 362.647 68.4531 368.723 68.4531L371.297 68.4531L371.297 92.0193L357.721 92.0193Z" fill="white"/>
<defs>
<filter id="filter0_dddd_553_868" x="291" y="10" width="184" height="233" filterUnits="userSpaceOnUse" color-interpolation-filters="sRGB">
<feFlood flood-opacity="0" result="BackgroundImageFix"/>
<feColorMatrix in="SourceAlpha" type="matrix" values="0 0 0 0 0 0 0 0 0 0 0 0 0 0 0 0 0 0 127 0" result="hardAlpha"/>
<feOffset dy="4"/>
<feGaussianBlur stdDeviation="5"/>
<feColorMatrix type="matrix" values="0 0 0 0 0 0 0 0 0 0 0 0 0 0 0 0 0 0 0.19 0"/>
<feBlend mode="normal" in2="BackgroundImageFix" result="effect1_dropShadow_553_868"/>
<feColorMatrix in="SourceAlpha" type="matrix" values="0 0 0 0 0 0 0 0 0 0 0 0 0 0 0 0 0 0 127 0" result="hardAlpha"/>
<feOffset dy="18"/>
<feGaussianBlur stdDeviation="9"/>
<feColorMatrix type="matrix" values="0 0 0 0 0 0 0 0 0 0 0 0 0 0 0 0 0 0 0.17 0"/>
<feBlend mode="normal" in2="effect1_dropShadow_553_868" result="effect2_dropShadow_553_868"/>
<feColorMatrix in="SourceAlpha" type="matrix" values="0 0 0 0 0 0 0 0 0 0 0 0 0 0 0 0 0 0 127 0" result="hardAlpha"/>
<feOffset dy="40"/>
<feGaussianBlur stdDeviation="12"/>
<feColorMatrix type="matrix" values="0 0 0 0 0 0 0 0 0 0 0 0 0 0 0 0 0 0 0.1 0"/>
<feBlend mode="normal" in2="effect2_dropShadow_553_868" result="effect3_dropShadow_553_868"/>
<feColorMatrix in="SourceAlpha" type="matrix" values="0 0 0 0 0 0 0 0 0 0 0 0 0 0 0 0 0 0 127 0" result="hardAlpha"/>
<feOffset dy="71"/>
<feGaussianBlur stdDeviation="14"/>
<feColorMatrix type="matrix" values="0 0 0 0 0 0 0 0 0 0 0 0 0 0 0 0 0 0 0.03 0"/>
<feBlend mode="normal" in2="effect3_dropShadow_553_868" result="effect4_dropShadow_553_868"/>
<feBlend mode="normal" in="SourceGraphic" in2="effect4_dropShadow_553_868" result="shape"/>
</filter>
<linearGradient id="paint0_linear_553_868" x1="203.857" y1="7" x2="203.857" y2="44.7143" gradientUnits="userSpaceOnUse">
<stop stop-color="#EAFFF9"/>
<stop offset="0.475962" stop-color="#00825F"/>
<stop offset="1" stop-color="#EAFFF9"/>
</linearGradient>
<linearGradient id="paint1_linear_553_868" x1="653" y1="55" x2="653" y2="113" gradientUnits="userSpaceOnUse">
<stop stop-color="#FFECB6"/>
<stop offset="0.475962" stop-color="#BB5100"/>
<stop offset="1" stop-color="#FFECB6"/>
</linearGradient>
<linearGradient id="paint2_linear_553_868" x1="203.857" y1="65" x2="203.857" y2="102.714" gradientUnits="userSpaceOnUse">
<stop stop-color="#EAF3FF"/>
<stop offset="0.475962" stop-color="#005360"/>
<stop offset="1" stop-color="#EAF3FF"/>
</linearGradient>
<linearGradient id="paint3_linear_553_868" x1="203.857" y1="123" x2="203.857" y2="160.714" gradientUnits="userSpaceOnUse">
<stop stop-color="#EAFFF9"/>
<stop offset="0.475962" stop-color="#00825F"/>
<stop offset="1" stop-color="#EAFFF9"/>
</linearGradient>
<linearGradient id="paint4_linear_553_868" x1="26" y1="0" x2="26" y2="52" gradientUnits="userSpaceOnUse">
<stop stop-color="white"/>
<stop offset="0.475962" stop-color="#CECECE"/>
<stop offset="1" stop-color="white"/>
</linearGradient>
<linearGradient id="paint5_linear_553_868" x1="26" y1="58" x2="26" y2="110" gradientUnits="userSpaceOnUse">
<stop stop-color="white"/>
<stop offset="0.475962" stop-color="#CECECE"/>
<stop offset="1" stop-color="white"/>
</linearGradient>
<linearGradient id="paint6_linear_553_868" x1="26" y1="116" x2="26" y2="168" gradientUnits="userSpaceOnUse">
<stop stop-color="white"/>
<stop offset="0.475962" stop-color="#CECECE"/>
<stop offset="1" stop-color="white"/>
</linearGradient>
<linearGradient id="paint7_linear_553_868" x1="383" y1="16" x2="383" y2="144" gradientUnits="userSpaceOnUse">
<stop stop-color="white"/>
<stop offset="0.475962" stop-color="#CECECE"/>
<stop offset="1" stop-color="white"/>
</linearGradient>
<clipPath id="clip0_553_868">
<rect width="24" height="24" fill="white" transform="translate(14 14)"/>
</clipPath>
</defs>
</svg>
