<svg width="19" height="19" viewBox="0 0 19 19" fill="none" xmlns="http://www.w3.org/2000/svg">
<path fill-rule="evenodd" clip-rule="evenodd" d="M10.6387 0.413257C11.0794 0.634414 11.2574 1.17099 11.0362 1.61171C10.8151 2.05246 10.2785 2.23046 9.83779 2.0093L9.47559 1.82757C9.3447 1.77186 9.18516 1.77176 9.05418 1.82729L8.73565 1.98799C8.29539 2.21009 7.75843 2.03324 7.53633 1.59299C7.31422 1.15271 7.49108 0.615771 7.93133 0.393663L8.26955 0.223039C8.27997 0.217771 8.29052 0.21271 8.30116 0.207857C8.90876 -0.0692857 9.62036 -0.0692857 10.2279 0.207857C10.238 0.212444 10.248 0.217217 10.2578 0.222173L10.6387 0.413257ZM2.88073 3.94171C3.10283 4.38197 2.92599 4.91891 2.48573 5.14103L2.41256 5.17794L2.48573 5.21484C2.92599 5.43696 3.10283 5.9739 2.88073 6.41417C2.65863 6.85443 2.12168 7.03127 1.68142 6.80917L0.699446 6.31377C0.270689 6.09747 0.000270191 5.65817 0.000270191 5.17794C0.000270191 4.69771 0.270689 4.2584 0.699446 4.0421L1.68142 3.54671C2.12168 3.3246 2.65863 3.50146 2.88073 3.94171ZM5.10475 6.53613C4.66449 6.31401 4.12753 6.49087 3.90543 6.93113C3.68333 7.37139 3.86018 7.90834 4.30043 8.13044L5.49089 8.73101C5.93115 8.95311 6.46809 8.77627 6.6902 8.336C6.9123 7.89574 6.73546 7.3588 6.2952 7.13669L5.10475 6.53613ZM11.0362 8.7442C11.2574 9.18493 11.0794 9.7215 10.6387 9.94266L10.2578 10.1337C10.248 10.1387 10.238 10.1435 10.2279 10.1481C9.62036 10.4252 8.90876 10.4252 8.30116 10.1481C8.29052 10.1432 8.27997 10.1381 8.26955 10.1329L7.93133 9.96226C7.49108 9.74014 7.31422 9.20319 7.53633 8.76293C7.75843 8.32267 8.29539 8.14583 8.73565 8.36793L9.05418 8.52863C9.18516 8.58414 9.3447 8.58406 9.47559 8.52834L9.83779 8.3466C10.2785 8.12546 10.8151 8.30346 11.0362 8.7442ZM0.0959687 8.7593C0.318074 8.31904 0.855033 8.1422 1.29529 8.3643L2.48573 8.96487C2.92599 9.18697 3.10283 9.72393 2.88073 10.1642C2.65863 10.6044 2.12168 10.7813 1.68142 10.5592L0.49097 9.95861C0.0507116 9.73651 -0.126137 9.19956 0.0959687 8.7593ZM3.90543 10.6811C4.12753 10.2409 4.66449 10.064 5.10475 10.2861L6.2952 10.8867C6.73546 11.1088 6.9123 11.6458 6.6902 12.086C6.46809 12.5263 5.93115 12.7031 5.49089 12.481L4.30043 11.8804C3.86018 11.6583 3.68333 11.1214 3.90543 10.6811ZM10.6387 13.6927C11.0794 13.4714 11.2574 12.9349 11.0362 12.4942C10.8151 12.0535 10.2785 11.8754 9.83779 12.0966L9.47559 12.2783C9.3447 12.3341 9.18516 12.3341 9.05418 12.2786L8.73565 12.1179C8.29539 11.8958 7.75843 12.0727 7.53633 12.5129C7.31422 12.9532 7.49108 13.4901 7.93133 13.7123L8.26955 13.8829C8.27997 13.8881 8.29052 13.8931 8.30116 13.898C8.90876 14.1751 9.62036 14.1751 10.2279 13.898C10.238 13.8934 10.248 13.8887 10.2578 13.8837L10.6387 13.6927ZM1.8127 12.1484L9.20408 15.8724C9.23308 15.8846 9.2606 15.8896 9.28599 15.8896C9.31136 15.8896 9.3389 15.8846 9.36789 15.8724L16.7593 12.1484C17.3758 11.8378 18.1274 12.0858 18.438 12.7023C18.7487 13.3188 18.5007 14.0704 17.8841 14.381L10.4703 18.1164C10.4598 18.1217 10.4492 18.1269 10.4385 18.1319C10.0784 18.3007 9.6858 18.3896 9.28599 18.3896C8.88616 18.3896 8.49355 18.3007 8.13348 18.1319C8.12279 18.1269 8.11217 18.1217 8.10165 18.1164L0.687836 14.381C0.0713102 14.0704 -0.176671 13.3188 0.133952 12.7023C0.444576 12.0858 1.19618 11.8378 1.8127 12.1484ZM17.2767 8.3643C17.717 8.1422 18.2538 8.31904 18.476 8.7593C18.6981 9.19956 18.5213 9.73651 18.081 9.95861L16.8905 10.5592C16.4503 10.7813 15.9134 10.6044 15.6913 10.1642C15.4691 9.72393 15.646 9.18697 16.0863 8.96487L17.2767 8.3643ZM13.4672 10.2861C13.9075 10.064 14.4444 10.2409 14.6665 10.6811C14.8887 11.1214 14.7118 11.6583 14.2715 11.8804L13.0811 12.481C12.6408 12.7031 12.1039 12.5263 11.8818 12.086C11.6597 11.6458 11.8365 11.1088 12.2768 10.8867L13.4672 10.2861ZM3.90543 3.42479C4.12753 3.86504 4.66449 4.0419 5.10475 3.81979L6.2952 3.21923C6.73546 2.99711 6.9123 2.46017 6.6902 2.0199C6.46809 1.57964 5.93115 1.4028 5.49089 1.6249L4.30043 2.22547C3.86018 2.44757 3.68333 2.98453 3.90543 3.42479ZM13.4672 6.53613C13.9075 6.31401 14.4444 6.49087 14.6665 6.93113C14.8887 7.37139 14.7118 7.90834 14.2715 8.13044L13.0811 8.73101C12.6408 8.95311 12.1039 8.77627 11.8818 8.336C11.6597 7.89574 11.8365 7.3588 12.2768 7.13669L13.4672 6.53613ZM15.6913 3.94171C15.4691 4.38197 15.646 4.91891 16.0863 5.14103L16.1594 5.17794L16.0863 5.21484C15.646 5.43696 15.4691 5.9739 15.6913 6.41417C15.9134 6.85443 16.4503 7.03127 16.8905 6.80917L17.8725 6.31377C18.3013 6.09747 18.5717 5.65817 18.5717 5.17794C18.5717 4.69771 18.3013 4.2584 17.8725 4.0421L16.8905 3.54671C16.4503 3.3246 15.9134 3.50146 15.6913 3.94171ZM13.4672 3.81979C13.9075 4.0419 14.4444 3.86504 14.6665 3.42479C14.8887 2.98453 14.7118 2.44757 14.2715 2.22547L13.0811 1.6249C12.6408 1.4028 12.1039 1.57964 11.8818 2.0199C11.6597 2.46017 11.8365 2.99711 12.2768 3.21923L13.4672 3.81979Z" fill="white"/>
</svg>
