<svg width="20" height="20" viewBox="0 0 20 20" fill="none" xmlns="http://www.w3.org/2000/svg">
<g clip-path="url(#clip0_130_57)">
<path fill-rule="evenodd" clip-rule="evenodd" d="M19.4643 9.99993C19.4643 10.493 19.0646 10.8928 18.5715 10.8928H14.2858C11.4257 10.8928 9.10719 8.57426 9.10719 5.71422V3.58404L7.77425 4.91699C7.42557 5.26567 6.86025 5.26567 6.51157 4.91699C6.16288 4.5683 6.16288 4.00299 6.51157 3.6543L9.36835 0.797512C9.45395 0.711915 9.55298 0.646962 9.65828 0.603393C9.76355 0.559739 9.87899 0.535645 10.0001 0.535645C10.1211 0.535645 10.2366 0.559739 10.3418 0.603393C10.4471 0.646965 10.5458 0.711552 10.6314 0.797156L13.4885 3.6543C13.8372 4.00299 13.8372 4.5683 13.4885 4.91699C13.1399 5.26567 12.5745 5.26567 12.2259 4.91699L10.8929 3.58404V5.71422C10.8929 7.58804 12.4119 9.10707 14.2858 9.10707H18.5715C19.0646 9.10707 19.4643 9.50682 19.4643 9.99993ZM6.51157 16.3455L9.36871 19.2026C9.71739 19.5514 10.2827 19.5514 10.6314 19.2026L13.4885 16.3455C13.8372 15.9969 13.8372 15.4315 13.4885 15.0829C13.1399 14.7342 12.5745 14.7342 12.2259 15.0829L10.8929 16.4158V14.2856C10.8929 11.4256 8.57438 9.10707 5.71434 9.10707H1.42862C0.935512 9.10707 0.535767 9.50682 0.535767 9.99993C0.535767 10.493 0.935512 10.8928 1.42862 10.8928H5.71434C7.58817 10.8928 9.10719 12.4118 9.10719 14.2856V16.4158L7.77425 15.0829C7.42557 14.7342 6.86025 14.7342 6.51157 15.0829C6.16288 15.4315 6.16288 15.9969 6.51157 16.3455Z" fill="white"/>
</g>
<defs>
<clipPath id="clip0_130_57">
<rect width="20" height="20" fill="white"/>
</clipPath>
</defs>
</svg>
