<svg width="448" height="448" viewBox="0 0 448 448" fill="none" xmlns="http://www.w3.org/2000/svg">
<circle cx="224" cy="224" r="223.5" stroke="black" stroke-dasharray="4 4"/>
<circle cx="53" cy="80" r="25.25" fill="#E2E2E2" stroke="url(#paint0_linear_601_306)" stroke-width="1.5"/>
<path d="M52.9441 85.97L45.5801 81.62L52.9431 92L60.3131 81.62L52.9411 85.97H52.9441ZM53.0561 68L45.6901 80.223L53.0551 84.577L60.4201 80.227L53.0561 68Z" fill="black"/>
<circle cx="395" cy="80" r="25.25" fill="#E2E2E2" stroke="url(#paint1_linear_601_306)" stroke-width="1.5"/>
<g clip-path="url(#clip0_601_306)">
<path d="M406.876 86.0313L402.914 90.1706C402.828 90.2608 402.724 90.3325 402.608 90.3812C402.492 90.4302 402.367 90.4555 402.241 90.4554H383.46C383.371 90.4554 383.283 90.43 383.208 90.3821C383.133 90.3347 383.074 90.2664 383.038 90.1859C383.002 90.1061 382.991 90.0174 383.007 89.9314C383.022 89.8449 383.063 89.7649 383.124 89.7016L387.089 85.5623C387.175 85.4722 387.279 85.4007 387.394 85.3521C387.509 85.303 387.634 85.2776 387.76 85.2775H406.54C406.629 85.2774 406.717 85.3029 406.792 85.3509C406.867 85.3983 406.926 85.4664 406.962 85.5469C406.998 85.6267 407.008 85.7154 406.993 85.8016C406.978 85.888 406.937 85.9679 406.876 86.0313ZM402.914 77.6958C402.828 77.6055 402.724 77.5338 402.608 77.4852C402.492 77.4361 402.367 77.4109 402.241 77.411H383.46C383.371 77.4109 383.283 77.4364 383.208 77.4844C383.133 77.5317 383.074 77.5999 383.038 77.6805C383.002 77.7603 382.991 77.849 383.007 77.9351C383.022 78.0215 383.063 78.1014 383.124 78.1648L387.089 82.3042C387.175 82.3942 387.279 82.4657 387.394 82.5144C387.509 82.5634 387.634 82.5888 387.76 82.589H406.54C406.629 82.589 406.717 82.5636 406.792 82.5156C406.867 82.4681 406.926 82.4 406.962 82.3195C406.998 82.2396 407.008 82.1509 406.993 82.0649C406.978 81.9784 406.937 81.8985 406.876 81.8352L402.914 77.6958ZM383.46 74.7225H402.241C402.368 74.7226 402.492 74.6973 402.608 74.6483C402.724 74.5996 402.828 74.5279 402.914 74.4377L406.876 70.2983C406.937 70.2349 406.978 70.155 406.993 70.0686C407.009 69.9825 406.998 69.8938 406.962 69.814C406.926 69.7335 406.867 69.6654 406.792 69.618C406.717 69.5699 406.629 69.5445 406.54 69.5446H387.76C387.634 69.5447 387.51 69.57 387.394 69.6191C387.279 69.6677 387.175 69.7392 387.089 69.8293L383.125 73.9687C383.064 74.0319 383.023 74.1118 383.008 74.1982C382.992 74.2842 383.003 74.3728 383.039 74.4526C383.075 74.533 383.134 74.6012 383.208 74.6486C383.283 74.6967 383.371 74.7223 383.46 74.7225Z" fill="black"/>
</g>
<circle cx="53" cy="364" r="25.25" fill="#E2E2E2" stroke="url(#paint2_linear_601_306)" stroke-width="1.5"/>
<path d="M58.82 368.342L64.512 365.055C64.6601 364.969 64.783 364.846 64.8686 364.698C64.9543 364.549 64.9996 364.381 65 364.21V357.635C64.9997 357.464 64.9545 357.295 64.8689 357.147C64.7833 356.998 64.6602 356.875 64.512 356.789L58.819 353.503C58.6704 353.418 58.5019 353.373 58.3305 353.373C58.1591 353.373 57.9906 353.418 57.842 353.503L52.15 356.789C52.0016 356.875 51.8783 356.998 51.7925 357.147C51.7067 357.295 51.6614 357.464 51.661 357.635V369.382L47.67 371.686L43.678 369.382V364.772L47.67 362.468L50.303 363.988V360.896L48.158 359.658C48.0094 359.573 47.8409 359.528 47.6695 359.528C47.4981 359.528 47.3296 359.573 47.181 359.658L41.488 362.945C41.3398 363.031 41.2167 363.154 41.1311 363.303C41.0455 363.451 41.0003 363.62 41 363.791V370.364C41.0001 370.536 41.0452 370.704 41.1309 370.853C41.2165 371.001 41.3396 371.125 41.488 371.211L47.181 374.497C47.3297 374.582 47.4981 374.627 47.6695 374.627C47.8409 374.627 48.0093 374.582 48.158 374.497L53.85 371.211C53.9984 371.125 54.1217 371.002 54.2075 370.853C54.2933 370.705 54.3386 370.536 54.339 370.365V358.618L54.411 358.577L58.331 356.314L62.321 358.619V363.228L58.331 365.532L55.701 364.015V367.107L57.841 368.343C57.9898 368.429 58.1584 368.474 58.33 368.474C58.5016 368.474 58.6702 368.429 58.819 368.343L58.82 368.342Z" fill="black"/>
<circle cx="395" cy="364" r="25.25" fill="#E2E2E2" stroke="url(#paint3_linear_601_306)" stroke-width="1.5"/>
<g clip-path="url(#clip1_601_306)">
<path d="M407.967 360.134C406.701 358.965 404.95 357.181 403.524 355.915L403.44 355.856C403.3 355.743 403.141 355.655 402.972 355.594C399.534 354.953 383.532 351.962 383.22 352C383.132 352.012 383.049 352.044 382.975 352.093L382.895 352.156C382.796 352.256 382.721 352.377 382.675 352.51L382.654 352.565V352.865V352.911C384.456 357.927 391.569 374.359 392.969 378.215C393.054 378.477 393.214 378.975 393.513 379H393.581C393.741 379 394.425 378.097 394.425 378.097C394.425 378.097 406.642 363.281 407.878 361.703C408.038 361.509 408.179 361.3 408.3 361.079C408.331 360.906 408.316 360.728 408.258 360.562C408.2 360.397 408.099 360.249 407.967 360.134ZM397.559 361.859L402.774 357.535L405.832 360.353L397.559 361.859ZM395.534 361.577L386.557 354.219L401.082 356.898L395.534 361.577ZM396.344 363.505L405.533 362.024L395.028 374.68L396.344 363.505ZM385.337 354.953L394.783 362.969L393.416 374.688L385.337 354.953Z" fill="black"/>
</g>
<circle cx="224" cy="224" r="141.5" fill="#E2E2E2" stroke="black" stroke-dasharray="4 4"/>
<circle cx="224" cy="224" r="43.8362" fill="#FF9500" stroke="url(#paint4_linear_601_306)" stroke-width="2.32759"/>
<g clip-path="url(#clip2_601_306)">
<path fill-rule="evenodd" clip-rule="evenodd" d="M221.217 210.764C221.217 209.539 220.224 208.547 219 208.547C217.776 208.547 216.783 209.539 216.783 210.764V212.102C216.482 212.273 216.202 212.485 215.953 212.734C215.228 213.459 214.82 214.442 214.82 215.468V231.942C214.82 232.967 215.228 233.951 215.953 234.676C216.202 234.925 216.482 235.137 216.783 235.307V237.237C216.783 238.461 217.776 239.454 219 239.454C220.224 239.454 221.217 238.461 221.217 237.237V235.808H223.475V237.237C223.475 238.461 224.468 239.454 225.692 239.454C226.916 239.454 227.909 238.461 227.909 237.237V235.451C229.051 235.087 230.101 234.454 230.965 233.59C232.385 232.17 233.183 230.244 233.183 228.236C233.183 226.228 232.385 224.301 230.965 222.881C230.856 222.772 230.744 222.667 230.629 222.565C231.57 221.388 232.094 219.925 232.107 218.407C232.123 216.693 231.486 215.036 230.326 213.774C229.647 213.036 228.82 212.465 227.909 212.092V210.764C227.909 209.539 226.916 208.547 225.692 208.547C224.468 208.547 223.475 209.539 223.475 210.764V211.602H221.217V210.764ZM219.254 225.097V231.375H225.61C226.443 231.375 227.241 231.044 227.83 230.455C228.418 229.867 228.749 229.068 228.749 228.236C228.749 227.403 228.418 226.605 227.83 226.016C227.252 225.439 226.472 225.109 225.657 225.097H219.254ZM225.532 220.664H219.254V216.035H225.594C226.156 216.094 226.678 216.357 227.061 216.774C227.46 217.208 227.679 217.778 227.674 218.367C227.669 218.957 227.439 219.523 227.033 219.95C226.637 220.365 226.102 220.619 225.532 220.664Z" fill="white"/>
</g>
<defs>
<linearGradient id="paint0_linear_601_306" x1="53" y1="54" x2="53" y2="106" gradientUnits="userSpaceOnUse">
<stop stop-color="white"/>
<stop offset="0.475962" stop-color="#CECECE"/>
<stop offset="1" stop-color="white"/>
</linearGradient>
<linearGradient id="paint1_linear_601_306" x1="395" y1="54" x2="395" y2="106" gradientUnits="userSpaceOnUse">
<stop stop-color="white"/>
<stop offset="0.475962" stop-color="#CECECE"/>
<stop offset="1" stop-color="white"/>
</linearGradient>
<linearGradient id="paint2_linear_601_306" x1="53" y1="338" x2="53" y2="390" gradientUnits="userSpaceOnUse">
<stop stop-color="white"/>
<stop offset="0.475962" stop-color="#CECECE"/>
<stop offset="1" stop-color="white"/>
</linearGradient>
<linearGradient id="paint3_linear_601_306" x1="395" y1="338" x2="395" y2="390" gradientUnits="userSpaceOnUse">
<stop stop-color="white"/>
<stop offset="0.475962" stop-color="#CECECE"/>
<stop offset="1" stop-color="white"/>
</linearGradient>
<linearGradient id="paint4_linear_601_306" x1="224" y1="179" x2="224" y2="269" gradientUnits="userSpaceOnUse">
<stop stop-color="#FFECB6"/>
<stop offset="0.475962" stop-color="#BB5100"/>
<stop offset="1" stop-color="#FFECB6"/>
</linearGradient>
<clipPath id="clip0_601_306">
<rect width="24" height="24" fill="white" transform="translate(383 68)"/>
</clipPath>
<clipPath id="clip1_601_306">
<rect width="27" height="27" fill="white" transform="translate(382 352)"/>
</clipPath>
<clipPath id="clip2_601_306">
<rect width="31.0345" height="31.0345" fill="white" transform="translate(208.482 208.483)"/>
</clipPath>
</defs>
</svg>
