<svg width="16" height="16" viewBox="0 0 16 16" fill="none" xmlns="http://www.w3.org/2000/svg">
<g clip-path="url(#clip0_899_15551)">
<path fill-rule="evenodd" clip-rule="evenodd" d="M15.2711 0.202551C15.3352 0.262236 15.387 0.333974 15.4234 0.413663C15.4597 0.493352 15.4801 0.57943 15.4832 0.666976C15.4862 0.754522 15.4721 0.84182 15.4414 0.92388C15.4107 1.00594 15.3642 1.08115 15.3045 1.14522L9.88046 6.96188L15.8671 14.9086C15.9416 15.0076 15.987 15.1253 15.9982 15.2487C16.0094 15.372 15.9861 15.4961 15.9308 15.6069C15.8755 15.7177 15.7904 15.811 15.6851 15.8761C15.5797 15.9413 15.4583 15.9759 15.3345 15.9759H11.6825C11.5792 15.9759 11.4773 15.952 11.3849 15.9059C11.2924 15.8599 11.212 15.793 11.1498 15.7106L6.93645 10.1192L1.67379 15.7639C1.5532 15.8932 1.38618 15.9694 1.20946 15.9755C1.03273 15.9817 0.860792 15.9175 0.731454 15.7969C0.602117 15.6763 0.52598 15.5093 0.519791 15.3326C0.513602 15.1558 0.577869 14.9839 0.698454 14.8546L6.12245 9.03788L0.135788 1.09122C0.061379 0.992264 0.0159955 0.874545 0.00472264 0.751251C-0.00655025 0.627957 0.0167329 0.50396 0.0719631 0.393153C0.127193 0.282347 0.212188 0.189109 0.317425 0.123888C0.422661 0.0586667 0.54398 0.0240387 0.667788 0.0238841H4.32045C4.42361 0.0239353 4.52535 0.0479256 4.61767 0.0939672C4.70998 0.140009 4.79035 0.206845 4.85245 0.289217L9.06579 5.88055L14.3278 0.235884C14.3875 0.171762 14.4592 0.120032 14.5389 0.0836505C14.6186 0.047269 14.7047 0.0269496 14.7922 0.0238539C14.8798 0.0207582 14.9671 0.0349469 15.0491 0.0656088C15.1312 0.0962708 15.2071 0.142805 15.2711 0.202551ZM8.50445 7.35188C8.48566 7.33014 8.46829 7.30721 8.45246 7.28322L3.98779 1.35655H2.00445L12.0145 14.6432H13.9978L8.50445 7.35188Z" fill="white"/>
</g>
<defs>
<clipPath id="clip0_899_15551">
<rect width="16" height="16" fill="white"/>
</clipPath>
</defs>
</svg>
