<svg width="18" height="24" viewBox="0 0 18 24" fill="none" xmlns="http://www.w3.org/2000/svg">
<g clip-path="url(#clip0_1603_6980)">
<path d="M17 12L17.3536 11.6464L17.7071 12L17.3536 12.3536L17 12ZM5 12.5C4.72386 12.5 4.5 12.2761 4.5 12C4.5 11.7239 4.72386 11.5 5 11.5V12V12.5ZM13 8L13.3536 7.64645L17.3536 11.6464L17 12L16.6464 12.3536L12.6464 8.35355L13 8ZM17 12L17.3536 12.3536L13.3536 16.3536L13 16L12.6464 15.6464L16.6464 11.6464L17 12ZM17 12V12.5H5V12V11.5H17V12Z" fill="black"/>
</g>
<defs>
<clipPath id="clip0_1603_6980">
<rect width="18" height="24" fill="white"/>
</clipPath>
</defs>
</svg>
