<svg width="24" height="24" viewBox="0 0 24 24" fill="none" xmlns="http://www.w3.org/2000/svg">
<g clip-path="url(#clip0_475_3883)">
<path d="M12 0C10.4327 0 9.0624 0.8395 8.3145 2.0938L15.6835 2.0957C14.9357 0.8402 13.5676 0 12 0ZM12 2.7676C9.6308 2.7676 7.709 4.6864 7.709 7.0546H16.2871C16.2871 4.6864 14.368 2.7676 12 2.7676ZM7.0469 2.9766C4.7962 2.9766 2.9707 4.8007 2.9707 7.0508H7.0469V2.9766ZM16.9512 2.9786V7.0508L21.0234 7.0528C21.0234 4.8027 19.2 2.9786 16.9512 2.9786ZM7.0469 7.709C4.6771 7.709 2.7579 9.6314 2.7579 12C2.7579 14.368 4.6768 16.2871 7.0469 16.2871V7.709ZM16.9512 7.709V16.2871C19.3194 16.2871 21.2422 14.368 21.2422 12C21.2422 9.6314 19.3194 7.709 16.9512 7.709ZM11.9961 7.711C9.6278 7.711 7.709 9.6316 7.709 12C7.709 14.3686 9.6278 16.2871 11.996 16.2871C14.3644 16.2871 16.2852 14.3686 16.2852 12C16.2852 9.6317 14.3644 7.711 11.9961 7.711ZM2.0957 8.3145C0.8399 9.062 0 10.4327 0 12C0 13.5666 0.8398 14.9364 2.0938 15.6855L2.0957 8.3145ZM21.9043 8.3145L21.9063 15.6855C23.1595 14.9364 24 13.5666 24 12C24 10.4327 23.1598 9.0621 21.9043 8.3145ZM7.0469 16.9492L2.9727 16.9512C2.9727 19.2003 4.7949 21.0215 7.0469 21.0215V16.9492ZM16.9512 16.9492V21.0195C19.1997 21.0195 21.0234 19.2006 21.0234 16.9512L16.9512 16.9492ZM7.709 16.9512C7.709 19.3204 9.6308 21.2402 12 21.2402C14.368 21.2402 16.2871 19.3204 16.2871 16.9512H7.709ZM8.2578 21.9043C9.0061 23.1592 10.3755 24 11.9434 24C13.5106 24 14.88 23.1592 15.6289 21.9043H8.2578Z" fill="black"/>
</g>
<defs>
<clipPath id="clip0_475_3883">
<rect width="24" height="24" fill="white"/>
</clipPath>
</defs>
</svg>
