<svg width="20" height="20" viewBox="0 0 20 20" fill="none" xmlns="http://www.w3.org/2000/svg">
<g clip-path="url(#clip0_2263_605)">
<path d="M17.0167 0H2.98333C2.65326 0.00220055 2.33745 0.134867 2.10483 0.36905C1.87221 0.603232 1.74166 0.919918 1.74166 1.25V6.46667C1.73237 9.23534 2.47865 11.9541 3.9001 14.33C5.32156 16.706 7.36431 18.6491 9.80833 19.95C9.86687 19.9828 9.93287 20.0001 10 20.0001C10.0671 20.0001 10.1331 19.9828 10.1917 19.95C12.6357 18.6491 14.6784 16.706 16.0999 14.33C17.5213 11.9541 18.2676 9.23534 18.2583 6.46667V1.25C18.2583 0.919918 18.1278 0.603232 17.8952 0.36905C17.6625 0.134867 17.3467 0.00220055 17.0167 0ZM14.9167 6.61667L8.99166 12.2C8.83798 12.3439 8.63553 12.4243 8.425 12.425C8.31532 12.4256 8.2066 12.4046 8.10507 12.3631C8.00354 12.3217 7.9112 12.2606 7.83333 12.1833L5.83333 10.1833C5.67812 10.0272 5.591 9.81599 5.591 9.59583C5.591 9.37568 5.67812 9.16447 5.83333 9.00833C5.9108 8.93023 6.00297 8.86823 6.10452 8.82592C6.20606 8.78362 6.31499 8.76184 6.425 8.76184C6.53501 8.76184 6.64393 8.78362 6.74548 8.82592C6.84703 8.86823 6.93919 8.93023 7.01666 9.00833L8.41666 10.425L13.75 5.425C13.908 5.27029 14.121 5.18469 14.3422 5.18704C14.5633 5.18938 14.7745 5.27948 14.9292 5.4375C15.0839 5.59552 15.1695 5.80854 15.1671 6.02967C15.1648 6.25081 15.0747 6.46196 14.9167 6.61667Z" fill="white"/>
</g>
<defs>
<clipPath id="clip0_2263_605">
<rect width="20" height="20" fill="white"/>
</clipPath>
</defs>
</svg>
