<svg width="20" height="20" viewBox="0 0 20 20" fill="none" xmlns="http://www.w3.org/2000/svg">
<g clip-path="url(#clip0_553_759)">
<path d="M20 1.66667C20 1.4478 19.9569 1.23107 19.8731 1.02886C19.7894 0.826652 19.6666 0.64292 19.5118 0.488155C19.3571 0.333391 19.1733 0.210625 18.9711 0.126867C18.7689 0.0431096 18.5522 0 18.3333 0L1.66667 0C1.22464 0 0.800716 0.175595 0.488155 0.488155C0.175595 0.800716 0 1.22464 0 1.66667L0 18.3333C0 18.7754 0.175595 19.1993 0.488155 19.5118C0.800716 19.8244 1.22464 20 1.66667 20H18.3333C18.7754 20 19.1993 19.8244 19.5118 19.5118C19.8244 19.1993 20 18.7754 20 18.3333V1.66667ZM18.3333 5.60833C18.3333 5.66359 18.3114 5.71658 18.2723 5.75565C18.2332 5.79472 18.1803 5.81667 18.125 5.81667H14.375C14.3197 5.81667 14.2668 5.79472 14.2277 5.75565C14.1886 5.71658 14.1667 5.66359 14.1667 5.60833V1.875C14.1667 1.81975 14.1886 1.76676 14.2277 1.72769C14.2668 1.68862 14.3197 1.66667 14.375 1.66667H17.9167C18.0272 1.66667 18.1332 1.71057 18.2113 1.78871C18.2894 1.86685 18.3333 1.97283 18.3333 2.08333V5.60833ZM14.1667 7.69167C14.1709 7.63935 14.1947 7.59055 14.2333 7.55501C14.2719 7.51948 14.3225 7.49983 14.375 7.5H18.125C18.1803 7.5 18.2332 7.52195 18.2723 7.56102C18.3114 7.60009 18.3333 7.65308 18.3333 7.70833V12.2917C18.3333 12.3469 18.3114 12.3999 18.2723 12.439C18.2332 12.4781 18.1803 12.5 18.125 12.5H14.375C14.3197 12.5 14.2668 12.4781 14.2277 12.439C14.1886 12.3999 14.1667 12.3469 14.1667 12.2917V7.69167ZM12.2917 1.66667C12.3469 1.66667 12.3999 1.68862 12.439 1.72769C12.4781 1.76676 12.5 1.81975 12.5 1.875V12.275C12.5 12.3303 12.4781 12.3832 12.439 12.4223C12.3999 12.4614 12.3469 12.4833 12.2917 12.4833H1.875C1.81975 12.4833 1.76676 12.4614 1.72769 12.4223C1.68862 12.3832 1.66667 12.3303 1.66667 12.275V2.08333C1.66667 1.97283 1.71057 1.86685 1.78871 1.78871C1.86685 1.71057 1.97283 1.66667 2.08333 1.66667H12.2917ZM12.2917 14.1667C12.3469 14.1667 12.3999 14.1886 12.439 14.2277C12.4781 14.2668 12.5 14.3197 12.5 14.375V18.1417C12.5 18.1969 12.4781 18.2499 12.439 18.289C12.3999 18.3281 12.3469 18.35 12.2917 18.35H7.70833C7.67951 18.3501 7.65099 18.3442 7.62456 18.3327C7.59813 18.3212 7.57438 18.3044 7.5548 18.2832C7.53522 18.2621 7.52024 18.2371 7.51081 18.2099C7.50137 18.1826 7.49769 18.1537 7.5 18.125V14.3583C7.5042 14.306 7.52799 14.2572 7.56661 14.2217C7.60524 14.1861 7.65585 14.1665 7.70833 14.1667H12.2917ZM1.66667 14.3583C1.67087 14.306 1.69465 14.2572 1.73328 14.2217C1.7719 14.1861 1.82252 14.1665 1.875 14.1667H5.625C5.68025 14.1667 5.73324 14.1886 5.77231 14.2277C5.81138 14.2668 5.83333 14.3197 5.83333 14.375V18.1417C5.83333 18.1969 5.81138 18.2499 5.77231 18.289C5.73324 18.3281 5.68025 18.35 5.625 18.35H2.08333C1.97283 18.35 1.86685 18.3061 1.78871 18.228C1.71057 18.1498 1.66667 18.0438 1.66667 17.9333V14.3583ZM14.375 18.3333C14.3197 18.3333 14.2668 18.3114 14.2277 18.2723C14.1886 18.2332 14.1667 18.1803 14.1667 18.125V14.3583C14.1667 14.3031 14.1886 14.2501 14.2277 14.211C14.2668 14.1719 14.3197 14.15 14.375 14.15H18.125C18.1803 14.15 18.2332 14.1719 18.2723 14.211C18.3114 14.2501 18.3333 14.3031 18.3333 14.3583V17.9167C18.3333 17.9714 18.3226 18.0256 18.3016 18.0761C18.2807 18.1267 18.25 18.1726 18.2113 18.2113C18.1726 18.25 18.1267 18.2807 18.0761 18.3016C18.0256 18.3226 17.9714 18.3333 17.9167 18.3333H14.375Z" fill="white"/>
</g>
<defs>
<clipPath id="clip0_553_759">
<rect width="20" height="20" fill="white"/>
</clipPath>
</defs>
</svg>
