<svg width="20" height="20" viewBox="0 0 20 20" fill="none" xmlns="http://www.w3.org/2000/svg">
<path d="M2.91667 16.25C2.91667 16.471 3.00447 16.6829 3.16075 16.8392C3.31703 16.9955 3.52899 17.0833 3.75 17.0833H7.08334C7.24786 17.0825 7.40845 17.033 7.54489 16.941C7.68132 16.8491 7.78749 16.7188 7.85 16.5666C7.91382 16.4149 7.93126 16.2476 7.90011 16.0859C7.86897 15.9243 7.79064 15.7755 7.675 15.6583L6.89167 14.875C6.87174 14.8563 6.85586 14.8337 6.845 14.8086C6.83414 14.7835 6.82854 14.7565 6.82854 14.7291C6.82854 14.7018 6.83414 14.6748 6.845 14.6497C6.85586 14.6246 6.87174 14.602 6.89167 14.5833L14.5833 6.89163C14.602 6.8717 14.6246 6.85581 14.6497 6.84495C14.6748 6.8341 14.7018 6.82849 14.7292 6.82849C14.7565 6.82849 14.7835 6.8341 14.8086 6.84495C14.8337 6.85581 14.8563 6.8717 14.875 6.89163L15.6583 7.67496C15.7362 7.75219 15.8286 7.8133 15.9301 7.85477C16.0316 7.89624 16.1403 7.91726 16.25 7.91663C16.471 7.91663 16.683 7.82883 16.8393 7.67255C16.9955 7.51627 17.0833 7.30431 17.0833 7.08329V3.74996C17.0833 3.52895 16.9955 3.31698 16.8393 3.1607C16.683 3.00442 16.471 2.91663 16.25 2.91663H12.9167C12.7521 2.91745 12.5916 2.96695 12.4551 3.05889C12.3187 3.15084 12.2125 3.28111 12.15 3.43329C12.0862 3.58505 12.0688 3.75231 12.0999 3.91397C12.131 4.07563 12.2094 4.22444 12.325 4.34163L13.1083 5.12496C13.1283 5.14366 13.1442 5.16625 13.155 5.19134C13.1659 5.21642 13.1715 5.24346 13.1715 5.27079C13.1715 5.29812 13.1659 5.32517 13.155 5.35025C13.1442 5.37533 13.1283 5.39792 13.1083 5.41663L5.41667 13.1083C5.39797 13.1282 5.37538 13.1441 5.35029 13.155C5.32521 13.1658 5.29817 13.1714 5.27084 13.1714C5.24351 13.1714 5.21646 13.1658 5.19138 13.155C5.1663 13.1441 5.14371 13.1282 5.125 13.1083L4.34167 12.325C4.22511 12.2074 4.07619 12.1273 3.9139 12.0947C3.75161 12.0622 3.58331 12.0787 3.43044 12.1421C3.27757 12.2056 3.14706 12.3132 3.05556 12.4511C2.96406 12.589 2.91571 12.7511 2.91667 12.9166V16.25Z" fill="white"/>
</svg>
