<svg width="20" height="18" viewBox="0 0 20 18" fill="none" xmlns="http://www.w3.org/2000/svg">
<path fill-rule="evenodd" clip-rule="evenodd" d="M19.6594 6.95047C19.9074 6.79824 20.0383 6.5108 19.9903 6.22381L19.0483 0.596372C19.0167 0.407358 18.9104 0.238986 18.7534 0.129086C18.5964 0.0192006 18.4019 -0.0229823 18.2134 0.0120149L12.8713 1.00429C12.5916 1.05624 12.3694 1.26926 12.3057 1.54654C12.2419 1.82383 12.3488 2.1125 12.5778 2.28139L14.9376 4.02199L10.8721 9.8275L7.1599 7.22507C6.96593 7.0891 6.72589 7.03577 6.49259 7.07683C6.2593 7.1179 6.05189 7.24999 5.916 7.44401L0.161572 15.6614C-0.121284 16.0653 -0.023142 16.622 0.380777 16.9049C0.784699 17.1877 1.34144 17.0896 1.6243 16.6857L6.86631 9.20007L10.5785 11.8025C10.7725 11.9385 11.0125 11.9918 11.2458 11.9507C11.4791 11.9097 11.6865 11.7776 11.8224 11.5836L16.375 5.08231L18.8617 6.91656C19.096 7.08929 19.4114 7.1027 19.6594 6.95047Z" fill="white"/>
</svg>
