<svg width="20" height="20" viewBox="0 0 20 20" fill="none" xmlns="http://www.w3.org/2000/svg">
<g clip-path="url(#clip0_553_726)">
<path d="M0.967374 6.16664L9.00071 9.65831C9.31612 9.79596 9.65656 9.86702 10.0007 9.86702C10.3449 9.86702 10.6853 9.79596 11.0007 9.65831L19.0424 6.16664C19.2673 6.06617 19.458 5.90229 19.5912 5.69508C19.7245 5.48786 19.7943 5.2463 19.7924 4.99997C19.7931 4.75601 19.7214 4.51732 19.5864 4.3141C19.4514 4.11088 19.2592 3.95226 19.034 3.85831L11.0007 0.374972C10.6853 0.237314 10.3449 0.16626 10.0007 0.16626C9.65656 0.16626 9.31612 0.237314 9.00071 0.374972L0.967374 3.87497C0.744836 3.96783 0.554398 4.12388 0.419618 4.32383C0.284837 4.52378 0.211626 4.75885 0.209041 4.99997C0.206698 5.24746 0.277391 5.49015 0.412276 5.69766C0.547161 5.90518 0.740247 6.06831 0.967374 6.16664Z" fill="white"/>
<path d="M19.0336 8.87503L18.0003 8.42503C17.8992 8.37432 17.7888 8.34473 17.6759 8.33806C17.5629 8.3314 17.4498 8.3478 17.3434 8.38626C17.237 8.42473 17.1396 8.48445 17.057 8.5618C16.9745 8.63914 16.9085 8.73249 16.8632 8.83615C16.8179 8.93981 16.7941 9.05161 16.7934 9.16474C16.7927 9.27787 16.8151 9.38996 16.8591 9.49417C16.9031 9.59839 16.9679 9.69256 17.0495 9.77093C17.1311 9.8493 17.2277 9.91024 17.3336 9.95003L17.5003 10L10.3336 13.1334C10.2285 13.1792 10.115 13.2029 10.0003 13.2029C9.8856 13.2029 9.77212 13.1792 9.66698 13.1334L2.50031 10L2.65865 9.93336C2.76455 9.89357 2.86124 9.83263 2.94283 9.75426C3.02442 9.67589 3.08919 9.58173 3.13321 9.47751C3.17723 9.37329 3.19956 9.2612 3.19885 9.14807C3.19815 9.03494 3.17441 8.92314 3.1291 8.81948C3.08378 8.71582 3.01783 8.62248 2.93527 8.54513C2.85271 8.46778 2.75527 8.40806 2.64887 8.36959C2.54248 8.33113 2.42937 8.31473 2.31644 8.32139C2.2035 8.32806 2.09311 8.35765 1.99198 8.40836L0.958647 8.85836C0.732561 8.95274 0.539449 9.1119 0.403619 9.31579C0.267789 9.51968 0.195313 9.7592 0.195312 10.0042C0.195313 10.2492 0.267789 10.4887 0.403619 10.6926C0.539449 10.8965 0.732561 11.0556 0.958647 11.15L8.99198 14.6417C9.30739 14.7794 9.64783 14.8504 9.99198 14.8504C10.3361 14.8504 10.6766 14.7794 10.992 14.6417L19.0253 11.15C19.2514 11.0541 19.4444 10.8941 19.5807 10.6897C19.7169 10.4854 19.7904 10.2456 19.792 10C19.7894 9.75891 19.7162 9.52384 19.5814 9.32389C19.4466 9.12394 19.2562 8.96789 19.0336 8.87503Z" fill="white"/>
<path d="M19.034 13.8333L18.0007 13.3833C17.9 13.3391 17.7917 13.3154 17.6818 13.3133C17.5719 13.3112 17.4627 13.3308 17.3605 13.3711C17.2583 13.4114 17.165 13.4715 17.0861 13.5479C17.0072 13.6244 16.9441 13.7157 16.9007 13.8166C16.8141 14.0189 16.8111 14.2473 16.8923 14.4518C16.9735 14.6563 17.1323 14.8204 17.334 14.9083L17.5007 15L10.334 18.0916C10.2289 18.1375 10.1154 18.1612 10.0007 18.1612C9.88594 18.1612 9.77246 18.1375 9.66732 18.0916L2.50066 15L2.65899 14.925C2.86071 14.8371 3.01949 14.673 3.10067 14.4684C3.18185 14.2639 3.17885 14.0356 3.09232 13.8333C3.04883 13.7324 2.98581 13.6411 2.90689 13.5646C2.82797 13.4881 2.73471 13.428 2.63248 13.3878C2.53024 13.3475 2.42105 13.3278 2.31118 13.3299C2.20132 13.332 2.09295 13.3558 1.99232 13.4L0.958989 13.85C0.736033 13.9484 0.54647 14.1095 0.413329 14.3137C0.280188 14.5178 0.2092 14.7562 0.208989 15C0.208303 15.2439 0.279985 15.4826 0.41497 15.6858C0.549955 15.889 0.742177 16.0477 0.967323 16.1416L9.00066 19.6416C9.31607 19.7793 9.65651 19.8503 10.0007 19.8503C10.3448 19.8503 10.6852 19.7793 11.0007 19.6416L19.034 16.1416C19.2591 16.0477 19.4514 15.889 19.5863 15.6858C19.7213 15.4826 19.793 15.2439 19.7923 15C19.7947 14.7525 19.724 14.5098 19.5891 14.3023C19.4542 14.0947 19.2611 13.9316 19.034 13.8333Z" fill="white"/>
</g>
<defs>
<clipPath id="clip0_553_726">
<rect width="20" height="20" fill="white"/>
</clipPath>
</defs>
</svg>
