<svg width="20" height="18" viewBox="0 0 20 18" fill="none" xmlns="http://www.w3.org/2000/svg">
<path fill-rule="evenodd" clip-rule="evenodd" d="M5.09563 1.5242C5.44431 1.17551 5.44431 0.610199 5.09563 0.261513C4.74694 -0.0871711 4.18163 -0.0871711 3.83294 0.261513L0.261512 3.83294C-0.0871705 4.18163 -0.0871705 4.74694 0.261512 5.09563L3.83294 8.66706C4.18163 9.01574 4.74694 9.01574 5.09563 8.66706C5.44431 8.31837 5.44431 7.75306 5.09563 7.40437L3.0484 5.35714H19.1071C19.6003 5.35714 20 4.9574 20 4.46428C20 3.97117 19.6003 3.57143 19.1071 3.57143H3.0484L5.09563 1.5242ZM16.167 8.83294C15.8184 8.48426 15.253 8.48426 14.9044 8.83294C14.5557 9.18163 14.5557 9.74694 14.9044 10.0956L16.9516 12.1429H0.892857C0.399746 12.1429 7.45058e-08 12.5426 7.45058e-08 13.0357C7.45058e-08 13.5289 0.399746 13.9286 0.892857 13.9286H16.9516L14.9044 15.9759C14.5557 16.3244 14.5557 16.8899 14.9044 17.2384C15.253 17.5871 15.8184 17.5871 16.167 17.2384L19.7384 13.667C19.906 13.4996 20 13.2726 20 13.0357C20 12.7989 19.906 12.5718 19.7384 12.4044L16.167 8.83294Z" fill="white"/>
</svg>
