<svg width="141" height="47" viewBox="0 0 141 47" fill="none" xmlns="http://www.w3.org/2000/svg">
<path d="M9.57129 10.092H20.2414C23.5323 10.092 26.2 12.7598 26.2 16.0507H9.57129V10.092Z" fill="white"/>
<path d="M35.7725 16.0542L35.7725 24.9158C35.7725 29.2016 32.2982 32.6759 28.0124 32.6759L26.1969 32.6759L26.1969 16.0542L35.7725 16.0542Z" fill="white"/>
<path d="M26.2002 38.638L15.5301 38.638C12.2392 38.638 9.57145 35.9703 9.57145 32.6794L26.2002 32.6794L26.2002 38.638Z" fill="white"/>
<path d="M0 32.6759L-3.87355e-07 23.8143C-5.74692e-07 19.5285 3.47431 16.0542 7.76008 16.0542L9.57556 16.0542L9.57556 32.6759L0 32.6759Z" fill="white"/>
<path d="M56.8417 15.0501H61.7308V34H56.8417V31.8776C55.6542 33.6463 53.7718 34.5306 51.1946 34.5306C49.1227 34.5306 47.4046 33.8358 46.0402 32.4461C44.7011 31.0564 44.0315 29.1362 44.0315 26.6853V15.0501H48.9206V26.0789C48.9206 27.3423 49.2617 28.315 49.9439 28.9972C50.6261 29.6541 51.5357 29.9826 52.6727 29.9826C53.936 29.9826 54.9467 29.591 55.7047 28.8077C56.4627 28.0245 56.8417 26.8496 56.8417 25.283V15.0501ZM77.0479 19.7496H72.7653V27.6328C72.7653 28.2898 72.9295 28.7698 73.258 29.073C73.5864 29.3762 74.0665 29.5531 74.6982 29.6036C75.3298 29.6289 76.1131 29.6162 77.0479 29.5657V34C73.6875 34.379 71.3124 34.0632 69.9228 33.0525C68.5584 32.0418 67.8762 30.2353 67.8762 27.6328V19.7496H64.5789V15.0501H67.8762V11.2222L72.7653 9.74408V15.0501H77.0479V19.7496ZM84.034 26.5337C84.6909 28.9088 86.4722 30.0963 89.3778 30.0963C91.2476 30.0963 92.6625 29.4646 93.6226 28.2013L97.5642 30.4753C95.6945 33.1788 92.9404 34.5306 89.302 34.5306C86.169 34.5306 83.655 33.5831 81.76 31.6881C79.865 29.7931 78.9175 27.4054 78.9175 24.525C78.9175 21.6699 79.8523 19.2948 81.7221 17.3999C83.5918 15.4796 85.9921 14.5195 88.923 14.5195C91.7024 14.5195 93.989 15.4796 95.7829 17.3999C97.6021 19.3201 98.5117 21.6952 98.5117 24.525C98.5117 25.1567 98.4485 25.8263 98.3222 26.5337H84.034ZM83.9582 22.7437H93.6226C93.3447 21.4551 92.7636 20.495 91.8792 19.8633C91.0202 19.2317 90.0348 18.9158 88.923 18.9158C87.6092 18.9158 86.5227 19.2569 85.6637 19.9391C84.8046 20.5961 84.2361 21.5309 83.9582 22.7437ZM118.323 34H112.676L108.583 28.2392L104.452 34H98.8048L105.741 24.3355L99.108 15.0501H104.755L108.583 20.3939L112.411 15.0501H118.02L111.388 24.2976L118.323 34ZM135.577 31.6502C133.631 33.5705 131.256 34.5306 128.451 34.5306C125.647 34.5306 123.272 33.5705 121.326 31.6502C119.406 29.7047 118.446 27.3296 118.446 24.525C118.446 21.7204 119.406 19.358 121.326 17.4378C123.272 15.4922 125.647 14.5195 128.451 14.5195C131.256 14.5195 133.631 15.4922 135.577 17.4378C137.522 19.358 138.495 21.7204 138.495 24.525C138.495 27.3296 137.522 29.7047 135.577 31.6502ZM124.775 28.2771C125.761 29.2625 126.986 29.7552 128.451 29.7552C129.917 29.7552 131.142 29.2625 132.128 28.2771C133.113 27.2917 133.606 26.041 133.606 24.525C133.606 23.009 133.113 21.7583 132.128 20.7729C131.142 19.7875 129.917 19.2948 128.451 19.2948C126.986 19.2948 125.761 19.7875 124.775 20.7729C123.815 21.7583 123.335 23.009 123.335 24.525C123.335 26.041 123.815 27.2917 124.775 28.2771Z" fill="white"/>
</svg>
