<svg width="15" height="16" viewBox="0 0 15 16" fill="none" xmlns="http://www.w3.org/2000/svg">
<path d="M0.707031 7.57051L0.353478 7.21695L-7.55787e-05 7.57051L0.353478 7.92406L0.707031 7.57051ZM13.8442 8.07051C14.1204 8.07051 14.3442 7.84665 14.3442 7.57051C14.3442 7.29436 14.1204 7.07051 13.8442 7.07051V7.57051V8.07051ZM7.92399 0.353546L7.57044 -7.27177e-06L0.353478 7.21695L0.707031 7.57051L1.06058 7.92406L8.27755 0.7071L7.92399 0.353546ZM0.707031 7.57051L0.353478 7.92406L7.57044 15.141L7.92399 14.7875L8.27755 14.4339L1.06058 7.21695L0.707031 7.57051ZM0.707031 7.57051V8.07051H13.8442V7.57051V7.07051H0.707031V7.57051Z" fill="white"/>
</svg>
