<svg width="15" height="16" viewBox="0 0 15 16" fill="none" xmlns="http://www.w3.org/2000/svg">
<path d="M14.293 7.57051L14.6465 7.21695L15.0001 7.57051L14.6465 7.92406L14.293 7.57051ZM1.15576 8.07051C0.879623 8.07051 0.655762 7.84665 0.655762 7.57051C0.655762 7.29436 0.879623 7.07051 1.15576 7.07051V7.57051V8.07051ZM7.07601 0.353546L7.42957 -7.27177e-06L14.6465 7.21695L14.293 7.57051L13.9394 7.92406L6.72245 0.7071L7.07601 0.353546ZM14.293 7.57051L14.6465 7.92406L7.42957 15.141L7.07601 14.7875L6.72245 14.4339L13.9394 7.21695L14.293 7.57051ZM14.293 7.57051V8.07051H1.15576V7.57051V7.07051H14.293V7.57051Z" fill="white"/>
</svg>
