<svg width="169" height="49" viewBox="0 0 169 49" fill="none" xmlns="http://www.w3.org/2000/svg">
<mask id="mask0_899_14245" style="mask-type:luminance" maskUnits="userSpaceOnUse" x="0" y="1" width="30" height="47">
<path d="M29.3523 1.02087H0.539062V47.9792H29.3523V1.02087Z" fill="white"/>
</mask>
<g mask="url(#mask0_899_14245)">
<path d="M29.3524 47.9802H24.4255C21.231 47.9857 18.0682 47.3574 15.1265 46.1333C12.2887 44.9555 9.71053 43.2473 7.53525 41.1033C5.35437 38.965 3.61648 36.4309 2.41801 33.6416C1.17248 30.7501 0.533423 27.6413 0.5391 24.5013C0.533815 21.3623 1.17286 18.2547 2.41801 15.3642C3.6163 12.5748 5.35421 10.0407 7.53525 7.90249C9.71067 5.7586 12.2888 4.05015 15.1265 2.8719C18.0682 1.6477 21.231 1.01955 24.4255 1.02506H29.3524V8.85069H24.4255C22.3333 8.84514 20.2608 9.24753 18.3278 10.0346C16.3949 10.8216 14.64 11.9777 13.1647 13.4359C11.6814 14.8861 10.5054 16.6111 9.70477 18.511C8.90418 20.4109 8.49489 22.4481 8.50058 24.5046C8.49496 26.561 8.90428 28.5981 9.70487 30.498C10.5055 32.398 11.6814 34.123 13.1647 35.5732C14.6401 37.0312 16.395 38.1871 18.328 38.9739C20.2609 39.7609 22.3334 40.1632 24.4255 40.1577H29.3524V47.9802Z" fill="black"/>
<path d="M29.3522 32.3385H24.1725C22.0798 32.3445 20.0067 31.9425 18.0731 31.1556C16.1394 30.3687 14.3838 29.2129 12.9076 27.7547C11.4238 26.3041 10.2474 24.5786 9.44661 22.6781C8.64579 20.7775 8.23644 18.7398 8.24225 16.6827C8.23651 14.6257 8.6459 12.588 9.44672 10.6874C10.2475 8.78692 11.4239 7.06142 12.9076 5.61076C14.3836 4.15221 16.1391 2.9959 18.0727 2.20874C20.0064 1.42158 22.0796 1.01923 24.1725 1.02496H29.3522V8.85059H24.1725C22.0599 8.85282 20.0344 9.6787 18.5405 11.147C17.0466 12.6153 16.2062 14.6062 16.2037 16.6827C16.2067 18.759 17.0473 20.7493 18.5412 22.2172C20.035 23.685 22.0602 24.5107 24.1725 24.5129H29.3522V32.3385Z" fill="black"/>
</g>
<path d="M44.8828 27.1535V20.8154C44.8828 16.3283 47.5556 13.7494 52.4926 13.7494C54.5869 13.7494 56.3241 14.3375 57.675 15.488C59.0258 16.6385 59.7147 18.3475 59.7147 20.6782V20.9586H55.4142V20.6782C55.4142 18.659 54.0086 17.7333 52.2167 17.7333C50.1766 17.7333 49.1567 18.659 49.1567 20.5102V27.4649C49.1567 29.3161 50.1766 30.2416 52.2167 30.2416C54.0633 30.2416 55.4142 29.4001 55.4142 27.2969V27.0162H59.7147V27.2969C59.7147 29.6238 59.0258 31.3624 57.675 32.5129C56.3241 33.6634 54.5869 34.2232 52.4926 34.2232C47.5556 34.2208 44.8828 31.6466 44.8828 27.1535Z" fill="black"/>
<path d="M62.1934 24.1568C62.1934 20.9315 64.4821 18.7195 68.5614 18.7195C72.6408 18.7195 74.9028 20.9352 74.9028 24.1568V28.6721C74.9028 31.8963 72.6421 34.1404 68.5614 34.1404C64.4808 34.1404 62.1934 31.8974 62.1934 28.6721V24.1568ZM70.9874 28.5312V24.3595C70.9874 23.1534 70.1054 22.3118 68.5578 22.3118C66.9311 22.3118 66.1039 23.209 66.1039 24.3595V28.5375C66.1039 29.688 66.9311 30.5568 68.5578 30.5568C70.1054 30.5505 70.9874 29.6817 70.9874 28.5312Z" fill="black"/>
<path d="M77.9629 33.8024V19.0514H81.8783V33.8024H77.9629Z" fill="black"/>
<path d="M85.5801 33.8V19.049H87.8128L88.8879 20.4231C89.4447 19.8681 90.1043 19.4311 90.8284 19.1373C91.5524 18.8435 92.3265 18.6988 93.1059 18.7116C96.2765 18.7116 98.151 20.8717 98.151 24.4615V33.8H94.2308V24.6852C94.2308 23.1145 93.4035 22.3015 92.2178 22.3015C91.1974 22.3015 90.2874 22.7785 89.4881 23.704V33.8H85.5801Z" fill="black"/>
<path d="M102.61 32.6253C101.452 31.6145 100.846 30.3255 100.818 28.7266H104.623C104.866 29.9883 105.864 30.6061 107.629 30.6061C108.814 30.6061 109.531 30.2131 109.531 29.5681C109.531 29.0355 109.117 28.671 108.262 28.446L104.705 27.5205C102.362 26.9026 101.177 25.5853 101.177 23.5388C101.177 20.5385 103.327 18.7195 107.05 18.7195C110.606 18.7195 113.002 20.7115 113.115 23.8516H109.338C109.034 22.7864 108.18 22.2537 106.801 22.2537C105.586 22.2537 104.979 22.6182 104.979 23.3188C104.979 23.7119 105.366 24.0209 106.137 24.2161L109.941 25.1985C112.202 25.7867 113.332 27.1609 113.332 29.2641C113.332 32.3213 110.989 34.1441 107.268 34.1441C105.34 34.1391 103.802 33.6338 102.61 32.6253Z" fill="black"/>
<path d="M116.559 33.7997V14.1687H125.216C128.662 14.1687 130.729 16.5524 130.729 20.3387C130.729 24.1252 128.665 26.4805 125.216 26.4805H120.835V33.7997H116.559ZM120.832 22.6941H124.415C125.491 22.6941 126.401 21.9095 126.401 20.3387C126.401 18.7682 125.491 17.9551 124.415 17.9551H120.835L120.832 22.6941Z" fill="black"/>
<path d="M142.281 33.7992L141.206 32.425C140.021 33.5743 138.559 34.1353 136.822 34.1353C135.444 34.1353 134.287 33.7423 133.349 32.986C132.411 32.2001 131.942 31.1061 131.943 29.704C131.943 26.6479 133.9 24.9093 137.787 24.9093H140.626V24.096C140.626 22.8901 139.937 22.3006 138.53 22.3006C137.125 22.3006 136.436 22.7776 136.436 23.7588H132.604C132.604 20.7028 134.645 18.7108 138.53 18.7108C142.417 18.7108 144.541 20.7028 144.541 23.8156V33.7992H142.281ZM140.626 29.3394V27.7131H137.787C136.492 27.7131 135.857 28.1901 135.857 29.1713C135.857 30.0362 136.465 30.6296 137.649 30.6296C138.862 30.6296 139.855 30.2093 140.626 29.3394Z" fill="black"/>
<path d="M148.102 33.8024V19.0514H152.017V33.8024H148.102Z" fill="black"/>
<path d="M165.769 33.7994L164.694 32.4252C164.132 32.981 163.466 33.4182 162.737 33.7118C162.007 34.0052 161.228 34.1492 160.443 34.1354C157.466 34.1354 155.287 32.2819 155.287 28.723V24.0963C155.287 22.3292 155.784 20.9835 156.745 20.0851C157.71 19.1607 158.95 18.711 160.44 18.711C161.929 18.711 163.141 19.1039 164.083 19.917V14.0288H167.998V33.8006L165.769 33.7994ZM164.087 29.1431V23.7058C163.178 22.7802 162.213 22.3033 161.248 22.3033C160.977 22.3009 160.709 22.3538 160.459 22.4588C160.209 22.5639 159.982 22.719 159.791 22.9149C159.602 23.1108 159.451 23.3435 159.351 23.5993C159.251 23.8551 159.203 24.1288 159.209 24.404V28.4425C159.203 28.7178 159.251 28.9915 159.351 29.2474C159.451 29.5032 159.601 29.736 159.791 29.932C159.982 30.1279 160.209 30.2829 160.458 30.388C160.709 30.493 160.977 30.5457 161.248 30.5431C162.213 30.5457 163.178 30.0687 164.087 29.1431Z" fill="black"/>
</svg>
