<svg width="16" height="16" viewBox="0 0 16 16" fill="none" xmlns="http://www.w3.org/2000/svg">
<g clip-path="url(#clip0_899_15553)">
<path d="M15.1145 0.666667C15.1145 0.489856 15.0443 0.320286 14.9193 0.195262C14.7942 0.0702379 14.6247 0 14.4479 0L1.5612 0C1.38439 0 1.21482 0.0702379 1.08979 0.195262C0.964769 0.320286 0.894531 0.489856 0.894531 0.666667V13.5533C0.894531 13.7301 0.964769 13.8997 1.08979 14.0247C1.21482 14.1498 1.38439 14.22 1.5612 14.22H10.4012C10.5008 14.2203 10.5992 14.1984 10.6892 14.1557C10.7792 14.113 10.8585 14.0507 10.9212 13.9733C11.0546 13.7029 11.1034 13.3986 11.0612 13.1C11.0548 13.0716 11.0578 13.0419 11.0699 13.0155C11.0819 12.989 11.1023 12.9672 11.1279 12.9533C11.1513 12.937 11.1793 12.9282 11.2079 12.9282C11.2365 12.9282 11.2644 12.937 11.2879 12.9533L13.9545 15.7867C14.0798 15.9074 14.2472 15.9744 14.4212 15.9733C14.5126 15.9717 14.6029 15.9537 14.6879 15.92C14.8094 15.8685 14.9129 15.7821 14.9853 15.6718C15.0577 15.5614 15.0957 15.432 15.0945 15.3L15.1145 0.666667ZM12.4479 9.37333C11.7779 10.091 10.876 10.5491 9.9012 10.6667H9.62786C9.56456 10.6684 9.50159 10.6568 9.44303 10.6327C9.38447 10.6086 9.33161 10.5725 9.28786 10.5267L8.9212 10.0467C8.90375 10.0214 8.87938 10.0016 8.85101 9.98979C8.82263 9.97797 8.79145 9.97457 8.7612 9.98C8.60786 9.98 8.45453 10.02 8.29453 10.0333C7.96606 10.0567 7.63634 10.0567 7.30786 10.0333C7.08456 10.0237 6.86198 10.0015 6.6412 9.96667C6.61102 9.96276 6.58035 9.96686 6.55227 9.97856C6.52418 9.99027 6.49967 10.0092 6.4812 10.0333L6.13453 10.5C6.07186 10.5687 5.99104 10.6183 5.9014 10.6431C5.81175 10.6679 5.71693 10.6668 5.62786 10.64C5.06907 10.591 4.5254 10.4324 4.02786 10.1733C3.61676 9.96608 3.24993 9.68078 2.94786 9.33333C2.88257 9.25211 2.84726 9.15088 2.84786 9.04667C2.89998 7.4384 3.34149 5.86679 4.13453 4.46667C4.1699 4.41423 4.21255 4.36709 4.2612 4.32667C4.5928 4.08663 4.95344 3.88951 5.33453 3.74C5.66628 3.60767 6.01351 3.51806 6.36786 3.47333C6.46047 3.45289 6.55734 3.46659 6.64064 3.51192C6.72394 3.55725 6.78806 3.63114 6.8212 3.72L6.86786 3.81333C6.88438 3.84227 6.90888 3.86583 6.93844 3.8812C6.968 3.89657 7.00136 3.9031 7.03453 3.9H7.3812C7.66762 3.88318 7.95478 3.88318 8.2412 3.9H8.40786C8.4416 3.90165 8.47513 3.89377 8.5046 3.87727C8.53407 3.86076 8.55831 3.8363 8.57453 3.80667L8.66786 3.65333C8.70361 3.59247 8.7556 3.54277 8.81801 3.5098C8.88042 3.47683 8.95078 3.4619 9.0212 3.46667C9.2037 3.48097 9.38448 3.51222 9.5612 3.56C10.1445 3.71158 10.6941 3.97167 11.1812 4.32667C11.2305 4.36597 11.2752 4.41069 11.3145 4.46C12.0826 5.85445 12.5141 7.40915 12.5745 9C12.5838 9.06827 12.5779 9.13775 12.5571 9.20345C12.5364 9.26915 12.5013 9.32945 12.4545 9.38L12.4479 9.37333Z" fill="white"/>
<path d="M9.04633 8.66535C8.80196 8.6713 8.56418 8.5857 8.37967 8.42536C8.14226 8.21576 7.99511 7.92247 7.96902 7.60685C7.94292 7.29124 8.03991 6.97776 8.23967 6.73202C8.3273 6.61714 8.43909 6.5229 8.56715 6.45598C8.6952 6.38905 8.83639 6.35107 8.98074 6.34471C9.12509 6.33835 9.26907 6.36377 9.40252 6.41918C9.53596 6.47458 9.65561 6.55862 9.753 6.66535C9.97656 6.89447 10.1017 7.20191 10.1017 7.52202C10.1017 7.84214 9.97656 8.14957 9.753 8.37869C9.6599 8.47067 9.54955 8.54334 9.42827 8.59254C9.307 8.64173 9.1772 8.66648 9.04633 8.66535Z" fill="white"/>
<path d="M6.381 8.66732C6.24951 8.6687 6.11909 8.64342 5.99764 8.593C5.87618 8.54258 5.7662 8.46808 5.67434 8.37398C5.45341 8.14524 5.32938 7.84 5.32813 7.52199C5.32689 7.20398 5.44854 6.89778 5.66767 6.66732C5.75656 6.56657 5.86509 6.48504 5.9866 6.42772C6.10812 6.3704 6.24006 6.3385 6.37434 6.33398C6.62584 6.34316 6.86432 6.4481 7.041 6.62732C7.26456 6.85644 7.3897 7.16387 7.3897 7.48398C7.3897 7.8041 7.26456 8.11153 7.041 8.34065C6.86607 8.5235 6.63248 8.63911 6.381 8.66732Z" fill="white"/>
</g>
<defs>
<clipPath id="clip0_899_15553">
<rect width="16" height="16" fill="white"/>
</clipPath>
</defs>
</svg>
