<svg width="722" height="283" viewBox="0 0 722 283" fill="none" xmlns="http://www.w3.org/2000/svg">
<g clip-path="url(#clip0_1761_3778)">
<path d="M399.688 19.2435L49.0601 221.678M434.751 39.487L84.1229 241.922M469.813 59.7305L119.186 262.165M504.876 79.974L154.248 282.409M539.939 100.217L189.311 302.652M575.002 120.461L224.374 322.896M610.064 140.704L259.437 343.139M645.127 160.948L294.499 363.383M680.19 181.191L329.562 383.626M329.562 19.2435L680.19 221.678M294.499 39.487L645.127 241.922M259.437 59.7305L610.064 262.165M224.374 79.974L575.002 282.409M189.311 100.217L539.939 302.652M154.248 120.461L504.876 322.896M119.186 140.704L469.813 343.139M84.1229 160.948L434.751 363.383M49.0601 181.191L399.688 383.626M364.625 -1L13.9974 201.435L364.625 403.87L715.253 201.435L364.625 -1Z" stroke="url(#paint0_radial_1761_3778)" stroke-opacity="0.44" stroke-width="0.298538"/>
<path d="M36 288.386L360.562 101L706.5 300.727" stroke="#507A37" stroke-width="3"/>
<rect width="106.414" height="106.414" transform="matrix(0.866025 0.500001 -0.866025 0.500001 184.164 120)" fill="black"/>
<rect width="106.414" height="106.414" transform="matrix(0.866025 0.500001 -0.866025 0.500001 184.164 120)" fill="url(#paint1_linear_1761_3778)"/>
<rect width="106.414" height="106.414" transform="matrix(0.866025 0.500001 -0.866025 0.500001 184.164 120)" stroke="white" stroke-opacity="0.44" stroke-width="0.883622"/>
<rect width="106.414" height="21.2828" transform="matrix(0.866025 0.500001 0 1 92 173.207)" fill="black" stroke="white" stroke-opacity="0.44" stroke-width="0.883622"/>
<rect width="106.414" height="21.2828" transform="matrix(0.866025 -0.500001 0 1 184.164 226.414)" fill="black" stroke="white" stroke-opacity="0.44" stroke-width="0.883622"/>
<rect width="106.414" height="106.414" transform="matrix(0.866025 0.500001 -0.866025 0.500001 537.164 120)" fill="black"/>
<rect width="106.414" height="106.414" transform="matrix(0.866025 0.500001 -0.866025 0.500001 537.164 120)" fill="url(#paint2_linear_1761_3778)"/>
<rect width="106.414" height="106.414" transform="matrix(0.866025 0.500001 -0.866025 0.500001 537.164 120)" stroke="white" stroke-opacity="0.44" stroke-width="0.883622"/>
<rect width="106.414" height="21.2828" transform="matrix(0.866025 0.500001 0 1 445 173.207)" fill="black" stroke="white" stroke-opacity="0.44" stroke-width="0.883622"/>
<rect width="106.414" height="21.2828" transform="matrix(0.866025 -0.500001 0 1 537.164 226.414)" fill="black" stroke="white" stroke-opacity="0.44" stroke-width="0.883622"/>
<rect width="106.414" height="106.414" transform="matrix(0.866025 0.500001 -0.866025 0.500001 361.164 56)" fill="black"/>
<rect width="106.414" height="106.414" transform="matrix(0.866025 0.500001 -0.866025 0.500001 361.164 56)" fill="url(#paint3_linear_1761_3778)"/>
<rect width="106.414" height="106.414" transform="matrix(0.866025 0.500001 -0.866025 0.500001 361.164 56)" stroke="white" stroke-opacity="0.44" stroke-width="0.883622"/>
<rect width="106.414" height="21.2828" transform="matrix(0.866025 0.500001 0 1 269 109.207)" fill="black" stroke="white" stroke-opacity="0.44" stroke-width="0.883622"/>
<rect width="106.414" height="21.2828" transform="matrix(0.866025 -0.500001 0 1 361.164 162.414)" fill="black" stroke="white" stroke-opacity="0.44" stroke-width="0.883622"/>
<path d="M170.527 159.689H196.725M170.527 187.78H196.725M159.299 166.171V181.297M207.953 166.171V181.297" stroke="white" stroke-opacity="0.44" stroke-width="0.726736" stroke-linecap="round"/>
<path d="M166.784 164.01C170.918 161.623 170.918 157.754 166.784 155.367C162.65 152.98 155.948 152.98 151.813 155.367C147.679 157.754 147.679 161.623 151.813 164.01C155.948 166.397 162.65 166.397 166.784 164.01Z" stroke="white" stroke-opacity="0.44" stroke-width="0.726736"/>
<path d="M215.44 192.102C219.574 189.715 219.574 185.845 215.44 183.459C211.306 181.072 204.604 181.072 200.47 183.459C196.336 185.845 196.336 189.715 200.47 192.102C204.604 194.489 211.306 194.489 215.44 192.102Z" stroke="white" stroke-opacity="0.44" stroke-width="0.726736"/>
<path d="M166.784 192.102C170.918 189.715 170.918 185.845 166.784 183.459C162.65 181.072 155.948 181.072 151.813 183.459C147.679 185.845 147.679 189.715 151.813 192.102C155.948 194.489 162.65 194.489 166.784 192.102Z" stroke="white" stroke-opacity="0.44" stroke-width="0.726736"/>
<path d="M215.44 164.01C219.574 161.623 219.574 157.754 215.44 155.367C211.306 152.98 204.604 152.98 200.47 155.367C196.336 157.754 196.336 161.623 200.47 164.01C204.604 166.397 211.306 166.397 215.44 164.01Z" stroke="white" stroke-opacity="0.44" stroke-width="0.726736"/>
<path d="M161.169 160.769C162.202 160.172 162.202 159.205 161.169 158.608C160.135 158.011 158.46 158.011 157.426 158.608C156.393 159.205 156.393 160.172 157.426 160.769C158.46 161.366 160.135 161.366 161.169 160.769Z" stroke="white" stroke-opacity="0.44" stroke-width="0.726736"/>
<path d="M209.825 188.86C210.858 188.263 210.858 187.296 209.825 186.699C208.791 186.102 207.116 186.102 206.082 186.699C205.049 187.296 205.049 188.263 206.082 188.86C207.116 189.456 208.791 189.456 209.825 188.86Z" stroke="white" stroke-opacity="0.44" stroke-width="0.726736"/>
<path d="M161.169 188.861C162.202 188.264 162.202 187.297 161.169 186.7C160.135 186.103 158.46 186.103 157.426 186.7C156.393 187.297 156.393 188.264 157.426 188.861C158.46 189.457 160.135 189.457 161.169 188.861Z" stroke="white" stroke-opacity="0.44" stroke-width="0.726736"/>
<path d="M209.825 160.77C210.858 160.173 210.858 159.206 209.825 158.609C208.791 158.012 207.116 158.012 206.082 158.609C205.049 159.206 205.049 160.173 206.082 160.77C207.116 161.367 208.791 161.367 209.825 160.77Z" stroke="white" stroke-opacity="0.44" stroke-width="0.726736"/>
<path d="M523.527 159.689H549.725M523.527 187.78H549.725M512.299 166.171V181.297M560.953 166.171V181.297" stroke="white" stroke-opacity="0.44" stroke-width="0.726736" stroke-linecap="round"/>
<path d="M519.784 164.01C523.918 161.623 523.918 157.754 519.784 155.367C515.65 152.98 508.948 152.98 504.813 155.367C500.679 157.754 500.679 161.623 504.813 164.01C508.948 166.397 515.65 166.397 519.784 164.01Z" stroke="white" stroke-opacity="0.44" stroke-width="0.726736"/>
<path d="M568.44 192.102C572.574 189.715 572.574 185.845 568.44 183.459C564.306 181.072 557.604 181.072 553.47 183.459C549.336 185.845 549.336 189.715 553.47 192.102C557.604 194.489 564.306 194.489 568.44 192.102Z" stroke="white" stroke-opacity="0.44" stroke-width="0.726736"/>
<path d="M519.784 192.102C523.918 189.715 523.918 185.845 519.784 183.459C515.65 181.072 508.948 181.072 504.813 183.459C500.679 185.845 500.679 189.715 504.813 192.102C508.948 194.489 515.65 194.489 519.784 192.102Z" stroke="white" stroke-opacity="0.44" stroke-width="0.726736"/>
<path d="M568.44 164.01C572.574 161.623 572.574 157.754 568.44 155.367C564.306 152.98 557.604 152.98 553.47 155.367C549.336 157.754 549.336 161.623 553.47 164.01C557.604 166.397 564.306 166.397 568.44 164.01Z" stroke="white" stroke-opacity="0.44" stroke-width="0.726736"/>
<path d="M514.169 160.769C515.202 160.172 515.202 159.205 514.169 158.608C513.135 158.011 511.46 158.011 510.426 158.608C509.393 159.205 509.393 160.172 510.426 160.769C511.46 161.366 513.135 161.366 514.169 160.769Z" stroke="white" stroke-opacity="0.44" stroke-width="0.726736"/>
<path d="M562.825 188.86C563.858 188.263 563.858 187.296 562.825 186.699C561.791 186.102 560.116 186.102 559.082 186.699C558.049 187.296 558.049 188.263 559.082 188.86C560.116 189.456 561.791 189.456 562.825 188.86Z" stroke="white" stroke-opacity="0.44" stroke-width="0.726736"/>
<path d="M514.169 188.861C515.202 188.264 515.202 187.297 514.169 186.7C513.135 186.103 511.46 186.103 510.426 186.7C509.393 187.297 509.393 188.264 510.426 188.861C511.46 189.457 513.135 189.457 514.169 188.861Z" stroke="white" stroke-opacity="0.44" stroke-width="0.726736"/>
<path d="M562.825 160.77C563.858 160.173 563.858 159.206 562.825 158.609C561.791 158.012 560.116 158.012 559.082 158.609C558.049 159.206 558.049 160.173 559.082 160.77C560.116 161.367 561.791 161.367 562.825 160.77Z" stroke="white" stroke-opacity="0.44" stroke-width="0.726736"/>
<path d="M347.523 94.6889H373.721M347.523 122.78H373.721M336.295 101.171V116.297M384.95 101.171V116.297" stroke="white" stroke-opacity="0.44" stroke-width="0.726736" stroke-linecap="round"/>
<path d="M343.78 99.0101C347.914 96.6234 347.914 92.7536 343.78 90.3668C339.646 87.98 332.944 87.98 328.81 90.3668C324.676 92.7536 324.676 96.6234 328.81 99.0101C332.944 101.397 339.646 101.397 343.78 99.0101Z" stroke="white" stroke-opacity="0.44" stroke-width="0.726736"/>
<path d="M392.437 127.102C396.571 124.715 396.571 120.845 392.437 118.459C388.302 116.072 381.6 116.072 377.466 118.459C373.332 120.845 373.332 124.715 377.466 127.102C381.6 129.489 388.302 129.489 392.437 127.102Z" stroke="white" stroke-opacity="0.44" stroke-width="0.726736"/>
<path d="M343.78 127.102C347.914 124.715 347.914 120.845 343.78 118.459C339.646 116.072 332.944 116.072 328.81 118.459C324.676 120.845 324.676 124.715 328.81 127.102C332.944 129.489 339.646 129.489 343.78 127.102Z" stroke="white" stroke-opacity="0.44" stroke-width="0.726736"/>
<path d="M392.437 99.0101C396.571 96.6234 396.571 92.7536 392.437 90.3668C388.302 87.98 381.6 87.98 377.466 90.3668C373.332 92.7536 373.332 96.6234 377.466 99.0101C381.6 101.397 388.302 101.397 392.437 99.0101Z" stroke="white" stroke-opacity="0.44" stroke-width="0.726736"/>
<path d="M338.165 95.7689C339.198 95.1722 339.198 94.2048 338.165 93.6081C337.131 93.0114 335.456 93.0114 334.422 93.6081C333.389 94.2048 333.389 95.1722 334.422 95.7689C335.456 96.3656 337.131 96.3656 338.165 95.7689Z" stroke="white" stroke-opacity="0.44" stroke-width="0.726736"/>
<path d="M386.825 123.86C387.858 123.263 387.858 122.296 386.825 121.699C385.791 121.102 384.116 121.102 383.082 121.699C382.049 122.296 382.049 123.263 383.082 123.86C384.116 124.456 385.791 124.456 386.825 123.86Z" stroke="white" stroke-opacity="0.44" stroke-width="0.726736"/>
<path d="M338.165 123.861C339.198 123.264 339.198 122.297 338.165 121.7C337.131 121.103 335.456 121.103 334.422 121.7C333.389 122.297 333.389 123.264 334.422 123.861C335.456 124.457 337.131 124.457 338.165 123.861Z" stroke="white" stroke-opacity="0.44" stroke-width="0.726736"/>
<path d="M386.825 95.7699C387.858 95.1732 387.858 94.2057 386.825 93.609C385.791 93.0123 384.116 93.0123 383.082 93.609C382.049 94.2057 382.049 95.1732 383.082 95.7699C384.116 96.3666 385.791 96.3666 386.825 95.7699Z" stroke="white" stroke-opacity="0.44" stroke-width="0.726736"/>
</g>
<defs>
<radialGradient id="paint0_radial_1761_3778" cx="0" cy="0" r="1" gradientUnits="userSpaceOnUse" gradientTransform="translate(344.65 282.993) rotate(-90) scale(283.993 373.094)">
<stop offset="0.5" stop-color="white"/>
<stop offset="1" stop-color="white" stop-opacity="0"/>
</radialGradient>
<linearGradient id="paint1_linear_1761_3778" x1="79.5928" y1="220.924" x2="92.4459" y2="30.8388" gradientUnits="userSpaceOnUse">
<stop/>
<stop offset="1" stop-color="#666666" stop-opacity="0"/>
</linearGradient>
<linearGradient id="paint2_linear_1761_3778" x1="79.5928" y1="220.924" x2="92.4459" y2="30.8388" gradientUnits="userSpaceOnUse">
<stop/>
<stop offset="1" stop-color="#666666" stop-opacity="0"/>
</linearGradient>
<linearGradient id="paint3_linear_1761_3778" x1="79.5928" y1="220.924" x2="92.4459" y2="30.8388" gradientUnits="userSpaceOnUse">
<stop/>
<stop offset="1" stop-color="#666666" stop-opacity="0"/>
</linearGradient>
<clipPath id="clip0_1761_3778">
<rect width="722" height="283" fill="white"/>
</clipPath>
</defs>
</svg>
