<svg width="21" height="21" viewBox="0 0 21 21" fill="none" xmlns="http://www.w3.org/2000/svg">
<path d="M7.17383 1.70044C6.41908 1.70056 5.7106 1.84282 5.04688 2.1272C4.38059 2.41275 3.80042 2.8058 3.30664 3.30591C2.81225 3.80668 2.42243 4.38682 2.13672 5.04712C1.85222 5.70463 1.70658 6.41375 1.7002 7.17603C1.70032 7.93077 1.84258 8.63926 2.12695 9.30298C2.4125 9.96926 2.80555 10.5494 3.30566 11.0432C3.80644 11.5376 4.38657 11.9274 5.04688 12.2131C5.7041 12.4975 6.4129 12.6422 7.1748 12.6487C7.78893 12.6487 8.39082 12.5454 8.98047 12.3362C9.56967 12.1271 10.1047 11.8265 10.5859 11.4338L10.627 11.3997H11.7002V13.8997H14.2002V16.3997H16.7002V18.8997H18.8994V16.2512L12.2051 9.55688L12.1367 9.48755L12.1719 9.39673C12.3129 9.03134 12.428 8.66568 12.5176 8.30103C12.6056 7.94239 12.6494 7.56718 12.6494 7.17505C12.6494 6.41994 12.5072 5.71113 12.2227 5.04712C11.9371 4.38083 11.5441 3.80067 11.0439 3.30688C10.5432 2.81249 9.96303 2.42267 9.30273 2.13696C8.64522 1.85246 7.93611 1.70683 7.17383 1.70044ZM5.2998 3.89966C5.49447 3.89966 5.6777 3.93616 5.84766 4.01001C6.0139 4.08229 6.1606 4.18038 6.28516 4.30493C6.40962 4.4294 6.51055 4.5784 6.58887 4.74927C6.66928 4.92477 6.70569 5.10902 6.69922 5.30005C6.69922 5.49472 6.66369 5.67795 6.58984 5.8479C6.51757 6.01414 6.41948 6.16084 6.29492 6.2854C6.17046 6.40986 6.02145 6.5108 5.85059 6.58911C5.67507 6.66953 5.49084 6.70497 5.2998 6.69849V6.70044C5.10514 6.70044 4.9219 6.66394 4.75195 6.59009C4.58571 6.51781 4.43901 6.41972 4.31445 6.29517C4.18999 6.1707 4.08906 6.0217 4.01074 5.85083C3.93033 5.67532 3.89392 5.49107 3.90039 5.30005H3.89941C3.89941 5.10538 3.93592 4.92215 4.00977 4.7522C4.08204 4.58596 4.18013 4.43925 4.30469 4.3147C4.42915 4.19023 4.57815 4.0893 4.74902 4.01099C4.92453 3.93057 5.10878 3.89416 5.2998 3.90063V3.89966ZM14.1943 7.42896C14.1844 7.68271 14.1601 7.93472 14.1201 8.18481C14.0718 8.48681 14.0028 8.78331 13.916 9.07446L20.4062 15.5549L20.4502 15.5989V20.4504H15.1494V17.9504H12.6494V15.4504H10.1494V13.5188C9.72355 13.7243 9.28205 13.8867 8.82227 14.0002C8.28308 14.1334 7.73371 14.2004 7.1748 14.2004C6.53029 14.2004 5.90807 14.117 5.30859 13.9504C4.71042 13.7843 4.1513 13.5478 3.63184 13.2415C3.11318 12.9356 2.64043 12.5704 2.21484 12.1448C1.78933 11.7193 1.42061 11.2437 1.1084 10.719C0.795406 10.1929 0.559217 9.63286 0.399414 9.04028C0.239696 8.448 0.156077 7.82675 0.149414 7.177V7.17505C0.149414 6.53053 0.232903 5.90831 0.399414 5.30884C0.565573 4.71067 0.80205 4.15154 1.1084 3.63208C1.41428 3.11343 1.7795 2.64067 2.20508 2.21509C2.6306 1.78957 3.10614 1.42086 3.63086 1.10864C4.15695 0.79565 4.717 0.559461 5.30957 0.399658C5.90186 0.23994 6.5231 0.156321 7.17285 0.149658H7.1748C7.81932 0.149658 8.44154 0.233147 9.04102 0.399658C9.63919 0.565817 10.1983 0.802294 10.7178 1.10864C11.2364 1.41453 11.7092 1.77974 12.1348 2.20532C12.5603 2.63084 12.929 3.10638 13.2412 3.6311C13.5542 4.1572 13.7904 4.71724 13.9502 5.30981C14.1099 5.9021 14.1935 6.52335 14.2002 7.1731V7.17505L14.1943 7.42896Z" fill="black" stroke="black" stroke-width="0.3"/>
</svg>
