<svg width="27" height="27" viewBox="0 0 27 27" fill="none" xmlns="http://www.w3.org/2000/svg">
<path d="M15.5049 5.94727L20.6521 11.0945M5.9458 15.5064L11.093 20.6536M11.093 5.94727L5.9458 11.0945M20.6521 15.5064L15.5049 20.6536" stroke="black" stroke-width="1.6" stroke-linecap="round"/>
<path d="M13.3011 6.68257C14.9255 6.68257 16.2424 5.36572 16.2424 3.74131C16.2424 2.1169 14.9255 0.800049 13.3011 0.800049C11.6767 0.800049 10.3599 2.1169 10.3599 3.74131C10.3599 5.36572 11.6767 6.68257 13.3011 6.68257Z" stroke="black" stroke-width="1.6"/>
<path d="M13.3011 25.8007C14.9255 25.8007 16.2424 24.4839 16.2424 22.8595C16.2424 21.2351 14.9255 19.9182 13.3011 19.9182C11.6767 19.9182 10.3599 21.2351 10.3599 22.8595C10.3599 24.4839 11.6767 25.8007 13.3011 25.8007Z" stroke="black" stroke-width="1.6"/>
<path d="M3.74107 16.2417C5.36548 16.2417 6.68233 14.9248 6.68233 13.3004C6.68233 11.676 5.36548 10.3591 3.74107 10.3591C2.11665 10.3591 0.799805 11.676 0.799805 13.3004C0.799805 14.9248 2.11665 16.2417 3.74107 16.2417Z" stroke="black" stroke-width="1.6"/>
<path d="M22.8587 16.2417C24.4832 16.2417 25.8 14.9248 25.8 13.3004C25.8 11.676 24.4832 10.3591 22.8587 10.3591C21.2343 10.3591 19.9175 11.676 19.9175 13.3004C19.9175 14.9248 21.2343 16.2417 22.8587 16.2417Z" stroke="black" stroke-width="1.6"/>
<path d="M13.3007 4.47673C13.7068 4.47673 14.0361 4.14752 14.0361 3.74142C14.0361 3.33532 13.7068 3.0061 13.3007 3.0061C12.8946 3.0061 12.5654 3.33532 12.5654 3.74142C12.5654 4.14752 12.8946 4.47673 13.3007 4.47673Z" stroke="black" stroke-width="1.6"/>
<path d="M13.3007 23.5949C13.7068 23.5949 14.0361 23.2657 14.0361 22.8596C14.0361 22.4535 13.7068 22.1243 13.3007 22.1243C12.8946 22.1243 12.5654 22.4535 12.5654 22.8596C12.5654 23.2657 12.8946 23.5949 13.3007 23.5949Z" stroke="black" stroke-width="1.6"/>
<path d="M3.74069 14.0356C4.14679 14.0356 4.476 13.7064 4.476 13.3003C4.476 12.8942 4.14679 12.5649 3.74069 12.5649C3.33458 12.5649 3.00537 12.8942 3.00537 13.3003C3.00537 13.7064 3.33458 14.0356 3.74069 14.0356Z" stroke="black" stroke-width="1.6"/>
<path d="M22.8589 14.0356C23.265 14.0356 23.5942 13.7064 23.5942 13.3003C23.5942 12.8942 23.265 12.5649 22.8589 12.5649C22.4527 12.5649 22.1235 12.8942 22.1235 13.3003C22.1235 13.7064 22.4527 14.0356 22.8589 14.0356Z" stroke="black" stroke-width="1.6"/>
</svg>
