<svg width="21" height="22" viewBox="0 0 21 22" fill="none" xmlns="http://www.w3.org/2000/svg">
<path d="M10.4629 4.1875C10.7061 4.18876 10.9207 4.2772 11.0908 4.4502C11.2628 4.62521 11.3455 4.84609 11.3438 5.09375V10.626L15.0645 14.4912C15.2267 14.6597 15.3131 14.8688 15.3242 15.1045C15.3346 15.3267 15.2642 15.5263 15.127 15.6963L15.0645 15.7676C14.8925 15.946 14.6819 16.0537 14.4385 16.0537C14.1938 16.0537 13.9825 15.9463 13.8105 15.7666V15.7656L9.95605 11.7637V11.7627C9.82776 11.6301 9.72827 11.4852 9.66699 11.3262C9.60798 11.173 9.5791 11.0102 9.5791 10.8408V5.09375C9.5791 4.84753 9.66196 4.62793 9.83105 4.45215C10.0009 4.27574 10.2175 4.1863 10.4629 4.1875ZM3.05762 3.40332C3.95699 2.48749 4.98288 1.75537 6.13574 1.20898C7.48184 0.571032 8.90092 0.250897 10.3896 0.25L10.9229 0.262695C12.1595 0.324058 13.3296 0.601345 14.4316 1.09375C15.6863 1.65433 16.7842 2.42206 17.7227 3.39746C18.6609 4.37278 19.3998 5.51189 19.9395 6.81152C20.4811 8.11588 20.7508 9.51301 20.75 11C20.7491 12.4867 20.4792 13.8833 19.9395 15.1875C19.4014 16.4875 18.6628 17.6271 17.7227 18.6025C16.7826 19.5779 15.6846 20.3456 14.4316 20.9062C13.174 21.4689 11.8258 21.75 10.3896 21.75C7.904 21.75 5.71615 20.9557 3.83789 19.3701C1.96502 17.789 0.781807 15.7608 0.288086 13.2959C0.220518 13.0454 0.243065 12.8002 0.365234 12.5752C0.478739 12.3662 0.656562 12.2329 0.879883 12.1787L0.978516 12.1602C1.21892 12.1251 1.44302 12.1837 1.63379 12.334L1.63477 12.335C1.77257 12.4444 1.87545 12.5848 1.94727 12.749L2.00879 12.9209L2.0127 12.9365C2.45783 14.9697 3.46009 16.6418 5.02148 17.9619C6.58103 19.2804 8.36737 19.9375 10.3896 19.9375C12.7857 19.9374 14.8112 19.0743 16.4805 17.3408C18.1502 15.6068 18.9855 13.4981 18.9863 11C18.9871 8.50203 18.1518 6.3932 16.4805 4.65918C14.8095 2.92561 12.7839 2.06257 10.3896 2.0625C9.11926 2.0625 7.9282 2.34114 6.81348 2.89746H6.8125C5.85564 3.37436 4.99458 4.00616 4.22754 4.79297H6.15918C6.40502 4.79297 6.6216 4.88152 6.79102 5.05859L6.84961 5.12598C6.9784 5.28881 7.04102 5.48406 7.04102 5.69922C7.04093 5.94487 6.95911 6.16402 6.79102 6.33984C6.62153 6.51709 6.40505 6.60542 6.15918 6.60449L2.56348 6.60547C2.25074 6.60543 1.97434 6.50895 1.74707 6.31543L1.65332 6.22656C1.41028 5.97511 1.29297 5.65854 1.29297 5.2959V1.56055C1.29297 1.31368 1.37485 1.09341 1.54492 0.917969C1.71488 0.742687 1.93093 0.654297 2.17578 0.654297C2.42062 0.654319 2.63634 0.743106 2.80566 0.918945C2.97428 1.09416 3.05651 1.31363 3.05762 1.55957V3.40332Z" fill="black" stroke="black" stroke-width="0.5"/>
</svg>
