<svg width="159" height="34" viewBox="0 0 159 34" fill="none" xmlns="http://www.w3.org/2000/svg">
<g clip-path="url(#clip0_899_13431)">
<path d="M49.7965 18.0828V17.6872C49.7965 16.6933 49.4556 15.9326 48.7738 15.4052C48.1127 14.8575 47.2451 14.5837 46.1707 14.5837C45.3444 14.5837 44.6936 14.7257 44.2184 15.0097C43.7639 15.2733 43.3301 15.6791 42.9169 16.2268C42.7929 16.389 42.6586 16.5006 42.514 16.5614C42.3694 16.6223 42.1731 16.6527 41.9252 16.6527H40.9956C40.7683 16.6527 40.5617 16.5716 40.3757 16.4093C40.2105 16.247 40.1382 16.0543 40.1588 15.8312C40.2208 15.2226 40.5204 14.6243 41.0575 14.036C41.6153 13.4275 42.3488 12.9305 43.2578 12.5451C44.1668 12.1597 45.1378 11.9669 46.1707 11.9669C48.0921 11.9669 49.6415 12.4943 50.8192 13.5491C52.0174 14.604 52.6165 16.0847 52.6165 17.9915V27.2717C52.6165 27.4948 52.5339 27.6875 52.3686 27.8498C52.2033 28.0121 52.007 28.0932 51.7798 28.0932H50.6332C50.406 28.0932 50.2097 28.0121 50.0444 27.8498C49.8791 27.6875 49.7965 27.4948 49.7965 27.2717V26.0242C49.4659 26.7545 48.7635 27.3326 47.6892 27.7585C46.6149 28.1845 45.5406 28.3975 44.4664 28.3975C43.4127 28.3975 42.4727 28.2149 41.6463 27.8498C40.8199 27.4644 40.1795 26.9471 39.725 26.298C39.2911 25.6489 39.0742 24.9187 39.0742 24.1073C39.0742 22.5859 39.6527 21.3993 40.8096 20.5474C41.9665 19.6751 43.5057 19.0868 45.427 18.7826L49.7965 18.0828ZM49.7965 20.5169L46.1398 21.095C44.7969 21.2979 43.7536 21.6326 43.0099 22.0991C42.2661 22.5454 41.8943 23.1133 41.8943 23.803C41.8943 24.3101 42.1318 24.7665 42.607 25.1722C43.0822 25.5779 43.8053 25.7808 44.7762 25.7808C46.2637 25.7808 47.4723 25.3649 48.402 24.5333C49.3316 23.7016 49.7965 22.6164 49.7965 21.2776V20.5169Z" fill="white"/>
<path d="M59.9567 27.2717C59.9567 27.4948 59.8738 27.6875 59.7085 27.8498C59.5433 28.0121 59.3474 28.0932 59.1197 28.0932H57.9732C57.746 28.0932 57.5495 28.0121 57.3843 27.8498C57.2191 27.6875 57.1367 27.4948 57.1367 27.2717V7.31167C57.1367 7.08851 57.2191 6.89585 57.3843 6.73355C57.5495 6.57126 57.746 6.49011 57.9732 6.49011H59.1197C59.3474 6.49011 59.5433 6.57126 59.7085 6.73355C59.8738 6.89585 59.9567 7.08851 59.9567 7.31167V27.2717Z" fill="white"/>
<path d="M71.1201 25.7808C73.186 25.7808 74.5806 24.9897 75.3041 23.4075C75.4483 23.1032 75.5931 22.8902 75.7379 22.7685C75.8821 22.6468 76.0786 22.5859 76.3262 22.5859H77.2564C77.4835 22.5859 77.6794 22.6671 77.8447 22.8294C78.0105 22.9713 78.0928 23.1438 78.0928 23.3466C78.0928 24.0363 77.814 24.7767 77.2564 25.5678C76.6982 26.3589 75.8924 27.0283 74.839 27.576C73.7856 28.1236 72.546 28.3975 71.1201 28.3975C69.6533 28.3975 68.383 28.0932 67.3086 27.4847C66.2342 26.8761 65.408 26.0445 64.8294 24.9897C64.2507 23.9146 63.931 22.7178 63.8686 21.3993C63.8481 21.1559 63.8379 20.6894 63.8379 19.9997C63.8379 19.5129 63.8481 19.168 63.8686 18.9652C64.0548 16.8961 64.7675 15.2125 66.0071 13.9143C67.2467 12.6161 68.9509 11.9669 71.1201 11.9669C72.546 11.9669 73.7748 12.2408 74.8078 12.7885C75.8617 13.3159 76.6573 13.9752 77.1939 14.7662C77.7521 15.5371 78.0514 16.2673 78.0928 16.957C78.1132 17.1801 78.0309 17.3728 77.8447 17.5351C77.6794 17.6974 77.4835 17.7785 77.2564 17.7785H76.3262C76.0786 17.7785 75.8821 17.7177 75.7379 17.5959C75.5931 17.4742 75.4483 17.2613 75.3041 16.957C74.5806 15.3748 73.186 14.5837 71.1201 14.5837C69.9838 14.5837 68.9923 14.959 68.1451 15.7095C67.2984 16.46 66.8129 17.5959 66.6885 19.1173C66.6681 19.3404 66.6579 19.7055 66.6579 20.2126C66.6579 20.6792 66.6681 21.024 66.6885 21.2472C66.8333 22.7685 67.3189 23.9045 68.1451 24.655C68.9923 25.4055 69.9838 25.7808 71.1201 25.7808Z" fill="white"/>
<path d="M96.1176 27.2717C96.1176 27.4948 96.0353 27.6875 95.8694 27.8498C95.7042 28.0121 95.5083 28.0932 95.2811 28.0932H94.1341C93.9069 28.0932 93.711 28.0121 93.5458 27.8498C93.38 27.6875 93.2976 27.4948 93.2976 27.2717V19.239C93.2976 17.7176 92.9155 16.5614 92.1511 15.7703C91.3868 14.9792 90.3226 14.5837 88.9592 14.5837C87.6162 14.5837 86.552 14.9792 85.7673 15.7703C85.0029 16.5614 84.6208 17.7176 84.6208 19.239V27.2717C84.6208 27.4948 84.5379 27.6875 84.3726 27.8498C84.2074 28.0121 84.0109 28.0932 83.7837 28.0932H82.6372C82.4101 28.0932 82.2136 28.0121 82.0484 27.8498C81.8831 27.6875 81.8008 27.4948 81.8008 27.2717V7.31167C81.8008 7.08851 81.8831 6.89585 82.0484 6.73355C82.2136 6.57126 82.4101 6.49011 82.6372 6.49011H83.7837C84.0109 6.49011 84.2074 6.57126 84.3726 6.73355C84.5379 6.89585 84.6208 7.08851 84.6208 7.31167V14.036C85.075 13.4478 85.6951 12.9609 86.4799 12.5755C87.2857 12.1698 88.267 11.9669 89.4237 11.9669C90.7252 11.9669 91.8825 12.2408 92.895 12.7885C93.9069 13.3362 94.6923 14.1272 95.2499 15.1618C95.8286 16.176 96.1176 17.383 96.1176 18.7826V27.2717Z" fill="white"/>
<path d="M106.977 11.9669C109.187 11.9669 110.933 12.6566 112.214 14.036C113.495 15.4153 114.136 17.2917 114.136 19.6649V20.4865C114.136 20.7097 114.053 20.9023 113.888 21.0646C113.722 21.2269 113.526 21.308 113.299 21.308H102.638V21.4906C102.68 22.8294 103.093 23.8842 103.878 24.655C104.684 25.4055 105.717 25.7808 106.977 25.7808C108.01 25.7808 108.805 25.6489 109.363 25.3852C109.942 25.1215 110.458 24.7462 110.913 24.2594C111.078 24.0971 111.223 23.9856 111.346 23.9248C111.491 23.8639 111.677 23.8335 111.904 23.8335H112.834C113.082 23.8335 113.289 23.9146 113.454 24.0768C113.619 24.2391 113.691 24.4319 113.671 24.655C113.588 25.2026 113.278 25.7706 112.741 26.3589C112.224 26.9268 111.47 27.4137 110.479 27.8194C109.508 28.2048 108.341 28.3975 106.977 28.3975C105.655 28.3975 104.477 28.1033 103.444 27.5151C102.411 26.9065 101.585 26.0749 100.965 25.0201C100.366 23.9653 100.005 22.7787 99.8803 21.4601C99.8394 20.8516 99.8184 20.3851 99.8184 20.0605C99.8184 19.736 99.8394 19.2694 99.8803 18.6609C100.005 17.4032 100.366 16.2673 100.965 15.2531C101.585 14.2388 102.401 13.4376 103.413 12.8494C104.446 12.2611 105.634 11.9669 106.977 11.9669ZM111.346 18.7522V18.6609C111.346 17.4235 110.944 16.4397 110.138 15.7095C109.353 14.959 108.299 14.5837 106.977 14.5837C105.779 14.5837 104.756 14.959 103.909 15.7095C103.082 16.46 102.659 17.4438 102.638 18.6609V18.7522H111.346Z" fill="white"/>
<path d="M120.695 14.036C121.191 13.4072 121.749 12.9102 122.368 12.5451C122.989 12.1597 123.815 11.9669 124.848 11.9669C127.265 11.9669 128.959 12.8494 129.93 14.6141C130.529 13.7622 131.211 13.113 131.975 12.6668C132.74 12.2002 133.741 11.9669 134.981 11.9669C137.006 11.9669 138.504 12.5654 139.475 13.7622C140.466 14.959 140.962 16.6527 140.962 18.8435V27.2717C140.962 27.4948 140.879 27.6875 140.714 27.8498C140.549 28.0121 140.352 28.0932 140.125 28.0932H138.979C138.752 28.0932 138.555 28.0121 138.39 27.8498C138.225 27.6875 138.142 27.4948 138.142 27.2717V19.1477C138.142 16.105 136.923 14.5837 134.485 14.5837C133.37 14.5837 132.481 14.9488 131.82 15.6791C131.159 16.4093 130.828 17.4945 130.828 18.9347V27.2717C130.828 27.4948 130.746 27.6875 130.581 27.8498C130.416 28.0121 130.219 28.0932 129.992 28.0932H128.845C128.618 28.0932 128.422 28.0121 128.257 27.8498C128.091 27.6875 128.008 27.4948 128.008 27.2717V19.1477C128.008 16.105 126.79 14.5837 124.352 14.5837C123.236 14.5837 122.348 14.9488 121.687 15.6791C121.025 16.4093 120.695 17.4945 120.695 18.9347V27.2717C120.695 27.4948 120.613 27.6875 120.447 27.8498C120.282 28.0121 120.086 28.0932 119.859 28.0932H118.712C118.484 28.0932 118.288 28.0121 118.123 27.8498C117.958 27.6875 117.875 27.4948 117.875 27.2717V13.0927C117.875 12.8696 117.958 12.6769 118.123 12.5146C118.288 12.3524 118.484 12.2712 118.712 12.2712H119.859C120.086 12.2712 120.282 12.3524 120.447 12.5146C120.613 12.6769 120.695 12.8696 120.695 13.0927V14.036Z" fill="white"/>
<path d="M149.641 33.1442C149.455 33.631 149.155 33.8744 148.742 33.8744H147.472C147.265 33.8744 147.089 33.8034 146.945 33.6614C146.8 33.5194 146.728 33.347 146.728 33.1442C146.728 33.063 146.738 32.992 146.758 32.9312L149.733 26.572L143.598 13.2145C143.577 13.1537 143.566 13.0827 143.566 13.0015C143.566 12.7987 143.639 12.6263 143.783 12.4843C143.928 12.3423 144.104 12.2713 144.31 12.2713H145.581C145.994 12.2713 146.294 12.5147 146.48 13.0015L151.252 23.3467L156.087 13.0015C156.272 12.5147 156.572 12.2713 156.985 12.2713H158.256C158.462 12.2713 158.638 12.3423 158.782 12.4843C158.927 12.6263 158.999 12.7987 158.999 13.0015C158.999 13.0827 158.989 13.1537 158.968 13.2145L149.641 33.1442Z" fill="white"/>
<path d="M27.3558 18.0274L16.9503 0.414435C16.8999 0.327464 16.8269 0.255018 16.7387 0.204408C16.6505 0.153796 16.5503 0.12681 16.448 0.126171C16.3457 0.125533 16.2451 0.151264 16.1563 0.20077C16.0675 0.250275 15.9936 0.321804 15.9421 0.408138L12.8257 5.68575C12.7236 5.85847 12.6699 6.05448 12.6699 6.25395C12.6699 6.45341 12.7236 6.64942 12.8257 6.82214L19.6108 18.3123C19.7129 18.4852 19.86 18.6288 20.037 18.7285C20.214 18.8283 20.4147 18.8808 20.619 18.8805H26.8518C26.9538 18.8802 27.054 18.8538 27.1423 18.8038C27.2305 18.7538 27.3039 18.682 27.3549 18.5957C27.4059 18.5094 27.4328 18.4114 27.433 18.3117C27.4332 18.212 27.4066 18.1139 27.3558 18.0274Z" fill="white"/>
<path d="M0.0802382 27.2326L10.4858 9.61966C10.5369 9.53336 10.6103 9.46173 10.6987 9.41192C10.787 9.36211 10.8871 9.33588 10.9891 9.33588C11.0911 9.33588 11.1913 9.36211 11.2796 9.41192C11.368 9.46173 11.4414 9.53336 11.4924 9.61966L14.6104 14.8925C14.7124 15.0656 14.7662 15.2618 14.7662 15.4615C14.7662 15.6612 14.7124 15.8575 14.6104 16.0305L7.82524 27.5207C7.72348 27.6936 7.5768 27.8372 7.40009 27.9369C7.22337 28.0367 7.0228 28.0891 6.81866 28.0889H0.584331C0.481633 28.0894 0.380634 28.0633 0.2916 28.0133C0.202566 27.9632 0.128684 27.891 0.0774659 27.8041C0.0262474 27.7171 -0.000482183 27.6184 6.5847e-06 27.518C0.000495353 27.4176 0.0281745 27.3192 0.0802382 27.2326Z" fill="white"/>
<path d="M11.491 28.0852H32.3022C32.4042 28.0851 32.5045 28.0587 32.5929 28.0087C32.6812 27.9587 32.7545 27.8869 32.8055 27.8004C32.8564 27.7139 32.8832 27.6159 32.883 27.5161C32.8829 27.4163 32.8558 27.3184 32.8047 27.232L29.6915 21.956C29.5894 21.7831 29.4424 21.6395 29.2654 21.5398C29.0884 21.44 28.8876 21.3876 28.6833 21.3878H15.113C14.9087 21.3876 14.708 21.44 14.531 21.5398C14.354 21.6395 14.207 21.7831 14.1049 21.956L10.9885 27.232C10.9373 27.3184 10.9103 27.4163 10.9102 27.5161C10.91 27.6159 10.9367 27.7139 10.9876 27.8004C11.0385 27.8869 11.1119 27.9587 11.2003 28.0087C11.2886 28.0587 11.3889 28.0851 11.491 28.0852Z" fill="white"/>
</g>
<defs>
<clipPath id="clip0_899_13431">
<rect width="159" height="34" fill="white"/>
</clipPath>
</defs>
</svg>
