<svg width="115" height="58" viewBox="0 0 115 58" fill="none" xmlns="http://www.w3.org/2000/svg">
<path d="M5.28516 52.4825C3.74454 52.4825 2.49609 51.2329 2.49609 49.6922V7.70931C2.49609 6.16812 3.74512 4.9191 5.28516 4.9191C6.8252 4.9191 8.0748 6.1687 8.0748 7.70931V49.6922C8.0748 51.2329 6.82578 52.4825 5.28516 52.4825Z" fill="white"/>
<path d="M5.2864 52.4825C4.24287 52.4825 3.24239 51.8942 2.76425 50.8885C2.10357 49.4971 2.69651 47.8337 4.08904 47.1713L20.9113 39.1892L3.62984 26.4574C2.39 25.543 2.12538 23.7969 3.03919 22.5564C3.953 21.316 5.70026 21.0514 6.93952 21.9652L27.9749 37.4627C28.7653 38.0458 29.1918 38.9998 29.0976 39.9774C29.0035 40.9532 28.4037 41.8084 27.5163 42.2303L6.48032 52.2133C6.09517 52.3953 5.68705 52.4825 5.2864 52.4825Z" fill="white"/>
<path d="M5.28777 35.9805C4.43078 35.9805 3.58586 35.5874 3.03941 34.8446C2.1256 33.6053 2.39021 31.8575 3.63063 30.9443L20.9115 18.2129L4.08925 10.2292C2.69673 9.56851 2.10379 7.90448 2.76389 6.51253C3.42514 5.12001 5.08916 4.52707 6.48054 5.18717L27.5165 15.1713C28.4039 15.5921 29.0037 16.4485 29.0979 17.4248C29.192 18.4018 28.7655 19.3558 27.9751 19.9384L6.93974 35.4364C6.44093 35.8032 5.86177 35.9805 5.28777 35.9805Z" fill="white"/>
<path d="M8.07422 22.8019V34.5994L16.0781 28.7032L8.07422 22.8019Z" fill="white"/>
<path d="M8.07537 17.8549H2.49609V31.4541H8.07537V17.8549Z" fill="white"/>
<path d="M8.0748 7.70931C8.0748 6.16812 6.8252 4.9191 5.28516 4.9191C3.74512 4.9191 2.49609 6.1687 2.49609 7.70931V42.818H8.07537V7.70931H8.0748Z" fill="white"/>
<path d="M44.9768 28.3622C46.7642 28.8696 47.7549 30.4883 47.7549 32.5168C47.7549 35.6813 45.8217 37.1559 43.1888 37.1559H37.1738V20.2453H42.4885C45.0738 20.2453 47.0788 21.4771 47.0788 24.6898C47.0788 26.309 46.402 27.8066 44.9768 28.3622ZM42.5126 27.9512C44.4206 27.9512 45.9669 27.2745 45.9669 24.6656C45.9669 22.0333 44.3735 21.3319 42.4397 21.3319H38.3086V27.9506L42.5126 27.9512ZM43.1164 36.044C45.0485 36.044 46.5949 35.0292 46.5949 32.5168C46.5949 29.8116 44.8316 28.9902 42.6337 28.9902H38.3092V36.0435L43.1164 36.044Z" fill="white"/>
<path d="M59.0602 20.2453V21.2842H54.3982V37.1559H53.2622V21.2842H48.5996V20.2453H59.0602Z" fill="white"/>
<path d="M67.0078 20.0037C69.8835 20.0037 72.4918 21.4525 73.3143 24.9074H72.2266C71.4529 22.0816 69.1827 21.0432 66.9837 21.0432C62.9978 21.0432 60.8964 24.3041 60.8964 28.7009C60.8964 33.3389 62.9978 36.3099 67.0072 36.3099C69.375 36.3099 71.5005 35.248 72.3225 32.1317H73.4102C72.6847 35.7313 69.8347 37.3976 67.0078 37.3976C62.4904 37.3976 59.7852 34.0638 59.7852 28.7015C59.7852 23.555 62.6374 20.0037 67.0078 20.0037Z" fill="white"/>
<path d="M81.9163 20.2453C84.8385 20.2453 86.9646 22.1544 86.9646 25.8498C86.9646 29.3282 84.8385 31.4302 81.9163 31.4302H77.4701V37.1565H76.3594V20.2453H81.9163ZM81.9163 30.3184C84.0659 30.3184 85.8286 28.9425 85.8286 25.8257C85.8286 22.7095 84.1371 21.3089 81.9163 21.3089H77.4701V30.3184H81.9163Z" fill="white"/>
<path d="M87.1562 37.1559V37.0095L93.8956 20.1971H94.4036L101.071 37.0095V37.1559H99.887L97.9802 32.2763H90.2725L88.3645 37.1559H87.1562ZM94.1384 22.2021L90.6605 31.2121H97.5933L94.1384 22.2021Z" fill="white"/>
<path d="M111.099 20.2453H112.306V20.4135L107.039 30.1255V37.1559H105.88V30.1255L100.59 20.3899V20.2453H101.822L104.116 24.5457L106.437 29.0148H106.46L108.803 24.5457L111.099 20.2453Z" fill="white"/>
</svg>
