<svg width="139" height="40" viewBox="0 0 139 40" fill="none" xmlns="http://www.w3.org/2000/svg">
<mask id="mask0_1002_14" style="mask-type:luminance" maskUnits="userSpaceOnUse" x="0" y="0" width="25" height="40">
<path d="M24.1389 0.833344H0.44043V39.1667H24.1389V0.833344Z" fill="white"/>
</mask>
<g mask="url(#mask0_1002_14)">
<path d="M24.139 39.1674H20.0867C17.4593 39.1719 14.8579 38.659 12.4384 37.6597C10.1043 36.6983 7.98382 35.3038 6.19469 33.5536C4.40095 31.808 2.97156 29.7394 1.98584 27.4624C0.961407 25.102 0.435791 22.5642 0.440461 20.0009C0.436113 17.4385 0.961721 14.9017 1.98584 12.5421C2.97142 10.265 4.40082 8.19638 6.19469 6.45089C7.98394 4.70079 10.1044 3.30613 12.4384 2.34429C14.8579 1.34494 17.4593 0.832175 20.0867 0.836669H24.139V7.22494H20.0867C18.3659 7.22041 16.6613 7.54889 15.0714 8.19137C13.4817 8.83386 12.0383 9.77761 10.8248 10.9679C9.60483 12.1518 8.63759 13.5599 7.97908 15.1109C7.32061 16.6619 6.98398 18.3249 6.98866 20.0036C6.98404 21.6824 7.3207 23.3453 7.97917 24.8962C8.63767 26.4472 9.60483 27.8554 10.8248 29.0393C12.0383 30.2294 13.4817 31.173 15.0716 31.8154C16.6614 32.4578 18.366 32.7862 20.0867 32.7817H24.139V39.1674Z" fill="white"/>
<path d="M24.139 26.3988H19.8788C18.1576 26.4036 16.4525 26.0754 14.8621 25.4331C13.2717 24.7908 11.8278 23.8472 10.6136 22.6569C9.39322 21.4727 8.42566 20.0641 7.76699 18.5127C7.10832 16.9612 6.77164 15.2978 6.77642 13.6185C6.7717 11.9393 7.10842 10.2758 7.76708 8.72435C8.42574 7.17295 9.3933 5.76437 10.6136 4.58017C11.8276 3.38952 13.2715 2.44558 14.8619 1.80301C16.4522 1.16042 18.1574 0.831981 19.8788 0.836658H24.139V7.22493H19.8788C18.1412 7.22675 16.4753 7.90093 15.2466 9.09952C14.0179 10.2982 13.3267 11.9233 13.3246 13.6185C13.3271 15.3134 14.0184 16.9382 15.2472 18.1364C16.4758 19.3347 18.1415 20.0087 19.8788 20.0105H24.139V26.3988Z" fill="white"/>
</g>
<path d="M36.917 22.1661V16.9921C36.917 13.3292 39.1153 11.224 43.1759 11.224C44.8985 11.224 46.3273 11.7041 47.4384 12.6432C48.5494 13.5824 49.116 14.9776 49.116 16.8801V17.1091H45.5789V16.8801C45.5789 15.2318 44.4228 14.4761 42.949 14.4761C41.2711 14.4761 40.4322 15.2318 40.4322 16.743V22.4203C40.4322 23.9315 41.2711 24.687 42.949 24.687C44.4678 24.687 45.5789 24.0001 45.5789 22.2831V22.0541H49.116V22.2831C49.116 24.1826 48.5494 25.602 47.4384 26.5411C46.3273 27.4803 44.8985 27.9373 43.1759 27.9373C39.1153 27.9353 36.917 25.834 36.917 22.1661Z" fill="white"/>
<path d="M51.1533 19.7198C51.1533 17.0869 53.0358 15.2812 56.3909 15.2812C59.7461 15.2812 61.6066 17.0899 61.6066 19.7198V23.4057C61.6066 26.0377 59.7472 27.8697 56.3909 27.8697C53.0347 27.8697 51.1533 26.0387 51.1533 23.4057V19.7198ZM58.3863 23.2907V19.8852C58.3863 18.9007 57.6609 18.2137 56.3879 18.2137C55.0501 18.2137 54.3696 18.9461 54.3696 19.8852V23.2959C54.3696 24.2351 55.0501 24.9442 56.3879 24.9442C57.6609 24.9392 58.3863 24.2299 58.3863 23.2907Z" fill="white"/>
<path d="M64.123 27.5938V15.5522H67.3434V27.5938H64.123Z" fill="white"/>
<path d="M70.3896 27.5918V15.5501H72.2261L73.1103 16.6718C73.5683 16.2188 74.1108 15.862 74.7063 15.6222C75.3018 15.3823 75.9385 15.2643 76.5796 15.2747C79.1873 15.2747 80.729 17.038 80.729 19.9685V27.5918H77.5048V20.1511C77.5048 18.8689 76.8243 18.2052 75.849 18.2052C75.0098 18.2052 74.2614 18.5946 73.6039 19.3501V27.5918H70.3896Z" fill="white"/>
<path d="M84.3946 26.6328C83.4424 25.8077 82.9439 24.7555 82.9209 23.4502H86.05C86.25 24.4802 87.0705 24.9845 88.5223 24.9845C89.497 24.9845 90.0869 24.6637 90.0869 24.1372C90.0869 23.7024 89.7462 23.4048 89.0436 23.2212L86.1178 22.4657C84.1909 21.9612 83.2156 20.8859 83.2156 19.2153C83.2156 16.7661 84.9846 15.2812 88.046 15.2812C90.971 15.2812 92.9415 16.9073 93.0348 19.4707H89.9284C89.6784 18.6011 88.9758 18.1662 87.8418 18.1662C86.8425 18.1662 86.3433 18.4638 86.3433 19.0357C86.3433 19.3566 86.6611 19.6088 87.2951 19.7682L90.4243 20.5702C92.2838 21.0503 93.2136 22.1721 93.2136 23.889C93.2136 26.3847 91.2862 27.8727 88.2257 27.8727C86.6399 27.8686 85.3745 27.4561 84.3946 26.6328Z" fill="white"/>
<path d="M95.8672 27.5916V11.5663H102.988C105.822 11.5663 107.522 13.5122 107.522 16.603C107.522 19.694 105.824 21.6167 102.988 21.6167H99.3846V27.5916H95.8672ZM99.382 18.5258H102.329C103.214 18.5258 103.962 17.8853 103.962 16.603C103.962 15.3209 103.214 14.6572 102.329 14.6572H99.3846L99.382 18.5258Z" fill="white"/>
<path d="M117.024 27.5911L116.14 26.4693C115.166 27.4075 113.963 27.8655 112.534 27.8655C111.401 27.8655 110.449 27.5446 109.678 26.9273C108.906 26.2857 108.521 25.3926 108.521 24.248C108.521 21.7533 110.131 20.334 113.328 20.334H115.663V19.6701C115.663 18.6857 115.096 18.2045 113.939 18.2045C112.783 18.2045 112.217 18.5939 112.217 19.3949H109.065C109.065 16.9001 110.744 15.274 113.939 15.274C117.136 15.274 118.883 16.9001 118.883 19.4412V27.5911H117.024ZM115.663 23.9505V22.6229H113.328C112.263 22.6229 111.741 23.0122 111.741 23.8132C111.741 24.5193 112.241 25.0036 113.214 25.0036C114.212 25.0036 115.029 24.6605 115.663 23.9505Z" fill="white"/>
<path d="M121.812 27.5938V15.5522H125.032V27.5938H121.812Z" fill="white"/>
<path d="M136.343 27.5914L135.459 26.4696C134.996 26.9233 134.449 27.2802 133.849 27.5199C133.249 27.7594 132.608 27.877 131.962 27.8657C129.513 27.8657 127.722 26.3526 127.722 23.4474V19.6705C127.722 18.228 128.13 17.1295 128.921 16.396C129.714 15.6415 130.735 15.2743 131.959 15.2743C133.184 15.2743 134.182 15.595 134.956 16.2588V11.4521H138.176V27.5924L136.343 27.5914ZM134.96 23.7903V19.3517C134.211 18.5961 133.418 18.2068 132.625 18.2068C132.402 18.2049 132.181 18.248 131.976 18.3338C131.77 18.4195 131.583 18.5461 131.426 18.706C131.27 18.866 131.147 19.056 131.064 19.2648C130.982 19.4736 130.942 19.697 130.947 19.9217V23.2184C130.942 23.4431 130.982 23.6665 131.064 23.8755C131.147 24.0843 131.27 24.2743 131.426 24.4343C131.583 24.5942 131.77 24.7208 131.975 24.8065C132.181 24.8923 132.402 24.9353 132.625 24.9332C133.418 24.9353 134.211 24.5459 134.96 23.7903Z" fill="white"/>
</svg>
