<svg width="144" height="32" viewBox="0 0 144 32" fill="none" xmlns="http://www.w3.org/2000/svg">
<g clip-path="url(#clip0_1002_4)">
<path fill-rule="evenodd" clip-rule="evenodd" d="M8.23391 0H30.0103C30.5299 0 31.0099 0.277965 31.2691 0.728916L37.6134 11.7696C37.9424 12.3422 37.8447 13.0648 37.3754 13.5291L19.9123 30.8065C19.3467 31.3662 18.4367 31.3662 17.871 30.8065L0.431549 13.5525C-0.0486467 13.0774 -0.138566 12.3337 0.214547 11.7575L6.99617 0.693493C7.26028 0.262602 7.72896 0 8.23391 0ZM27.1986 4.92929V8.02716H20.9954V10.175C25.3521 10.4045 28.6208 11.3472 28.6451 12.4771L28.6449 14.8327C28.6206 15.9626 25.3521 16.9053 20.9954 17.1348V22.4059H16.8763V17.1348C12.5196 16.9053 9.25089 15.9626 9.22669 14.8327L9.22677 12.4771C9.25104 11.3472 12.5196 10.4045 16.8763 10.175V8.02716H10.6731V4.92929H27.1986ZM18.9359 15.5166C23.5852 15.5166 27.4714 14.7195 28.4224 13.6549C27.6159 12.7522 24.6988 12.0418 20.9954 11.8466V14.0955C20.3316 14.1304 19.6425 14.1488 18.9359 14.1488C18.2292 14.1488 17.5401 14.1304 16.8763 14.0955V11.8466C13.1729 12.0418 10.2558 12.7522 9.44929 13.6549C10.4003 14.7195 14.2864 15.5166 18.9359 15.5166Z" fill="white"/>
<path d="M46.1143 5.9909L51.1482 5.42398V10.3137H55.5179V14.5655H51.1132V21.156C51.1132 22.715 51.7658 23.4945 53.0709 23.4945C53.9098 23.4945 54.609 23.3527 55.1683 23.0693L56.3219 27.3212C55.18 27.77 53.9681 28.0298 52.6863 28.1007C50.6588 28.1952 49.0507 27.711 47.8622 26.648C46.6969 25.5614 46.1143 23.7307 46.1143 21.156V14.5655H43.0381V10.3137H46.1143V5.9909Z" fill="white"/>
<path d="M74.3588 20.6243H61.6692C61.8091 21.522 62.2868 22.266 63.1025 22.8566C63.9182 23.4235 65.0018 23.7069 66.3535 23.7069C68.2878 23.7069 69.7793 23.2463 70.8281 22.3251L73.6597 25.514C71.935 27.2384 69.4647 28.1005 66.2486 28.1005C63.1724 28.1005 60.7837 27.262 59.0823 25.5849C57.4044 23.9078 56.5654 21.64 56.5654 18.7818C56.5654 16.089 57.3927 13.9158 59.0474 12.2623C60.702 10.5851 62.9277 9.74658 65.7243 9.74658C68.7773 9.74658 71.1077 10.6914 72.7158 12.5812C74.3471 14.4709 74.8948 17.1519 74.3588 20.6243ZM61.6692 16.9039H69.8493C69.8027 16.0063 69.3831 15.3213 68.5908 14.8489C67.7984 14.3528 66.8429 14.1047 65.7243 14.1047C64.7222 14.1047 63.8599 14.3528 63.1375 14.8489C62.415 15.3449 61.9256 16.0299 61.6692 16.9039Z" fill="white"/>
<path d="M78.5548 5.9909L83.589 5.42398V10.3137H87.9581V14.5655H83.5538V21.156C83.5538 22.715 84.2063 23.4945 85.5113 23.4945C86.3503 23.4945 87.0496 23.3527 87.6085 23.0693L88.762 27.3212C87.6202 27.77 86.4089 28.0298 85.1265 28.1007C83.0996 28.1952 81.491 27.711 80.3023 26.648C79.1371 25.5614 78.5548 23.7307 78.5548 21.156V14.5655H75.4785V10.3137H78.5548V5.9909Z" fill="white"/>
<path d="M90.6514 2.90814H95.7199V12.3686C96.9554 10.7387 98.7029 9.92376 100.964 9.92376C105.555 9.92376 107.85 12.7229 107.85 18.3213V27.7108H102.817V18.3567C102.817 17.1519 102.513 16.2189 101.908 15.5575C101.325 14.8961 100.532 14.5654 99.5302 14.5654C98.4352 14.5654 97.5142 14.9433 96.7688 15.6992C96.0461 16.4551 95.6847 17.5063 95.6847 18.8527V27.7108H90.6514V2.90814Z" fill="white"/>
<path d="M127.592 20.6243H114.902C115.042 21.522 115.52 22.266 116.335 22.8566C117.151 23.4235 118.235 23.7069 119.587 23.7069C121.521 23.7069 123.012 23.2463 124.061 22.3251L126.893 25.514C125.168 27.2384 122.698 28.1005 119.482 28.1005C116.406 28.1005 114.017 27.262 112.315 25.5849C110.637 23.9078 109.799 21.64 109.799 18.7818C109.799 16.089 110.626 13.9158 112.281 12.2623C113.935 10.5851 116.161 9.74658 118.957 9.74658C122.01 9.74658 124.341 10.6914 125.949 12.5812C127.58 14.4709 128.128 17.1519 127.592 20.6243ZM114.902 16.9039H123.082C123.036 16.0063 122.616 15.3213 121.824 14.8489C121.032 14.3528 120.076 14.1047 118.957 14.1047C117.955 14.1047 117.093 14.3528 116.371 14.8489C115.648 15.3449 115.158 16.0299 114.902 16.9039Z" fill="white"/>
<path d="M129.68 10.2427H134.364L134.749 12.1559C135.844 10.5969 137.382 9.81744 139.363 9.81744C140.994 9.81744 142.404 10.349 143.593 11.4119L141.495 15.4512C140.68 14.8606 139.759 14.5654 138.734 14.5654C137.592 14.5654 136.636 14.9315 135.867 15.6638C135.099 16.3724 134.714 17.3527 134.714 18.6046V27.7108H129.68V10.2427Z" fill="white"/>
</g>
<defs>
<clipPath id="clip0_1002_4">
<rect width="143.61" height="32" fill="white"/>
</clipPath>
</defs>
</svg>
