<svg width="48" height="48" viewBox="0 0 48 48" fill="none" xmlns="http://www.w3.org/2000/svg">
<rect width="48" height="48" fill="black"/>
<path d="M30 28.98H24.01C22.91 28.98 22.06 29.92 21.53 30.88C21.1105 31.6672 20.4398 32.2917 19.6246 32.654C18.8095 33.0163 17.8966 33.0957 17.0311 32.8796C16.1656 32.6635 15.3972 32.1643 14.8479 31.4614C14.2987 30.7584 14.0003 29.8921 14 29C14.01 28.3 14.2 27.6 14.57 27" stroke="white" stroke-width="2" stroke-linecap="round" stroke-linejoin="round"/>
<path d="M18 28.9999L21.13 23.2199C21.66 22.2499 21.23 21.0399 20.63 20.1199C20.3468 19.667 20.1572 19.162 20.0724 18.6346C19.9875 18.1073 20.0091 17.5683 20.136 17.0494C20.2628 16.5305 20.4923 16.0423 20.8109 15.6136C21.1295 15.1848 21.5307 14.8242 21.9909 14.5531C22.4511 14.2819 22.9609 14.1056 23.4903 14.0347C24.0197 13.9638 24.558 13.9996 25.0733 14.14C25.5887 14.2805 26.0707 14.5227 26.4909 14.8525C26.9111 15.1822 27.261 15.5928 27.52 16.0599" stroke="white" stroke-width="2" stroke-linecap="round" stroke-linejoin="round"/>
<path d="M24 18L27.13 23.73C27.66 24.7 28.9 25 30 25C31.0609 25 32.0783 25.4214 32.8284 26.1716C33.5786 26.9217 34 27.9391 34 29C34 30.0609 33.5786 31.0783 32.8284 31.8284C32.0783 32.5786 31.0609 33 30 33" stroke="white" stroke-width="2" stroke-linecap="round" stroke-linejoin="round"/>
</svg>
