<svg width="20" height="20" viewBox="0 0 20 20" fill="none" xmlns="http://www.w3.org/2000/svg">
<g clip-path="url(#clip0_553_750)">
<path d="M19.5667 11.325L9.075 0.833333C8.52036 0.334371 7.81163 0.0402931 7.06667 0L1.66667 0C1.22535 0.00186066 0.802792 0.178677 0.491667 0.491667C0.178677 0.802792 0.00186066 1.22535 0 1.66667L0 7.075C0.0284149 7.82261 0.324104 8.53523 0.833333 9.08333L11.325 19.5667C11.4504 19.7002 11.6013 19.8073 11.7688 19.8818C11.9362 19.9562 12.1168 19.9964 12.3 20C12.3996 20.0123 12.5004 20.0123 12.6 20C12.8262 19.9349 13.0317 19.8124 13.1967 19.6445C13.3617 19.4766 13.4805 19.269 13.5417 19.0417L14.75 15C14.7718 14.9431 14.8053 14.8914 14.8483 14.8483C14.8914 14.8053 14.9431 14.7718 15 14.75L18.975 13.5417C19.2055 13.4888 19.4169 13.3733 19.5859 13.2079C19.7549 13.0425 19.8749 12.8336 19.9327 12.6042C19.9905 12.3749 19.9837 12.1341 19.9133 11.9084C19.8428 11.6826 19.7113 11.4807 19.5333 11.325H19.5667ZM5 6.24167C4.75207 6.24331 4.50925 6.1712 4.30242 6.03448C4.09559 5.89776 3.93408 5.70263 3.83844 5.47388C3.7428 5.24514 3.71734 4.99312 3.76531 4.74987C3.81327 4.50662 3.9325 4.28313 4.10781 4.10781C4.28313 3.9325 4.50662 3.81327 4.74987 3.76531C4.99312 3.71734 5.24514 3.7428 5.47388 3.83844C5.70263 3.93408 5.89776 4.09559 6.03448 4.30242C6.1712 4.50925 6.24331 4.75207 6.24167 5C6.23948 5.32864 6.10796 5.64319 5.87558 5.87558C5.64319 6.10796 5.32864 6.23948 5 6.24167Z" fill="white"/>
</g>
<defs>
<clipPath id="clip0_553_750">
<rect width="20" height="20" fill="white"/>
</clipPath>
</defs>
</svg>
